<svg xmlns="http://www.w3.org/2000/svg" xmlns:xlink="http://www.w3.org/1999/xlink" width="734.819" height="402.447" viewBox="0 0 734.819 402.447"><defs><clipPath id="a"><rect x="19" y="157" width="733.969" height="402.447" fill="none"/></clipPath></defs><g transform="translate(-29.74 -63.095)"><g transform="translate(11.59 -93.905)" clip-path="url(#a)" style="isolation:isolate"><g transform="matrix(0.788, 0.616, -0.616, 0.788, 294.303, 0)"><path d="M586.7,81.891l-3.428-5.663C554.355,28.455,500.077-1.506,441.582.058A166.787,166.787,0,0,0,419.148,2.2c-53.4,8.859-100.882,44.631-121.724,91.689-12.25,27.682-16.553,59.867-38.729,81.441-28.817,28.086-76.024,27.507-117.449,25S52.585,197.337,23.9,225.545C5.938,243.209-.488,268.935.029,293.368c1.434,64.721,47.78,123.968,108.4,154.617S241.54,483.5,309.459,473.01c95.158-14.7,186.774-60.42,243.491-133.717S627.037,164.235,586.7,81.891Z" transform="translate(0 0)" fill="#ebebeb"/></g></g><path d="M379.62,307l-6.05-17.81-20.29-16.67-42.94-17.08-65-3.79L216.18,386.31s-12.41,67.14-13.59,77.19c-.16,1.32,153.78,1.15,153.78,1.15L340,425.21l31.28-76.62Z" fill="#263238"/><path d="M205.63,267.21c-8.94,11-70.34,77.18-72.23,81.16s-16,28.73-7.19,40.22l10.61,15L162,370c-.32,1.28,70.12-57.33,70.12-57.33l13.23-61.08S216.36,254,205.63,267.21Zm-43.5,102.38C162.13,369.45,162.18,369.39,162.13,369.59Z" fill="#263238"/><path d="M289.91,395.36a2.847,2.847,0,0,1-.32-.38l-.84-1.13c-.35-.5-.79-1.11-1.34-1.78s-1.12-1.48-1.85-2.29-1.48-1.75-2.37-2.68-1.84-1.9-2.87-2.91a73.57,73.57,0,0,0-7.22-6,72.488,72.488,0,0,0-8-4.93c-1.29-.65-2.5-1.29-3.68-1.8s-2.27-1-3.29-1.39-2-.72-2.76-1-1.53-.53-2.12-.7l-1.34-.43a2.059,2.059,0,0,1-.46-.19,2.807,2.807,0,0,1,.49.09l1.37.34c.6.14,1.32.34,2.15.61a27.815,27.815,0,0,1,2.8,1c1.02.45,2.16.8,3.33,1.34s2.43,1.12,3.73,1.76a63.89,63.89,0,0,1,15.3,11c1,1,2,2,2.86,3s1.65,1.88,2.34,2.73,1.27,1.66,1.79,2.35.95,1.32,1.28,1.84l.75,1.19a2.242,2.242,0,0,1,.27.36Z" fill="#263238"/><path d="M422.71,196.21c5.39-3.78,7-11.6,4.64-17.77S419.57,167.7,413.56,165s-12.61-3.75-19.11-4.79a21,21,0,0,0-36.26-9.75,13.36,13.36,0,0,0-22.85,6l19,24.78-4,65c3.49,11.87,16.5,20.1,28.72,18.17s22.06-13.76,21.73-26.12a22,22,0,0,0,6.84-2.22,22.58,22.58,0,0,0,16.35-6C433.15,221.24,432.51,204.38,422.71,196.21Z" fill="#263238"/><path d="M341.84,284.4c3.5-8.72,5.89-14.7,5.87-14.64s18.25,3.83,30.51-17.15c6.1-10.43,12.65-28.89,17.52-44.16,4.38-13.74,1.91-33.67-12-37.47l-45.86-5.71c-4.23-1.15-7,1.73-8.49,5.84l-1.09,1.78-23,64.81-10.61,28.75a25.23,25.23,0,0,0,13.12,31.43h0a25.25,25.25,0,0,0,34.03-13.48Z" fill="#ffbe9d"/><path d="M381,220.7a3.08,3.08,0,0,1-3.89,1.81,2.94,2.94,0,0,1-1.95-3.74A3.09,3.09,0,0,1,379,217,3,3,0,0,1,381,220.7Z" fill="#263238"/><path d="M387.72,217c-.5.23-2.05-2.22-5.14-3.42s-5.95-.53-6.14-1c-.1-.23.53-.76,1.79-1.1a8.5,8.5,0,0,1,5.1.38,8,8,0,0,1,3.91,3.18C387.9,216.06,388,216.86,387.72,217Z" fill="#263238"/><path d="M350.22,210a3.07,3.07,0,0,1-3.89,1.82,3,3,0,0,1-1.95-3.74,3.08,3.08,0,0,1,3.89-1.82,2.94,2.94,0,0,1,1.95,3.74Z" fill="#263238"/><path d="M357.27,206.26c-.51.23-2-2.22-5.14-3.42s-5.95-.53-6.14-1c-.1-.23.52-.76,1.79-1.1a8.57,8.57,0,0,1,5.1.37,8.08,8.08,0,0,1,3.9,3.19C357.45,205.36,357.51,206.16,357.27,206.26Z" fill="#263238"/><path d="M359.8,232.41c.06-.18,2.11.23,5.37,1,.82.23,1.63.36,2-.12a4.26,4.26,0,0,0,.38-2.54v-6.91c.1-9.81.49-17.75.88-17.74s.64,8,.55,17.77q-.06,3.61-.12,6.9a4.92,4.92,0,0,1-.79,3.26,2.12,2.12,0,0,1-1.75.64,5.521,5.521,0,0,1-1.41-.33C361.69,233.33,359.75,232.59,359.8,232.41Z" fill="#263238"/><path d="M347.71,269.76a61,61,0,0,1-26.84-19.66s1.4,18.73,24.6,25.36Z" fill="#eb996e"/><path d="M361.28,196.7c-.66.69-3.51-1-7.26-2.18s-7-1.45-7.19-2.4c-.05-.44.79-1,2.3-1.28a12.67,12.67,0,0,1,5.91.47,12.54,12.54,0,0,1,5.1,3C361.21,195.43,361.58,196.36,361.28,196.7Z" fill="#263238"/><path d="M390.29,208.86c-.92.45-3.15-1.26-6.16-2.47s-5.77-1.71-6.07-2.67c-.12-.46.55-1,1.93-1.23a10.53,10.53,0,0,1,5.48.81,10.25,10.25,0,0,1,4.38,3.33C390.64,207.77,390.71,208.62,390.29,208.86Z" fill="#263238"/><path d="M355,157.77a16.43,16.43,0,0,0,12.12,22.17c3.66.72,8.07.46,10.32,3.44,2.35,3.13.64,7.87,2.46,11.34,2.6,5,10.12,4.21,14.54,7.66,3.41,2.66,4.38,7.3,5.73,11.41s4,8.57,8.34,8.94A48.5,48.5,0,0,0,411,211.82a16.39,16.39,0,0,0-2.56-10.69c-1.19-1.67-2.8-3-3.81-4.81-2.19-3.84-1.17-8.64-1.73-13a18,18,0,0,0-9.44-13.47c-4.22-2.18-9.27-2.63-13.13-5.39-2.85-2.05-4.81-5.19-7.78-7.05-5.79-3.64-13.36-1.44-19.64,1.25" fill="#263238"/><path d="M371.47,174.51c-2.48-1.9-7.51-6-8.05-9-1.2-6.56-5.54-12.42-11.54-14.4a15.17,15.17,0,0,0-17.11,6.18c-7.13-2.74-15.82-1-21.87,4.39a25.3,25.3,0,0,0-8,22.16,45.452,45.452,0,0,1,.17,6.3,36.87,36.87,0,0,0-6.47,2.8c-10.2,6.51-1.18,17.45-1.18,17.45-4,6.22,1.72,9.93,5.4,12.31s-.67,13.5,2.43,15l16.84-32.13a4.4,4.4,0,0,0,1.18,1.11c6.84,4.65,13.58-9.63,13.55-14.48a46.611,46.611,0,0,0,10.64-5c3.28-2.26,8.38-9.89,9.41-13.83C359.55,174.63,372.56,175.35,371.47,174.51Z" fill="#263238"/><path d="M322.11,207.84c1.63-4.84-2.31-10.05-7.36-9.28-2.78.42-5.54,2.37-7.31,7.5-4.73,13.68,10,15.6,10.14,15.21C317.68,221,320.2,213.52,322.11,207.84Z" fill="#ffbe9d"/><path d="M315.19,214.65c-.05-.07-.3.08-.76.13a2.56,2.56,0,0,1-1.8-.58c-1.26-1-1.68-3.74-.9-6.23a8.37,8.37,0,0,1,1.85-3.18,2.87,2.87,0,0,1,2.42-1.21,1.27,1.27,0,0,1,1.18,1.14c.05.44-.13.68-.06.73s.37-.12.45-.73a1.58,1.58,0,0,0-.24-1,1.88,1.88,0,0,0-1.19-.8,3.54,3.54,0,0,0-3.23,1.26,8.541,8.541,0,0,0-2.14,3.52c-.86,2.79-.34,5.86,1.44,7.11a2.7,2.7,0,0,0,2.3.39C315.05,215,315.23,214.69,315.19,214.65Z" fill="#eb996e"/><path d="M395.87,232.58a42.306,42.306,0,0,0,4.3-1,20.65,20.65,0,0,0,9.63-6.74,20,20,0,0,0,3.76-7.19,17.31,17.31,0,0,0,.06-9.21A20.48,20.48,0,0,0,399,194.23c-.66-.18-1.35-.24-2-.36a16.523,16.523,0,0,0-2-.12l-1-.07.52-.81a7.08,7.08,0,0,0,1-4.8,11.17,11.17,0,0,0-1.79-4.61,14.84,14.84,0,0,0-7.47-5.69c-5.78-2.15-11.56-2.64-15.9-4.81s-7-5.26-7.91-7.77a8.73,8.73,0,0,1-.6-3,4,4,0,0,1,.11-1.06,12.89,12.89,0,0,0,.88,3.89c1,2.35,3.63,5.29,7.85,7.23A38,38,0,0,0,378,174.5a66.275,66.275,0,0,1,8.65,2.31,19.15,19.15,0,0,1,4.39,2.28,15.07,15.07,0,0,1,3.62,3.76,12.18,12.18,0,0,1,2,5.07,8.13,8.13,0,0,1-1.19,5.57l-.47-.88c.68,0,1.39.06,2.1.13a12.466,12.466,0,0,1,2.15.39,21.41,21.41,0,0,1,15.4,15.06,18.22,18.22,0,0,1-.17,9.74,20.69,20.69,0,0,1-4.05,7.44A20.37,20.37,0,0,1,400.3,232a14,14,0,0,1-3.27.56,4.281,4.281,0,0,1-1.16.02Z" fill="#455a64"/><path d="M420.43,189.75a15.941,15.941,0,0,0-2.94-3.77,11.89,11.89,0,0,0-4.76-2.53,10.56,10.56,0,0,0-6.82.35l-.87.35.2-.91a16.38,16.38,0,0,0-5.73-15.54c-3.72-3.08-8.55-3.66-12.73-3.9s-8.17-.27-11.35-1.15a15.93,15.93,0,0,1-6.92-3.43,9.88,9.88,0,0,1-1.4-1.59c-.27-.4-.39-.62-.36-.64s.66.77,2,1.89a16.72,16.72,0,0,0,6.82,3c3.11.75,6.93.74,11.22.89a33.94,33.94,0,0,1,6.75.84,16.6,16.6,0,0,1,6.64,3.22,17.232,17.232,0,0,1,6,16.63l-.66-.56a11.28,11.28,0,0,1,7.41-.21,12,12,0,0,1,4.93,2.88,10.331,10.331,0,0,1,2.15,3A3.68,3.68,0,0,1,420.43,189.75Z" fill="#455a64"/><path d="M354.48,237.41a4.7,4.7,0,0,0-2.6-3,5.59,5.59,0,0,0-4.54.24h-.09a.445.445,0,0,0-.2.09h.07a2.69,2.69,0,0,0-1.25,1.15,3.93,3.93,0,0,0,.3,3.71,5,5,0,0,0,5.23,2.4,4.08,4.08,0,0,0,3.08-4.59Z" fill="#ff725e"/><path d="M348.15,231.6c.19.06,0,.84.1,2.05a7.63,7.63,0,0,0,5.17,7c1.13.42,1.92.49,1.93.68s-.82.42-2.17.18a7.2,7.2,0,0,1-5.83-7.87C347.52,232.26,348,231.54,348.15,231.6Z" fill="#263238"/><path d="M313.69,221.32c.13,0-.07,1.26-1.66,2.19a4.4,4.4,0,0,1-3.09.49,4.51,4.51,0,0,1-2.92-6.36,4.4,4.4,0,0,1,2.38-2c1.75-.6,2.83.07,2.75.16a6.388,6.388,0,0,0-2.43.57,3.93,3.93,0,0,0-1.77,1.77,3.65,3.65,0,0,0,2.23,4.87,4,4,0,0,0,2.49-.2C313.08,222.2,313.53,221.22,313.69,221.32Z" fill="#ff725e"/><path d="M294.94,343.65a26.775,26.775,0,0,1-.83-2.73,38.812,38.812,0,0,0-2.57-6.34,38.173,38.173,0,0,0-3.7-5.76,27.607,27.607,0,0,1-1.75-2.25,10.809,10.809,0,0,1,2,2,30.9,30.9,0,0,1,3.87,5.75,29.75,29.75,0,0,1,2.46,6.48,11,11,0,0,1,.52,2.85Z" fill="#fafafa"/><path d="M285.49,323.74a12.32,12.32,0,0,1,2.18,4.58,12.74,12.74,0,0,1-2.18-4.58Z" fill="#fafafa"/><path d="M284.36,324.79c.12-.09.77.55,1.58,1.33s1.47,1.41,1.39,1.53-.92-.35-1.75-1.16S284.25,324.87,284.36,324.79Z" fill="#fafafa"/><path d="M283.58,326.3c.06-.14,1,.15,2.07.63a5.205,5.205,0,0,1,1.85,1.1,5.124,5.124,0,0,1-2.07-.63C284.36,326.92,283.52,326.43,283.58,326.3Z" fill="#fafafa"/><path d="M283.47,328.13c0-.15.85-.25,1.9-.23s1.9.15,1.89.3-.85.24-1.9.22S283.46,328.27,283.47,328.13Z" fill="#fafafa"/><path d="M285.6,334.1a2.38,2.38,0,0,1,1.27-.29,7.08,7.08,0,0,1,5.65,2.45c.52.62.71,1.09.65,1.13a12.36,12.36,0,0,0-3.4-2.53A12.671,12.671,0,0,0,285.6,334.1Z" fill="#fafafa"/><path d="M283.55,332.6c0-.13.87,0,1.78.49s1.52,1.06,1.44,1.17-.8-.26-1.67-.71S283.5,332.74,283.55,332.6Z" fill="#fafafa"/><path d="M283,334.07a2.361,2.361,0,0,1,1.78-.41c1.03.06,1.78.49,1.73.62s-.82,0-1.76-.1S283,334.21,283,334.07Z" fill="#fafafa"/><path d="M283.41,336.07c-.09-.12.44-.63,1.17-1.13s1.38-.82,1.46-.7-.44.62-1.17,1.13S283.49,336.19,283.41,336.07Z" fill="#fafafa"/><path d="M285.49,336.47c-.14,0-.09-.67.1-1.41s.46-1.3.6-1.27.1.67-.1,1.41S285.63,336.5,285.49,336.47Z" fill="#fafafa"/><path d="M293.73,328.33a14.41,14.41,0,0,0-.64,8.22A8.12,8.12,0,0,1,293.73,328.33Z" fill="#fafafa"/><path d="M291.7,325.35c.12-.07.65.68,1.06,1.73s.55,2,.41,2a5.394,5.394,0,0,1-.89-1.81C291.88,326.25,291.57,325.41,291.7,325.35Z" fill="#fafafa"/><path d="M294.58,325.29c.14.06-.07.87-.35,1.86s-.55,1.8-.69,1.77-.11-.89.19-1.91S294.45,325.24,294.58,325.29Z" fill="#fafafa"/><path d="M296.86,327.48c0,.15-.67.42-1.47.84s-1.44.85-1.54.74.41-.74,1.29-1.2S296.84,327.35,296.86,327.48Z" fill="#fafafa"/><path d="M296.37,330.07c-.09.13-.68-.16-1.44-.25s-1.41,0-1.46-.13.62-.51,1.52-.39S296.46,330,296.37,330.07Z" fill="#fafafa"/><path d="M281.49,286.76c-.08,0-.31-1.05-.82-2.73a38.08,38.08,0,0,0-2.58-6.34,37.449,37.449,0,0,0-3.69-5.76c-1.08-1.39-1.82-2.2-1.76-2.25a10.57,10.57,0,0,1,2,2A30.57,30.57,0,0,1,281,283.93,10.681,10.681,0,0,1,281.49,286.76Z" fill="#fafafa"/><path d="M272.05,266.85a6.39,6.39,0,0,1,1.32,2.17,6.29,6.29,0,0,1,.86,2.41,6.62,6.62,0,0,1-1.33-2.18,6.36,6.36,0,0,1-.85-2.4Z" fill="#fafafa"/><path d="M270.92,267.9c.11-.09.77.55,1.58,1.33s1.47,1.41,1.38,1.53-.91-.35-1.74-1.16S270.81,268,270.92,267.9Z" fill="#fafafa"/><path d="M270.14,269.4a4.72,4.72,0,0,1,2.06.64,5.09,5.09,0,0,1,1.85,1.1,4.62,4.62,0,0,1-2.06-.63C270.91,270,270.08,269.54,270.14,269.4Z" fill="#fafafa"/><path d="M270,271.24c0-.15.86-.25,1.91-.23s1.89.15,1.89.3-.86.24-1.9.22S270,271.38,270,271.24Z" fill="#fafafa"/><path d="M272.16,277.21a2.418,2.418,0,0,1,1.27-.29,7.07,7.07,0,0,1,5.64,2.45c.52.62.71,1.09.66,1.12a12.84,12.84,0,0,0-3.41-2.52,12.6,12.6,0,0,0-4.16-.76Z" fill="#fafafa"/><path d="M270.1,275.71c0-.14.88,0,1.79.49s1.52,1.06,1.44,1.17-.8-.26-1.68-.71S270.06,275.85,270.1,275.71Z" fill="#fafafa"/><path d="M269.51,277.18c-.05-.13.75-.47,1.78-.41s1.78.49,1.72.62-.81-.05-1.75-.1S269.54,277.32,269.51,277.18Z" fill="#fafafa"/><path d="M270,279.18c-.08-.12.44-.63,1.17-1.13s1.39-.82,1.47-.7-.44.62-1.17,1.13S270,279.3,270,279.18Z" fill="#fafafa"/><path d="M272.05,279.58c-.14,0-.1-.67.1-1.41s.46-1.3.6-1.27.09.67-.1,1.4S272.19,279.61,272.05,279.58Z" fill="#fafafa"/><path d="M280.28,271.44a25.422,25.422,0,0,0-.92,4.06,24.9,24.9,0,0,0,.29,4.16,8.09,8.09,0,0,1,.63-8.22Z" fill="#fafafa"/><path d="M278.26,268.45c.12-.06.65.69,1.06,1.74s.54,2,.4,2a5.477,5.477,0,0,1-.88-1.81C278.44,269.36,278.13,268.52,278.26,268.45Z" fill="#fafafa"/><path d="M281.14,268.4c.13.06-.07.87-.36,1.86s-.54,1.8-.68,1.77-.11-.89.18-1.91S281,268.35,281.14,268.4Z" fill="#fafafa"/><path d="M283.42,270.59c0,.15-.67.41-1.48.84s-1.43.84-1.53.74.41-.74,1.29-1.2S283.4,270.45,283.42,270.59Z" fill="#fafafa"/><path d="M282.92,273.18c-.08.13-.67-.16-1.44-.25s-1.41,0-1.46-.14.62-.5,1.53-.38S283,273.08,282.92,273.18Z" fill="#fafafa"/><path d="M194.11,327.2a27.655,27.655,0,0,1-.82-2.73,38.43,38.43,0,0,0-2.58-6.34,38,38,0,0,0-3.69-5.76,27.373,27.373,0,0,1-1.76-2.25,10.519,10.519,0,0,1,2,2,30.11,30.11,0,0,1,6.34,12.23,10.73,10.73,0,0,1,.51,2.85Z" fill="#fafafa"/><path d="M184.67,307.29a6.38,6.38,0,0,1,1.32,2.18,6.28,6.28,0,0,1,.86,2.4,6.49,6.49,0,0,1-1.33-2.18,6.36,6.36,0,0,1-.85-2.4Z" fill="#fafafa"/><path d="M183.54,308.34c.11-.09.77.55,1.58,1.33s1.47,1.42,1.38,1.53-.91-.35-1.74-1.16S183.43,308.43,183.54,308.34Z" fill="#fafafa"/><path d="M182.76,309.85a4.619,4.619,0,0,1,2.06.63,4.883,4.883,0,0,1,1.85,1.11,4.75,4.75,0,0,1-2.06-.64C183.53,310.47,182.7,310,182.76,309.85Z" fill="#fafafa"/><path d="M182.64,311.68c0-.14.86-.25,1.91-.23s1.89.15,1.89.3-.85.24-1.9.22S182.64,311.82,182.64,311.68Z" fill="#fafafa"/><path d="M184.78,317.65a2.418,2.418,0,0,1,1.27-.29,7,7,0,0,1,3.1.58,6.87,6.87,0,0,1,2.54,1.87c.52.63.71,1.1.66,1.13a12.409,12.409,0,0,0-3.4-2.52,12.54,12.54,0,0,0-4.17-.77Z" fill="#fafafa"/><path d="M182.72,316.15c.05-.13.88,0,1.79.49s1.52,1.06,1.44,1.17-.8-.26-1.68-.71S182.68,316.29,182.72,316.15Z" fill="#fafafa"/><path d="M182.13,317.62a2.361,2.361,0,0,1,1.78-.41c1.03.06,1.78.49,1.72.62s-.81-.05-1.75-.1S182.16,317.76,182.13,317.62Z" fill="#fafafa"/><path d="M182.58,319.62c-.08-.12.44-.62,1.17-1.13s1.39-.82,1.47-.7-.44.62-1.17,1.13S182.66,319.74,182.58,319.62Z" fill="#fafafa"/><path d="M184.67,320c-.14,0-.1-.67.1-1.4s.46-1.31.6-1.27.1.66-.1,1.4S184.81,320.05,184.67,320Z" fill="#fafafa"/><path d="M192.91,311.88a23.912,23.912,0,0,0-.93,4.06,24.773,24.773,0,0,0,.29,4.16A8.06,8.06,0,0,1,192.91,311.88Z" fill="#fafafa"/><path d="M190.88,308.9c.12-.07.65.69,1.06,1.74a3.62,3.62,0,0,1,.41,2c-.15,0-.49-.79-.89-1.8S190.75,309,190.88,308.9Z" fill="#fafafa"/><path d="M193.76,308.84c.14.06-.07.88-.36,1.87s-.54,1.79-.68,1.76-.11-.89.18-1.91S193.63,308.79,193.76,308.84Z" fill="#fafafa"/><path d="M196,311c0,.15-.67.42-1.48.84s-1.43.85-1.53.74.41-.74,1.29-1.2A2.487,2.487,0,0,1,196,311Z" fill="#fafafa"/><path d="M195.54,313.63c-.08.12-.67-.16-1.44-.26s-1.4,0-1.45-.13.61-.51,1.52-.38S195.63,313.52,195.54,313.63Z" fill="#fafafa"/><path d="M145.74,380.56a24.634,24.634,0,0,1-.83-2.74,38,38,0,0,0-2.58-6.33,37.451,37.451,0,0,0-3.69-5.76,26.3,26.3,0,0,1-1.76-2.26,10.91,10.91,0,0,1,2,2,30.24,30.24,0,0,1,6.34,12.24,11.6,11.6,0,0,1,.52,2.85Z" fill="#fafafa"/><path d="M136.29,360.65a6.5,6.5,0,0,1,1.33,2.17,6.41,6.41,0,0,1,.85,2.4,12.17,12.17,0,0,1-2.18-4.57Z" fill="#fafafa"/><path d="M135.16,361.69c.11-.09.77.56,1.58,1.34s1.47,1.41,1.38,1.53-.91-.35-1.74-1.16S135.05,361.78,135.16,361.69Z" fill="#fafafa"/><path d="M134.38,363.2a4.62,4.62,0,0,1,2.06.63,4.883,4.883,0,0,1,1.85,1.11,4.66,4.66,0,0,1-2.06-.63C135.15,363.83,134.32,363.33,134.38,363.2Z" fill="#fafafa"/><path d="M134.26,365c0-.15.86-.25,1.91-.23s1.89.15,1.89.29-.85.25-1.9.23S134.26,365.18,134.26,365Z" fill="#fafafa"/><path d="M136.4,371a2.361,2.361,0,0,1,1.27-.3,7.11,7.11,0,0,1,5.65,2.45c.51.63.7,1.1.65,1.13a12.409,12.409,0,0,0-3.4-2.52,12.079,12.079,0,0,0-4.17-.76Z" fill="#fafafa"/><path d="M134.34,369.51c0-.14.88,0,1.79.49s1.52,1.05,1.44,1.17-.8-.26-1.68-.71S134.3,369.65,134.34,369.51Z" fill="#fafafa"/><path d="M133.75,371c0-.14.75-.48,1.78-.41s1.78.49,1.72.61a5.361,5.361,0,0,1-1.75-.09A10.141,10.141,0,0,1,133.75,371Z" fill="#fafafa"/><path d="M134.2,373c-.08-.12.44-.63,1.17-1.13s1.39-.82,1.47-.7-.44.62-1.17,1.12S134.28,373.09,134.2,373Z" fill="#fafafa"/><path d="M136.29,373.37c-.14,0-.09-.66.1-1.4s.46-1.31.6-1.27.1.66-.1,1.4S136.43,373.41,136.29,373.37Z" fill="#fafafa"/><path d="M144.53,365.24a23.611,23.611,0,0,0-.93,4.06,24.579,24.579,0,0,0,.29,4.15,8,8,0,0,1,.64-8.21Z" fill="#fafafa"/><path d="M142.5,362.25c.12-.06.65.69,1.06,1.74a3.55,3.55,0,0,1,.41,2,5.393,5.393,0,0,1-.89-1.81C142.68,363.16,142.37,362.32,142.5,362.25Z" fill="#fafafa"/><path d="M145.38,362.2c.14.05-.07.87-.36,1.86s-.54,1.79-.68,1.77-.11-.89.18-1.91S145.25,362.14,145.38,362.2Z" fill="#fafafa"/><path d="M147.66,364.39c0,.14-.67.41-1.48.84s-1.43.84-1.53.73.41-.74,1.29-1.19S147.64,364.25,147.66,364.39Z" fill="#fafafa"/><path d="M147.16,367c-.08.12-.67-.16-1.44-.25s-1.4,0-1.45-.14.61-.5,1.52-.38S147.25,366.88,147.16,367Z" fill="#fafafa"/><path d="M236.43,440.52a24.651,24.651,0,0,1-.82-2.73,38.079,38.079,0,0,0-2.58-6.34,37.449,37.449,0,0,0-3.69-5.76c-1.08-1.39-1.82-2.2-1.76-2.25a10.152,10.152,0,0,1,2,2A30.439,30.439,0,0,1,236,437.69a10.681,10.681,0,0,1,.43,2.83Z" fill="#fafafa"/><path d="M227,420.61a6.38,6.38,0,0,1,1.32,2.18,6.219,6.219,0,0,1,.86,2.4,6.62,6.62,0,0,1-1.33-2.18A6.36,6.36,0,0,1,227,420.61Z" fill="#fafafa"/><path d="M225.86,421.66c.11-.09.77.55,1.58,1.33s1.47,1.41,1.38,1.53-.91-.35-1.74-1.16S225.75,421.74,225.86,421.66Z" fill="#fafafa"/><path d="M225.08,423.16a4.719,4.719,0,0,1,2.06.64,5.09,5.09,0,0,1,1.85,1.1,4.66,4.66,0,0,1-2.06-.63C225.85,423.79,225,423.3,225.08,423.16Z" fill="#fafafa"/><path d="M225,425c0-.15.86-.25,1.91-.23s1.89.15,1.89.3-.85.24-1.9.22S225,425.14,225,425Z" fill="#fafafa"/><path d="M227.1,431a2.418,2.418,0,0,1,1.27-.29,7.07,7.07,0,0,1,5.64,2.45c.52.62.71,1.09.66,1.12a12.84,12.84,0,0,0-3.41-2.52A12.6,12.6,0,0,0,227.1,431Z" fill="#fafafa"/><path d="M225,429.47c.05-.14.88,0,1.79.49s1.52,1.06,1.44,1.17-.8-.26-1.68-.71S225,429.61,225,429.47Z" fill="#fafafa"/><path d="M224.45,430.94a2.361,2.361,0,0,1,1.78-.41c1.03.06,1.78.49,1.72.62s-.81,0-1.75-.1S224.48,431.08,224.45,430.94Z" fill="#fafafa"/><path d="M224.9,432.94c-.08-.12.44-.63,1.17-1.13s1.39-.82,1.47-.7-.44.62-1.17,1.13S225,433.06,224.9,432.94Z" fill="#fafafa"/><path d="M227,433.34c-.14,0-.1-.67.1-1.41s.46-1.3.6-1.27.09.67-.1,1.4S227.13,433.37,227,433.34Z" fill="#fafafa"/><path d="M235.23,425.2a23.613,23.613,0,0,0-.93,4.06,24.9,24.9,0,0,0,.29,4.16,6.66,6.66,0,0,1-.81-4.2,6.59,6.59,0,0,1,1.45-4.02Z" fill="#fafafa"/><path d="M233.2,422.21c.12-.06.65.69,1.06,1.74a3.65,3.65,0,0,1,.41,2c-.15,0-.49-.79-.89-1.81S233.07,422.28,233.2,422.21Z" fill="#fafafa"/><path d="M236.08,422.16c.14.06-.07.87-.36,1.86s-.54,1.8-.68,1.77-.11-.89.18-1.91A3.6,3.6,0,0,1,236.08,422.16Z" fill="#fafafa"/><path d="M238.36,424.35c0,.15-.67.41-1.48.84s-1.43.84-1.53.74.41-.74,1.29-1.2S238.34,424.21,238.36,424.35Z" fill="#fafafa"/><path d="M237.86,426.94c-.08.13-.67-.16-1.44-.25s-1.41,0-1.46-.14.62-.5,1.53-.38S238,426.84,237.86,426.94Z" fill="#fafafa"/><path d="M255.82,336.08a26.781,26.781,0,0,1-.83-2.73,36.87,36.87,0,0,0-6.27-12.1A24.708,24.708,0,0,1,247,319a11.681,11.681,0,0,1,2,2,30.57,30.57,0,0,1,6.34,12.24,11.219,11.219,0,0,1,.48,2.84Z" fill="#fafafa"/><path d="M246.37,316.17a6.33,6.33,0,0,1,1.33,2.17,6.41,6.41,0,0,1,.85,2.4,6.27,6.27,0,0,1-1.32-2.17A6.549,6.549,0,0,1,246.37,316.17Z" fill="#fafafa"/><path d="M245.24,317.22c.12-.1.78.55,1.58,1.33s1.47,1.41,1.39,1.53-.91-.35-1.75-1.16S245.13,317.3,245.24,317.22Z" fill="#fafafa"/><path d="M244.46,318.72a4.81,4.81,0,0,1,2.07.63,5.03,5.03,0,0,1,1.85,1.11,4.62,4.62,0,0,1-2.06-.63C245.23,319.35,244.41,318.86,244.46,318.72Z" fill="#fafafa"/><path d="M244.35,320.56c0-.15.85-.25,1.9-.23s1.9.15,1.89.3-.85.24-1.9.22S244.35,320.7,244.35,320.56Z" fill="#fafafa"/><path d="M246.48,326.53a2.327,2.327,0,0,1,1.28-.29,6.839,6.839,0,0,1,3.1.58,7,7,0,0,1,2.54,1.87c.52.62.71,1.09.66,1.12a13,13,0,0,0-3.41-2.52,12.37,12.37,0,0,0-4.17-.76Z" fill="#fafafa"/><path d="M244.43,325c0-.14.87,0,1.79.49s1.52,1.06,1.43,1.17-.8-.26-1.67-.71S244.38,325.17,244.43,325Z" fill="#fafafa"/><path d="M243.83,326.5c0-.14.75-.47,1.78-.41s1.78.49,1.73.62-.82,0-1.76-.1S243.87,326.64,243.83,326.5Z" fill="#fafafa"/><path d="M244.29,328.5c-.09-.12.44-.63,1.17-1.13s1.38-.82,1.46-.7-.44.62-1.17,1.13S244.37,328.62,244.29,328.5Z" fill="#fafafa"/><path d="M246.37,328.89c-.13,0-.09-.66.1-1.4s.47-1.31.6-1.27.1.67-.09,1.4S246.51,328.93,246.37,328.89Z" fill="#fafafa"/><path d="M254.61,320.76a24.2,24.2,0,0,0-.92,4.06A25.255,25.255,0,0,0,254,329a6.63,6.63,0,0,1-.8-4.19,6.55,6.55,0,0,1,1.41-4.05Z" fill="#fafafa"/><path d="M252.58,317.77c.13-.06.65.69,1.07,1.74s.54,2,.4,2a5.393,5.393,0,0,1-.89-1.81C252.76,318.68,252.45,317.84,252.58,317.77Z" fill="#fafafa"/><path d="M255.46,317.72c.14.06-.07.87-.35,1.86s-.55,1.8-.69,1.77-.11-.89.19-1.91S255.33,317.67,255.46,317.72Z" fill="#fafafa"/><path d="M257.75,319.91c0,.15-.68.41-1.48.84s-1.44.84-1.54.73.42-.74,1.3-1.19S257.72,319.77,257.75,319.91Z" fill="#fafafa"/><path d="M257.25,322.5c-.09.13-.68-.16-1.44-.25s-1.41,0-1.46-.14.62-.5,1.53-.38S257.34,322.4,257.25,322.5Z" fill="#fafafa"/><path d="M325.88,324.24c0-.08,1-.41,2.64-1.09a37.743,37.743,0,0,0,6.06-3.16,38.568,38.568,0,0,0,5.38-4.23,22.762,22.762,0,0,1,2.08-2,11.8,11.8,0,0,1-1.82,2.22,29.729,29.729,0,0,1-5.35,4.4,30.258,30.258,0,0,1-6.22,3.08A11,11,0,0,1,325.88,324.24Z" fill="#fafafa"/><path d="M344.79,312.93c.08.13-.84.81-2,1.53a6.48,6.48,0,0,1-2.3,1.08c-.08-.12.84-.81,2-1.53A6.7,6.7,0,0,1,344.79,312.93Z" fill="#fafafa"/><path d="M343.64,311.91c.1.11-.47.82-1.17,1.7s-1.27,1.6-1.4,1.52.27-.94,1-1.85S343.55,311.81,343.64,311.91Z" fill="#fafafa"/><path d="M342.07,311.28a4.79,4.79,0,0,1-.43,2.11c-.38,1.12-.79,2-.93,1.95a4.61,4.61,0,0,1,.43-2.11C341.52,312.1,341.93,311.23,342.07,311.28Z" fill="#fafafa"/><path d="M340.23,311.34c.14,0,.33.83.41,1.87a4.186,4.186,0,0,1-.11,1.91,4.059,4.059,0,0,1-.41-1.87C340.04,312.2,340.09,311.35,340.23,311.34Z" fill="#fafafa"/><path d="M334.49,314a2.4,2.4,0,0,1,.41,1.24,7.08,7.08,0,0,1-1.89,5.85c-.58.58-1,.82-1.07.77a9.37,9.37,0,0,0,2.55-7.86Z" fill="#fafafa"/><path d="M335.79,311.84c.14,0,.06.88-.32,1.83s-.91,1.62-1,1.54a5.329,5.329,0,0,1,.55-1.73C335.38,312.57,335.64,311.81,335.79,311.84Z" fill="#fafafa"/><path d="M334.27,311.39c.13-.05.54.7.57,1.74s-.31,1.82-.44,1.77,0-.81-.08-1.75S334.13,311.44,334.27,311.39Z" fill="#fafafa"/><path d="M332.32,312c.11-.1.66.38,1.24,1s.95,1.3.84,1.4-.67-.38-1.24-1.06S332.21,312.13,332.32,312Z" fill="#fafafa"/><path d="M332.13,314.15c0-.14.65-.16,1.4,0s1.35.33,1.32.47-.65.16-1.4,0S332.1,314.29,332.13,314.15Z" fill="#fafafa"/><path d="M341,321.57a24.581,24.581,0,0,0-4.13-.53,25.809,25.809,0,0,0-4.11.68A8.11,8.11,0,0,1,341,321.57Z" fill="#fafafa"/><path d="M343.79,319.27c.08.11-.62.71-1.63,1.22a3.628,3.628,0,0,1-2,.6c-.1-.13.74-.56,1.71-1.06S343.71,319.14,343.79,319.27Z" fill="#fafafa"/><path d="M344.12,322.13c0,.14-.88,0-1.89-.18s-1.84-.36-1.83-.51.88-.19,1.93,0S344.16,322,344.12,322.13Z" fill="#fafafa"/><path d="M342.16,324.61c-.15.05-.48-.63-1-1.39s-1-1.35-.88-1.46.78.34,1.32,1.18S342.29,324.57,342.16,324.61Z" fill="#fafafa"/><path d="M339.53,324.36c-.13-.07.09-.68.11-1.45s-.14-1.4,0-1.47.56.57.52,1.48S339.64,324.44,339.53,324.36Z" fill="#fafafa"/><path d="M208.83,296.27a26.727,26.727,0,0,1,2.64-1.09,37.318,37.318,0,0,0,6.06-3.16,38.57,38.57,0,0,0,5.38-4.23,26.178,26.178,0,0,1,2.08-2,11.29,11.29,0,0,1-1.82,2.23,30.6,30.6,0,0,1-5.35,4.4,30.261,30.261,0,0,1-6.22,3.08,10.84,10.84,0,0,1-2.77.77Z" fill="#fafafa"/><path d="M227.74,285c.08.13-.84.81-2,1.53a6.48,6.48,0,0,1-2.3,1.08c-.08-.12.84-.81,2-1.53A6.48,6.48,0,0,1,227.74,285Z" fill="#fafafa"/><path d="M226.59,283.94c.1.1-.47.82-1.17,1.7s-1.27,1.6-1.4,1.52.27-.94,1-1.85S226.5,283.84,226.59,283.94Z" fill="#fafafa"/><path d="M225,283.31a4.79,4.79,0,0,1-.43,2.11c-.38,1.12-.79,2-.93,1.95a4.77,4.77,0,0,1,.43-2.11A5.131,5.131,0,0,1,225,283.31Z" fill="#fafafa"/><path d="M223.18,283.37c.15,0,.33.82.41,1.87a4.162,4.162,0,0,1-.11,1.91,4.058,4.058,0,0,1-.41-1.87C222.99,284.23,223,283.38,223.18,283.37Z" fill="#fafafa"/><path d="M217.44,286.06a2.4,2.4,0,0,1,.41,1.24,7.11,7.11,0,0,1-1.89,5.85c-.58.58-1,.81-1.06.77a12.921,12.921,0,0,0,2.18-3.64,12.08,12.08,0,0,0,.36-4.22Z" fill="#fafafa"/><path d="M218.74,283.87c.14,0,.07.88-.32,1.83s-.91,1.61-1,1.54a5.4,5.4,0,0,1,.55-1.73C218.33,284.6,218.6,283.84,218.74,283.87Z" fill="#fafafa"/><path d="M217.22,283.42c.13-.05.54.7.57,1.74s-.31,1.82-.44,1.77,0-.81-.08-1.75S217.08,283.47,217.22,283.42Z" fill="#fafafa"/><path d="M215.27,284.07c.11-.1.66.38,1.24,1.05s1,1.3.84,1.39-.67-.38-1.24-1.05S215.16,284.16,215.27,284.07Z" fill="#fafafa"/><path d="M215.08,286.18c0-.14.65-.16,1.4,0s1.35.34,1.32.48-.65.16-1.4,0S215.05,286.32,215.08,286.18Z" fill="#fafafa"/><path d="M224,293.6a24.579,24.579,0,0,0-4.13-.53,26.085,26.085,0,0,0-4.11.68A8.11,8.11,0,0,1,224,293.6Z" fill="#fafafa"/><path d="M226.74,291.3c.08.11-.62.71-1.63,1.22a3.628,3.628,0,0,1-2,.6c-.1-.13.74-.56,1.72-1.06S226.66,291.17,226.74,291.3Z" fill="#fafafa"/><path d="M227.07,294.16c0,.14-.88,0-1.89-.18s-1.84-.37-1.82-.51.87-.19,1.92,0S227.11,294,227.07,294.16Z" fill="#fafafa"/><path d="M225.11,296.64c-.14.05-.48-.63-1-1.39s-1-1.35-.88-1.46.78.34,1.32,1.17S225.24,296.6,225.11,296.64Z" fill="#fafafa"/><path d="M222.48,296.39c-.13-.07.09-.68.11-1.46s-.14-1.4,0-1.46.56.57.52,1.48S222.59,296.47,222.48,296.39Z" fill="#fafafa"/><path d="M157.75,344.76a26.4,26.4,0,0,1,2.65-1.09,38.567,38.567,0,0,0,6.06-3.16,39.181,39.181,0,0,0,5.38-4.23c1.28-1.21,2-2,2.07-2a11,11,0,0,1-1.81,2.23,31.107,31.107,0,0,1-5.36,4.4,30.221,30.221,0,0,1-6.21,3.08,10.85,10.85,0,0,1-2.78.77Z" fill="#fafafa"/><path d="M176.67,333.45c.07.13-.84.81-2,1.53a6.41,6.41,0,0,1-2.31,1.08,12.39,12.39,0,0,1,4.35-2.61Z" fill="#fafafa"/><path d="M175.52,332.43c.1.1-.48.82-1.18,1.7s-1.26,1.6-1.39,1.52.26-.94,1-1.85S175.42,332.33,175.52,332.43Z" fill="#fafafa"/><path d="M173.94,331.8a4.47,4.47,0,0,1-.43,2.11,4.75,4.75,0,0,1-.92,1.95,4.46,4.46,0,0,1,.43-2.11C173.39,332.62,173.81,331.75,173.94,331.8Z" fill="#fafafa"/><path d="M172.11,331.86c.14,0,.32.82.4,1.87a4.162,4.162,0,0,1-.11,1.91,7.152,7.152,0,0,1-.29-3.78Z" fill="#fafafa"/><path d="M166.37,334.55a2.51,2.51,0,0,1,.41,1.24,7,7,0,0,1-.28,3.14,6.92,6.92,0,0,1-1.62,2.71c-.57.58-1,.81-1.06.77a12.411,12.411,0,0,0,2.18-3.64,12.54,12.54,0,0,0,.37-4.22Z" fill="#fafafa"/><path d="M167.66,332.36c.14,0,.07.87-.31,1.83s-.91,1.61-1,1.54a5.236,5.236,0,0,1,.54-1.73C167.25,333.09,167.52,332.33,167.66,332.36Z" fill="#fafafa"/><path d="M166.15,331.91c.12-.05.54.7.57,1.74s-.32,1.81-.45,1.77,0-.81-.07-1.75S166,332,166.15,331.91Z" fill="#fafafa"/><path d="M164.2,332.55c.11-.09.66.38,1.23,1.06s.95,1.3.84,1.39-.66-.38-1.23-1.05S164.09,332.65,164.2,332.55Z" fill="#fafafa"/><path d="M164,334.67c0-.14.65-.16,1.41,0s1.34.34,1.32.48-.65.16-1.41,0S164,334.81,164,334.67Z" fill="#fafafa"/><path d="M172.89,342.09a24.778,24.778,0,0,0-4.13-.53,25.808,25.808,0,0,0-4.11.68A8.11,8.11,0,0,1,172.89,342.09Z" fill="#fafafa"/><path d="M175.66,339.79c.08.11-.62.71-1.62,1.22s-1.9.73-1.95.59.74-.56,1.71-1.05S175.59,339.66,175.66,339.79Z" fill="#fafafa"/><path d="M176,342.65c0,.14-.87,0-1.88-.18s-1.84-.37-1.83-.51.88-.19,1.92,0A3.357,3.357,0,0,1,176,342.65Z" fill="#fafafa"/><path d="M174,345.13c-.14.05-.47-.63-1-1.39s-1-1.35-.88-1.46.77.34,1.31,1.17S174.17,345.09,174,345.13Z" fill="#fafafa"/><path d="M171.4,344.88c-.13-.07.1-.68.12-1.46s-.14-1.4,0-1.46.57.57.53,1.48S171.52,345,171.4,344.88Z" fill="#fafafa"/><path d="M287.88,424.24c0-.08,1-.41,2.64-1.08a38.739,38.739,0,0,0,6.06-3.17,37.843,37.843,0,0,0,5.38-4.23,24.7,24.7,0,0,1,2.08-2,11.1,11.1,0,0,1-1.82,2.22,30.16,30.16,0,0,1-5.35,4.41,30.678,30.678,0,0,1-6.22,3.07,11,11,0,0,1-2.77.78Z" fill="#fafafa"/><path d="M306.79,412.94c.08.12-.84.8-2,1.52a6.28,6.28,0,0,1-2.3,1.08c-.08-.12.84-.8,2-1.52A6.28,6.28,0,0,1,306.79,412.94Z" fill="#fafafa"/><path d="M305.64,411.91c.1.11-.47.82-1.17,1.7s-1.27,1.6-1.4,1.53.27-.95,1-1.85S305.55,411.81,305.64,411.91Z" fill="#fafafa"/><path d="M304.07,411.28a4.77,4.77,0,0,1-.43,2.11c-.38,1.13-.79,2-.93,1.95a4.63,4.63,0,0,1,.43-2.11C303.52,412.11,303.93,411.24,304.07,411.28Z" fill="#fafafa"/><path d="M302.23,411.34c.14,0,.33.83.41,1.87a4.267,4.267,0,0,1-.11,1.92,4.077,4.077,0,0,1-.41-1.88C302.04,412.2,302.09,411.35,302.23,411.34Z" fill="#fafafa"/><path d="M296.49,414a2.334,2.334,0,0,1,.41,1.23,7.12,7.12,0,0,1-1.89,5.86c-.58.57-1,.81-1.07.76a12.42,12.42,0,0,0,2.19-3.63A12.679,12.679,0,0,0,296.49,414Z" fill="#fafafa"/><path d="M297.79,411.85c.14,0,.06.87-.32,1.82s-.91,1.62-1,1.54a5.329,5.329,0,0,1,.55-1.73C297.38,412.57,297.64,411.81,297.79,411.85Z" fill="#fafafa"/><path d="M296.27,411.39c.13-.05.54.7.57,1.74s-.31,1.82-.44,1.77,0-.81-.08-1.75S296.13,411.45,296.27,411.39Z" fill="#fafafa"/><path d="M294.32,412c.11-.09.66.38,1.24,1.06s.95,1.3.84,1.39-.67-.38-1.24-1.06S294.21,412.13,294.32,412Z" fill="#fafafa"/><path d="M294.13,414.15c0-.14.65-.15,1.4,0s1.35.33,1.32.48-.65.15-1.4,0S294.1,414.3,294.13,414.15Z" fill="#fafafa"/><path d="M303,421.57a24.585,24.585,0,0,0-4.13-.53,23.924,23.924,0,0,0-4.11.69,6.63,6.63,0,0,1,4.1-1.21A6.73,6.73,0,0,1,303,421.57Z" fill="#fafafa"/><path d="M305.79,419.27c.08.12-.62.72-1.63,1.23a3.571,3.571,0,0,1-2,.59c-.1-.13.74-.56,1.71-1.06S305.71,419.15,305.79,419.27Z" fill="#fafafa"/><path d="M306.12,422.13c0,.14-.88,0-1.89-.17s-1.84-.37-1.83-.52.88-.19,1.93,0S306.16,422,306.12,422.13Z" fill="#fafafa"/><path d="M304.16,424.61c-.15.05-.48-.63-1-1.39s-1-1.34-.88-1.45.78.34,1.32,1.17S304.29,424.58,304.16,424.61Z" fill="#fafafa"/><path d="M301.53,424.37c-.13-.08.09-.69.11-1.46s-.14-1.4,0-1.46.56.56.52,1.48S301.64,424.45,301.53,424.37Z" fill="#fafafa"/><path d="M318,455.1a24.289,24.289,0,0,1,2.6-1.1,37.74,37.74,0,0,0,6.06-3.16,39.18,39.18,0,0,0,5.38-4.23c1.28-1.21,2-2,2.07-2a11,11,0,0,1-1.81,2.23,30.717,30.717,0,0,1-5.36,4.4,30.218,30.218,0,0,1-6.21,3.08,11,11,0,0,1-2.73.78Z" fill="#fafafa"/><path d="M336.87,443.79c.07.13-.84.81-2,1.53a6.41,6.41,0,0,1-2.31,1.08,12.39,12.39,0,0,1,4.35-2.61Z" fill="#fafafa"/><path d="M335.72,442.77c.1.1-.48.82-1.17,1.7s-1.27,1.6-1.4,1.52.26-.94,1-1.85S335.62,442.67,335.72,442.77Z" fill="#fafafa"/><path d="M334.14,442.14a4.47,4.47,0,0,1-.43,2.11c-.37,1.12-.79,2-.92,1.95a4.46,4.46,0,0,1,.43-2.11C333.59,443,334,442.09,334.14,442.14Z" fill="#fafafa"/><path d="M332.31,442.2c.14,0,.32.82.41,1.87a3.8,3.8,0,0,1-.12,1.91,3.981,3.981,0,0,1-.4-1.87C332.12,443.06,332.17,442.21,332.31,442.2Z" fill="#fafafa"/><path d="M326.57,444.89a2.51,2.51,0,0,1,.41,1.24,7.07,7.07,0,0,1-1.9,5.85c-.57.58-1,.81-1.06.77a9.37,9.37,0,0,0,2.55-7.86Z" fill="#fafafa"/><path d="M327.87,442.7c.13,0,.06.88-.32,1.83s-.91,1.61-1,1.54a5.12,5.12,0,0,1,.55-1.73C327.47,443.43,327.72,442.67,327.87,442.7Z" fill="#fafafa"/><path d="M326.35,442.25c.12-.05.54.7.57,1.74s-.32,1.82-.45,1.77,0-.81-.07-1.75S326.21,442.3,326.35,442.25Z" fill="#fafafa"/><path d="M324.4,442.9c.11-.1.66.38,1.23,1.05s.95,1.3.84,1.39-.66-.38-1.23-1S324.29,443,324.4,442.9Z" fill="#fafafa"/><path d="M324.2,445c0-.14.66-.16,1.41,0s1.34.34,1.32.48-.65.16-1.4,0S324.18,445.15,324.2,445Z" fill="#fafafa"/><path d="M333.09,452.43a24.776,24.776,0,0,0-4.13-.53,25.809,25.809,0,0,0-4.11.68A8.11,8.11,0,0,1,333.09,452.43Z" fill="#fafafa"/><path d="M335.87,450.13c.07.11-.63.71-1.63,1.22s-1.9.73-1.95.6.74-.56,1.71-1.06S335.79,450,335.87,450.13Z" fill="#fafafa"/><path d="M336.2,453c-.05.14-.88,0-1.89-.18s-1.84-.37-1.83-.51.88-.19,1.92,0S336.24,452.86,336.2,453Z" fill="#fafafa"/><path d="M334.23,455.47c-.14,0-.47-.63-1-1.39s-1-1.35-.88-1.46.77.34,1.31,1.18S334.37,455.43,334.23,455.47Z" fill="#fafafa"/><path d="M331.61,455.22c-.13-.07.09-.68.11-1.46s-.14-1.4,0-1.46.56.57.52,1.48S331.72,455.3,331.61,455.22Z" fill="#fafafa"/><path d="M262.37,456.26a27.2,27.2,0,0,1,2.64-1.08,38.739,38.739,0,0,0,6.06-3.17,37.839,37.839,0,0,0,5.38-4.23,22.759,22.759,0,0,1,2.08-2,11.439,11.439,0,0,1-1.82,2.22,30.161,30.161,0,0,1-5.35,4.41,30.679,30.679,0,0,1-6.22,3.07,11,11,0,0,1-2.77.78Z" fill="#fafafa"/><path d="M281.28,445c.08.12-.84.8-2,1.52a6.28,6.28,0,0,1-2.3,1.08c-.08-.12.83-.8,2-1.52a6.279,6.279,0,0,1,2.3-1.08Z" fill="#fafafa"/><path d="M280.13,443.93c.1.11-.47.82-1.17,1.7s-1.27,1.6-1.4,1.53.27-1,1-1.85S280,443.83,280.13,443.93Z" fill="#fafafa"/><path d="M278.56,443.3a4.77,4.77,0,0,1-.43,2.11c-.38,1.13-.79,2-.93,1.95a4.63,4.63,0,0,1,.43-2.11C278,444.13,278.42,443.25,278.56,443.3Z" fill="#fafafa"/><path d="M276.72,443.36c.14,0,.33.83.41,1.87a4.267,4.267,0,0,1-.11,1.92,4.077,4.077,0,0,1-.41-1.88C276.53,444.22,276.58,443.37,276.72,443.36Z" fill="#fafafa"/><path d="M271,446.06a2.334,2.334,0,0,1,.41,1.23,6.92,6.92,0,0,1-.28,3.15,6.81,6.81,0,0,1-1.62,2.71c-.57.57-1,.81-1.06.76a12.42,12.42,0,0,0,2.19-3.63,12.68,12.68,0,0,0,.36-4.22Z" fill="#fafafa"/><path d="M272.28,443.87c.13,0,.06.87-.32,1.82s-.91,1.62-1,1.54a5.329,5.329,0,0,1,.55-1.73C271.87,444.59,272.13,443.83,272.28,443.87Z" fill="#fafafa"/><path d="M270.76,443.41c.13-.05.54.7.57,1.74s-.31,1.82-.44,1.77,0-.81-.08-1.75S270.62,443.47,270.76,443.41Z" fill="#fafafa"/><path d="M268.81,444.06c.11-.09.66.38,1.24,1.05s.94,1.31.83,1.4-.66-.38-1.23-1.06S268.7,444.15,268.81,444.06Z" fill="#fafafa"/><path d="M268.61,446.17c0-.14.66-.15,1.41,0s1.35.33,1.32.48-.65.15-1.4,0S268.59,446.32,268.61,446.17Z" fill="#fafafa"/><path d="M277.5,453.59a24.585,24.585,0,0,0-4.13-.53,23.918,23.918,0,0,0-4.11.69,6.63,6.63,0,0,1,4.1-1.21A6.73,6.73,0,0,1,277.5,453.59Z" fill="#fafafa"/><path d="M280.28,451.29c.08.12-.63.72-1.63,1.22s-1.9.73-1.95.6.74-.56,1.71-1.06S280.2,451.17,280.28,451.29Z" fill="#fafafa"/><path d="M280.61,454.15c0,.14-.88,0-1.89-.17s-1.84-.37-1.83-.52.88-.19,1.92,0S280.65,454,280.61,454.15Z" fill="#fafafa"/><path d="M278.65,456.63c-.15.05-.48-.63-1-1.39s-1-1.34-.88-1.45.78.34,1.32,1.17S278.78,456.6,278.65,456.63Z" fill="#fafafa"/><path d="M276,456.39c-.13-.08.09-.69.11-1.46s-.14-1.4,0-1.47.56.57.52,1.49S276.13,456.47,276,456.39Z" fill="#fafafa"/><path d="M315.48,377.18a26.719,26.719,0,0,1,2.64-1.09,37.05,37.05,0,0,0,11.45-7.4,28.3,28.3,0,0,1,2.07-2,10.782,10.782,0,0,1-1.81,2.22,30.651,30.651,0,0,1-5.36,4.41,30.113,30.113,0,0,1-6.21,3.07,11.791,11.791,0,0,1-2.78.79Z" fill="#fafafa"/><path d="M334.4,365.87a6.5,6.5,0,0,1-2,1.53,6.411,6.411,0,0,1-2.31,1.08c-.07-.13.84-.81,2-1.53a6.41,6.41,0,0,1,2.31-1.08Z" fill="#fafafa"/><path d="M333.25,364.84c.1.11-.48.83-1.18,1.7s-1.27,1.6-1.39,1.53.26-.94,1-1.85S333.15,364.74,333.25,364.84Z" fill="#fafafa"/><path d="M331.67,364.21a4.661,4.661,0,0,1-.43,2.12,4.751,4.751,0,0,1-.92,1.95,4.49,4.49,0,0,1,.43-2.12C331.12,365,331.53,364.17,331.67,364.21Z" fill="#fafafa"/><path d="M329.84,364.27c.14,0,.32.83.4,1.88a4.162,4.162,0,0,1-.11,1.91,4.261,4.261,0,0,1-.41-1.87C329.63,365.15,329.69,364.28,329.84,364.27Z" fill="#fafafa"/><path d="M324.1,367a2.456,2.456,0,0,1,.41,1.24,7.07,7.07,0,0,1-1.9,5.85c-.57.58-1,.81-1.06.76a12.349,12.349,0,0,0,2.18-3.63A12.54,12.54,0,0,0,324.1,367Z" fill="#fafafa"/><path d="M325.39,364.78c.14,0,.07.87-.31,1.83s-.91,1.61-1,1.54a5.324,5.324,0,0,1,.54-1.74C324.98,365.49,325.25,364.75,325.39,364.78Z" fill="#fafafa"/><path d="M323.87,364.33c.13-.06.54.7.58,1.73s-.32,1.82-.45,1.78,0-.82-.07-1.76S323.73,364.38,323.87,364.33Z" fill="#fafafa"/><path d="M321.93,365c.11-.09.66.38,1.23,1.06s.95,1.3.84,1.39-.66-.38-1.24-1.06S321.82,365.06,321.93,365Z" fill="#fafafa"/><path d="M321.73,367.09c0-.14.65-.16,1.41,0s1.34.34,1.32.48-.65.16-1.41,0S321.71,367.23,321.73,367.09Z" fill="#fafafa"/><path d="M330.62,374.51a24.775,24.775,0,0,0-4.13-.53,24.291,24.291,0,0,0-4.11.68,6.66,6.66,0,0,1,4.1-1.2,6.58,6.58,0,0,1,4.14,1.05Z" fill="#fafafa"/><path d="M333.39,372.2c.08.12-.62.72-1.62,1.23s-1.91.72-1.95.59.73-.56,1.71-1.06S333.31,372.08,333.39,372.2Z" fill="#fafafa"/><path d="M333.72,375.07c0,.14-.87,0-1.88-.18s-1.84-.37-1.83-.52.88-.19,1.92,0S333.76,374.93,333.72,375.07Z" fill="#fafafa"/><path d="M331.76,377.55c-.14,0-.47-.63-1-1.39s-1-1.35-.87-1.46.77.34,1.31,1.17S331.89,377.51,331.76,377.55Z" fill="#fafafa"/><path d="M329.13,377.3c-.13-.07.1-.69.12-1.46s-.14-1.4,0-1.46.57.56.53,1.48S329.25,377.38,329.13,377.3Z" fill="#fafafa"/><path d="M251.74,400.7a26.142,26.142,0,0,1,.8-2.74,38.073,38.073,0,0,0,1.33-6.71,38.609,38.609,0,0,0,.07-6.84,26.944,26.944,0,0,1-.23-2.85,11.24,11.24,0,0,1,.6,2.81,30.6,30.6,0,0,1,.08,6.94,29.87,29.87,0,0,1-1.5,6.77,11.39,11.39,0,0,1-1.15,2.62Z" fill="#fafafa"/><path d="M254.77,378.88a12.63,12.63,0,0,1-.69,5,6.181,6.181,0,0,1,.08-2.55,6.1,6.1,0,0,1,.61-2.45Z" fill="#fafafa"/><path d="M253.25,379.13a5.81,5.81,0,0,1,.59,2c.24,1.1.45,2,.31,2a3.692,3.692,0,0,1-.82-1.93,3.5,3.5,0,0,1-.08-2.07Z" fill="#fafafa"/><path d="M251.77,380c.12-.07.74.67,1.38,1.66s1.06,1.87.94,1.94-.74-.66-1.38-1.65A5.1,5.1,0,0,1,251.77,380Z" fill="#fafafa"/><path d="M250.66,381.43c.09-.12.85.27,1.72.86s1.5,1.16,1.42,1.28-.85-.26-1.71-.85S250.58,381.55,250.66,381.43Z" fill="#fafafa"/><path d="M249.17,387.59a2.45,2.45,0,0,1,1.23.46,7.118,7.118,0,0,1,3.37,5.14,2.4,2.4,0,0,1-.07,1.31,12.56,12.56,0,0,0-1.46-4,12.7,12.7,0,0,0-3.07-2.91Z" fill="#fafafa"/><path d="M248.28,385.21c.11-.08.72.5,1.22,1.39s.69,1.72.56,1.77-.53-.66-1-1.51S248.16,385.31,248.28,385.21Z" fill="#fafafa"/><path d="M247,386.11c0-.13.89,0,1.72.64s1.22,1.39,1.1,1.46-.66-.48-1.41-1S246.92,386.26,247,386.11Z" fill="#fafafa"/><path d="M246.26,388c0-.15.71-.28,1.59-.31s1.61.08,1.61.22-.71.28-1.59.31S246.26,388.18,246.26,388Z" fill="#fafafa"/><path d="M247.78,389.51c-.09-.1.29-.6.85-1.11s1.11-.84,1.21-.74-.29.61-.86,1.12S247.88,389.62,247.78,389.51Z" fill="#fafafa"/><path d="M259.13,387.23a26.428,26.428,0,0,0-3,2.89,25.9,25.9,0,0,0-2,3.63,6.7,6.7,0,0,1,1.63-3.95A6.611,6.611,0,0,1,259.13,387.23Z" fill="#fafafa"/><path d="M259.07,383.62c.15,0,.17.94-.06,2s-.62,1.94-.76,1.89,0-.92.25-2S258.93,383.61,259.07,383.62Z" fill="#fafafa"/><path d="M261.51,385.16c.09.12-.54.69-1.32,1.36s-1.43,1.2-1.54,1.1.4-.8,1.2-1.49S261.43,385,261.51,385.16Z" fill="#fafafa"/><path d="M262.22,388.24c-.05.14-.79,0-1.7-.11s-1.66-.08-1.68-.22.75-.4,1.73-.29S262.27,388.12,262.22,388.24Z" fill="#fafafa"/><path d="M260.38,390.14c-.14.05-.48-.51-1.06-1s-1.18-.76-1.15-.91.8-.08,1.49.52S260.51,390.1,260.38,390.14Z" fill="#fafafa"/><g opacity="0.3"><path d="M283.16,407.87c-1.22-3.22-3.59-5.86-5.88-8.45q-10.71-12.14-20.34-25.18c-3.53-4.79-7.09-10.09-7.13-16,0-5.18,2.61-9.94,4.25-14.85,3.4-10.16,2.61-21.51,7-31.26,2.07-4.58,5.23-8.62,7.07-13.3,4.18-10.62,1-22.56-2.22-33.51l-6.48-14.69c-9.43,10.46-27.45,3.24-28.57,7.2-1,3.66,5.37,41.38,4.35,45.07-4,14.39-7,28.9-10.14,41C223,352,221,360.62,223.9,368.4c2.74,7.22,9.24,12.2,15.12,17.21a168.487,168.487,0,0,1,23.21,24.18c2.47,3.15,4.93,6.48,8.41,8.46s8.34,2.18,11.15-.67C284.2,415.11,284.38,411.1,283.16,407.87Z"/></g><path d="M283.9,260.76s-13.52-12.53-15.41-15.52-12.06-10.06-12.06-10.06-8.43-9-23.44-7-21.81,22-21.81,22-1.36,30.88,1.79,31.12,6.05.86,6.19-1.34-.1-10.48-.1-10.48l5.87-7.14s3,28.38,6.55,28.86,6.25,1.74,6.49-1.4-3.25-26.48-2.85-27.5,7.32,25.3,7.32,25.3,2.29,6.3,5.3,6,5-2.31,4.15-4.92-3.71-31.63-3.71-31.63l7,16.71,3.48,14.69s3.95,2.55,5.38-.85-.46-17.82-.46-17.82l-4.14-19.19,5.08,3.54s6.48,7.15,9.85,8.6C278.24,264.38,283.9,260.76,283.9,260.76Z" fill="#ffbe9d"/><path d="M618.69,312.7c-2.23-6.82-59.67-73.3-73.8-95.29C535.2,202.33,522,203,519.73,203.17L469,202.84l-38.87,9.72a21.47,21.47,0,0,1-22.81,23.31,22.29,22.29,0,0,1-6.84,2.21c.33,12.36-9.51,24.2-21.73,26.13a24.46,24.46,0,0,1-10.11-.6l.07.25c-.37.33-2.68,2.3-7.94,4.43-5.76,2.35-13,1.47-13,1.47l-.23.37,5.8,2.36,20.29,16.67,4.86,14.22.82,3.33-31.9,158.52H515.47l13.39-164-1.75-23.85L591.72,350Z" fill="#455a64"/><path d="M548.24,223.86l-.54-.05-1.58-.19A53.34,53.34,0,0,0,518.21,228a52.179,52.179,0,0,0-13,8.39,114.311,114.311,0,0,0-12.34,12.85c-4.08,4.78-8.23,10-13.07,14.82a59.5,59.5,0,0,1-17.23,12.32,35.849,35.849,0,0,1-10.37,3,28.42,28.42,0,0,1-10.46-.65,40.651,40.651,0,0,1-9.31-4c-2.89-1.6-5.63-3.31-8.37-4.84a41.13,41.13,0,0,0-16.78-5.41,44.781,44.781,0,0,0-15.37,1.18,47.279,47.279,0,0,0-11.82,4.8l-2.3,1.54c-.74.47-1.38,1-2,1.48a37.268,37.268,0,0,0-3.38,2.84A14,14,0,0,0,371,277.6l-1.12,1.2a19.3,19.3,0,0,0-1.66,2c-.43.53-.75.95-1,1.25l-.35.42s.1-.16.31-.45l.94-1.29a19.778,19.778,0,0,1,1.63-2l1.11-1.23a15.22,15.22,0,0,1,1.33-1.34,37.1,37.1,0,0,1,3.37-2.88c.66-.48,1.3-1,2-1.51l2.32-1.47a47.44,47.44,0,0,1,11.88-4.91,44.92,44.92,0,0,1,15.5-1.25,41.45,41.45,0,0,1,17,5.42c2.76,1.53,5.5,3.24,8.38,4.83a40.122,40.122,0,0,0,9.2,3.89,27.61,27.61,0,0,0,10.27.63,35.409,35.409,0,0,0,10.22-2.95,59.11,59.11,0,0,0,17.08-12.2c4.82-4.84,9-10,13.07-14.77a114,114,0,0,1,12.41-12.87,52.68,52.68,0,0,1,35.07-13,49.56,49.56,0,0,1,6.12.42l1.58.25Z" fill="#fafafa"/><path d="M491.24,202.25a.58.58,0,0,1-.09.25c-.09.16-.19.43-.32.72-.3.61-.67,1.56-1.3,2.7a63.617,63.617,0,0,1-5.91,9.35,67.36,67.36,0,0,1-11.38,11.8A66.37,66.37,0,0,1,435.48,242a71,71,0,0,1-8.78.2,71.834,71.834,0,0,1-7.61-.75,64.392,64.392,0,0,1-10.74-2.59c-1.25-.39-2.18-.81-2.82-1l-.73-.29a1,1,0,0,1-.24-.12l.26.07.74.24c.66.2,1.6.59,2.85.94a70.211,70.211,0,0,0,10.74,2.43,74.685,74.685,0,0,0,7.57.68,72.4,72.4,0,0,0,8.72-.25,66.68,66.68,0,0,0,36.5-14.79,69,69,0,0,0,11.39-11.65,69.771,69.771,0,0,0,6-9.22c.65-1.13,1.06-2.06,1.39-2.66l.36-.69a2,2,0,0,1,.16-.3Z" fill="#fafafa"/><path d="M528.08,309s-.09.1-.29.28l-.9.79c-.4.34-.87.79-1.48,1.26l-2.15,1.56a46.68,46.68,0,0,1-15.49,6.58,72,72,0,0,1-24.95,1c-9.39-1.14-19.4-4-29.77-7.26s-20.28-6.34-29.56-7.88a79.27,79.27,0,0,0-24.85-.53,50.43,50.43,0,0,0-15.94,5.1l-2.3,1.3c-.66.39-1.18.78-1.63,1.06l-1,.65-.35.21a1.863,1.863,0,0,1,.31-.25l1-.7c.44-.3,1-.7,1.6-1.1l2.29-1.35a49.269,49.269,0,0,1,16-5.28,78.889,78.889,0,0,1,25,.42c9.33,1.52,19.26,4.62,29.63,7.85s20.35,6.12,29.68,7.28a72.46,72.46,0,0,0,24.81-.87,47.39,47.39,0,0,0,15.46-6.39l2.17-1.52c.62-.45,1.1-.89,1.51-1.21s.7-.56.92-.75Z" fill="#fafafa"/><path d="M367.76,368l.34.25,1,.78c.43.34.92.8,1.57,1.26l2.27,1.57a45.48,45.48,0,0,0,16.29,6.2,69.931,69.931,0,0,0,25.86-.53c9.63-1.89,19.75-5.78,30.23-10.06s20.51-8.43,30.1-10.77a77.1,77.1,0,0,1,25.95-2.18,47.92,47.92,0,0,1,16.88,4.79l2.42,1.34c.69.4,1.24.81,1.7,1.11l1,.71a2.093,2.093,0,0,1,.34.25,2.17,2.17,0,0,1-.37-.21l-1.05-.66c-.47-.28-1-.68-1.71-1.07l-2.44-1.29a48.779,48.779,0,0,0-16.83-4.6,77.289,77.289,0,0,0-25.8,2.28c-9.53,2.35-19.53,6.49-30,10.78s-20.64,8.18-30.33,10.05a69.71,69.71,0,0,1-26,.42A44.8,44.8,0,0,1,372.8,372l-2.25-1.61c-.64-.48-1.13-1-1.55-1.31l-.94-.82A1.679,1.679,0,0,1,367.76,368Z" fill="#fafafa"/><path d="M516.22,436.54a1.878,1.878,0,0,1-.38-.18l-1.09-.57c-.48-.26-1.07-.58-1.79-.91s-1.53-.76-2.48-1.14a71.472,71.472,0,0,0-16.69-4.85A125.211,125.211,0,0,0,468,427.54c-9.73.32-20.39,1.43-31.64,1.81a160.54,160.54,0,0,1-56.76-8.26,145.9,145.9,0,0,1-16.2-6.5c-1.88-.85-3.29-1.61-4.26-2.09l-1.1-.57a2.423,2.423,0,0,1-.37-.21,2.3,2.3,0,0,1,.39.16l1.12.52c1,.45,2.41,1.19,4.3,2a157.823,157.823,0,0,0,16.23,6.34,162.56,162.56,0,0,0,56.63,8.09c11.23-.38,21.9-1.47,31.65-1.77a123.149,123.149,0,0,1,25.83,1.47,69.37,69.37,0,0,1,16.71,5,45.464,45.464,0,0,1,5.69,3.01Z" fill="#fafafa"/><path d="M577.47,260.72a1.781,1.781,0,0,1-.46.2l-1.36.47c-.59.18-1.31.43-2.12.76s-1.77.65-2.77,1.13-2.12,1-3.26,1.57-2.36,1.29-3.62,2a57,57,0,0,0-14.29,12.45c-.91,1.15-1.79,2.22-2.51,3.3s-1.42,2.08-2,3-1.07,1.82-1.5,2.59a22.423,22.423,0,0,0-1.05,2l-.65,1.27c-.15.29-.24.44-.26.43a1.74,1.74,0,0,1,.16-.47c.15-.36.34-.79.56-1.32a15.411,15.411,0,0,1,1-2c.44-.73.85-1.69,1.44-2.64s1.2-2,2-3.07,1.59-2.2,2.5-3.37a54.54,54.54,0,0,1,14.41-12.55c1.28-.73,2.48-1.45,3.67-2s2.29-1.09,3.32-1.52,2-.76,2.81-1.06,1.56-.53,2.16-.69l1.39-.37A2.446,2.446,0,0,1,577.47,260.72Z" fill="#fafafa"/><path d="M604,293a1.648,1.648,0,0,1-.16.45l-.55,1.25a21.014,21.014,0,0,1-1,1.94c-.4.74-.82,1.6-1.39,2.5s-1.14,1.91-1.87,2.93-1.5,2.1-2.35,3.22a57.5,57.5,0,0,1-13.42,12.31c-1.19.75-2.31,1.48-3.41,2.07s-2.12,1.15-3.08,1.61-1.84.84-2.62,1.17-1.45.59-2,.78l-1.29.44a1.4,1.4,0,0,1-.46.12,1.793,1.793,0,0,1,.42-.21l1.26-.53c.55-.22,1.21-.5,2-.86s1.64-.73,2.57-1.24,2-1,3-1.65,2.19-1.34,3.36-2.1A59.751,59.751,0,0,0,596.39,305c.86-1.1,1.69-2.14,2.38-3.17s1.35-2,1.91-2.87,1-1.73,1.45-2.45a15.626,15.626,0,0,0,1-1.89l.64-1.21A1.89,1.89,0,0,1,604,293Z" fill="#fafafa"/><path d="M366.31,147.65a41.69,41.69,0,0,1,21.26-52.4l1.95-.92c21.64-8.69,41.11,4.83,49.2,26.7l10.389,24.912,25.5,61.148a4.22,4.22,0,0,1-.65,4.31l-36.9,44.37-19.29-45s-21.73,6.39-31.51-13.73C381.53,187.37,373.43,166.56,366.31,147.65Z" fill="#ffbe9d"/><path d="M417.59,210.87s13.29-5.31,22.86-20.26c0,0,.63,17.51-20.43,25.2Z" fill="#eb996e"/><path d="M378.15,161.48c.54.21,2-2.44,5.08-3.9s6.12-1,6.28-1.52c.09-.24-.6-.75-1.93-1a8.77,8.77,0,0,0-5.25.75,8.36,8.36,0,0,0-3.82,3.58C377.9,160.56,377.89,161.4,378.15,161.48Z" fill="#263238"/><path d="M409.78,148.49c.53.21,2-2.44,5.07-3.9s6.13-1,6.29-1.51c.09-.25-.6-.76-1.94-1a8.77,8.77,0,0,0-5.25.74,8.52,8.52,0,0,0-3.82,3.58C409.53,147.57,409.52,148.41,409.78,148.49Z" fill="#263238"/><path d="M405.76,170.06c-.07-.18-2.16.39-5.49,1.47-.83.29-1.65.49-2,0a4.45,4.45,0,0,1-.58-2.6c-.16-2.28-.33-4.66-.5-7.16-.8-10.15-1.77-18.34-2.18-18.31s-.1,8.29.7,18.44c.21,2.5.42,4.87.61,7.15a5.169,5.169,0,0,0,1.06,3.31,2.18,2.18,0,0,0,1.85.54,5.711,5.711,0,0,0,1.44-.44C403.86,171.15,405.83,170.24,405.76,170.06Z" fill="#263238"/><path d="M415.92,167.9c-.52.21,1.07,3.59-.69,7.35s-5.53,5.08-5.34,5.56c.06.23,1.11.28,2.65-.4a9.22,9.22,0,0,0,4.54-4.45,8.09,8.09,0,0,0,.37-6.06C416.92,168.43,416.15,167.77,415.92,167.9Z" fill="#263238"/><path d="M399.63,129.86c.7.7,3.62-1.16,7.48-2.44s7.27-1.67,7.4-2.66c.05-.47-.84-1-2.42-1.28a13.7,13.7,0,0,0-11.33,3.89C399.67,128.54,399.31,129.52,399.63,129.86Z" fill="#263238"/><path d="M372.23,146c.88.45,2.68-1.3,5.24-2.54s5-1.77,5.13-2.75c0-.46-.62-1-1.89-1.22a8,8,0,0,0-4.83.86,8.11,8.11,0,0,0-3.53,3.39C371.78,144.86,371.83,145.73,372.23,146Z" fill="#263238"/><path d="M442.72,137.46c.27-.31,12-10.67,18,3.38s-9.28,17.25-9.48,16.86S442.72,137.46,442.72,137.46Z" fill="#ffbe9d"/><path d="M452.06,151.09c0-.07.32.07.81.08a2.69,2.69,0,0,0,1.85-.76c1.25-1.18,1.48-4.08.45-6.64a8.77,8.77,0,0,0-2.2-3.21,3.1,3.1,0,0,0-2.66-1.08,1.35,1.35,0,0,0-1.15,1.29c0,.48.19.72.13.78s-.4-.11-.54-.74a1.75,1.75,0,0,1,.17-1.12,2,2,0,0,1,1.2-.94,3.77,3.77,0,0,1,3.5,1.07,9.15,9.15,0,0,1,2.54,3.55c1.13,2.87.83,6.15-1,7.61a2.85,2.85,0,0,1-2.39.6C452.23,151.42,452,151.14,452.06,151.09Z" fill="#8c5249"/><path d="M445.93,125.71c-1.78-8.13-3.26-16.62-7.63-23.71,0,0-5.84-7.69-13.73-10.33-9.87-3.3-25.84-5.87-41.66,2.07-20.51,10.3-23.53,26.32-19.63,36.11,1.79,4.49.35-22,21.81-11.41,3.94-12,9.44-15.87,21-17.71a14.92,14.92,0,0,1,6.71.41c5.66,1.76,6,5.45,6.66,7.18,4.7,16.56,17.62,19.33,17.62,19.33l4.6,11c1,3.38,3.88,5.65,5.42,5.3l.84-9.66S446.85,129.91,445.93,125.71Z" fill="#263238"/><path d="M422.74,150a.419.419,0,1,0-.47-.31.41.41,0,0,0,.47.31Z" fill="#8c5249"/><path d="M416.16,151.48a.49.49,0,1,0-.48-.37.43.43,0,0,0,.48.37Z" fill="#8c5249"/><path d="M412.12,153.27c.19-.07.27-.38.16-.71s-.35-.54-.55-.47-.27.38-.17.71S411.92,153.33,412.12,153.27Z" fill="#8c5249"/><path d="M421.58,155.14c.19-.09.29-.26.24-.38s-.26-.15-.45-.06-.3.26-.24.38S421.39,155.23,421.58,155.14Z" fill="#8c5249"/><path d="M415.53,156.44a.44.44,0,1,0-.5-.27.4.4,0,0,0,.5.27Z" fill="#8c5249"/><path d="M385.57,166.42a.42.42,0,0,0,.27-.51.41.41,0,0,0-.48-.32.4.4,0,0,0-.26.5A.41.41,0,0,0,385.57,166.42Z" fill="#8c5249"/><path d="M381.35,168a.45.45,0,0,0,.19-.58c-.09-.25-.32-.4-.51-.32a.43.43,0,0,0-.2.57A.44.44,0,0,0,381.35,168Z" fill="#8c5249"/><path d="M389.2,164.83a.33.33,0,1,0-.45-.23.35.35,0,0,0,.45.23Z" fill="#8c5249"/><path d="M388.1,170.3a.44.44,0,1,0-.39-.43.42.42,0,0,0,.39.43Z" fill="#8c5249"/><path d="M384.32,171.24a.33.33,0,1,0-.5,0,.37.37,0,0,0,.5,0Z" fill="#8c5249"/><path d="M234.66,248c-10.07-4.31-20.82-8.61-31.58-8.11l.21-.13a17.59,17.59,0,0,0,5.32-5.09,7.22,7.22,0,0,0,.47-7.07c-1.22-2.15-4.34-3.2-6.34-1.74a8.26,8.26,0,0,0,3.17-5.32,6,6,0,0,0-2.3-5.6,4.82,4.82,0,0,0-5.88.2c1.72-3.53,0-8-3.25-10.31s-7.42-2.62-11.29-2a9.55,9.55,0,0,0-4.89,1.95,4.3,4.3,0,0,0-1.34,4.8,12.15,12.15,0,0,0-22.35,8.28c-1.91-.62-3.91.73-5.15,2.31a12.49,12.49,0,0,0,4,18.76c-2.91,2.24-2.95,7.06-.53,9.83s6.6,3.54,10.14,2.58a6,6,0,0,0,8.72,7.31l.28-.18A46.149,46.149,0,0,0,167,271.91c-1.32,6.83-.61,13.86.1,20.78a30.439,30.439,0,0,0,1.49,7.78c1.5,4,6.5,13.33,9.48,16.35l69.35-51.33C247.55,259.6,238.43,249.6,234.66,248Z" fill="#263238"/><path d="M271,416l-9.72-12.83-28.81,16.57c.87,1,22.71,33.3,30.72,32.79s71.34-40.64,71.34-40.64L337,386.46Z" fill="#ffbe9d"/><path d="M249.84,286c1.58-12.35-9.22-27.06-21.62-28.12l-40.86-.09-1.14,6.59L173,346.11h0s-1.43,20.51,21,23.28c20.13,2.48,22.85-12.37,22.85-12.38l2.76-16.53s17.38.2,23.28-17.4C246.19,313.19,248.09,299.71,249.84,286Z" fill="#ffbe9d"/><path d="M242.64,297.91a2.65,2.65,0,0,1-3,2.15,2.53,2.53,0,0,1-2.23-2.87,2.65,2.65,0,0,1,3-2.15,2.54,2.54,0,0,1,2.23,2.87Z" fill="#263238"/><path d="M244.58,293.93c-.38.28-2.08-1.57-4.89-2.1s-5.13.48-5.37.07c-.12-.18.33-.73,1.35-1.21a7.32,7.32,0,0,1,4.38-.48,7,7,0,0,1,3.81,2.1C244.6,293.14,244.77,293.81,244.58,293.93Z" fill="#263238"/><path d="M216,293.27a2.65,2.65,0,0,1-3,2.15,2.53,2.53,0,0,1-2.23-2.87,2.65,2.65,0,0,1,3-2.15,2.54,2.54,0,0,1,2.23,2.87Z" fill="#263238"/><path d="M216.9,289.14c-.39.28-2.09-1.56-4.89-2.1s-5.13.48-5.37.07c-.12-.18.32-.73,1.35-1.21a7.24,7.24,0,0,1,4.38-.47,7,7,0,0,1,3.81,2.09C216.91,288.35,217.09,289,216.9,289.14Z" fill="#263238"/><path d="M219.48,340.57a52.63,52.63,0,0,1-25.83-12.51s4.34,15.44,25.06,17.46Z" fill="#eb996e"/><path d="M214.2,309.63c.46.06-.12,3.1,2.07,5.77s5.5,3,5.44,3.38c0,.2-.83.45-2.21.23a7.77,7.77,0,0,1-4.58-2.66,6.77,6.77,0,0,1-1.54-4.8C213.51,310.26,214,309.57,214.2,309.63Z" fill="#263238"/><path d="M220.68,281.32c-.61,1.24-4.09-.08-8.46-.21s-8.09.74-8.42-.54c-.15-.61.69-1.72,2.31-2.72a11.93,11.93,0,0,1,6.64-1.66,10.8,10.8,0,0,1,6.22,2.23C220.37,279.56,221,280.73,220.68,281.32Z" fill="#263238"/><path d="M246.14,287.56c-.8,1-2.85-.59-5.57-1.17s-5.18-.24-5.49-1.49c-.13-.6.45-1.64,1.66-2.48a6.11,6.11,0,0,1,4.88-.93,6.49,6.49,0,0,1,4,3.07C246.4,285.87,246.5,287.07,246.14,287.56Z" fill="#263238"/><path d="M248.55,275.63s-3.19-10.38-8.41-8-10.68,3.48-13.82,1.21-9-6.33-17.63-5.09-12.77,8.44-14.53,20c-2.59,16.92-16.57,34.46-16.57,34.46s-8.16-7-6.34-17.38l.6-22.42s7.8-24.77,9.42-27.4,20.73-6.4,20.73-6.4,26.53-1.36,34.84,4.34C250.18,258,248.55,275.63,248.55,275.63Z" fill="#263238"/><path d="M193,290.28c-.25-.23-10.66-7.68-14.42,4.28s9,13.28,9.15,12.94S193,290.28,193,290.28Z" fill="#ffbe9d"/><path d="M185.51,301.82c0-.06-.25.08-.66.13a2.17,2.17,0,0,1-1.56-.46c-1.12-.86-1.56-3.2-.94-5.38a7.359,7.359,0,0,1,1.53-2.8,2.51,2.51,0,0,1,2.07-1.1,1.1,1.1,0,0,1,1.05,1c.05.39-.1.6,0,.64s.32-.11.38-.64a1.44,1.44,0,0,0-.24-.9,1.65,1.65,0,0,0-1-.66,3.05,3.05,0,0,0-2.76,1.17,7.3,7.3,0,0,0-1.78,3.1c-.68,2.44-.15,5.08,1.42,6.13a2.35,2.35,0,0,0,2,.28C185.4,302.1,185.55,301.85,185.51,301.82Z" fill="#8c5249"/><path d="M223.24,310.78A14.171,14.171,0,0,1,226,311c.42,0,.91.12,1.36.15a1.42,1.42,0,0,0,1.18-.6,1.37,1.37,0,0,0,.25-.68,2.77,2.77,0,0,0-.09-.82c-.11-.61-.22-1.23-.33-1.87-.44-2.56-.81-4.88-1.06-6.56a15.139,15.139,0,0,1-.29-2.75,14.24,14.24,0,0,1,.65,2.69c.34,1.66.77,4,1.22,6.53.1.64.21,1.26.31,1.87l.08.45a2.181,2.181,0,0,1,0,.51,1.88,1.88,0,0,1-.36.91,1.84,1.84,0,0,1-1.58.75c-.54-.06-1-.15-1.4-.22a15,15,0,0,1-2.7-.58Z" fill="#263238"/><path d="M204.76,300.67c-.11.07-.27,0-.37-.14s-.11-.32,0-.39.27,0,.37.13A.3.3,0,0,1,204.76,300.67Z" fill="#8c5249"/><path d="M209.2,301.73c-.12,0-.15-.31-.07-.63s.24-.55.36-.52.15.31.07.63S209.32,301.76,209.2,301.73Z" fill="#8c5249"/><path d="M213.59,301.57c-.11,0-.16-.22-.1-.42s.2-.32.32-.29.16.23.1.42S213.71,301.61,213.59,301.57Z" fill="#8c5249"/><path d="M206.72,305.68c-.11.05-.29-.11-.4-.36s-.1-.5,0-.54.29.11.4.36S206.84,305.63,206.72,305.68Z" fill="#8c5249"/><path d="M210.63,305.24c-.11-.05-.13-.25,0-.44s.25-.3.36-.25.13.24.05.43S210.74,305.29,210.63,305.24Z" fill="#8c5249"/><path d="M236.15,306.52c-.13,0-.24-.21-.36-.45s-.2-.47-.12-.56.37,0,.52.37S236.27,306.52,236.15,306.52Z" fill="#8c5249"/><path d="M239.12,307c-.1-.07,0-.34.13-.62s.41-.45.51-.38.05.34-.13.62S239.23,307.11,239.12,307Z" fill="#8c5249"/><path d="M242,308.1c-.1-.06-.07-.3.07-.54s.35-.36.45-.3.07.31-.07.54S242.11,308.16,242,308.1Z" fill="#8c5249"/><path d="M236.14,311.44c-.11.05-.28-.07-.37-.26s-.08-.4,0-.45.27.06.37.26S236.25,311.38,236.14,311.44Z" fill="#8c5249"/><path d="M239.24,311.15c-.11,0-.16-.21-.11-.38s.2-.27.31-.24.17.21.11.38S239.36,311.19,239.24,311.15Z" fill="#8c5249"/><path d="M223.65,305.83c-.11,0-.15-.29-.08-.58s.23-.51.35-.48.16.29.08.58S223.77,305.86,223.65,305.83Z" fill="#8c5249"/><path d="M231.24,305.3a.192.192,0,1,1-.03-.38.22.22,0,0,1,.24.17.21.21,0,0,1-.21.21Z" fill="#8c5249"/><path d="M222.88,301.14c-.12,0-.23-.15-.24-.36s.07-.38.19-.39.23.15.25.36S223,301.13,222.88,301.14Z" fill="#8c5249"/><path d="M217.08,303.94c-.12,0-.16-.24-.1-.46s.22-.37.33-.33.16.24.1.46S217.2,304,217.08,303.94Z" fill="#8c5249"/><path d="M223.72,294.13c-.12,0-.17-.24-.1-.45s.21-.38.33-.34.16.24.09.46S223.83,294.17,223.72,294.13Z" fill="#8c5249"/><path d="M155.62,357.12,105.8,464.65h96.56l11-56.18,10.24,16.44,40.79-23.76s-34-54.63-39.93-58.87c-3.79-2.71-17.88-9.08-34.13-8.57A39.94,39.94,0,0,0,155.62,357.12Z" fill="#455a64"/><path d="M205.57,448.28c0,.14-20.41.26-45.58.26s-45.59-.12-45.59-.26S134.81,448,160,448,205.57,448.13,205.57,448.28Z" fill="#fafafa"/><path d="M211.36,420.43a7.781,7.781,0,0,1-.85,0l-2.43-.13-8.93-.51c-7.54-.43-18-.95-29.49-1.33s-22-.53-29.52-.59l-8.95-.07h-2.43a4.288,4.288,0,0,1-.85-.05,6.222,6.222,0,0,1,.85-.06l2.43-.06c2.11,0,5.17-.09,8.95-.1,7.56,0,18,.07,29.54.44s21.95,1,29.49,1.48c3.77.26,6.82.49,8.93.68l2.42.22a4.377,4.377,0,0,1,.84.08Z" fill="#fafafa"/><path d="M205,392.15c0,.15-14.3-.37-31.93-1.15s-31.92-1.53-31.91-1.68,14.3.38,31.93,1.16S205,392,205,392.15Z" fill="#fafafa"/><path d="M258.21,388.78c.09.12-8.63,6.46-19.46,14.18S219.07,416.83,219,416.71s8.63-6.46,19.47-14.18S258.13,388.66,258.21,388.78Z" fill="#fafafa"/><path d="M239.49,363c.07.12-8.37,4.85-18.84,10.56s-19,10.23-19.09,10.1,8.36-4.85,18.84-10.56S239.42,362.9,239.49,363Z" fill="#fafafa"/><path d="M226.91,344.85c0,.12-2.15-.2-5.59,0L220,345l-1.45.2c-1,.12-2.06.39-3.18.61a45.718,45.718,0,0,0-7,2.38,49.62,49.62,0,0,0-11.45,7.06c-.69.52-1.26,1.06-1.78,1.5a15.415,15.415,0,0,0-1.31,1.19,8.172,8.172,0,0,1-1.13,1,8,8,0,0,1,1-1.13c.33-.36.74-.79,1.25-1.26s1.06-1,1.74-1.58a46.61,46.61,0,0,1,11.48-7.25,43.562,43.562,0,0,1,7.11-2.37c1.13-.21,2.2-.47,3.23-.57.51-.06,1-.13,1.47-.17l1.37-.08a23.18,23.18,0,0,1,2.35,0,14.071,14.071,0,0,1,1.77.12,9.538,9.538,0,0,1,1.44.2Z" fill="#fafafa"/><path d="M194.06,365.57c0,.14-9.46-.15-21.12-.66s-21.11-1-21.11-1.18,9.47.15,21.13.66S194.07,365.42,194.06,365.57Z" fill="#fafafa"/><path d="M194.58,342.06c0,.14-6.1.3-13.63.35s-13.64,0-13.64-.17,6.1-.3,13.64-.35S194.58,341.92,194.58,342.06Z" fill="#fafafa"/><path d="M205.22,337.23a20.9,20.9,0,0,0-3.1.95,15.08,15.08,0,0,0-6.51,5.76,20.22,20.22,0,0,0-3.05,12.47c.27,4.94,2,10.17,4.17,15.45,4.38,10.59,8.79,20,12.1,26.73,1.66,3.33,3,6,4,8l1.08,2.16a4.592,4.592,0,0,1,.35.77,7.12,7.12,0,0,1-.44-.72l-1.17-2.11c-1-1.85-2.43-4.54-4.13-7.89-3.4-6.71-7.87-16.09-12.26-26.7-2.18-5.3-3.91-10.6-4.16-15.63a20.36,20.36,0,0,1,3.23-12.69A14.88,14.88,0,0,1,202,338a9.079,9.079,0,0,1,1.33-.45,5.491,5.491,0,0,1,1-.22A5.27,5.27,0,0,1,205.22,337.23Z" fill="#263238"/><path d="M235.37,421.56l82.76-19.13,55.44-113.27s26.36,15.24,23.17,39c-1.67,12.45-13.83,50.83-24.7,83.1a65.05,65.05,0,0,1-58.7,44.21l-90.74.29Z" fill="#263238"/><path d="M352.58,440s-.59.72-1.83,2a35.491,35.491,0,0,1-6.17,4.69,60.3,60.3,0,0,1-11.13,5.2,64.659,64.659,0,0,1-16,3.28c-12.05,1.09-26.48,1.48-42.53,1.56s-33.75-.16-52.37-.71h-.36l.12-.34,1.86-5c3.77-10.08,7.44-19.9,10.93-29.22v-.13h.14l41.86-9.94,17.9-4.24c5.58-1.29,10.72-2.59,15.44-3.57a72.061,72.061,0,0,1,12.85-1.64A34.048,34.048,0,0,1,333,403c.63.2,1.25.34,1.79.56l1.53.6c.93.43,1.69.83,2.29,1.16s1,.65,1.33.85a2.585,2.585,0,0,1,.43.3s-.16-.08-.46-.26l-1.34-.82c-.61-.31-1.38-.7-2.3-1.11l-1.53-.57c-.54-.21-1.15-.34-1.78-.54a34.09,34.09,0,0,0-9.57-1,72,72,0,0,0-12.79,1.7c-4.7,1-9.85,2.32-15.42,3.63l-17.89,4.29-41.85,10,.18-.16L224.7,450.87l-1.86,5-.23-.35c18.61.56,36.3.79,52.34.76s30.47-.4,42.5-1.45a64.68,64.68,0,0,0,15.9-3.19,60,60,0,0,0,11.13-5.1,36.71,36.71,0,0,0,6.2-4.6c.65-.59,1.09-1.11,1.41-1.43S352.58,440,352.58,440Z" fill="#263238"/><path d="M349.78,329.11a4.191,4.191,0,0,1-.31.76l-1,2.13c-.88,1.85-2.12,4.53-3.62,7.86-3,6.64-7,15.92-11.2,26.22s-8.09,19.63-11,26.33c-1.46,3.35-2.65,6.06-3.5,7.91q-.63,1.33-1,2.13a4.765,4.765,0,0,1-.38.73,4.689,4.689,0,0,1,.28-.77l.9-2.17,3.35-8c2.79-6.8,6.62-16.1,10.85-26.39s8.25-19.56,11.35-26.18c1.54-3.31,2.84-6,3.77-7.78.45-.88.81-1.57,1.07-2.09A6.841,6.841,0,0,1,349.78,329.11Z" fill="#263238"/><path d="M365.5,329.2a26.734,26.734,0,0,1,2.64-1.09,38.181,38.181,0,0,0,6.07-3.16,39.816,39.816,0,0,0,5.38-4.23c1.28-1.21,2-2,2.07-2a11,11,0,0,1-1.81,2.23,31.109,31.109,0,0,1-5.36,4.4,30.223,30.223,0,0,1-6.21,3.08,10.852,10.852,0,0,1-2.78.77Z" fill="#fafafa"/><path d="M384.42,317.89c.07.13-.84.81-2,1.53a6.41,6.41,0,0,1-2.31,1.08,12.39,12.39,0,0,1,4.35-2.61Z" fill="#fafafa"/><path d="M383.27,316.87c.1.1-.48.82-1.18,1.7s-1.26,1.6-1.39,1.52.26-.94,1-1.85S383.17,316.77,383.27,316.87Z" fill="#fafafa"/><path d="M381.69,316.24a4.47,4.47,0,0,1-.43,2.11,4.749,4.749,0,0,1-.92,1.95,4.46,4.46,0,0,1,.43-2.11C381.14,317.06,381.56,316.19,381.69,316.24Z" fill="#fafafa"/><path d="M379.86,316.3c.14,0,.32.82.4,1.87a4.162,4.162,0,0,1-.11,1.91,4.261,4.261,0,0,1-.41-1.87C379.65,317.17,379.71,316.31,379.86,316.3Z" fill="#fafafa"/><path d="M374.12,319a2.51,2.51,0,0,1,.41,1.24,7.07,7.07,0,0,1-1.9,5.85c-.57.58-1,.81-1.06.77a12.411,12.411,0,0,0,2.18-3.64,12.54,12.54,0,0,0,.37-4.22Z" fill="#fafafa"/><path d="M375.41,316.8c.14,0,.07.87-.31,1.83s-.91,1.61-1,1.54a5.236,5.236,0,0,1,.54-1.73C375,317.53,375.27,316.77,375.41,316.8Z" fill="#fafafa"/><path d="M373.89,316.35c.13-.05.54.7.58,1.74s-.32,1.81-.45,1.77,0-.81-.07-1.75S373.75,316.4,373.89,316.35Z" fill="#fafafa"/><path d="M372,317c.11-.09.66.38,1.23,1.06s.95,1.3.84,1.39-.66-.38-1.23-1.05S371.84,317.09,372,317Z" fill="#fafafa"/><path d="M371.75,319.11c0-.14.65-.16,1.41,0s1.34.34,1.32.48-.65.16-1.41,0S371.73,319.25,371.75,319.11Z" fill="#fafafa"/><path d="M380.64,326.53a24.778,24.778,0,0,0-4.13-.53,25.545,25.545,0,0,0-4.11.68,8.11,8.11,0,0,1,8.24-.15Z" fill="#fafafa"/><path d="M383.41,324.23c.08.11-.62.71-1.62,1.22s-1.9.73-2,.59.73-.56,1.71-1.05S383.33,324.1,383.41,324.23Z" fill="#fafafa"/><path d="M383.74,327.09c0,.14-.87,0-1.88-.18s-1.84-.37-1.83-.51.88-.19,1.92,0A3.489,3.489,0,0,1,383.74,327.09Z" fill="#fafafa"/><path d="M381.78,329.57c-.14.05-.47-.63-1-1.39s-1-1.35-.88-1.46.77.34,1.31,1.17S381.92,329.53,381.78,329.57Z" fill="#fafafa"/><path d="M379.15,329.32c-.13-.07.1-.68.12-1.46s-.14-1.4,0-1.46.57.57.53,1.48S379.27,329.4,379.15,329.32Z" fill="#fafafa"/><path d="M369.39,379.7a25.6,25.6,0,0,1-1.52-2.41,38.816,38.816,0,0,0-4.16-5.44,39.939,39.939,0,0,0-5.08-4.58,27.634,27.634,0,0,1-2.29-1.7,10.852,10.852,0,0,1,2.5,1.4,30.47,30.47,0,0,1,9.34,10.13,11.461,11.461,0,0,1,1.21,2.6Z" fill="#fafafa"/><path d="M355,363c.11-.1.94.69,1.85,1.75a6.661,6.661,0,0,1,1.46,2.08c-.11.08-.94-.68-1.85-1.74A6.331,6.331,0,0,1,355,363Z" fill="#fafafa"/><path d="M354.21,364.31c.08-.12.89.32,1.87.86s1.79,1,1.74,1.12a3.667,3.667,0,0,1-2-.66C354.82,365.07,354.12,364.42,354.21,364.31Z" fill="#fafafa"/><path d="M353.85,366a4.46,4.46,0,0,1,2.15,0,4.709,4.709,0,0,1,2.08.58,4.691,4.691,0,0,1-2.16-.07,4.63,4.63,0,0,1-2.07-.51Z" fill="#fafafa"/><path d="M354.23,367.76a3.916,3.916,0,0,1,1.77-.72c1.01-.26,1.87-.35,1.9-.21s-.75.46-1.77.72S354.26,367.9,354.23,367.76Z" fill="#fafafa"/><path d="M357.86,373a2.466,2.466,0,0,1,1.15-.62,7.08,7.08,0,0,1,6.09.87c.67.47,1,.87.93.92a12.339,12.339,0,0,0-3.95-1.53,12.53,12.53,0,0,0-4.22.36Z" fill="#fafafa"/><path d="M355.48,372.06c0-.15.85-.22,1.86,0s1.74.61,1.69.75-.84,0-1.8-.25S355.48,372.2,355.48,372.06Z" fill="#fafafa"/><path d="M355.3,373.63c-.08-.12.59-.65,1.61-.86s1.84,0,1.82.14-.79.17-1.71.37S355.37,373.76,355.3,373.63Z" fill="#fafafa"/><path d="M356.26,375.44c-.11-.09.27-.72.83-1.4s1.12-1.16,1.23-1.06-.26.71-.83,1.39S356.37,375.53,356.26,375.44Z" fill="#fafafa"/><path d="M358.38,375.27c-.14,0-.27-.62-.27-1.38s.1-1.38.24-1.38.27.61.28,1.38S358.53,375.27,358.38,375.27Z" fill="#fafafa"/><path d="M364.18,365.25a23.847,23.847,0,0,0,.18,4.16,26.131,26.131,0,0,0,1.37,3.93,6.68,6.68,0,0,1-1.88-3.83A6.55,6.55,0,0,1,364.18,365.25Z" fill="#fafafa"/><path d="M361.43,362.91c.1-.1.81.49,1.49,1.39a3.731,3.731,0,0,1,.91,1.82c-.09.07-.67-.63-1.33-1.51S361.32,363,361.43,362.91Z" fill="#fafafa"/><path d="M364.2,362.09c.14,0,.16.86.14,1.89s0,1.87-.19,1.89-.34-.83-.33-1.89S364.06,362.07,364.2,362.09Z" fill="#fafafa"/><path d="M367,363.6c.07.13-.54.58-1.21,1.2s-1.16,1.19-1.28,1.12.2-.83.93-1.5S366.92,363.48,367,363.6Z" fill="#fafafa"/><path d="M367.18,366.23c-.05.14-.69,0-1.46.14s-1.35.38-1.44.25.47-.65,1.37-.77S367.24,366.11,367.18,366.23Z" fill="#fafafa"/><path d="M319.62,438.19a27.83,27.83,0,0,1-1.52-2.42,37.859,37.859,0,0,0-4.16-5.43,37.238,37.238,0,0,0-5.08-4.58,26.13,26.13,0,0,1-2.29-1.71,11,11,0,0,1,2.5,1.41,30.461,30.461,0,0,1,9.35,10.12,10.539,10.539,0,0,1,1.2,2.61Z" fill="#fafafa"/><path d="M305.25,421.48c.11-.09.94.69,1.86,1.75a6.39,6.39,0,0,1,1.45,2.09c-.11.09-.93-.69-1.85-1.75S305.14,421.58,305.25,421.48Z" fill="#fafafa"/><path d="M304.44,422.79c.09-.12.89.33,1.87.87s1.8,1,1.74,1.11a3.747,3.747,0,0,1-2-.66C305.05,423.55,304.35,422.9,304.44,422.79Z" fill="#fafafa"/><path d="M304.09,424.45a9.19,9.19,0,0,1,4.23.64,4.461,4.461,0,0,1-2.16-.06C305,424.85,304.06,424.59,304.09,424.45Z" fill="#fafafa"/><path d="M304.46,426.25a3.916,3.916,0,0,1,1.77-.72c1.01-.26,1.87-.36,1.91-.22s-.76.47-1.78.72S304.49,426.39,304.46,426.25Z" fill="#fafafa"/><path d="M308.09,431.44a2.623,2.623,0,0,1,1.15-.61,6.86,6.86,0,0,1,3.15-.26,7,7,0,0,1,2.95,1.13c.66.47,1,.87.93.91a12.59,12.59,0,0,0-3.95-1.53A12.93,12.93,0,0,0,308.09,431.44Z" fill="#fafafa"/><path d="M305.72,430.54c0-.14.84-.21,1.85,0s1.75.62,1.69.75-.84,0-1.8-.24S305.71,430.69,305.72,430.54Z" fill="#fafafa"/><path d="M305.53,432.12c-.08-.12.6-.66,1.61-.87s1.85,0,1.83.14-.8.17-1.72.37S305.6,432.25,305.53,432.12Z" fill="#fafafa"/><path d="M306.5,433.93c-.11-.1.26-.72.83-1.4s1.12-1.16,1.23-1.07-.26.72-.83,1.4S306.61,434,306.5,433.93Z" fill="#fafafa"/><path d="M308.62,433.76c-.15,0-.27-.62-.28-1.38s.1-1.38.24-1.39.27.62.28,1.38S308.76,433.76,308.62,433.76Z" fill="#fafafa"/><path d="M314.41,423.73a25.06,25.06,0,0,0,.18,4.16,24.209,24.209,0,0,0,1.38,3.94A8.09,8.09,0,0,1,314.41,423.73Z" fill="#fafafa"/><path d="M311.66,421.39c.11-.1.82.49,1.49,1.4a4.085,4.085,0,0,1,.92,1.82c-.08.07-.68-.64-1.34-1.51S311.56,421.49,311.66,421.39Z" fill="#fafafa"/><path d="M314.43,420.58c.15,0,.16.86.15,1.89s-.05,1.87-.2,1.88-.34-.83-.32-1.89S314.29,420.56,314.43,420.58Z" fill="#fafafa"/><path d="M317.21,422.09c.07.13-.54.57-1.21,1.2s-1.15,1.19-1.28,1.11.2-.82.93-1.49A2.5,2.5,0,0,1,317.21,422.09Z" fill="#fafafa"/><path d="M317.41,424.72c-.05.14-.69,0-1.45.13s-1.36.38-1.44.26.46-.65,1.37-.77S317.47,424.59,317.41,424.72Z" fill="#fafafa"/><path d="M344,421.87a25.146,25.146,0,0,1,1.93-2.11,36.921,36.921,0,0,0,7.21-11.56,24.99,24.99,0,0,1,1-2.65,10.742,10.742,0,0,1-.7,2.78A30.34,30.34,0,0,1,346.22,420,11.271,11.271,0,0,1,344,421.87Z" fill="#fafafa"/><path d="M356.34,403.59a6.41,6.41,0,0,1-1.2,2.25,8.618,8.618,0,0,1-1.63,2,6.41,6.41,0,0,1,1.2-2.25C355.49,404.39,356.22,403.51,356.34,403.59Z" fill="#fafafa"/><path d="M354.86,403.15c.14.06-.08,1-.34,2a7.238,7.238,0,0,1-.61,2,3.56,3.56,0,0,1,.11-2.09C354.28,403.94,354.73,403.1,354.86,403.15Z" fill="#fafafa"/><path d="M353.17,403.25a8.92,8.92,0,0,1,.5,4.26,4.72,4.72,0,0,1-.51-2.1A4.5,4.5,0,0,1,353.17,403.25Z" fill="#fafafa"/><path d="M351.53,404.09c.13-.07.65.61,1.17,1.52s.83,1.71.71,1.78-.65-.61-1.17-1.52S351.41,404.16,351.53,404.09Z" fill="#fafafa"/><path d="M347.48,409a3.264,3.264,0,0,1,.9.94,7,7,0,0,1,.77,6.11c-.27.76-.58,1.17-.63,1.14a12.609,12.609,0,0,0,.43-4.22,12.23,12.23,0,0,0-1.47-3.97Z" fill="#fafafa"/><path d="M347.73,406.44a2.929,2.929,0,0,1,.49,1.78c.06,1.02-.14,1.85-.28,1.84s-.18-.83-.24-1.81S347.58,406.47,347.73,406.44Z" fill="#fafafa"/><path d="M346.16,406.67c.09-.1.79.41,1.26,1.33s.48,1.78.35,1.79-.38-.72-.82-1.55S346.05,406.78,346.16,406.67Z" fill="#fafafa"/><path d="M344.67,408.08c.06-.13.76.07,1.57.43s1.41.78,1.35.91-.76-.06-1.57-.43S344.61,408.21,344.67,408.08Z" fill="#fafafa"/><path d="M345.39,410.08c0-.14.53-.42,1.26-.63s1.36-.27,1.4-.13-.52.42-1.26.63S345.43,410.22,345.39,410.08Z" fill="#fafafa"/><path d="M356.59,413a24.305,24.305,0,0,0-4,1.27,25.2,25.2,0,0,0-3.43,2.37,8.1,8.1,0,0,1,7.39-3.64Z" fill="#fafafa"/><path d="M358.12,409.75c.12.08-.26.92-.95,1.8s-1.41,1.47-1.51,1.37.43-.82,1.1-1.69S358,409.68,358.12,409.75Z" fill="#fafafa"/><path d="M359.64,412.21c0,.14-.79.38-1.78.64s-1.82.44-1.88.31.72-.55,1.74-.82S359.62,412.07,359.64,412.21Z" fill="#fafafa"/><path d="M358.92,415.28c-.11.11-.7-.36-1.48-.84s-1.45-.8-1.41-.95.84,0,1.69.51S359,415.19,358.92,415.28Z" fill="#fafafa"/><path d="M356.43,416.18c-.15,0-.2-.66-.51-1.37s-.72-1.21-.63-1.32.75.27,1.11,1.11S356.57,416.2,356.43,416.18Z" fill="#fafafa"/><path d="M255.78,441.83a26.252,26.252,0,0,1,1.93-2.1,39.136,39.136,0,0,0,4.14-5.45,38.58,38.58,0,0,0,3.07-6.11,25.885,25.885,0,0,1,1-2.66,10.639,10.639,0,0,1-.7,2.78A30.14,30.14,0,0,1,258,440,10.51,10.51,0,0,1,255.78,441.83Z" fill="#fafafa"/><path d="M268.09,423.56a6.41,6.41,0,0,1-1.2,2.25,8.617,8.617,0,0,1-1.63,2,6.621,6.621,0,0,1,1.2-2.25A6.78,6.78,0,0,1,268.09,423.56Z" fill="#fafafa"/><path d="M266.61,423.12c.14.05-.08.94-.34,2a6.189,6.189,0,0,1-.61,2,3.56,3.56,0,0,1,.11-2.09C266,423.91,266.48,423.07,266.61,423.12Z" fill="#fafafa"/><path d="M264.92,423.22a8.86,8.86,0,0,1,.5,4.25,8.86,8.86,0,0,1-.5-4.25Z" fill="#fafafa"/><path d="M263.28,424.05c.13-.07.65.61,1.17,1.52s.83,1.71.71,1.78-.65-.61-1.17-1.52S263.16,424.12,263.28,424.05Z" fill="#fafafa"/><path d="M259.23,428.93a3.231,3.231,0,0,1,.9.95,7,7,0,0,1,.77,6.1c-.27.77-.58,1.17-.63,1.14a12.521,12.521,0,0,0,.43-4.21,12.35,12.35,0,0,0-1.47-3.98Z" fill="#fafafa"/><path d="M259.48,426.4a2.943,2.943,0,0,1,.49,1.79c.06,1.03-.14,1.85-.28,1.83s-.18-.82-.24-1.8S259.33,426.43,259.48,426.4Z" fill="#fafafa"/><path d="M257.91,426.64c.09-.11.79.4,1.26,1.32s.48,1.78.35,1.8-.38-.72-.82-1.56S257.8,426.74,257.91,426.64Z" fill="#fafafa"/><path d="M256.42,428.05c.06-.13.76.06,1.57.43s1.41.77,1.35.9-.76-.06-1.57-.43S256.36,428.18,256.42,428.05Z" fill="#fafafa"/><path d="M257.14,430.05c0-.14.53-.42,1.26-.63s1.36-.27,1.4-.13-.52.42-1.26.63S257.18,430.18,257.14,430.05Z" fill="#fafafa"/><path d="M268.34,433a25,25,0,0,0-4,1.28,24.657,24.657,0,0,0-3.43,2.36A8.1,8.1,0,0,1,268.3,433Z" fill="#fafafa"/><path d="M269.87,429.72c.12.07-.26.91-.95,1.8s-1.41,1.46-1.51,1.36.43-.82,1.1-1.68S269.75,429.64,269.87,429.72Z" fill="#fafafa"/><path d="M271.39,432.17c0,.14-.79.38-1.78.64s-1.82.45-1.88.31.72-.55,1.74-.81S271.37,432,271.39,432.17Z" fill="#fafafa"/><path d="M270.67,435.25c-.11.1-.7-.37-1.48-.85s-1.45-.8-1.41-.94.85,0,1.69.5S270.77,435.16,270.67,435.25Z" fill="#fafafa"/><path d="M268.18,436.14c-.14,0-.2-.66-.51-1.37s-.72-1.2-.63-1.32.75.27,1.11,1.12S268.32,436.17,268.18,436.14Z" fill="#fafafa"/><path d="M138,375.13a10.84,10.84,0,0,0-3.77,11.1c1.67,7.21,11.38,29.42,11.38,29.42s9.72,13,13.33,13.87,12.48,1.11,12.48,1.11,1.11-2.22-1.94-2.77-8.32-4.72-8.32-4.72L154.17,414s10.27,8.33,13.6,9.44,16.37,1.66,16.37,1.66l5.27-10-3-6.38-8.05-4.17L166.1,392.06v-4.72l9,6.38s7.15,5,11.53,1.11l-7.77-6.38s-10.83-11.94-13.6-13.32-13.53-3.89-13.53-3.89Z" fill="#ffbe9d"/><path d="M186.19,420.37a5.671,5.671,0,0,1-1.22.23,12.331,12.331,0,0,1-1.44.14,15.479,15.479,0,0,1-1.93,0,27.761,27.761,0,0,1-5-.53,28.76,28.76,0,0,1-11.2-4.93,27.643,27.643,0,0,1-3.77-3.32,17.081,17.081,0,0,1-1.27-1.45,11.6,11.6,0,0,1-.87-1.16,5.441,5.441,0,0,1-.66-1.06c.09-.06,1.07,1.42,3.07,3.41a29,29,0,0,0,3.78,3.19,32.76,32.76,0,0,0,5.27,3,33.934,33.934,0,0,0,5.75,1.87,31,31,0,0,0,4.91.64C184.43,420.54,186.18,420.26,186.19,420.37Z" fill="#eb996e"/><path d="M187.59,417.33a6.132,6.132,0,0,1-1.24-.18c-.79-.15-1.93-.38-3.34-.72a32.26,32.26,0,0,1-10.44-4.25A23.19,23.19,0,0,1,168,408c-1.24-1.45-2.28-2.81-3.2-3.91s-1.7-2-2.26-2.54a8,8,0,0,1-.86-.91,5,5,0,0,1,1,.76,28.537,28.537,0,0,1,2.4,2.45l3.29,3.83a23.451,23.451,0,0,0,4.52,4.11,34.679,34.679,0,0,0,10.24,4.33l3.29.87a5.361,5.361,0,0,1,1.17.34Z" fill="#eb996e"/><path d="M196.14,389.51a1.69,1.69,0,0,0-2.66,1.15,14.16,14.16,0,0,0,.14,4.87c.81,3.54,7.06,7.52,7.06,7.52l9.22,9.37-12.61.05-7.35,9.14,1.64,6.54,9.79,23,22.35,1.63,11.16-29.87s-16.64-21.29-18.54-22.11-10.61-4.35-10.61-4.35Z" fill="#ffbe9d"/><path d="M210,410.4a2.74,2.74,0,0,1,0,1.45,7.48,7.48,0,0,1-1.38,3.2,7.6,7.6,0,0,1-2.68,2.25,2.76,2.76,0,0,1-1.38.4,12,12,0,0,0,3.64-3,11.79,11.79,0,0,0,1.8-4.3Z" fill="#eb996e"/><path d="M531.35,191.69c0-3.08,3-7,5.49-8.84a20.51,20.51,0,0,1,8.46-3.44,43.44,43.44,0,0,1,42.27,15.89c2,2.63,3.74,5.65,3.88,9s-1.8,6.87-5,7.68a7.07,7.07,0,0,1-.68,12.46c1.52,4.45-.95,9.26-3.89,12.92-11.44,14.27-30.57,20.76-48.85,20.53-6.24-.08-12.76-1-17.86-4.55-7.41-5.21-10.14-14.82-11.57-23.77a4,4,0,0,1-5,2.35,5.4,5.4,0,0,1-3.32-4.82,8.78,8.78,0,0,1,2-5.73,10.07,10.07,0,0,1-4.07.72,3.43,3.43,0,0,1-3.09-2.39,3.79,3.79,0,0,1,1.67-3.55c1.08-.86,2.39-1.39,3.5-2.21,4.13-3,4.44-9,6.35-13.71a19.55,19.55,0,0,1,29.71-8.5" fill="#263238"/><path d="M580.14,215.57c-2.21-12-16.68-22.5-28.57-19.78L513.41,207.9l.91,6.48,12.06,80.22h0s6.47,25.57,28.2,21.46c19.53-3.69,15.95-24.36,15.95-24.37l-1.77-11.28s15.13-4.41,15.92-24.94C585.07,245.26,582.6,228.9,580.14,215.57Z" fill="#ffbe9d"/><path d="M573.72,232.38a2.6,2.6,0,0,1-2.18,2.9,2.48,2.48,0,0,1-2.94-2,2.6,2.6,0,0,1,2.17-2.9,2.49,2.49,0,0,1,2.95,2Z" fill="#263238"/><path d="M577.68,225.29c-.28.38-2.41-.84-5.19-.5s-4.65,2-5,1.67c-.16-.13.09-.78.9-1.53a7.16,7.16,0,0,1,4-1.75,6.87,6.87,0,0,1,4.18.81C577.45,224.55,577.82,225.12,577.68,225.29Z" fill="#263238"/><path d="M548.38,235.69a2.61,2.61,0,0,1-2.18,2.91,2.5,2.5,0,0,1-2.94-2,2.6,2.6,0,0,1,2.17-2.91,2.49,2.49,0,0,1,2.95,2Z" fill="#263238"/><path d="M550.89,229.4c-.28.38-2.41-.84-5.19-.5s-4.65,2-5,1.67c-.17-.13.08-.77.9-1.53a7.09,7.09,0,0,1,3.94-1.75,6.85,6.85,0,0,1,4.18.81C550.66,228.66,551,229.23,550.89,229.4Z" fill="#263238"/><path d="M562.9,247.78a21.587,21.587,0,0,1,4.44-1.27c.7-.15,1.36-.35,1.43-.78a3.016,3.016,0,0,0-.67-1.72l-2.61-4.32c-3.64-6.16-6.35-11.26-6-11.4s3.49,4.75,7.13,10.9q1.33,2.28,2.53,4.36a3,3,0,0,1,.63,2.32,1.79,1.79,0,0,1-1.07,1,5.828,5.828,0,0,1-1.19.29A21.518,21.518,0,0,1,562.9,247.78Z" fill="#263238"/><path d="M568.76,280.41a51.61,51.61,0,0,1-27.84-4s8.67,13.11,28.6,8.8Z" fill="#eb996e"/><path d="M555.32,248c.44-.08.81,2.94,3.65,4.77s6,1.11,6.09,1.53c.06.19-.65.67-2,.87a7.54,7.54,0,0,1-5.06-1.11,6.53,6.53,0,0,1-2.87-4C554.86,248.82,555.11,248,555.32,248Z" fill="#263238"/><path d="M550.91,223.68c-.26,1-3.06.59-6.34,1.19s-5.9,1.84-6.36.94c-.2-.43.24-1.39,1.29-2.39a9.14,9.14,0,0,1,4.68-2.3,8.23,8.23,0,0,1,5,.67C550.39,222.41,551,223.2,550.91,223.68Z" fill="#263238"/><path d="M576.66,218.54c-.35,1.08-3,.87-5.95,1.69s-5.17,2.19-6,1.42c-.39-.38-.27-1.39.55-2.56a7.85,7.85,0,0,1,4.38-2.9,7.94,7.94,0,0,1,5.26.4C576.19,217.2,576.8,218,576.66,218.54Z" fill="#263238"/><path d="M545.34,245.39c-.07.1-.24.09-.38,0s-.2-.27-.12-.36a.3.3,0,0,1,.38,0A.275.275,0,0,1,545.34,245.39Z" fill="#eb996e"/><path d="M549.81,245.06c-.12,0-.24-.24-.26-.57s.07-.59.18-.59.24.24.26.57S549.92,245.06,549.81,245.06Z" fill="#eb996e"/><path d="M553.86,243.6c-.12,0-.22-.16-.22-.36s.09-.36.21-.36.22.15.22.35S554,243.6,553.86,243.6Z" fill="#eb996e"/><path d="M548.68,249.49c-.09.08-.31,0-.49-.22s-.24-.43-.15-.51.3,0,.48.22S548.77,249.41,548.68,249.49Z" fill="#eb996e"/><path d="M552.19,247.9c-.12,0-.2-.18-.18-.39s.14-.35.26-.34.2.19.17.39S552.31,247.92,552.19,247.9Z" fill="#eb996e"/><path d="M576.38,241.49a.882.882,0,0,1-.46-.32c-.18-.19-.33-.38-.28-.49s.35-.06.6.2S576.49,241.45,576.38,241.49Z" fill="#eb996e"/><path d="M579.32,241.08c-.12,0-.15-.3-.07-.62s.25-.53.36-.5.15.3.06.61S579.43,241.11,579.32,241.08Z" fill="#eb996e"/><path d="M582.32,241.21c-.12,0-.16-.26-.09-.52s.21-.44.32-.42.16.27.1.53S582.44,241.24,582.32,241.21Z" fill="#eb996e"/><path d="M577.84,246.08c-.08.08-.27,0-.42-.14s-.19-.34-.11-.42.28,0,.43.13S577.93,246,577.84,246.08Z" fill="#eb996e"/><path d="M580.65,244.88c-.12,0-.21-.14-.21-.32s.1-.31.22-.31.21.14.21.32S580.77,244.88,580.65,244.88Z" fill="#eb996e"/><path d="M564.52,244.57c-.12,0-.23-.22-.25-.52s.06-.55.18-.55.23.22.25.52S564.64,244.57,564.52,244.57Z" fill="#eb996e"/><path d="M571.44,241.81a.21.21,0,0,1-.27-.09.22.22,0,0,1,.4-.16.2.2,0,0,1-.13.25Z" fill="#eb996e"/><path d="M562.4,240.42c-.11.05-.26-.07-.34-.26a.369.369,0,0,1,.07-.42c.07-.04.26.07.34.26S562.51,240.38,562.4,240.42Z" fill="#eb996e"/><path d="M557.82,244.77c-.12,0-.22-.17-.22-.4s.08-.41.2-.41.22.18.23.4S557.94,244.77,557.82,244.77Z" fill="#eb996e"/><path d="M561.09,233.64c-.12,0-.23-.18-.23-.4s.08-.41.2-.41.23.17.23.4S561.21,233.64,561.09,233.64Z" fill="#eb996e"/><path d="M518.93,237.64c-.4-.1-15.92-2.12-13.07,13s17.39,9.1,17.33,8.66S518.93,237.64,518.93,237.64Z" fill="#ffbe9d"/><path d="M518.84,254.2c-.07,0-.22.23-.63.52a2.63,2.63,0,0,1-2,.41c-1.71-.28-3.52-2.55-4.11-5.26a8.78,8.78,0,0,1,0-3.89,3.07,3.07,0,0,1,1.6-2.39,1.34,1.34,0,0,1,1.68.42c.28.39.24.71.33.72s.27-.32,0-.92A1.741,1.741,0,0,0,515,243a2.06,2.06,0,0,0-1.52-.11,3.75,3.75,0,0,0-2.3,2.86,9.139,9.139,0,0,0-.12,4.37c.67,3,2.77,5.57,5.06,5.78a2.86,2.86,0,0,0,2.33-.85C518.89,254.57,518.9,254.22,518.84,254.2Z" fill="#eb996e"/><path d="M578.08,200c-2.92-3.94-7.84-6-12.71-6.59s-9.81.2-14.66,1l-40.87,9.42,3.31,33,4.31,4.84,3.65,2.89c3.95-1.94,7.58-7.84,7-14.3a14.25,14.25,0,0,0,9.11-8.67,18.769,18.769,0,0,0-.09-12.76,14,14,0,0,0,8.67,6.73,9,9,0,0,0,4.44.14c4.13-1.05,6.26-6.7,3.84-10.21a29.25,29.25,0,0,0,14.58,7.6c3.32.64,7.16.54,9.55-1.84C581.14,208.37,580.51,203.3,578.08,200Z" fill="#263238"/><path d="M641.07,379.07c4.54,1.61,9.72-1.24,12.22-5.36s2.9-9.15,2.92-14c0-2.51.45-5.74,2.89-6.35,1.58-.4,3.16.62,4.36,1.73a21.21,21.21,0,1,1-29.18,30.77" fill="#ff725e"/><path d="M604.43,292.42l-34.31-4.1c-12.14,8.88-27.31,5.55-44.13.13L491.08,302.4l25,104-5.18,58.83,122.05-.57-11.43-131.9Z" fill="#263238"/><path d="M533.9,312.24c4.55,5.84,11.92,10,17.29,15.42,2.69,2.71,9.06,5.65,12.39,7.5a29.661,29.661,0,0,0,7.79,2.55q9.87,2.31,19.55,5.27c2.7.82,5.47,1.72,7.63,3.53a19.431,19.431,0,0,1,3.56,4.26c4.55,6.78,13.06,14,10.91,21.85-.39,1.43-3.57,14.4-3.57,14.4l-66.83,21L510.56,343.7l-2.17-29.21Z" fill="#ff725e"/><path d="M494.07,299.84s-16.44,7.81-17.46,22.71c-.88,12.93,3.53,44.57,6.19,58.79,3.31,17.72,13.57,32.26,21.22,33.89s64.34-19.88,64.34-19.88l27.14-10.08L582,358.68s-54.87,17.61-57,16.13-31-75-31-75Z" fill="#263238"/><path d="M542.62,408c-.74-.12-.51,20.48.67,26s88.38-13.48,96.79-22.52,5.1-22.7,5.1-22.7l-12.1-62.85c-4.05-16.21-9.65-28.57-24.31-32.38l-4.34-1.13,3.35,42.22,3.86,51.18Z" fill="#263238"/><path d="M623.66,393.17a13.74,13.74,0,0,0-2.27-2.49,15.06,15.06,0,0,0-8.44-3.17,23.6,23.6,0,0,0-6.3.48,63.105,63.105,0,0,0-7,1.94l-16,5.21-29.06,9.36-8.83,2.78-2.41.73a4,4,0,0,1-.85.22s.28-.12.82-.32l2.38-.82,8.77-2.94,29-9.5,16-5.17a60.536,60.536,0,0,1,7.1-1.92,24.339,24.339,0,0,1,6.42-.42,14.9,14.9,0,0,1,8.54,3.39,10.721,10.721,0,0,1,1.7,1.88c.13.22.25.4.34.56S623.67,393.16,623.66,393.17Z" fill="#263238"/><path d="M607.89,358.28c.71-2.78-1.52-6.62-3-5.44-.22.18,4.28-8.21-1.84-8.62a4.69,4.69,0,0,0-1.43.22,14.65,14.65,0,0,0-5.19,2.63c-1,.79-2.2,1.32-2-.82a10.38,10.38,0,0,0-2.65-8.22c-.81-.81-2.83.75-2.58,4.43a16.06,16.06,0,0,1-3,10.38c-1.22,1.93-2.72,8.87-2.72,8.87l10.5,21s12.66-7.54,14-17C608.67,360.65,607.22,360.88,607.89,358.28Z" fill="#ffbe9d"/><path d="M675.91,373c-.09,0,0-1.23-.06-3.21a34,34,0,0,0-1.13-7.6,34.509,34.509,0,0,0-2.84-7.14c-.94-1.74-1.63-2.76-1.56-2.81s.23.21.57.66a22.129,22.129,0,0,1,1.31,2,29,29,0,0,1,4,14.92,20.681,20.681,0,0,1-.15,2.36A2.613,2.613,0,0,1,675.91,373Z" fill="#263238"/><path d="M683.15,371.13c-.09,0,.28-1.39.53-3.65a31.732,31.732,0,0,0,.17-4,33.234,33.234,0,0,0-.51-4.84A34.48,34.48,0,0,0,682,354a32.269,32.269,0,0,0-1.61-3.63c-1.06-2-1.91-3.15-1.83-3.2a3.391,3.391,0,0,1,.65.75,20.2,20.2,0,0,1,1.5,2.27,27.151,27.151,0,0,1,1.74,3.64,30.055,30.055,0,0,1,1.36,4.76,30.5,30.5,0,0,1,.48,4.93,26.23,26.23,0,0,1-.29,4,19.428,19.428,0,0,1-.56,2.66,3.523,3.523,0,0,1-.29.95Z" fill="#263238"/><path d="M656.24,344.9a39.649,39.649,0,0,0-5.64,4.87,39.2,39.2,0,0,0-4.17,6.17,6.768,6.768,0,0,1,.78-2.07,20.261,20.261,0,0,1,3-4.44,20.6,20.6,0,0,1,4.06-3.51,7.14,7.14,0,0,1,1.97-1.02Z" fill="#263238"/><path d="M656.24,339.89a24.941,24.941,0,0,0-5.53,1.79,24.128,24.128,0,0,0-4.64,3.49,11.87,11.87,0,0,1,10.17-5.28Z" fill="#263238"/><path d="M663.44,356.22a19.38,19.38,0,0,0,2.21,24.5c.34.35.79.72,1.26.59a1.43,1.43,0,0,0,.78-.8A20.93,20.93,0,0,0,664,355.78" fill="#ebebeb"/><path d="M586.53,341.67c1,2.83.52,5-.73,7.71a11.91,11.91,0,0,1-6.37,6,6.84,6.84,0,0,1-4.75.31,3.75,3.75,0,0,1-2.57-3.72c.18-1.49,1.48-2.92.93-4.32-.46-1.17-1.92-1.51-2.89-2.31a4.71,4.71,0,0,1-1.51-3.85,13.9,13.9,0,0,1,1-4.14Z" fill="#ebebeb"/><path d="M606.67,320.6a3.374,3.374,0,0,1,.08.66c0,.49.07,1.12.12,1.9.13,1.71.3,4.09.51,7,.46,5.9,1.22,14,2,23s1.52,17.15,1.89,23.06c.19,3,.3,5.35.34,7v1.91a2.818,2.818,0,0,1,0,.66,3.552,3.552,0,0,1-.08-.66c0-.49-.07-1.12-.12-1.9-.12-1.72-.3-4.09-.51-7-.46-5.9-1.22-14-2-23s-1.52-17.14-1.89-23.05c-.19-3-.29-5.35-.34-7v-1.91A2.822,2.822,0,0,1,606.67,320.6Z" fill="#263238"/><g opacity="0.3"><path d="M490.37,321.6a6.86,6.86,0,0,0,.78,8.8c1,.94,2.3,1.59,3,2.74,1.53,2.41-.13,5.58.24,8.41.79,6,9.56,7.49,11.83,13.08,1.61,4-.65,8.33-2.56,12.16-2.64,5.29-4.77,11.09-4.34,17s4,11.88,9.6,13.67a13,13,0,0,0,10.6-1.46,16.38,16.38,0,0,0,6.73-8.41c2.09,2.54,4.53,4.94,7.6,6.11s6.9.84,9.19-1.52c2.65-2.74,2.51-7.16,4.47-10.43,2.17-3.62,6.46-5.23,10.16-7.27s7.42-5.57,6.78-9.75a95.77,95.77,0,0,0-22,5.58c-4.64,1.78-9.84,3.94-14.38,1.9-3.87-1.75-5.86-6-7.54-9.86q-5-11.58-10-23.14c-4-9.29-8.59-19.23-17.45-24.13"/></g><path d="M514.65,350.3c.45,2.54,3.32,8.31,3.67,10.47.47,2.85-1.55,4.65-3.58,6.72-4.06,4.14-7.86,8.81-9.46,14.39s-.55,12.24,3.86,16a8,8,0,0,0,6.56,2.1,7.64,7.64,0,0,0,5.5-5.4c.8-2.58.23-4.81-.37-7.44a9.12,9.12,0,0,1,.12-4.81c.6-1.54,2.23-2.35,3.66-3.16a30,30,0,0,0,10.79-10.4l-2.83,1.1a8.52,8.52,0,0,0,1.48-4.71c-.29.78-.58,1.56-.88,2.33a27.33,27.33,0,0,0-7-14.76" fill="#ff725e"/><path d="M525.92,352.84l.18.19.51.61c.43.54,1.06,1.36,1.78,2.47a32.088,32.088,0,0,1,4.34,10.48h-.31l1.35-2.14.33-.52v.62a11.851,11.851,0,0,1-1.63,6.09l-.26-.29,2.52-1.14.54-.25-.26.53a19.609,19.609,0,0,1-4.9,6.26,29,29,0,0,1-3.42,2.52c-1.21.8-2.56,1.44-3.75,2.26a5.3,5.3,0,0,0-1.52,1.5,4.1,4.1,0,0,0-.61,2,18,18,0,0,0,.55,4.56,13.691,13.691,0,0,1,.26,4.83A8.7,8.7,0,0,1,519.7,398a7,7,0,0,1-5.94,2.34,8.6,8.6,0,0,1-5.51-2.93,16.76,16.76,0,0,1-4-11,18.7,18.7,0,0,1,3-10.14c.93-1.41,1.95-2.62,2.85-3.88A36.666,36.666,0,0,1,513,369c1.94-2.05,4.1-3.59,4.92-5.67a4.4,4.4,0,0,0,.15-3,17.831,17.831,0,0,0-.83-2.47c-.59-1.46-1-2.6-1.29-3.4a6.715,6.715,0,0,1-.29-1.24s.11.42.39,1.21.76,1.9,1.38,3.35a18.853,18.853,0,0,1,.88,2.49,4.58,4.58,0,0,1-.12,3.15,9.24,9.24,0,0,1-2.07,3c-.89.93-1.91,1.81-2.86,2.84a36.082,36.082,0,0,0-2.79,3.41c-.89,1.25-1.93,2.51-2.82,3.87a18.39,18.39,0,0,0-2.92,9.91,16.28,16.28,0,0,0,3.87,10.61,8.05,8.05,0,0,0,5.17,2.76,6.58,6.58,0,0,0,5.51-2.16,8.419,8.419,0,0,0,1.81-4.31,13,13,0,0,0-.26-4.66,19,19,0,0,1-.55-4.69,4.65,4.65,0,0,1,.7-2.28,5.85,5.85,0,0,1,1.65-1.64c1.27-.85,2.58-1.47,3.78-2.25a30.642,30.642,0,0,0,3.38-2.48,19.2,19.2,0,0,0,4.82-6.08l.28.29-2.53,1.13-.59.26.33-.56a11.63,11.63,0,0,0,1.61-5.88l.34.1c-.48.74-1,1.46-1.37,2.12l-.23.35-.08-.41a33.071,33.071,0,0,0-4.17-10.45c-.69-1.12-1.29-1.95-1.7-2.51-.19-.26-.34-.47-.47-.63S525.91,352.85,525.92,352.84Z" fill="#263238"/><path d="M511.88,399.74a4.11,4.11,0,0,1-2.73-4.6,16.371,16.371,0,0,0,1,2.54C510.86,399,512,399.6,511.88,399.74Z" fill="#263238"/><path d="M516.07,399.92a4.69,4.69,0,0,1-2.75-2.13,5.64,5.64,0,0,1-1.09-3.31c.17-.05.52,1.48,1.52,3S516.16,399.77,516.07,399.92Z" fill="#263238"/><path d="M520.49,396.52a5.49,5.49,0,0,1-4.34-3.64c.13-.08.8,1,2,2S520.53,396.38,520.49,396.52Z" fill="#263238"/><path d="M543.66,344.77c1.39,1.68,2.85,3.6,2.73,5.78-.16,2.89-2.94,4.81-5.36,6.39-4.87,3.16-9.59,6.91-12.35,12s-3.18,11.83.31,16.47a8.05,8.05,0,0,0,6,3.47,7.63,7.63,0,0,0,6.53-4.08c1.34-2.35,1.27-4.65,1.25-7.35a9.17,9.17,0,0,1,1.15-4.67c.93-1.37,2.69-1.82,4.27-2.3a30,30,0,0,0,12.78-7.82l-3,.47a8.64,8.64,0,0,0,2.47-4.28L559,361a27.41,27.41,0,0,0-3.6-16" fill="#ff725e"/><path d="M531.26,387.81a4.12,4.12,0,0,1-1.67-5.08,16.932,16.932,0,0,0,.4,2.68A17.69,17.69,0,0,0,531.26,387.81Z" fill="#263238"/><path d="M535.32,388.89a4.67,4.67,0,0,1-2.23-2.67,5.61,5.61,0,0,1-.34-3.47c.17,0,.18,1.56.83,3.28a19.1,19.1,0,0,0,1.74,2.86Z" fill="#263238"/><path d="M540.36,386.53a5.54,5.54,0,0,1-3.45-4.5c.15,0,.57,1.18,1.52,2.41S540.44,386.4,540.36,386.53Z" fill="#263238"/><path d="M546,355.84c-1.47-1-2.84,0-4.38.83a57.336,57.336,0,0,0-5.94,4.25c-1.32.95-3.33,2.54-3.28,3.13l-.05.29a4.17,4.17,0,0,0,6.5,1.53c1.28-1.06,2.07-2.94,3.72-3.13,1-.11,1.9.42,2.83.23,1.35-.29,1.95-1.89,2-3.27S547.15,356.63,546,355.84Z" fill="#ebebeb"/><path d="M555.1,345.05a1.048,1.048,0,0,1,.14.23l.37.7c.3.62.74,1.56,1.2,2.8a32.079,32.079,0,0,1,2,11.17l-.29-.12,1.78-1.79.44-.44-.13.6a11.87,11.87,0,0,1-2.9,5.6l-.19-.34,2.7-.57.58-.13-.36.47a19.52,19.52,0,0,1-6,5,28.378,28.378,0,0,1-3.8,1.71c-1.32.52-2.74.87-4.08,1.36a4.59,4.59,0,0,0-3,2.73,14.609,14.609,0,0,0-.56,4.42,15.4,15.4,0,0,1-.58,4.69,9.509,9.509,0,0,1-2.49,4.17,7,7,0,0,1-6.07,1.72,8.15,8.15,0,0,1-5.09-3.49,16.34,16.34,0,0,1-2.19-11.29,18.67,18.67,0,0,1,4.53-9.43,33.486,33.486,0,0,1,3.51-3.22,43.088,43.088,0,0,1,3.4-2.79c2.24-1.7,4.63-2.68,6.22-4.19a5.57,5.57,0,0,0,1.59-2.52,6.68,6.68,0,0,0,.13-2.53,9.22,9.22,0,0,0-1.13-3.35,7.384,7.384,0,0,0-.69-1,4.73,4.73,0,0,1,.78,1,8.811,8.811,0,0,1,1.24,3.38,6.7,6.7,0,0,1-.09,2.62,5.82,5.82,0,0,1-1.63,2.67c-1.64,1.58-4,2.58-6.2,4.28-1.12.82-2.21,1.78-3.35,2.79a33.412,33.412,0,0,0-3.46,3.21A18.359,18.359,0,0,0,527,374.3a16.5,16.5,0,0,0,.07,5.56,17.445,17.445,0,0,0,.76,2.77,10.239,10.239,0,0,0,1.31,2.6,7.64,7.64,0,0,0,4.76,3.27,6.52,6.52,0,0,0,5.63-1.59,9,9,0,0,0,2.34-3.94,14.843,14.843,0,0,0,.57-4.55,14.829,14.829,0,0,1,.6-4.58,4.289,4.289,0,0,1,1.32-1.92,6.528,6.528,0,0,1,2-1.11c1.4-.5,2.77-.83,4.08-1.34a27.55,27.55,0,0,0,3.74-1.67,19.209,19.209,0,0,0,5.9-4.84l.21.35-2.71.55-.64.14.45-.48a11.54,11.54,0,0,0,2.84-5.39l.31.17-1.8,1.77-.29.29V360a32.682,32.682,0,0,0-1.81-11.1c-.43-1.25-.83-2.19-1.11-2.83-.13-.3-.24-.53-.32-.72a1,1,0,0,1-.11-.3Z" fill="#263238"/><path d="M526.07,293.93l9.4,19.46-5.41,13.41s-3.86,10.95-10.18,13.91-12.34,3.21-16.91,1-5.28-8.84-5-11.16.46-12,.46-12-2.5-4.05-2.63-7.14.77-15.72,6.57-17.53S526.07,293.93,526.07,293.93Z" fill="#ff725e"/><path d="M539.31,295.71l3.24,2.64a11.76,11.76,0,0,1,4.15,7.07c1,5.65,2.82,10.83.2,16.05-1.59,3.18-3.34,2.81-5.67,2.57s-5.76-10.65-5.76-10.65l-8.1-11.84-1.3-7.62,1.6-.49A12.54,12.54,0,0,1,539.31,295.71Z" fill="#ff725e"/><path d="M503,293.76l-2.52-.2a11.33,11.33,0,0,0-8.89,3.22h0a11.33,11.33,0,0,0-3.39,8.37l.48,19.43s2.4,2,4.81,1.14,5.65-7.12,5.65-7.12l.48-13.92Z" fill="#ff725e"/><path d="M519,317a3.19,3.19,0,0,1,.35-1.65,6.329,6.329,0,0,1,2.65-3.12,3.44,3.44,0,0,1,2.33,0A6.109,6.109,0,0,1,526,313c.87.61,1.21,1.18,1.17,1.22s-.5-.42-1.37-.91a6.75,6.75,0,0,0-1.61-.64,3.15,3.15,0,0,0-2,0,5.36,5.36,0,0,0-1.56,1.35,7.582,7.582,0,0,0-1,1.46C519.23,316.36,519.08,317,519,317Z" fill="#263238"/><path d="M521.91,313a1.51,1.51,0,0,1,1.34.59,2.8,2.8,0,0,1,1,1.87,2.44,2.44,0,0,1-1,1.8,2.171,2.171,0,0,1-.67.4,1.79,1.79,0,0,1-1.82-.51,3.221,3.221,0,0,1-.8-1.8,2.9,2.9,0,0,1,.12-1.49,1.48,1.48,0,0,1,1.09-.93" fill="#263238"/><path d="M514.07,333.85a3.47,3.47,0,0,0-1.67-2,8.17,8.17,0,0,0-6.82-.54l.11-.05-.16.07a9.75,9.75,0,0,0-1.75.76,4,4,0,0,0-.86.53,2.7,2.7,0,0,0-.95,2.16.94.94,0,0,0,.26.62c.32.28.82.14,1.24.06s1,.07,1,.5a1.239,1.239,0,0,1-.25.58,2,2,0,0,0,.89,2.56,4.63,4.63,0,0,0,2.92.43,4.57,4.57,0,0,0,3.38-1.56,1,1,0,0,0,.16-1c-.39-.65-1.65-.1-2-.76-.24-.4.14-.94.59-1a2,2,0,0,1,1.34.3,2.7,2.7,0,0,0,1.33.39,1.63,1.63,0,0,0,1.24-2.05Z" fill="#263238"/><path d="M533.9,317.3a6.9,6.9,0,0,1,0,1.38,25.5,25.5,0,0,1-.58,3.72,23.622,23.622,0,0,1-1.89,5.26A30.559,30.559,0,0,1,517.88,341a25.856,25.856,0,0,1-3.49,1.42,6.178,6.178,0,0,1-1.33.35,7.351,7.351,0,0,1,1.27-.54,36.477,36.477,0,0,0,3.38-1.56A31.639,31.639,0,0,0,527.2,333a31,31,0,0,0,3.77-5.58,24.548,24.548,0,0,0,2-5.13C533.71,319.26,533.79,317.29,533.9,317.3Z" fill="#263238"/><path d="M512.73,342.4c0,.06-.31.22-.89.24a3.55,3.55,0,0,1-2.12-.68,3.46,3.46,0,0,1-1.26-1.83c-.16-.56-.1-.92,0-.92a4.36,4.36,0,0,0,4.3,3.19Z" fill="#263238"/><path d="M546.31,303.9a2.28,2.28,0,0,1,.15.55c.09.42.21.94.35,1.58.3,1.38.88,3.34,1.35,5.83a23.709,23.709,0,0,1,.4,4.13,16.859,16.859,0,0,1-.09,2.33,10.931,10.931,0,0,1-.64,2.4,14.405,14.405,0,0,1-1.14,2.34,5.69,5.69,0,0,1-1.87,2.05,4.19,4.19,0,0,1-2.87.26,9.921,9.921,0,0,1-2.72-1.06,13.5,13.5,0,0,1-2.39-1.64,9.871,9.871,0,0,1-1.8-2.19,16.219,16.219,0,0,1-1.87-5c-.67-3.3-.83-6.31-1.51-8.72a12.779,12.779,0,0,0-2.65-5.22,13.624,13.624,0,0,0-1.61-1.46,1.759,1.759,0,0,1,.5.27,8.061,8.061,0,0,1,1.26,1.05,12.431,12.431,0,0,1,2.85,5.26c.75,2.45.94,5.48,1.63,8.71a15.561,15.561,0,0,0,1.84,4.79,8.859,8.859,0,0,0,1.7,2.07,12.78,12.78,0,0,0,2.3,1.57,9.44,9.44,0,0,0,2.58,1,3.73,3.73,0,0,0,2.52-.21,5.331,5.331,0,0,0,1.69-1.86,13.411,13.411,0,0,0,1.11-2.25,10.331,10.331,0,0,0,.64-2.29,19.317,19.317,0,0,0,.11-2.26,24.437,24.437,0,0,0-.33-4.08c-.42-2.47-.95-4.45-1.18-5.85-.13-.69-.22-1.23-.26-1.6a2.227,2.227,0,0,1-.05-.5Z" fill="#263238"/><path d="M501.73,300.59a7.239,7.239,0,0,0-2.82,3.77,12.7,12.7,0,0,0-.46,5.16c.14,2,.57,4.14.57,6.48.06,4.75-2.9,8.78-5.89,9.73a4.46,4.46,0,0,1-3.58-.32,3.159,3.159,0,0,1-.76-.63c-.15-.18-.21-.28-.2-.29a7.7,7.7,0,0,0,1.06.74,4.34,4.34,0,0,0,3.36.15c2.76-1,5.56-4.83,5.49-9.38,0-2.27-.41-4.44-.53-6.45a12.709,12.709,0,0,1,.59-5.32,6.87,6.87,0,0,1,2-3,4.632,4.632,0,0,1,.82-.55C501.61,300.61,501.72,300.57,501.73,300.59Z" fill="#263238"/><path d="M498.29,322.19a8.58,8.58,0,0,0,10.81-10.27,7.56,7.56,0,0,1-.46-2.56c.12-1.12.93-2.07,1.09-3.18a3.66,3.66,0,0,0-1.45-3.19,8.1,8.1,0,0,0-3.34-1.42,6.32,6.32,0,0,0-3.37,0,5.19,5.19,0,0,0-3.1,4.28,22.491,22.491,0,0,0,.21,5.55,63.351,63.351,0,0,1-.31,11.18" fill="#ebebeb"/><path d="M505.58,315.54a3.113,3.113,0,0,1-.65-.83,6,6,0,0,0-1.61-1.77,2.48,2.48,0,0,0-2.19-.34c-.57.2-.81.54-.87.49s.08-.49.72-.83a2.44,2.44,0,0,1,1.21-.25,3,3,0,0,1,1.41.5,4.81,4.81,0,0,1,1.65,2C505.53,315.12,505.64,315.51,505.58,315.54Z" fill="#263238"/><path d="M502.69,312.76a1.36,1.36,0,0,1,1.22.55,2.53,2.53,0,0,1,.91,1.7,2.23,2.23,0,0,1-.92,1.64,2.261,2.261,0,0,1-.61.37,1.65,1.65,0,0,1-1.67-.47,2.9,2.9,0,0,1-.73-1.64,2.719,2.719,0,0,1,.11-1.36,1.35,1.35,0,0,1,1-.85" fill="#263238"/><path d="M545.82,302.59a12.59,12.59,0,0,0-1-1.45,21.51,21.51,0,0,0-10-7.33,12.109,12.109,0,0,0-4.64-.49,10.81,10.81,0,0,0-4.94,1.4h0a.2.2,0,0,1-.11,0h-6.78a.25.25,0,0,1-.23-.18,9.93,9.93,0,0,0-3-5.23,9.64,9.64,0,0,0-6-2.26l.12-.48a10.429,10.429,0,0,1,3.12,2.63,10.74,10.74,0,0,1,1.84,3.8.26.26,0,0,1-.18.32.27.27,0,0,1-.27-.08,7,7,0,0,0-2.79-1.77,11.4,11.4,0,0,0-1.25-.41l.17-.49a2.46,2.46,0,0,1,.92.92,7.687,7.687,0,0,1,.56,1.06,15,15,0,0,1,.77,2.22.26.26,0,0,1-.18.31h-4.31a.24.24,0,0,1-.15,0,11.94,11.94,0,0,0-16,2.3,14.1,14.1,0,0,0-3.07,6.92,26.581,26.581,0,0,0-.11,6.64,86.7,86.7,0,0,1,.59,9.6,16.562,16.562,0,0,1-.38,3.46.581.581,0,0,1,0-.23l.06-.66c.05-.59.13-1.45.13-2.57,0-2.25-.34-5.5-.74-9.57a26.758,26.758,0,0,1,.05-6.74,14.381,14.381,0,0,1,3.12-7.14,12.4,12.4,0,0,1,16.64-2.44h-.14l4.25-.05-.25.32a16.788,16.788,0,0,0-.74-2.13,3.72,3.72,0,0,0-1.23-1.71h0a.27.27,0,0,1-.1-.36.26.26,0,0,1,.29-.12,11.315,11.315,0,0,1,1.32.43,7.6,7.6,0,0,1,3,1.91l-.45.24a10.149,10.149,0,0,0-1.75-3.62,9.86,9.86,0,0,0-3-2.51h0a.26.26,0,0,1-.1-.34.24.24,0,0,1,.23-.13,10.14,10.14,0,0,1,6.36,2.39,10.49,10.49,0,0,1,3.17,5.5l-.23-.18h6.65a11,11,0,0,1,5.18-1.44,12.41,12.41,0,0,1,4.77.55,20,20,0,0,1,6.66,3.92,18.539,18.539,0,0,1,3.32,3.67,7.754,7.754,0,0,1,.83,1.6Z" fill="#263238"/><path d="M545.53,302.4a5.37,5.37,0,0,0-4.66,4.89c-.09,1.64.59,3.3.18,4.89-.47,1.82-2.26,3.06-2.76,4.88-.56,2,.68,4.15,2.13,5.69a4.57,4.57,0,0,0,2.76,1.65c1.87.14,3.24-1.73,4-3.46A20.92,20.92,0,0,0,546,302.69" fill="#ebebeb"/><g opacity="0.3"><path d="M543.29,434c-10.63,5.89-18.29,5.21-23-1.88,3.73,17.55,41.07,15.49,58.37,16.34,20.83,1,41.68-11.63,50.4-30.57C600.84,424.12,571.48,427.77,543.29,434Z"/></g><path d="M542.74,409.68l-8.58-2.12-11.58,3.71s5.83,4.85,3.23,5-8-3.78-8-3.78l-5.61,1.67s2.34,9.3,5.73,12c0,0,.42,4.25,2.73,6,0,0,4.87,6.76,9.38,7s13.63-5.89,13.63-5.89Z" fill="#ffbe9d"/><path d="M594.06,385.48l-.21.12c-.18.07-.39.17-.65.29L590.7,387c-2.17.93-5.34,2.23-9.27,3.8-7.85,3.15-18.78,7.3-31,11.47s-23.41,7.58-31.54,9.9c-4.07,1.16-7.37,2.06-9.66,2.65l-2.64.68-.69.16a.62.62,0,0,1-.24,0l.23-.09.67-.21,2.62-.77,9.6-2.82c8.11-2.4,19.27-5.86,31.48-10s23.15-8.26,31-11.32l9.32-3.65,2.54-1,.67-.24C594,385.49,594.06,385.47,594.06,385.48Z" fill="#263238"/><path d="M578.71,317c-.14-.06,1-2.93,2-6.63s1.23-6.79,1.39-6.77a6.632,6.632,0,0,1,0,2,33.469,33.469,0,0,1-.85,4.85,35.479,35.479,0,0,1-1.53,4.69,7,7,0,0,1-1.01,1.86Z" fill="#fafafa"/><path d="M597.9,331.59c-.14.05-1-2.16-2.37-4.76s-2.63-4.6-2.5-4.68a24,24,0,0,1,4.87,9.44Z" fill="#fafafa"/><path d="M615.28,304.54a29.057,29.057,0,0,1-5.12,1.59,27.859,27.859,0,0,1-5.26,1.09,27.588,27.588,0,0,1,5.13-1.6,27.158,27.158,0,0,1,5.25-1.08Z" fill="#fafafa"/><path d="M618.67,339.54a53.817,53.817,0,0,1,3.1-6.83,54.71,54.71,0,0,1,3.56-6.59,52.419,52.419,0,0,1-3.1,6.82,54.661,54.661,0,0,1-3.56,6.6Z" fill="#fafafa"/><path d="M628.2,370.74a43.753,43.753,0,0,1-4.93-4.67,45.222,45.222,0,0,1-4.56-5,43.751,43.751,0,0,1,4.93,4.67,45.217,45.217,0,0,1,4.56,5Z" fill="#fafafa"/><path d="M628.93,401a46.135,46.135,0,0,1,4.06-5.5,47.389,47.389,0,0,1,4.47-5.17,46.122,46.122,0,0,1-4.06,5.5,43.94,43.94,0,0,1-4.47,5.17Z" fill="#fafafa"/><path d="M607.28,408c-.14,0,.67-2.49,1.28-5.59s.81-5.66,1-5.66A24.411,24.411,0,0,1,607.28,408Z" fill="#fafafa"/><path d="M581.73,419.64a31.528,31.528,0,0,1-3.42-4.58,30.656,30.656,0,0,1-3-4.86,32.346,32.346,0,0,1,3.41,4.57,31.542,31.542,0,0,1,3.01,4.87Z" fill="#fafafa"/><path d="M552.47,416.86a20.19,20.19,0,0,1-1,4.49A20.74,20.74,0,0,1,550,425.7a20.19,20.19,0,0,1,1-4.49,21.735,21.735,0,0,1,1.47-4.35Z" fill="#fafafa"/><path d="M561.56,387a21.17,21.17,0,0,1,5.37-11.16c.13.09-1.57,2.31-3,5.4S561.71,387,561.56,387Z" fill="#fafafa"/><path d="M531.52,403.76c-.11.1-1.64-1.59-3.92-3.17s-4.39-2.43-4.33-2.58a11.74,11.74,0,0,1,4.63,2.15,11.459,11.459,0,0,1,3.62,3.6Z" fill="#fafafa"/><path d="M498,391.3a18.571,18.571,0,0,1-.53,4.3,18.257,18.257,0,0,1-1,4.22,18,18,0,0,1,.53-4.31,17.5,17.5,0,0,1,1-4.21Z" fill="#fafafa"/><path d="M498.57,365.46a74.642,74.642,0,0,1-7.9-4,78.094,78.094,0,0,1-7.64-4.49,74.644,74.644,0,0,1,7.9,4,79.61,79.61,0,0,1,7.64,4.49Z" fill="#fafafa"/><path d="M488.22,341.93c-.12-.11,2-2.47,3.82-5.84s2.81-6.36,3-6.31a6.681,6.681,0,0,1-.48,2,27.08,27.08,0,0,1-4.84,8.67,6.9,6.9,0,0,1-1.5,1.48Z" fill="#fafafa"/><path d="M565.26,332.22a58.6,58.6,0,0,1-3.37-10.66,60.753,60.753,0,0,1,3.37,10.66Z" fill="#fafafa"/><path d="M565.29,299.27a35.683,35.683,0,0,1-5.37,2.82,35,35,0,0,1-5.59,2.36,36.229,36.229,0,0,1,5.37-2.83A35.471,35.471,0,0,1,565.29,299.27Z" fill="#fafafa"/><path d="M612.78,442.48a53.684,53.684,0,0,1,2.38-7.15,55.249,55.249,0,0,1,2.87-7,53.546,53.546,0,0,1-2.38,7.16,55.493,55.493,0,0,1-2.87,6.99Z" fill="#fafafa"/><path d="M529.73,456.75a26.71,26.71,0,0,1-7.58-9.09c.13-.08,1.59,2.13,3.68,4.63S529.84,456.64,529.73,456.75Z" fill="#fafafa"/><path d="M549.36,445.81c.11.11-1.9,2-4.16,4.55s-3.94,4.73-4.07,4.65a22.731,22.731,0,0,1,3.68-5A23.341,23.341,0,0,1,549.36,445.81Z" fill="#fafafa"/><path d="M575.7,459.28c-.14.06-1.27-2.12-2.87-4.69s-3.05-4.57-2.93-4.66a19.13,19.13,0,0,1,3.37,4.38,18.651,18.651,0,0,1,2.43,4.97Z" fill="#fafafa"/><path d="M591.8,435.85a16.731,16.731,0,0,1-3.15-2.78,17.12,17.12,0,0,1-2.79-3.15A17.905,17.905,0,0,1,589,432.7a17.187,17.187,0,0,1,2.8,3.15Z" fill="#fafafa"/><path d="M614.85,456.54a12.636,12.636,0,0,1-2.37-.07c-1.46-.1-3.48-.21-5.71-.27s-4.24,0-5.71,0a11.318,11.318,0,0,1-2.37-.05,10,10,0,0,1,2.36-.32c1.46-.12,3.49-.19,5.74-.14a54.765,54.765,0,0,1,5.72.42,9.711,9.711,0,0,1,2.34.43Z" fill="#fafafa"/><path d="M579.46,299.74s13.45-7.4,15.57-9.44,11.78-5.7,11.78-5.7,4.77-3.36,16.51,1.29,13.26,22.17,13.26,22.17-1.9,25.05-4.49,24.62a3.47,3.47,0,0,1-3.17-4.16c.32-1.81,1.18-8.64,1.18-8.64l-3.3-6.95s-8.5,22.26-11.24,22.92-5.27-.76-4.84-3.35,8-20.75,7.85-21.65-11,19-11,19-3.12,4.63-5.48,3.75-3.56-2.87-2.37-4.81,9.37-24.83,9.37-24.83L600,316l-5,9.77a2.92,2.92,0,0,1-3.3,1.55,2.14,2.14,0,0,1-1.6-1.92c-.47-3,3.95-14.31,3.95-14.31l7.22-14.67-4.82,1.83s-7,3.58-10,4.07C583,302.91,579.46,299.74,579.46,299.74Z" fill="#ffbe9d"/><path d="M608.86,285.89a28.09,28.09,0,0,0-7.92,10.67,5.579,5.579,0,0,1,.55-1.91,18.631,18.631,0,0,1,2.35-4.21,19,19,0,0,1,3.34-3.47A5.939,5.939,0,0,1,608.86,285.89Z" fill="#8c5249"/><path d="M764.559,464.65c0,.14-164.507.26-367.393.26s-367.425-.12-367.425-.26,164.464-.26,367.425-.26S764.559,464.5,764.559,464.65Z" fill="#263238"/></g></svg>