<svg xmlns="http://www.w3.org/2000/svg" width="2008.853" height="609.712" viewBox="0 0 2008.853 609.712">
  <g id="Group_2" data-name="Group 2" transform="translate(0 -149.308)">
    <g id="freepik--background-complete--inject-83" transform="translate(0 188.2)">
      <rect id="Rectangle_1" data-name="Rectangle 1" width="154.099" height="276.752" transform="translate(697.591 116.284)" fill="#ebebeb"/>
      <rect id="Rectangle_2" data-name="Rectangle 2" width="77.049" height="276.752" transform="translate(774.64 116.284)" fill="#e0e0e0"/>
      <rect id="Rectangle_3" data-name="Rectangle 3" width="54.414" height="32.897" transform="translate(715.187 83.386)" fill="#ebebeb"/>
      <rect id="Rectangle_4" data-name="Rectangle 4" width="12.979" height="32.897" transform="translate(756.621 83.386)" fill="#e0e0e0"/>
      <rect id="Rectangle_5" data-name="Rectangle 5" width="171.449" height="1.913" transform="translate(684.746 114.356)" fill="#e0e0e0"/>
      <rect id="Rectangle_6" data-name="Rectangle 6" width="13.046" height="18.866" transform="translate(728.01 130.621)" fill="#fff"/>
      <path id="Path_1" data-name="Path 1" d="M416.5,135.817c0,.2-17.261.352-38.536.352s-38.513-.153-38.513-.352,17.239-.367,38.513-.367S416.5,135.618,416.5,135.817Z" transform="translate(358.052 21.091)" fill="#e0e0e0"/>
      <rect id="Rectangle_7" data-name="Rectangle 7" width="13.046" height="18.866" transform="translate(805.728 130.621)" fill="#f5f5f5"/>
      <path id="Path_2" data-name="Path 2" d="M451.389,135.817c0,.2-17.261.352-38.536.352s-38.513-.153-38.513-.352,17.239-.367,38.513-.367S451.389,135.618,451.389,135.817Z" transform="translate(400.97 21.091)" fill="#ebebeb"/>
      <rect id="Rectangle_8" data-name="Rectangle 8" width="13.046" height="18.866" transform="translate(805.728 168.094)" fill="#f5f5f5"/>
      <path id="Path_3" data-name="Path 3" d="M451.389,160.292c0,.2-17.261.367-38.536.367s-38.513-.168-38.513-.367,17.239-.352,38.513-.352S451.389,160.032,451.389,160.292Z" transform="translate(400.97 34.074)" fill="#ebebeb"/>
      <rect id="Rectangle_9" data-name="Rectangle 9" width="13.046" height="18.866" transform="translate(805.728 206.698)" fill="#f5f5f5"/>
      <path id="Path_4" data-name="Path 4" d="M451.389,185.527c0,.2-17.261.352-38.536.352s-38.513-.153-38.513-.352,17.239-.367,38.513-.367S451.389,185.328,451.389,185.527Z" transform="translate(400.97 47.443)" fill="#ebebeb"/>
      <rect id="Rectangle_10" data-name="Rectangle 10" width="13.046" height="18.866" transform="translate(805.728 245.288)" fill="#f5f5f5"/>
      <path id="Path_5" data-name="Path 5" d="M451.389,210.742c0,.2-17.261.367-38.536.367s-38.513-.168-38.513-.367,17.239-.352,38.513-.352S451.389,210.543,451.389,210.742Z" transform="translate(400.97 60.818)" fill="#ebebeb"/>
      <rect id="Rectangle_11" data-name="Rectangle 11" width="13.046" height="18.866" transform="translate(805.728 282.776)" fill="#f5f5f5"/>
      <path id="Path_6" data-name="Path 6" d="M451.389,235.257c0,.2-17.261.352-38.536.352s-38.513-.153-38.513-.352,17.239-.367,38.513-.367S451.389,235.058,451.389,235.257Z" transform="translate(400.97 73.806)" fill="#ebebeb"/>
      <rect id="Rectangle_12" data-name="Rectangle 12" width="13.046" height="18.866" transform="translate(805.728 320.432)" fill="#f5f5f5"/>
      <rect id="Rectangle_13" data-name="Rectangle 13" width="13.046" height="18.866" transform="translate(805.728 358.563)" fill="#f5f5f5"/>
      <path id="Path_7" data-name="Path 7" d="M451.389,259.857c0,.2-17.261.367-38.536.367s-38.513-.168-38.513-.367,17.239-.367,38.513-.367S451.389,259.658,451.389,259.857Z" transform="translate(400.97 86.847)" fill="#ebebeb"/>
      <rect id="Rectangle_14" data-name="Rectangle 14" width="13.046" height="18.866" transform="translate(728.01 168.66)" fill="#fff"/>
      <path id="Path_8" data-name="Path 8" d="M416.5,160.677c0,.2-17.261.352-38.536.352s-38.513-.153-38.513-.352,17.239-.367,38.513-.367S416.5,160.478,416.5,160.677Z" transform="translate(358.052 34.27)" fill="#e0e0e0"/>
      <rect id="Rectangle_15" data-name="Rectangle 15" width="13.046" height="18.866" transform="translate(728.01 206.698)" fill="#fff"/>
      <path id="Path_9" data-name="Path 9" d="M416.5,185.537c0,.2-17.261.352-38.536.352s-38.513-.153-38.513-.352,17.239-.367,38.513-.367S416.5,185.338,416.5,185.537Z" transform="translate(358.052 47.449)" fill="#e0e0e0"/>
      <rect id="Rectangle_16" data-name="Rectangle 16" width="13.046" height="18.866" transform="translate(728.01 244.737)" fill="#fff"/>
      <path id="Path_10" data-name="Path 10" d="M416.5,210.4c0,.2-17.261.352-38.536.352s-38.513-.153-38.513-.352,17.239-.367,38.513-.367S416.5,210.2,416.5,210.4Z" transform="translate(358.052 60.627)" fill="#e0e0e0"/>
      <rect id="Rectangle_17" data-name="Rectangle 17" width="13.046" height="18.866" transform="translate(728.01 282.776)" fill="#fff"/>
      <path id="Path_11" data-name="Path 11" d="M416.5,235.257c0,.2-17.261.352-38.536.352s-38.513-.153-38.513-.352,17.239-.367,38.513-.367S416.5,235.058,416.5,235.257Z" transform="translate(358.052 73.806)" fill="#e0e0e0"/>
      <rect id="Rectangle_18" data-name="Rectangle 18" width="13.046" height="18.866" transform="translate(728.01 320.815)" fill="#fff"/>
      <path id="Path_12" data-name="Path 12" d="M416.5,260.127c0,.2-17.261.352-38.536.352s-38.513-.153-38.513-.352,17.239-.367,38.513-.367S416.5,259.913,416.5,260.127Z" transform="translate(358.052 86.99)" fill="#e0e0e0"/>
      <rect id="Rectangle_19" data-name="Rectangle 19" width="13.046" height="18.866" transform="translate(728.01 358.853)" fill="#fff"/>
      <rect id="Rectangle_20" data-name="Rectangle 20" width="168.549" height="302.703" transform="translate(814.314 248.149)" fill="#ebebeb"/>
      <rect id="Rectangle_21" data-name="Rectangle 21" width="84.275" height="302.703" transform="translate(898.588 248.149)" fill="#e0e0e0"/>
      <rect id="Rectangle_22" data-name="Rectangle 22" width="59.521" height="35.988" transform="translate(833.559 212.161)" fill="#ebebeb"/>
      <rect id="Rectangle_23" data-name="Rectangle 23" width="14.183" height="35.988" transform="translate(878.897 212.161)" fill="#e0e0e0"/>
      <rect id="Rectangle_24" data-name="Rectangle 24" width="187.527" height="2.096" transform="translate(800.264 246.053)" fill="#e0e0e0"/>
      <rect id="Rectangle_25" data-name="Rectangle 25" width="14.273" height="20.641" transform="translate(847.586 263.848)" fill="#fff"/>
      <path id="Path_13" data-name="Path 13" d="M476.1,224.5c0,.214-18.866.4-42.126.4s-42.148-.184-42.148-.4,18.866-.4,42.148-.4S476.1,224.284,476.1,224.5Z" transform="translate(422.484 68.086)" fill="#e0e0e0"/>
      <rect id="Rectangle_26" data-name="Rectangle 26" width="14.273" height="20.641" transform="translate(932.597 263.848)" fill="#f5f5f5"/>
      <path id="Path_14" data-name="Path 14" d="M514.225,224.5c0,.214-18.866.4-42.126.4s-42.148-.184-42.148-.4,18.866-.4,42.148-.4S514.225,224.284,514.225,224.5Z" transform="translate(469.374 68.086)" fill="#ebebeb"/>
      <rect id="Rectangle_27" data-name="Rectangle 27" width="14.273" height="20.641" transform="translate(932.597 304.825)" fill="#f5f5f5"/>
      <path id="Path_15" data-name="Path 15" d="M514.225,251.278c0,.214-18.866.4-42.126.4s-42.148-.184-42.148-.4,18.866-.4,42.148-.4S514.225,251.064,514.225,251.278Z" transform="translate(469.374 82.283)" fill="#ebebeb"/>
      <rect id="Rectangle_28" data-name="Rectangle 28" width="14.273" height="20.641" transform="translate(932.597 347.041)" fill="#f5f5f5"/>
      <path id="Path_16" data-name="Path 16" d="M514.225,278.868c0,.214-18.866.4-42.126.4s-42.148-.184-42.148-.4,18.866-.4,42.148-.4S514.225,278.654,514.225,278.868Z" transform="translate(469.374 96.908)" fill="#ebebeb"/>
      <rect id="Rectangle_29" data-name="Rectangle 29" width="14.273" height="20.641" transform="translate(932.597 389.257)" fill="#f5f5f5"/>
      <path id="Path_17" data-name="Path 17" d="M514.225,306.458c0,.214-18.866.4-42.126.4s-42.148-.184-42.148-.4,18.866-.4,42.148-.4S514.225,306.244,514.225,306.458Z" transform="translate(469.374 111.534)" fill="#ebebeb"/>
      <rect id="Rectangle_30" data-name="Rectangle 30" width="14.273" height="20.641" transform="translate(932.597 430.264)" fill="#f5f5f5"/>
      <path id="Path_18" data-name="Path 18" d="M514.225,333.253c0,.23-18.866.4-42.126.4s-42.148-.168-42.148-.4,18.866-.383,42.148-.383S514.225,333.069,514.225,333.253Z" transform="translate(469.374 125.747)" fill="#ebebeb"/>
      <rect id="Rectangle_31" data-name="Rectangle 31" width="14.273" height="20.641" transform="translate(932.597 471.439)" fill="#f5f5f5"/>
      <rect id="Rectangle_32" data-name="Rectangle 32" width="14.273" height="20.641" transform="translate(932.597 513.15)" fill="#f5f5f5"/>
      <path id="Path_19" data-name="Path 19" d="M514.163,360.138c0,.214-18.866.4-42.126.4S430,360.4,430,360.138s18.866-.4,42.148-.4S514.163,359.97,514.163,360.138Z" transform="translate(469.436 139.991)" fill="#ebebeb"/>
      <rect id="Rectangle_33" data-name="Rectangle 33" width="14.273" height="20.641" transform="translate(847.586 305.452)" fill="#fff"/>
      <path id="Path_20" data-name="Path 20" d="M476.1,251.688c0,.214-18.866.4-42.126.4s-42.148-.184-42.148-.4,18.866-.4,42.148-.4S476.1,251.474,476.1,251.688Z" transform="translate(422.484 82.5)" fill="#e0e0e0"/>
      <rect id="Rectangle_34" data-name="Rectangle 34" width="14.273" height="20.641" transform="translate(847.586 347.056)" fill="#fff"/>
      <path id="Path_21" data-name="Path 21" d="M476.1,278.878c0,.214-18.866.4-42.126.4s-42.148-.184-42.148-.4,18.866-.4,42.148-.4S476.1,278.664,476.1,278.878Z" transform="translate(422.484 96.914)" fill="#e0e0e0"/>
      <rect id="Rectangle_35" data-name="Rectangle 35" width="14.273" height="20.641" transform="translate(847.586 388.66)" fill="#fff"/>
      <path id="Path_22" data-name="Path 22" d="M476.1,306.068c0,.214-18.866.4-42.126.4s-42.148-.184-42.148-.4,18.866-.4,42.148-.4S476.1,305.854,476.1,306.068Z" transform="translate(422.484 111.328)" fill="#e0e0e0"/>
      <rect id="Rectangle_36" data-name="Rectangle 36" width="14.273" height="20.641" transform="translate(847.586 430.264)" fill="#fff"/>
      <path id="Path_23" data-name="Path 23" d="M476.1,333.253c0,.23-18.866.4-42.126.4s-42.148-.168-42.148-.4,18.866-.383,42.148-.383S476.1,333.069,476.1,333.253Z" transform="translate(422.484 125.747)" fill="#e0e0e0"/>
      <rect id="Rectangle_37" data-name="Rectangle 37" width="14.273" height="20.641" transform="translate(847.586 471.868)" fill="#fff"/>
      <path id="Path_24" data-name="Path 24" d="M476.1,360.443c0,.23-18.866.4-42.126.4s-42.148-.168-42.148-.4,18.866-.383,42.148-.383S476.1,360.228,476.1,360.443Z" transform="translate(422.484 140.161)" fill="#e0e0e0"/>
      <rect id="Rectangle_38" data-name="Rectangle 38" width="14.273" height="20.641" transform="translate(847.586 513.471)" fill="#fff"/>
      <rect id="Rectangle_39" data-name="Rectangle 39" width="174.905" height="380.31" transform="translate(143.796 89.461)" fill="#f5f5f5"/>
      <rect id="Rectangle_40" data-name="Rectangle 40" width="87.441" height="379.27" transform="translate(231.259 89.461)" fill="#ebebeb"/>
      <rect id="Rectangle_41" data-name="Rectangle 41" width="61.751" height="37.335" transform="translate(163.777 52.111)" fill="#f5f5f5"/>
      <rect id="Rectangle_42" data-name="Rectangle 42" width="14.719" height="37.335" transform="translate(210.809 52.111)" fill="#ebebeb"/>
      <path id="Path_25" data-name="Path 25" d="M84.63,92.368V90.18h194.6v2.188" transform="translate(44.603 -2.907)" fill="#e0e0e0"/>
      <rect id="Rectangle_43" data-name="Rectangle 43" width="14.808" height="21.422" transform="translate(178.339 105.741)" fill="#fafafa"/>
      <path id="Path_26" data-name="Path 26" d="M178.624,121.883c0,.23-19.58.413-43.732.413s-43.732-.184-43.732-.413,19.58-.413,43.732-.413S178.624,121.654,178.624,121.883Z" transform="translate(52.636 13.68)" fill="#e0e0e0"/>
      <rect id="Rectangle_44" data-name="Rectangle 44" width="14.808" height="21.422" transform="translate(266.539 105.741)" fill="#e0e0e0"/>
      <path id="Path_27" data-name="Path 27" d="M218.161,121.883c0,.23-19.58.413-43.71.413s-43.732-.184-43.732-.413,19.58-.413,43.732-.413S218.161,121.654,218.161,121.883Z" transform="translate(101.298 13.68)" fill="#e0e0e0"/>
      <rect id="Rectangle_45" data-name="Rectangle 45" width="14.808" height="21.422" transform="translate(266.539 148.263)" fill="#e0e0e0"/>
      <path id="Path_28" data-name="Path 28" d="M218.161,149.673c0,.23-19.58.413-43.71.413s-43.732-.184-43.732-.413,19.58-.413,43.732-.413S218.161,149.444,218.161,149.673Z" transform="translate(101.298 28.412)" fill="#e0e0e0"/>
      <rect id="Rectangle_46" data-name="Rectangle 46" width="14.808" height="21.422" transform="translate(266.539 192.071)" fill="#e0e0e0"/>
      <path id="Path_29" data-name="Path 29" d="M218.161,178.3c0,.23-19.58.413-43.71.413s-43.732-.184-43.732-.413,19.58-.413,43.732-.413S218.161,178.058,218.161,178.3Z" transform="translate(101.298 43.589)" fill="#e0e0e0"/>
      <rect id="Rectangle_47" data-name="Rectangle 47" width="14.808" height="21.422" transform="translate(266.539 235.878)" fill="#e0e0e0"/>
      <path id="Path_30" data-name="Path 30" d="M218.161,206.933c0,.23-19.58.413-43.71.413s-43.732-.184-43.732-.413,19.58-.413,43.732-.413S218.161,206.7,218.161,206.933Z" transform="translate(101.298 58.767)" fill="#e0e0e0"/>
      <rect id="Rectangle_48" data-name="Rectangle 48" width="14.808" height="21.422" transform="translate(266.539 278.43)" fill="#e0e0e0"/>
      <path id="Path_31" data-name="Path 31" d="M218.161,234.743c0,.23-19.58.413-43.71.413s-43.732-.184-43.732-.413,19.58-.413,43.732-.413S218.161,234.514,218.161,234.743Z" transform="translate(101.298 73.509)" fill="#e0e0e0"/>
      <rect id="Rectangle_49" data-name="Rectangle 49" width="14.808" height="21.422" transform="translate(266.539 321.151)" fill="#e0e0e0"/>
      <rect id="Rectangle_50" data-name="Rectangle 50" width="14.808" height="21.422" transform="translate(266.539 364.438)" fill="#e0e0e0"/>
      <path id="Path_32" data-name="Path 32" d="M218.161,262.658c0,.23-19.58.413-43.71.413s-43.732-.184-43.732-.413,19.58-.4,43.732-.4S218.161,262.444,218.161,262.658Z" transform="translate(101.298 88.315)" fill="#e0e0e0"/>
      <rect id="Rectangle_51" data-name="Rectangle 51" width="14.808" height="21.422" transform="translate(178.339 148.906)" fill="#fafafa"/>
      <path id="Path_33" data-name="Path 33" d="M178.624,150.143c0,.214-19.58.4-43.732.4s-43.732-.184-43.732-.4,19.58-.413,43.732-.413S178.624,149.852,178.624,150.143Z" transform="translate(52.636 28.661)" fill="#e0e0e0"/>
      <rect id="Rectangle_52" data-name="Rectangle 52" width="14.808" height="21.422" transform="translate(178.339 192.086)" fill="#fafafa"/>
      <path id="Path_34" data-name="Path 34" d="M178.624,178.313c0,.23-19.58.413-43.732.413s-43.732-.184-43.732-.413,19.58-.413,43.732-.413S178.624,178.053,178.624,178.313Z" transform="translate(52.636 43.595)" fill="#e0e0e0"/>
      <rect id="Rectangle_53" data-name="Rectangle 53" width="14.808" height="21.422" transform="translate(178.339 235.25)" fill="#fafafa"/>
      <path id="Path_35" data-name="Path 35" d="M178.624,206.533c0,.214-19.58.4-43.732.4s-43.732-.184-43.732-.4,19.58-.413,43.732-.413S178.624,206.3,178.624,206.533Z" transform="translate(52.636 58.555)" fill="#e0e0e0"/>
      <rect id="Rectangle_54" data-name="Rectangle 54" width="14.808" height="21.422" transform="translate(178.339 278.43)" fill="#fafafa"/>
      <path id="Path_36" data-name="Path 36" d="M178.624,234.743c0,.23-19.58.413-43.732.413s-43.732-.184-43.732-.413,19.58-.413,43.732-.413S178.624,234.514,178.624,234.743Z" transform="translate(52.636 73.509)" fill="#e0e0e0"/>
      <rect id="Rectangle_55" data-name="Rectangle 55" width="14.808" height="21.422" transform="translate(178.339 321.61)" fill="#fafafa"/>
      <path id="Path_37" data-name="Path 37" d="M178.624,262.963c0,.214-19.58.4-43.732.4s-43.732-.184-43.732-.4,19.58-.413,43.732-.413S178.624,262.734,178.624,262.963Z" transform="translate(52.636 88.469)" fill="#e0e0e0"/>
      <rect id="Rectangle_56" data-name="Rectangle 56" width="14.808" height="21.422" transform="translate(178.339 364.775)" fill="#fafafa"/>
      <rect id="Rectangle_57" data-name="Rectangle 57" width="159.808" height="208.096" transform="translate(289.397 344.21)" fill="#e0e0e0"/>
      <rect id="Rectangle_58" data-name="Rectangle 58" width="74.931" height="208.096" transform="translate(374.252 344.21)" fill="#ebebeb"/>
      <rect id="Rectangle_59" data-name="Rectangle 59" width="14.362" height="23.946" transform="translate(322.893 363.795)" fill="#f5f5f5"/>
      <rect id="Rectangle_60" data-name="Rectangle 60" width="14.362" height="23.946" transform="translate(322.893 457.546)" fill="#f5f5f5"/>
      <path id="Path_38" data-name="Path 38" d="M241.243,292.833c0,.2-19,.367-42.372.367s-42.372-.168-42.372-.367,18.978-.383,42.372-.383S241.243,292.618,241.243,292.833Z" transform="translate(133.009 104.319)" fill="#f5f5f5"/>
      <rect id="Rectangle_61" data-name="Rectangle 61" width="14.362" height="23.946" transform="translate(322.893 411.03)" fill="#f5f5f5"/>
      <path id="Path_39" data-name="Path 39" d="M241.243,323.687c0,.214-19,.383-42.372.383s-42.372-.168-42.372-.383,18.978-.367,42.372-.367S241.243,323.488,241.243,323.687Z" transform="translate(133.009 120.684)" fill="#f5f5f5"/>
      <rect id="Rectangle_62" data-name="Rectangle 62" width="14.362" height="23.946" transform="translate(390.175 363.795)" fill="#e0e0e0"/>
      <rect id="Rectangle_63" data-name="Rectangle 63" width="14.362" height="23.946" transform="translate(421.351 363.795)" fill="#e0e0e0"/>
      <rect id="Rectangle_64" data-name="Rectangle 64" width="14.362" height="23.946" transform="translate(390.175 409.24)" fill="#e0e0e0"/>
      <rect id="Rectangle_65" data-name="Rectangle 65" width="14.362" height="23.946" transform="translate(421.351 409.24)" fill="#e0e0e0"/>
      <rect id="Rectangle_66" data-name="Rectangle 66" width="14.362" height="23.946" transform="translate(390.175 454.7)" fill="#e0e0e0"/>
      <rect id="Rectangle_67" data-name="Rectangle 67" width="14.362" height="23.946" transform="translate(421.351 454.7)" fill="#e0e0e0"/>
      <rect id="Rectangle_68" data-name="Rectangle 68" width="183.825" height="5.218" transform="translate(277.377 339.176)" fill="#e0e0e0"/>
      <path id="Path_40" data-name="Path 40" d="M316.6,258.667c0,.214-35.681.383-79.748.383s-79.792-.168-79.792-.383,35.681-.367,79.792-.367S316.6,258.468,316.6,258.667Z" transform="translate(133.698 86.216)" fill="#ebebeb"/>
      <rect id="Rectangle_69" data-name="Rectangle 69" width="255.322" height="231.063" transform="translate(587.515 320.371)" fill="#ebebeb"/>
      <rect id="Rectangle_70" data-name="Rectangle 70" width="119.711" height="231.063" transform="translate(723.126 320.371)" fill="#e0e0e0"/>
      <rect id="Rectangle_71" data-name="Rectangle 71" width="22.948" height="38.268" transform="translate(641.059 351.646)" fill="#f5f5f5"/>
      <rect id="Rectangle_72" data-name="Rectangle 72" width="22.948" height="38.268" transform="translate(641.059 501.429)" fill="#f5f5f5"/>
      <path id="Path_41" data-name="Path 41" d="M425.741,298.06c0,.428-30.351.78-67.794.78s-67.817-.352-67.817-.78,30.351-.78,67.817-.78S425.741,297.632,425.741,298.06Z" transform="translate(297.384 106.88)" fill="#f5f5f5"/>
      <rect id="Rectangle_73" data-name="Rectangle 73" width="22.948" height="38.268" transform="translate(641.059 427.112)" fill="#f5f5f5"/>
      <path id="Path_42" data-name="Path 42" d="M425.741,347.38c0,.428-30.351.765-67.794.765s-67.817-.337-67.817-.765,30.351-.78,67.817-.78S425.741,346.937,425.741,347.38Z" transform="translate(297.384 133.025)" fill="#f5f5f5"/>
      <rect id="Rectangle_74" data-name="Rectangle 74" width="22.948" height="38.268" transform="translate(748.549 351.646)" fill="#f5f5f5"/>
      <rect id="Rectangle_75" data-name="Rectangle 75" width="22.948" height="38.268" transform="translate(798.346 351.646)" fill="#f5f5f5"/>
      <rect id="Rectangle_76" data-name="Rectangle 76" width="22.948" height="38.268" transform="translate(748.549 424.266)" fill="#f5f5f5"/>
      <rect id="Rectangle_77" data-name="Rectangle 77" width="22.948" height="38.268" transform="translate(798.346 424.266)" fill="#f5f5f5"/>
      <rect id="Rectangle_78" data-name="Rectangle 78" width="22.948" height="38.268" transform="translate(748.549 496.885)" fill="#f5f5f5"/>
      <rect id="Rectangle_79" data-name="Rectangle 79" width="22.948" height="38.268" transform="translate(798.346 496.885)" fill="#f5f5f5"/>
      <rect id="Rectangle_80" data-name="Rectangle 80" width="293.724" height="8.339" transform="translate(568.314 312.322)" fill="#e0e0e0"/>
      <path id="Path_43" data-name="Path 43" d="M546.018,243.49c0,.428-57.068.78-127.449.78s-127.449-.352-127.449-.78,57.045-.78,127.449-.78S546.018,243.062,546.018,243.49Z" transform="translate(298.602 77.952)" fill="#ebebeb"/>
      <path id="Path_44" data-name="Path 44" d="M299.689,490.548H42.315L41.2,211.47H298.574Z" transform="translate(-8.819 61.391)" fill="#ebebeb"/>
      <rect id="Rectangle_81" data-name="Rectangle 81" width="128.676" height="279.078" transform="translate(161.056 272.861)" fill="#e0e0e0"/>
      <rect id="Rectangle_82" data-name="Rectangle 82" width="90.876" height="54.946" transform="translate(61.773 217.914)" fill="#ebebeb"/>
      <rect id="Rectangle_83" data-name="Rectangle 83" width="21.654" height="54.946" transform="translate(130.995 217.914)" fill="#e0e0e0"/>
      <rect id="Rectangle_84" data-name="Rectangle 84" width="286.342" height="3.198" transform="translate(10.927 269.663)" fill="#e0e0e0"/>
      <rect id="Rectangle_85" data-name="Rectangle 85" width="21.788" height="31.52" transform="translate(83.182 296.822)" fill="#fff"/>
      <path id="Path_45" data-name="Path 45" d="M169.876,256.017c0,.337-28.813.612-64.338.612s-64.338-.275-64.338-.612,28.813-.6,64.338-.6S169.876,255.7,169.876,256.017Z" transform="translate(-8.819 84.689)" fill="#e0e0e0"/>
      <rect id="Rectangle_86" data-name="Rectangle 86" width="21.788" height="31.52" transform="translate(212.995 296.822)" fill="#f5f5f5"/>
      <path id="Path_46" data-name="Path 46" d="M228.086,256.017c0,.337-28.813.612-64.338.612s-64.338-.275-64.338-.612,28.79-.6,64.338-.6S228.086,255.7,228.086,256.017Z" transform="translate(62.784 84.689)" fill="#ebebeb"/>
      <rect id="Rectangle_87" data-name="Rectangle 87" width="21.788" height="31.52" transform="translate(212.995 359.404)" fill="#f5f5f5"/>
      <path id="Path_47" data-name="Path 47" d="M228.086,296.917c0,.337-28.813.6-64.338.6s-64.338-.26-64.338-.6,28.79-.6,64.338-.6S228.086,296.58,228.086,296.917Z" transform="translate(62.784 106.371)" fill="#ebebeb"/>
      <rect id="Rectangle_88" data-name="Rectangle 88" width="21.788" height="31.52" transform="translate(212.995 423.868)" fill="#f5f5f5"/>
      <path id="Path_48" data-name="Path 48" d="M228.086,339.052c0,.337-28.813.6-64.338.6s-64.338-.26-64.338-.6,28.79-.612,64.338-.612S228.086,338.715,228.086,339.052Z" transform="translate(62.784 128.699)" fill="#ebebeb"/>
      <rect id="Rectangle_89" data-name="Rectangle 89" width="21.788" height="31.52" transform="translate(212.995 488.316)" fill="#f5f5f5"/>
      <path id="Path_49" data-name="Path 49" d="M228.086,381.212c0,.321-28.813.6-64.338.6s-64.338-.275-64.338-.6,28.79-.612,64.338-.612S228.086,380.83,228.086,381.212Z" transform="translate(62.784 151.049)" fill="#ebebeb"/>
      <rect id="Rectangle_90" data-name="Rectangle 90" width="21.788" height="31.52" transform="translate(83.182 360.353)" fill="#fff"/>
      <path id="Path_50" data-name="Path 50" d="M169.876,297.537c0,.337-28.813.612-64.338.612s-64.338-.275-64.338-.612,28.813-.6,64.338-.6S169.876,297.215,169.876,297.537Z" transform="translate(-8.819 106.7)" fill="#e0e0e0"/>
      <rect id="Rectangle_91" data-name="Rectangle 91" width="21.788" height="31.52" transform="translate(83.182 423.883)" fill="#fff"/>
      <path id="Path_51" data-name="Path 51" d="M169.876,339.057c0,.337-28.813.612-64.338.612s-64.338-.275-64.338-.612,28.813-.6,64.338-.6S169.876,338.735,169.876,339.057Z" transform="translate(-8.819 128.71)" fill="#e0e0e0"/>
      <rect id="Rectangle_92" data-name="Rectangle 92" width="21.788" height="31.52" transform="translate(83.182 487.413)" fill="#fff"/>
      <path id="Path_52" data-name="Path 52" d="M169.876,380.566c0,.337-28.813.612-64.338.612S41.2,380.9,41.2,380.566,70.013,380,105.538,380,169.876,380.23,169.876,380.566Z" transform="translate(-8.819 150.731)" fill="#e0e0e0"/>
      <path id="Path_53" data-name="Path 53" d="M1048.057,394c0,.229-228.695.4-510.688.4S26.68,394.227,26.68,394s228.628-.4,510.688-.4S1048.057,393.784,1048.057,394Z" transform="translate(-26.68 157.941)" fill="#e0e0e0"/>
      <path id="Path_54" data-name="Path 54" d="M1048.057,406.078c0,.214-228.695.4-510.688.4s-510.688-.184-510.688-.4,228.628-.4,510.688-.4S1048.057,405.848,1048.057,406.078Z" transform="translate(-26.68 164.344)" fill="#e0e0e0"/>
      <path id="Path_55" data-name="Path 55" d="M396.123,64.024c.775-7.13-7.224-13.008-13.218-13.6-2.862-.3-5.843.255-8.554-.934C368.475,46.9,366.117,37.33,360.392,34.3c-4.294-2.292-9.227-.255-13.47,2.377s-8.251,5.963-12.9,6.366c-4.041.34-8.419-1.549-11.955.934-2.644,1.846-4.024,5.666-6.449,7.936a12.986,12.986,0,0,1-8.419,2.865,19.415,19.415,0,0,0-8.672,1.782,9.041,9.041,0,0,0-4.344,8.785Z" transform="translate(172.499 16.41)" fill="#fafafa"/>
      <path id="Path_56" data-name="Path 56" d="M117.762,64.246c.607-7.236-5.657-13.167-10.332-13.777-2.234-.294-4.559.252-6.69-.947-4.6-2.608-6.458-12.3-10.926-15.376-3.358-2.314-7.22-.252-10.474,2.419s-6.458,6.016-10.113,6.31c-3.151.337-6.587-1.578-9.351.947-2.066,1.872-3.151,5.742-5.05,8.014a8.81,8.81,0,0,1-6.587,2.9,12.384,12.384,0,0,0-6.793,1.809,10.092,10.092,0,0,0-3.41,8.876Z" transform="translate(45.22 -33.143)" fill="#ebebeb"/>
      <path id="Path_57" data-name="Path 57" d="M514.776,91.16c1.018-8.577-9.4-15.649-17.3-16.32-3.743-.363-7.642.308-11.2-1.124C478.587,70.615,475.518,59.1,468,55.437c-5.606-2.756-12.074-.308-17.507,2.865s-10.821,7.163-16.9,7.616c-5.293.381-11.04-1.813-15.66,1.106-3.445,2.23-5.262,6.836-8.441,9.538s-7.156,3.228-10.962,3.464-7.83.29-11.369,2.158-6.42,6.165-5.684,10.554l37.634-.445Z" transform="translate(539.355 -93.132)" fill="#f5f5f5"/>
      <path id="Path_130" data-name="Path 130" d="M514.776,91.16c1.018-8.577-9.4-15.649-17.3-16.32-3.743-.363-7.642.308-11.2-1.124C478.587,70.615,475.518,59.1,468,55.437c-5.606-2.756-12.074-.308-17.507,2.865s-10.821,7.163-16.9,7.616c-5.293.381-11.04-1.813-15.66,1.106-3.445,2.23-5.262,6.836-8.441,9.538s-7.156,3.228-10.962,3.464-7.83.29-11.369,2.158-6.42,6.165-5.684,10.554l37.634-.445Z" transform="translate(1357.29 -9.844)" fill="#f5f5f5"/>
      <path id="Path_131" data-name="Path 131" d="M396.123,64.024c.775-7.13-7.224-13.008-13.218-13.6-2.862-.3-5.843.255-8.554-.934C368.475,46.9,366.117,37.33,360.392,34.3c-4.294-2.292-9.227-.255-13.47,2.377s-8.251,5.963-12.9,6.366c-4.041.34-8.419-1.549-11.955.934-2.644,1.846-4.024,5.666-6.449,7.936a12.986,12.986,0,0,1-8.419,2.865,19.415,19.415,0,0,0-8.672,1.782,9.041,9.041,0,0,0-4.344,8.785Z" transform="translate(1005.016 -20.944)" fill="#fafafa"/>
    </g>
    <g id="Pedestrian_crossing-pana" data-name="Pedestrian crossing-pana" transform="translate(0 305.312)">
      <g id="freepik--background-complete--inject-85" transform="translate(1197.049 0)">
        <rect id="Rectangle_93" data-name="Rectangle 93" width="15.558" height="187.891" transform="translate(641.272 253.922)" fill="#e0e0e0"/>
        <rect id="Rectangle_94" data-name="Rectangle 94" width="7.779" height="207.637" transform="translate(645.161 70.094)" fill="#e0e0e0"/>
        <circle id="Ellipse_1" data-name="Ellipse 1" cx="24.045" cy="24.045" r="24.045" transform="translate(620.073 96.417) rotate(-76.63)" fill="#ebebeb"/>
        <path id="Path_58" data-name="Path 58" d="M454.031,114.069H443.354a1.464,1.464,0,0,1-1.464-1.464h0a1.464,1.464,0,0,1,1.464-1.464h10.676a1.48,1.48,0,0,1,1.48,1.465h0a1.464,1.464,0,0,1-1.48,1.464Z" transform="translate(200.154 -10.597)" fill="#e0e0e0"/>
        <path id="Path_59" data-name="Path 59" d="M462.985,211.889h-23.62a1.575,1.575,0,0,1-1.575-1.575h0a1.575,1.575,0,0,1,1.575-1.575h23.62a1.575,1.575,0,0,1,1.575,1.575h0A1.575,1.575,0,0,1,462.985,211.889Z" transform="translate(197.797 43.942)" fill="#e0e0e0"/>
        <rect id="Rectangle_95" data-name="Rectangle 95" width="15.558" height="187.891" transform="translate(16.282 253.922)" fill="#e0e0e0"/>
        <rect id="Rectangle_96" data-name="Rectangle 96" width="7.779" height="207.637" transform="translate(20.156 70.094)" fill="#e0e0e0"/>
        <circle id="Ellipse_2" data-name="Ellipse 2" cx="24.045" cy="24.045" r="24.045" transform="translate(0 54.563)" fill="#ebebeb"/>
        <path id="Path_60" data-name="Path 60" d="M57.131,114.069H46.454A1.464,1.464,0,0,1,44.99,112.6h0a1.464,1.464,0,0,1,1.464-1.464H57.131A1.464,1.464,0,0,1,58.6,112.6h0a1.449,1.449,0,0,1-1.464,1.464Z" transform="translate(-27.936 -10.597)" fill="#e0e0e0"/>
        <path id="Path_61" data-name="Path 61" d="M66.085,211.889H42.465a1.575,1.575,0,0,1-1.575-1.575h0a1.575,1.575,0,0,1,1.575-1.575h23.62a1.575,1.575,0,0,1,1.575,1.575h0A1.575,1.575,0,0,1,66.085,211.889Z" transform="translate(-30.292 43.942)" fill="#e0e0e0"/>
        <rect id="Rectangle_97" data-name="Rectangle 97" width="128.557" height="402.949" transform="translate(388.993 39.997)" fill="#f5f5f5"/>
        <rect id="Rectangle_98" data-name="Rectangle 98" width="64.278" height="401.816" transform="translate(451.744 41.524)" fill="#ebebeb"/>
        <rect id="Rectangle_99" data-name="Rectangle 99" width="45.398" height="39.997" transform="translate(403.685)" fill="#f5f5f5"/>
        <rect id="Rectangle_100" data-name="Rectangle 100" width="10.818" height="39.997" transform="translate(438.249)" fill="#ebebeb"/>
        <path id="Path_62" data-name="Path 62" d="M274.39,72.891V70.56H417.418v2.331" transform="translate(103.895 -32.894)" fill="#e0e0e0"/>
        <rect id="Rectangle_101" data-name="Rectangle 101" width="10.881" height="22.943" transform="translate(414.377 57.444)" fill="#fafafa"/>
        <path id="Path_63" data-name="Path 63" d="M345.458,103.571c0,.236-14.377.441-32.123.441s-32.155-.2-32.155-.441,14.393-.441,32.155-.441S345.458,103.335,345.458,103.571Z" transform="translate(107.797 -15.069)" fill="#e0e0e0"/>
        <rect id="Rectangle_102" data-name="Rectangle 102" width="10.881" height="22.943" transform="translate(479.206 57.444)" fill="#e0e0e0"/>
        <path id="Path_64" data-name="Path 64" d="M386.648,103.571c0,.236-14.393.441-32.139.441s-32.139-.2-32.139-.441,14.393-.441,32.139-.441S386.648,103.335,386.648,103.571Z" transform="translate(131.468 -15.069)" fill="#e0e0e0"/>
        <rect id="Rectangle_103" data-name="Rectangle 103" width="10.881" height="22.943" transform="translate(479.206 101.913)" fill="#e0e0e0"/>
        <path id="Path_65" data-name="Path 65" d="M386.648,132.5c0,.236-14.393.441-32.139.441s-32.139-.2-32.139-.441,14.393-.441,32.139-.441S386.648,132.265,386.648,132.5Z" transform="translate(131.468 1.1)" fill="#e0e0e0"/>
        <rect id="Rectangle_104" data-name="Rectangle 104" width="10.881" height="22.943" transform="translate(479.206 148.343)" fill="#e0e0e0"/>
        <path id="Path_66" data-name="Path 66" d="M386.648,162.3c0,.252-14.393.441-32.139.441s-32.139-.189-32.139-.441,14.393-.441,32.139-.441S386.648,162.08,386.648,162.3Z" transform="translate(131.468 17.755)" fill="#e0e0e0"/>
        <rect id="Rectangle_105" data-name="Rectangle 105" width="10.881" height="22.943" transform="translate(479.206 194.774)" fill="#e0e0e0"/>
        <path id="Path_67" data-name="Path 67" d="M386.648,192.1c0,.252-14.393.441-32.139.441s-32.139-.189-32.139-.441,14.393-.425,32.139-.425S386.648,191.859,386.648,192.1Z" transform="translate(131.468 34.415)" fill="#e0e0e0"/>
        <rect id="Rectangle_106" data-name="Rectangle 106" width="10.881" height="22.943" transform="translate(479.206 239.88)" fill="#e0e0e0"/>
        <path id="Path_68" data-name="Path 68" d="M386.648,221.061c0,.236-14.393.425-32.139.425s-32.139-.189-32.139-.425,14.393-.441,32.139-.441S386.648,220.809,386.648,221.061Z" transform="translate(131.468 50.595)" fill="#e0e0e0"/>
        <rect id="Rectangle_107" data-name="Rectangle 107" width="10.881" height="22.943" transform="translate(479.206 285.173)" fill="#e0e0e0"/>
        <rect id="Rectangle_108" data-name="Rectangle 108" width="10.881" height="22.943" transform="translate(479.206 331.058)" fill="#e0e0e0"/>
        <path id="Path_69" data-name="Path 69" d="M386.648,250.161c0,.252-14.393.441-32.139.441s-32.139-.189-32.139-.441,14.393-.441,32.139-.441S386.648,249.862,386.648,250.161Z" transform="translate(131.468 66.858)" fill="#e0e0e0"/>
        <rect id="Rectangle_109" data-name="Rectangle 109" width="10.881" height="22.943" transform="translate(414.377 102.599)" fill="#fafafa"/>
        <path id="Path_70" data-name="Path 70" d="M345.458,132.941c0,.236-14.377.441-32.123.441s-32.155-.2-32.155-.441,14.393-.441,32.155-.441S345.458,132.7,345.458,132.941Z" transform="translate(107.797 1.346)" fill="#e0e0e0"/>
        <rect id="Rectangle_110" data-name="Rectangle 110" width="10.881" height="22.943" transform="translate(414.377 148.359)" fill="#fafafa"/>
        <path id="Path_71" data-name="Path 71" d="M345.458,162.311c0,.252-14.377.441-32.123.441s-32.155-.189-32.155-.441,14.393-.441,32.155-.441S345.458,162.075,345.458,162.311Z" transform="translate(107.797 17.76)" fill="#e0e0e0"/>
        <rect id="Rectangle_111" data-name="Rectangle 111" width="10.881" height="22.943" transform="translate(414.377 194.119)" fill="#fafafa"/>
        <path id="Path_72" data-name="Path 72" d="M345.458,191.675c0,.252-14.377.441-32.123.441s-32.155-.189-32.155-.441,14.393-.425,32.155-.425S345.458,191.439,345.458,191.675Z" transform="translate(107.797 34.18)" fill="#e0e0e0"/>
        <rect id="Rectangle_112" data-name="Rectangle 112" width="10.881" height="22.943" transform="translate(414.377 239.88)" fill="#fafafa"/>
        <path id="Path_73" data-name="Path 73" d="M345.458,221.061c0,.236-14.377.425-32.123.425s-32.155-.189-32.155-.425,14.393-.441,32.155-.441S345.458,220.809,345.458,221.061Z" transform="translate(107.797 50.595)" fill="#e0e0e0"/>
        <rect id="Rectangle_113" data-name="Rectangle 113" width="10.881" height="22.943" transform="translate(414.377 285.656)" fill="#fafafa"/>
        <path id="Path_74" data-name="Path 74" d="M345.458,250.431c0,.236-14.377.425-32.123.425s-32.155-.189-32.155-.425,14.393-.441,32.155-.441S345.458,250.179,345.458,250.431Z" transform="translate(107.797 67.009)" fill="#e0e0e0"/>
        <rect id="Rectangle_114" data-name="Rectangle 114" width="10.881" height="22.943" transform="translate(414.377 331.416)" fill="#fafafa"/>
        <rect id="Rectangle_115" data-name="Rectangle 115" width="94.512" height="179.372" transform="translate(514.92 263.559)" fill="#e0e0e0"/>
        <rect id="Rectangle_116" data-name="Rectangle 116" width="44.311" height="179.372" transform="translate(565.121 263.559)" fill="#ebebeb"/>
        <rect id="Rectangle_117" data-name="Rectangle 117" width="8.503" height="20.644" transform="translate(534.745 281.932)" fill="#f5f5f5"/>
        <rect id="Rectangle_118" data-name="Rectangle 118" width="8.503" height="20.644" transform="translate(534.745 361.252)" fill="#f5f5f5"/>
        <path id="Path_75" data-name="Path 75" d="M411.321,245.955c0,.173-11.243.315-25.1.315s-25.1-.142-25.1-.315,11.243-.315,25.1-.315S411.321,245.782,411.321,245.955Z" transform="translate(153.737 64.58)" fill="#f5f5f5"/>
        <rect id="Rectangle_119" data-name="Rectangle 119" width="8.503" height="20.644" transform="translate(534.745 322.226)" fill="#f5f5f5"/>
        <path id="Path_76" data-name="Path 76" d="M411.321,271.8c0,.189-11.243.331-25.1.331s-25.1-.142-25.1-.331,11.243-.315,25.1-.315S411.321,271.632,411.321,271.8Z" transform="translate(153.737 79.027)" fill="#f5f5f5"/>
        <rect id="Rectangle_120" data-name="Rectangle 120" width="8.503" height="20.644" transform="translate(574.537 281.932)" fill="#e0e0e0"/>
        <rect id="Rectangle_121" data-name="Rectangle 121" width="8.503" height="20.644" transform="translate(592.961 281.932)" fill="#e0e0e0"/>
        <rect id="Rectangle_122" data-name="Rectangle 122" width="8.503" height="20.644" transform="translate(574.537 320.699)" fill="#e0e0e0"/>
        <rect id="Rectangle_123" data-name="Rectangle 123" width="8.503" height="20.644" transform="translate(592.961 320.699)" fill="#e0e0e0"/>
        <rect id="Rectangle_124" data-name="Rectangle 124" width="8.503" height="20.644" transform="translate(574.537 358.795)" fill="#e0e0e0"/>
        <rect id="Rectangle_125" data-name="Rectangle 125" width="8.503" height="20.644" transform="translate(592.961 358.795)" fill="#e0e0e0"/>
        <rect id="Rectangle_126" data-name="Rectangle 126" width="108.732" height="4.488" transform="translate(507.818 261.045)" fill="#e0e0e0"/>
        <path id="Path_77" data-name="Path 77" d="M456.081,217.345c0,.189-21.116.331-47.24.331s-47.24-.142-47.24-.331,21.116-.315,47.24-.315S456.081,217.172,456.081,217.345Z" transform="translate(154.013 48.59)" fill="#ebebeb"/>
        <rect id="Rectangle_127" data-name="Rectangle 127" width="110.338" height="288.812" transform="translate(300.858 154.119)" fill="#ebebeb"/>
        <rect id="Rectangle_128" data-name="Rectangle 128" width="55.177" height="288.812" transform="translate(356.019 154.119)" fill="#e0e0e0"/>
        <rect id="Rectangle_129" data-name="Rectangle 129" width="38.958" height="34.328" transform="translate(313.455 122.926)" fill="#ebebeb"/>
        <rect id="Rectangle_130" data-name="Rectangle 130" width="9.291" height="34.328" transform="translate(343.138 122.926)" fill="#e0e0e0"/>
        <rect id="Rectangle_131" data-name="Rectangle 131" width="122.762" height="2" transform="translate(291.662 155.027)" fill="#e0e0e0"/>
        <rect id="Rectangle_132" data-name="Rectangle 132" width="9.338" height="19.699" transform="translate(322.636 171.759)" fill="#fff"/>
        <path id="Path_78" data-name="Path 78" d="M280.381,174.428c0,.2-12.345.378-27.573.378s-27.588-.173-27.588-.378,12.345-.378,27.588-.378S280.381,174.223,280.381,174.428Z" transform="translate(75.638 24.568)" fill="#e0e0e0"/>
        <rect id="Rectangle_133" data-name="Rectangle 133" width="9.338" height="19.699" transform="translate(378.285 171.759)" fill="#f5f5f5"/>
        <path id="Path_79" data-name="Path 79" d="M315.721,174.428c0,.2-12.345.378-27.573.378s-27.588-.173-27.588-.378,12.346-.378,27.588-.378S315.721,174.223,315.721,174.428Z" transform="translate(95.947 24.568)" fill="#ebebeb"/>
        <rect id="Rectangle_134" data-name="Rectangle 134" width="9.338" height="19.699" transform="translate(378.285 210.449)" fill="#f5f5f5"/>
        <path id="Path_80" data-name="Path 80" d="M315.721,199.258c0,.2-12.345.378-27.573.378s-27.588-.173-27.588-.378,12.346-.378,27.588-.378S315.721,199.069,315.721,199.258Z" transform="translate(95.947 38.445)" fill="#ebebeb"/>
        <rect id="Rectangle_135" data-name="Rectangle 135" width="9.338" height="19.699" transform="translate(378.285 250.308)" fill="#f5f5f5"/>
        <path id="Path_81" data-name="Path 81" d="M315.721,224.838c0,.2-12.345.378-27.573.378s-27.588-.173-27.588-.378,12.346-.378,27.588-.378S315.721,224.633,315.721,224.838Z" transform="translate(95.947 52.742)" fill="#ebebeb"/>
        <rect id="Rectangle_136" data-name="Rectangle 136" width="9.338" height="19.699" transform="translate(378.285 290.166)" fill="#f5f5f5"/>
        <path id="Path_82" data-name="Path 82" d="M315.721,250.418c0,.2-12.345.378-27.573.378s-27.588-.173-27.588-.378,12.346-.378,27.588-.378S315.721,250.213,315.721,250.418Z" transform="translate(95.947 67.038)" fill="#ebebeb"/>
        <rect id="Rectangle_137" data-name="Rectangle 137" width="9.338" height="19.699" transform="translate(378.285 328.887)" fill="#f5f5f5"/>
        <path id="Path_83" data-name="Path 83" d="M315.721,275.268c0,.2-12.345.378-27.573.378s-27.588-.173-27.588-.378,12.346-.378,27.588-.378S315.721,275.063,315.721,275.268Z" transform="translate(95.947 80.048)" fill="#ebebeb"/>
        <rect id="Rectangle_138" data-name="Rectangle 138" width="9.338" height="19.699" transform="translate(378.285 367.173)" fill="#f5f5f5"/>
        <rect id="Rectangle_139" data-name="Rectangle 139" width="9.338" height="19.699" transform="translate(378.285 406.981)" fill="#f5f5f5"/>
        <path id="Path_84" data-name="Path 84" d="M315.721,300.218c0,.2-12.345.378-27.573.378s-27.588-.173-27.588-.378,12.346-.378,27.588-.378S315.721,300,315.721,300.218Z" transform="translate(95.947 94.386)" fill="#ebebeb"/>
        <rect id="Rectangle_140" data-name="Rectangle 140" width="9.338" height="19.699" transform="translate(322.636 211.041)" fill="#fff"/>
        <path id="Path_85" data-name="Path 85" d="M280.381,199.638c0,.2-12.345.378-27.573.378s-27.588-.173-27.588-.378,12.345-.378,27.588-.378S280.381,199.433,280.381,199.638Z" transform="translate(75.638 38.658)" fill="#e0e0e0"/>
        <rect id="Rectangle_141" data-name="Rectangle 141" width="9.338" height="19.699" transform="translate(322.636 250.323)" fill="#fff"/>
        <path id="Path_86" data-name="Path 86" d="M280.381,224.848c0,.2-12.345.378-27.573.378s-27.588-.173-27.588-.378,12.345-.378,27.588-.378S280.381,224.643,280.381,224.848Z" transform="translate(75.638 52.747)" fill="#e0e0e0"/>
        <rect id="Rectangle_142" data-name="Rectangle 142" width="9.338" height="19.699" transform="translate(322.636 289.605)" fill="#fff"/>
        <path id="Path_87" data-name="Path 87" d="M280.381,250.058c0,.2-12.345.378-27.573.378s-27.588-.173-27.588-.378,12.345-.378,27.588-.378S280.381,249.853,280.381,250.058Z" transform="translate(75.638 66.837)" fill="#e0e0e0"/>
        <rect id="Rectangle_143" data-name="Rectangle 143" width="9.338" height="19.699" transform="translate(322.636 328.887)" fill="#fff"/>
        <path id="Path_88" data-name="Path 88" d="M280.381,275.268c0,.2-12.345.378-27.573.378s-27.588-.173-27.588-.378,12.345-.378,27.588-.378S280.381,275.063,280.381,275.268Z" transform="translate(75.638 80.048)" fill="#e0e0e0"/>
        <rect id="Rectangle_144" data-name="Rectangle 144" width="9.338" height="19.699" transform="translate(322.636 367.582)" fill="#fff"/>
        <path id="Path_89" data-name="Path 89" d="M280.381,300.478c0,.2-12.345.378-27.573.378s-27.588-.173-27.588-.378,12.345-.378,27.588-.378S280.381,300.273,280.381,300.478Z" transform="translate(75.638 94.535)" fill="#e0e0e0"/>
        <rect id="Rectangle_145" data-name="Rectangle 145" width="9.338" height="19.699" transform="translate(322.636 407.28)" fill="#fff"/>
        <rect id="Rectangle_146" data-name="Rectangle 146" width="94.512" height="179.372" transform="translate(234.926 263.559)" fill="#e0e0e0"/>
        <rect id="Rectangle_147" data-name="Rectangle 147" width="44.311" height="179.372" transform="translate(285.127 263.559)" fill="#ebebeb"/>
        <rect id="Rectangle_148" data-name="Rectangle 148" width="8.503" height="20.644" transform="translate(254.751 281.932)" fill="#f5f5f5"/>
        <rect id="Rectangle_149" data-name="Rectangle 149" width="8.503" height="20.644" transform="translate(254.751 361.252)" fill="#f5f5f5"/>
        <path id="Path_90" data-name="Path 90" d="M233.551,245.955c0,.173-11.243.315-25.1.315s-25.1-.142-25.1-.315,11.243-.315,25.1-.315S233.551,245.782,233.551,245.955Z" transform="translate(51.576 64.58)" fill="#f5f5f5"/>
        <rect id="Rectangle_150" data-name="Rectangle 150" width="8.503" height="20.644" transform="translate(254.751 322.226)" fill="#f5f5f5"/>
        <path id="Path_91" data-name="Path 91" d="M233.551,271.8c0,.189-11.243.331-25.1.331s-25.1-.142-25.1-.331,11.243-.315,25.1-.315S233.551,271.632,233.551,271.8Z" transform="translate(51.576 79.027)" fill="#f5f5f5"/>
        <rect id="Rectangle_151" data-name="Rectangle 151" width="8.503" height="20.644" transform="translate(294.544 281.932)" fill="#e0e0e0"/>
        <rect id="Rectangle_152" data-name="Rectangle 152" width="8.503" height="20.644" transform="translate(312.983 281.932)" fill="#e0e0e0"/>
        <rect id="Rectangle_153" data-name="Rectangle 153" width="8.503" height="20.644" transform="translate(294.544 320.699)" fill="#e0e0e0"/>
        <rect id="Rectangle_154" data-name="Rectangle 154" width="8.503" height="20.644" transform="translate(312.983 320.699)" fill="#e0e0e0"/>
        <rect id="Rectangle_155" data-name="Rectangle 155" width="8.503" height="20.644" transform="translate(294.544 358.795)" fill="#e0e0e0"/>
        <rect id="Rectangle_156" data-name="Rectangle 156" width="8.503" height="20.644" transform="translate(312.983 358.795)" fill="#e0e0e0"/>
        <rect id="Rectangle_157" data-name="Rectangle 157" width="108.732" height="4.488" transform="translate(227.824 261.045)" fill="#e0e0e0"/>
        <path id="Path_92" data-name="Path 92" d="M278.271,217.345c0,.189-21.116.331-47.24.331s-47.24-.142-47.24-.331,21.116-.315,47.24-.315S278.271,217.172,278.271,217.345Z" transform="translate(51.829 48.59)" fill="#ebebeb"/>
        <rect id="Rectangle_158" data-name="Rectangle 158" width="84.607" height="111.597" transform="translate(172.821 330.845)" fill="#ebebeb"/>
        <rect id="Rectangle_159" data-name="Rectangle 159" width="39.666" height="111.597" transform="translate(217.762 330.845)" fill="#e0e0e0"/>
        <rect id="Rectangle_160" data-name="Rectangle 160" width="7.606" height="18.487" transform="translate(190.552 346.77)" fill="#f5f5f5"/>
        <rect id="Rectangle_161" data-name="Rectangle 161" width="7.606" height="18.487" transform="translate(190.552 418.287)" fill="#f5f5f5"/>
        <path id="Path_93" data-name="Path 93" d="M188.851,285.668c0,.2-10.062.362-22.471.362s-22.471-.157-22.471-.362,10.062-.378,22.471-.378S188.851,285.447,188.851,285.668Z" transform="translate(28.911 86.024)" fill="#f5f5f5"/>
        <rect id="Rectangle_162" data-name="Rectangle 162" width="7.606" height="18.487" transform="translate(190.552 382.4)" fill="#f5f5f5"/>
        <path id="Path_94" data-name="Path 94" d="M188.851,308.808c0,.2-10.062.378-22.471.378s-22.471-.173-22.471-.378,10.062-.378,22.471-.378S188.851,308.6,188.851,308.808Z" transform="translate(28.911 99.322)" fill="#f5f5f5"/>
        <rect id="Rectangle_163" data-name="Rectangle 163" width="7.606" height="18.487" transform="translate(226.187 346.77)" fill="#f5f5f5"/>
        <rect id="Rectangle_165" data-name="Rectangle 165" width="7.606" height="18.487" transform="translate(226.187 381.014)" fill="#f5f5f5"/>
        <rect id="Rectangle_166" data-name="Rectangle 166" width="7.606" height="18.487" transform="translate(242.689 381.014)" fill="#f5f5f5"/>
        <rect id="Rectangle_167" data-name="Rectangle 167" width="7.606" height="18.487" transform="translate(226.187 416.098)" fill="#f5f5f5"/>
        <rect id="Rectangle_168" data-name="Rectangle 168" width="7.606" height="18.487" transform="translate(242.689 416.098)" fill="#f5f5f5"/>
        <rect id="Rectangle_169" data-name="Rectangle 169" width="97.331" height="4.031" transform="translate(166.459 328.09)" fill="#e0e0e0"/>
        <path id="Path_95" data-name="Path 95" d="M228.832,260.042c0,.22-18.9.378-42.233.378s-42.249-.157-42.249-.378,18.9-.362,42.249-.362S228.832,259.837,228.832,260.042Z" transform="translate(29.164 72.426)" fill="#ebebeb"/>
        <path id="Path_96" data-name="Path 96" d="M343.8,126.764h77.159s-6.834-12.424-26.691-10.613c-18.975,1.732-19.935-6.11-29.572-7.07S347.028,115.505,343.8,126.764Z" transform="translate(143.783 -11.828)" fill="#ebebeb"/>
        <path id="Path_97" data-name="Path 97" d="M139.43,87.824h77.159S209.755,75.4,189.9,77.211c-18.975,1.716-19.935-6.11-29.572-7.07S142.658,76.565,139.43,87.824Z" transform="translate(26.336 -33.183)" fill="#ebebeb"/>
        <path id="Path_98" data-name="Path 98" d="M73.59,153.653H214.036s-12.424-22.6-48.579-19.306c-34.517,3.149-36.218-11.117-53.822-12.881S79.448,133.166,73.59,153.653Z" transform="translate(-11.5 -4.996)" fill="#fafafa"/>
      </g>
      <g id="freepik--Floor--inject-85" transform="translate(0 428.827)">
        <rect id="Rectangle_170" data-name="Rectangle 170" width="158.658" height="13.942" transform="translate(0.085 0.285)" fill="#ebebeb"/>
        <rect id="Rectangle_171" data-name="Rectangle 171" width="158.658" height="13.942" transform="translate(162.395 0.285)" fill="#f5f5f5"/>
        <rect id="Rectangle_172" data-name="Rectangle 172" width="158.658" height="13.942" transform="translate(324.662 0.285)" fill="#ebebeb"/>
        <rect id="Rectangle_173" data-name="Rectangle 173" width="158.658" height="13.942" transform="translate(486.929 0.285)" fill="#f5f5f5"/>
        <rect id="Rectangle_174" data-name="Rectangle 174" width="158.658" height="13.942" transform="translate(649.239 0.285)" fill="#ebebeb"/>
        <rect id="Rectangle_175" data-name="Rectangle 175" width="158.658" height="13.942" transform="translate(811.506 0.285)" fill="#f5f5f5"/>
        <rect id="Rectangle_176" data-name="Rectangle 176" width="158.658" height="13.942" transform="translate(973.816 0.285)" fill="#ebebeb"/>
        <rect id="Rectangle_177" data-name="Rectangle 177" width="158.658" height="13.942" transform="translate(1136.083 0.285)" fill="#ebebeb"/>
        <rect id="Rectangle_178" data-name="Rectangle 178" width="158.658" height="13.942" transform="translate(1298.393 0.285)" fill="#f5f5f5"/>
        <rect id="Rectangle_179" data-name="Rectangle 179" width="158.658" height="13.942" transform="translate(1460.66 0.285)" fill="#ebebeb"/>
        <rect id="Rectangle_180" data-name="Rectangle 180" width="158.658" height="13.942" transform="translate(1622.969 0.285)" fill="#f5f5f5"/>
        <rect id="Rectangle_181" data-name="Rectangle 181" width="158.658" height="13.942" transform="translate(1785.237 0.285)" fill="#ebebeb"/>
        <path id="Path_99" data-name="Path 99" d="M2017.853,322.005c0,.159-449.7.285-1004.341.285S9,322.164,9,322.005s449.61-.285,1004.427-.285S2017.853,321.847,2017.853,322.005Z" transform="translate(-9 -321.72)" fill="#263238"/>
        <path id="Path_100" data-name="Path 100" d="M2017.853,330.8c0,.159-449.7.286-1004.341.286S9,330.954,9,330.8s449.61-.286,1004.427-.286S2017.853,330.637,2017.853,330.8Z" transform="translate(-9 -316.568)" fill="#263238"/>
        <path id="Path_101" data-name="Path 101" d="M47.444,335.253a25.87,25.87,0,0,1,0-12.483,25.87,25.87,0,0,1,0,12.483Z" transform="translate(113.295 -321.105)" fill="#263238"/>
        <path id="Path_102" data-name="Path 102" d="M85.694,335.253a25.87,25.87,0,0,1,0-12.483A25.869,25.869,0,0,1,85.694,335.253Z" transform="translate(237.439 -321.105)" fill="#263238"/>
        <path id="Path_103" data-name="Path 103" d="M123.912,335.253a27.352,27.352,0,0,1,0-12.483,25.871,25.871,0,0,1,0,12.483Z" transform="translate(361.616 -321.105)" fill="#263238"/>
        <path id="Path_104" data-name="Path 104" d="M162.2,335.253a25.869,25.869,0,0,1,0-12.483A25.872,25.872,0,0,1,162.2,335.253Z" transform="translate(485.761 -321.105)" fill="#263238"/>
        <path id="Path_105" data-name="Path 105" d="M200.454,335.253a25.868,25.868,0,0,1,0-12.483A25.869,25.869,0,0,1,200.454,335.253Z" transform="translate(609.906 -321.105)" fill="#263238"/>
        <path id="Path_106" data-name="Path 106" d="M238.714,335.253a25.867,25.867,0,0,1,0-12.483A25.869,25.869,0,0,1,238.714,335.253Z" transform="translate(734.083 -321.105)" fill="#263238"/>
        <path id="Path_107" data-name="Path 107" d="M276.964,335.253a25.871,25.871,0,0,1,0-12.483A25.869,25.869,0,0,1,276.964,335.253Z" transform="translate(858.227 -321.105)" fill="#263238"/>
        <path id="Path_108" data-name="Path 108" d="M315.214,335.253a25.868,25.868,0,0,1,0-12.483,25.873,25.873,0,0,1,0,12.483Z" transform="translate(982.372 -321.105)" fill="#263238"/>
        <path id="Path_109" data-name="Path 109" d="M353.474,335.253a25.869,25.869,0,0,1,0-12.483A25.872,25.872,0,0,1,353.474,335.253Z" transform="translate(1106.549 -321.105)" fill="#263238"/>
        <path id="Path_110" data-name="Path 110" d="M391.724,335.253a25.874,25.874,0,0,1,0-12.483,25.871,25.871,0,0,1,0,12.483Z" transform="translate(1230.693 -321.105)" fill="#263238"/>
        <path id="Path_111" data-name="Path 111" d="M429.984,335.253a25.87,25.87,0,0,1,0-12.483,25.869,25.869,0,0,1,0,12.483Z" transform="translate(1354.871 -321.105)" fill="#263238"/>
        <path id="Path_112" data-name="Path 112" d="M468.234,335.253a25.874,25.874,0,0,1,0-12.483A25.866,25.866,0,0,1,468.234,335.253Z" transform="translate(1479.015 -321.105)" fill="#263238"/>
      </g>
    </g>
  </g>
</svg>
