<svg xmlns="http://www.w3.org/2000/svg" width="69.019" height="382.33" viewBox="0 0 69.019 382.33">
  <g id="Passing_by-pana" data-name="Passing by-pana" transform="translate(-308.33 -29.36)">
    <g id="freepik--Plant--inject-72">
      <path id="Path_1" data-name="Path 1" d="M353.56,376.31c-1.71,2.3-4.88,1.44-6.32,0s-2-3.56-2.53-5.55c-1.18-4.56-2.37-9.33-1.28-13.91a7.74,7.74,0,0,1,1.87-3.72,4,4,0,0,1,3.85-1.17c1.6.47,2.56,2.07,3.24,3.59a33,33,0,0,1,2.89,14.27,11.42,11.42,0,0,1-1.72,6.52" fill="#ff725e"/>
      <g id="Group_1" data-name="Group 1" opacity="0.2">
        <path id="Path_2" data-name="Path 2" d="M353.56,376.31c-1.71,2.3-4.88,1.44-6.32,0s-2-3.56-2.53-5.55c-1.18-4.56-2.37-9.33-1.28-13.91a7.74,7.74,0,0,1,1.87-3.72,4,4,0,0,1,3.85-1.17c1.6.47,2.56,2.07,3.24,3.59a33,33,0,0,1,2.89,14.27,11.42,11.42,0,0,1-1.72,6.52"/>
      </g>
      <path id="Path_3" data-name="Path 3" d="M347.09,388a14.23,14.23,0,0,0-8.8-1.31,7.33,7.33,0,0,0-4.41,1.83c-1.12,1.18-1.38,3.29-.16,4.36a4.25,4.25,0,0,0,2.73.77c2.34,0,4.94-.31,6.76,1.14,1.05.83,1.72,2.18,3,2.61a3,3,0,0,0,3.35-1.39,5.1,5.1,0,0,0,.47-3.78,5.77,5.77,0,0,0-2.94-4.23Z" fill="#ff725e"/>
      <path id="Path_4" data-name="Path 4" d="M358,379.8a8.52,8.52,0,0,1-1.12-7.89,15,15,0,0,1,4.83-6.62,25,25,0,0,1,8.45-4.7,9,9,0,0,1,3.77-.54,3.94,3.94,0,0,1,3.09,2c.83,1.69-.06,3.7-1,5.33a64.217,64.217,0,0,1-5.69,8.18c-1.7,2.07-3.63,4.11-6.16,5s-5.11.71-6.39-1.06" fill="#ff725e"/>
      <path id="Path_5" data-name="Path 5" d="M352.74,411.69a5.237,5.237,0,0,1-.12-1.07q-.09-1.17-.21-2.91a40.78,40.78,0,0,0-.54-4.29,32.517,32.517,0,0,0-1.42-5.07,18.761,18.761,0,0,0-2.45-4.63,9.53,9.53,0,0,0-3.18-2.78,9.131,9.131,0,0,0-2.71-.93,4.652,4.652,0,0,1-1.06-.18,5.562,5.562,0,0,1,1.08,0,8.44,8.44,0,0,1,2.83.82,9.5,9.5,0,0,1,3.36,2.82,18.21,18.21,0,0,1,2.54,4.71,30.583,30.583,0,0,1,1.41,5.16,35.185,35.185,0,0,1,.45,4.34c.06,1.23.07,2.23.07,2.93A4.741,4.741,0,0,1,352.74,411.69Z" fill="#263238"/>
      <path id="Path_6" data-name="Path 6" d="M352.6,409.45a1.911,1.911,0,0,1,0-.5q0-.555,0-1.41c0-1.23.08-3,.08-5.2,0-4.39-.22-10.45-.77-17.12s-1.38-12.69-2.15-17c-.18-1.08-.37-2.06-.54-2.91s-.31-1.59-.45-2.19l-.3-1.39a1.75,1.75,0,0,1-.07-.49,2.62,2.62,0,0,1,.16.47c.1.36.22.81.37,1.37s.34,1.32.53,2.18.4,1.82.61,2.9a161.932,161.932,0,0,1,2.28,17c.55,6.69.72,12.77.64,17.16,0,2.2-.13,4-.22,5.21q-.07.85-.12,1.41a2.46,2.46,0,0,1-.05.51Z" fill="#263238"/>
      <path id="Path_7" data-name="Path 7" d="M352.87,397.74a9.714,9.714,0,0,1,.05-1.48c.08-.95.25-2.32.56-4a53.437,53.437,0,0,1,1.46-5.8,51.713,51.713,0,0,1,2.62-6.83,37,37,0,0,1,7.45-11,17.113,17.113,0,0,1,1.73-1.52c.26-.21.49-.42.73-.59l.67-.43a11.4,11.4,0,0,1,1.26-.77,45.482,45.482,0,0,0-4.17,3.53A38.71,38.71,0,0,0,358,379.83a54.613,54.613,0,0,0-2.64,6.77,59.094,59.094,0,0,0-1.53,5.73c-.35,1.66-.56,3-.7,3.95a7.942,7.942,0,0,1-.26,1.46Z" fill="#263238"/>
    </g>
    <g id="freepik--Light--inject-72">
      <rect id="Rectangle_1" data-name="Rectangle 1" width="7.59" height="202.64" transform="translate(328.01 45.82)" fill="#455a64"/>
      <circle id="Ellipse_1" data-name="Ellipse 1" cx="23.47" cy="23.47" r="23.47" transform="translate(308.33 29.36)" fill="#ff725e"/>
      <circle id="Ellipse_2" data-name="Ellipse 2" cx="23.47" cy="23.47" r="23.47" transform="translate(308.33 29.36)" fill="#fff" opacity="0.3"/>
      <rect id="Rectangle_2" data-name="Rectangle 2" width="13.28" height="2.87" rx="1.38" transform="translate(324.98 75.28)" fill="#455a64"/>
      <path id="Path_8" data-name="Path 8" d="M339.39,411.25l-15.17.41V228.3h15.17Z" fill="#263238"/>
      <rect id="Rectangle_3" data-name="Rectangle 3" width="26.22" height="3.15" rx="1.52" transform="translate(318.61 225.15)" fill="#263238"/>
    </g>
  </g>
</svg>
