<svg xmlns="http://www.w3.org/2000/svg" viewBox="0 0 500 500"><g id="freepik--character-3--inject-72"><path d="M409.47,190.8h0a11,11,0,0,1-10.56-10.44l-.48-9.75s-9.08-.93-9.66-9.93-.11-29.77-.11-29.77h0a31.36,31.36,0,0,1,31.67,2.3l1.39,1L420.84,180A11,11,0,0,1,409.47,190.8Z" style="fill:#b78876"></path><path d="M398.41,170.48a21,21,0,0,0,11.57-4s-2.44,6.63-11.47,6.29Z" style="fill:#aa6550"></path><path d="M421.09,143.56c.15-.07,6.1-2.16,6.22,4s-6.09,5-6.1,4.85S421.09,143.56,421.09,143.56Z" style="fill:#b78876"></path><path d="M423,150s.11.08.3.16a1.14,1.14,0,0,0,.8,0,2.67,2.67,0,0,0,1.18-2.41,3.59,3.59,0,0,0-.33-1.54,1.25,1.25,0,0,0-.83-.8.54.54,0,0,0-.62.3c-.08.18,0,.3-.07.31s-.14-.1-.09-.36a.67.67,0,0,1,.23-.39.83.83,0,0,1,.59-.17,1.53,1.53,0,0,1,1.14.94,3.52,3.52,0,0,1,.41,1.71,2.78,2.78,0,0,1-1.51,2.69,1.14,1.14,0,0,1-1-.14C423.06,150.19,423,150.06,423,150Z" style="fill:#aa6550"></path><path d="M393.66,145.14a1.29,1.29,0,0,0,1.31,1.23,1.23,1.23,0,0,0,1.26-1.23,1.28,1.28,0,0,0-1.3-1.23A1.23,1.23,0,0,0,393.66,145.14Z" style="fill:#263238"></path><path d="M391,143.49c.17.16,1.11-.61,2.49-.68s2.44.57,2.58.39-.11-.37-.57-.67a3.5,3.5,0,0,0-2.07-.52,3.35,3.35,0,0,0-2,.75C391.08,143.11,391,143.42,391,143.49Z" style="fill:#263238"></path><path d="M407.18,144.45a1.29,1.29,0,0,0,1.31,1.23,1.22,1.22,0,0,0,1.26-1.23,1.28,1.28,0,0,0-1.3-1.23A1.23,1.23,0,0,0,407.18,144.45Z" style="fill:#263238"></path><path d="M404.65,143c.17.15,1.11-.62,2.49-.69s2.44.57,2.58.4-.11-.38-.57-.68a3.57,3.57,0,0,0-2.07-.52,3.42,3.42,0,0,0-2,.75C404.7,142.65,404.57,143,404.65,143Z" style="fill:#263238"></path><path d="M400.17,153.56a9.78,9.78,0,0,0-2.27-.28c-.36,0-.7-.07-.77-.31a1.77,1.77,0,0,1,.18-1.06l.91-2.75c1.25-3.91,2.13-7.11,2-7.16a47.36,47.36,0,0,0-2.55,7c-.3,1-.58,1.88-.86,2.76a2.09,2.09,0,0,0-.11,1.39.9.9,0,0,0,.61.49,2.24,2.24,0,0,0,.61.05A9.06,9.06,0,0,0,400.17,153.56Z" style="fill:#263238"></path><path d="M404,137.63c.16.37,1.53.12,3.16.23s3,.48,3.17.13c.09-.16-.16-.5-.71-.84a5.24,5.24,0,0,0-2.38-.7,5.35,5.35,0,0,0-2.44.42C404.23,137.14,403.94,137.45,404,137.63Z" style="fill:#263238"></path><path d="M391.33,139.46c.26.3,1.2-.08,2.34-.15s2.13.1,2.34-.24c.09-.17-.08-.48-.52-.75a3.39,3.39,0,0,0-3.77.31C391.33,139,391.21,139.31,391.33,139.46Z" style="fill:#263238"></path><path d="M384,125.45a3.29,3.29,0,0,1,1.07-3,2.36,2.36,0,0,1,3.07.06,2.74,2.74,0,0,1,2.19-3.46c1.46-.17,2.77.88,4.21,1.19a6.65,6.65,0,0,0,4.18-.71c1.31-.6,2.52-1.41,3.84-2a11.53,11.53,0,0,1,15.09,6,5.12,5.12,0,0,1,5.53,1.77,8.37,8.37,0,0,1,1.59,5.84,18.52,18.52,0,0,1-.82,4.1c0,.11,0,.23,0,.34.17,5-.09,10.81-2.2,11-3.68.25-3.17-6.74-3.17-6.74-4.61-1.51-3.28-8.37-4.46-9.33s-3.68-3.24-12.89,2.1a18.3,18.3,0,0,1-11.16,1.8l-.24,0h0l-.08,0a8.65,8.65,0,0,1-2.49-.9,4.8,4.8,0,0,1-2.11-2.12,2.64,2.64,0,0,1,.37-2.85A5.71,5.71,0,0,1,384,125.45Z" style="fill:#263238"></path><path d="M399.21,157.88a6.37,6.37,0,0,0,.89,1.54,2.13,2.13,0,0,0,1.53.78,1.87,1.87,0,0,0,1.54-.95,3,3,0,0,0,.35-1.82c-.06-.57-.35-1.24-.92-1.27a1.36,1.36,0,0,0-.68.18L399,157.7" style="fill:#aa6550"></path><path d="M400.53,160.27a4.64,4.64,0,0,0,1.57-.28,2.2,2.2,0,0,0,1.14-1.15,2.38,2.38,0,0,0-.06-2,2.12,2.12,0,0,0-.28-.43c-.13-.12-.1-.11-.23-.09s-.31.14-.47.21l-.47.23-1.67.75a5,5,0,0,1-1.59.57,6.09,6.09,0,0,1,1.43-.91c.45-.25,1-.54,1.61-.85l.47-.24a4.46,4.46,0,0,1,.53-.25.65.65,0,0,1,.44,0,.69.69,0,0,1,.34.24,2.46,2.46,0,0,1,.37.54,2.82,2.82,0,0,1,0,2.39,2.54,2.54,0,0,1-1.44,1.29,2.35,2.35,0,0,1-1.29.12C400.66,160.39,400.52,160.3,400.53,160.27Z" style="fill:#263238"></path><path d="M414.38,129.59a5.28,5.28,0,0,0-.05-1.09,4.26,4.26,0,0,0-1.54-2.46,5.76,5.76,0,0,0-4.13-1.12,17.65,17.65,0,0,0-5.2,1.45c-.91.35-1.8.69-2.69.94a13.83,13.83,0,0,1-2.62.45,14.19,14.19,0,0,1-4.47-.35,13.07,13.07,0,0,1-2.83-1,8.19,8.19,0,0,1-.73-.39c-.16-.1-.24-.15-.23-.16s.35.17,1,.46a15,15,0,0,0,2.84.94,14.5,14.5,0,0,0,4.4.29,14.2,14.2,0,0,0,2.57-.46c.87-.25,1.76-.58,2.66-.94a17.48,17.48,0,0,1,5.29-1.45,5.88,5.88,0,0,1,4.26,1.23,4.24,4.24,0,0,1,1.52,2.58A2.43,2.43,0,0,1,414.38,129.59Z" style="fill:#455a64"></path><path d="M422.18,144.45a1.8,1.8,0,0,1-.13-.19c-.07-.12-.18-.31-.31-.56a11.3,11.3,0,0,1-.83-2.2,11.93,11.93,0,0,1-.41-3.47,30.63,30.63,0,0,1,.58-4.22,8.26,8.26,0,0,0-.21-4.14,4.26,4.26,0,0,0-.94-1.53,3.19,3.19,0,0,0-1.34-.78,3,3,0,0,0-2.22.17,5.94,5.94,0,0,0-.67.52,1.8,1.8,0,0,1,.62-.61,3,3,0,0,1,2.32-.26,3.33,3.33,0,0,1,1.44.81,4.19,4.19,0,0,1,1,1.59,8.24,8.24,0,0,1,.24,4.27,35.18,35.18,0,0,0-.6,4.19,12.58,12.58,0,0,0,.35,3.42,14,14,0,0,0,.75,2.2A8.3,8.3,0,0,1,422.18,144.45Z" style="fill:#455a64"></path><path d="M415.21,128.82a2.63,2.63,0,0,1,0-.36c0-.27,0-.61,0-1a12.2,12.2,0,0,0-.61-3.72,6.86,6.86,0,0,0-1.33-2.21,4.68,4.68,0,0,0-2.5-1.47,6.16,6.16,0,0,0-3.21.3,15.23,15.23,0,0,0-3.15,1.63,26,26,0,0,1-3.11,1.82,10,10,0,0,1-3.26.83,10.43,10.43,0,0,1-3-.21,12.4,12.4,0,0,1-2.5-.88,10.2,10.2,0,0,1-3-2.32,6.27,6.27,0,0,1-.64-.83,3,3,0,0,1-.19-.31,2,2,0,0,1,.24.28,8.47,8.47,0,0,0,.66.79,10.4,10.4,0,0,0,3,2.22,11.64,11.64,0,0,0,2.46.83,10.31,10.31,0,0,0,3,.19,9.74,9.74,0,0,0,3.17-.83,27.32,27.32,0,0,0,3.08-1.8,14.73,14.73,0,0,1,3.2-1.65,6.28,6.28,0,0,1,3.36-.3,5,5,0,0,1,2.61,1.56,6.7,6.7,0,0,1,1.33,2.3,11.35,11.35,0,0,1,.54,3.78c0,.45,0,.8,0,1A2.19,2.19,0,0,1,415.21,128.82Z" style="fill:#455a64"></path><polygon points="401.29 468.67 414.1 342.07 382.76 339.65 383 466.56 401.29 468.67" style="fill:#b78876"></polygon><path d="M419.3,339.64l-4.57,32.08,55,47.72L458,433.11,396.26,391.9c-5-3.52-10.77-10.43-10.45-16.55L388,335.07Z" style="fill:#b78876"></path><path d="M455.55,431.77h0s-5,21.05-2.05,23.33l21.83-32.61-8.5-5.75-.53,1.38A29.15,29.15,0,0,1,455.55,431.77Z" style="fill:#FF725E"></path><g style="opacity:0.6000000000000001"><path d="M465.9,421.58a1.61,1.61,0,0,1,2.14.09,1.54,1.54,0,0,1-.08,2.12,1.68,1.68,0,0,1-2.26-.11,1.6,1.6,0,0,1,.33-2.2" style="fill:#fff"></path></g><g style="opacity:0.6000000000000001"><path d="M475.33,422.49l-2.7-1.68L452.71,452.7s-.34,1.88.79,2.4Z" style="fill:#fff"></path></g><path d="M455,432.18c.16.11.77-.64,1.81-1.08s2-.41,2-.6-1.05-.57-2.29,0S454.86,432.12,455,432.18Z" style="fill:#263238"></path><path d="M454.16,436.55c.13.14.86-.37,1.89-.46s1.86.23,2,.07-.74-.87-2-.73S454,436.45,454.16,436.55Z" style="fill:#263238"></path><path d="M457,441.23c.13-.12-.52-.87-1.66-1.05s-2,.34-1.91.5.87,0,1.81.16S456.83,441.38,457,441.23Z" style="fill:#263238"></path><path d="M455.18,431.77a3.81,3.81,0,0,0,1.08-1.64,8.83,8.83,0,0,0,.62-2.06,8.53,8.53,0,0,0,.13-1.27,2.51,2.51,0,0,0-.05-.75.84.84,0,0,0-.8-.64,1.05,1.05,0,0,0-.83.45,2.76,2.76,0,0,0-.33.67,7.46,7.46,0,0,0-.33,1.25,7.2,7.2,0,0,0,0,2.17,3.47,3.47,0,0,0,.68,1.85c.11,0-.15-.74-.21-1.9a8.08,8.08,0,0,1,.15-2,7.25,7.25,0,0,1,.34-1.13c.14-.4.34-.7.55-.69s.11,0,.16.16a2.24,2.24,0,0,1,0,.55,10.89,10.89,0,0,1-.54,3.18A13.29,13.29,0,0,0,455.18,431.77Z" style="fill:#263238"></path><path d="M455.54,431.71c.07,0-.29-.73-1.29-1.48a6.44,6.44,0,0,0-1.93-1,6.35,6.35,0,0,0-1.27-.24,1.61,1.61,0,0,0-1.52.49.91.91,0,0,0,0,1,2.59,2.59,0,0,0,.49.57,4.25,4.25,0,0,0,1.1.74,4.56,4.56,0,0,0,2.15.43c1.28-.07,1.91-.61,1.87-.66s-.73.24-1.87.19a4.62,4.62,0,0,1-1.88-.51,4.1,4.1,0,0,1-.92-.66c-.31-.29-.51-.6-.38-.71a1.09,1.09,0,0,1,.91-.21,6,6,0,0,1,1.16.18,6.84,6.84,0,0,1,1.84.78C455,431.21,455.46,431.78,455.54,431.71Z" style="fill:#263238"></path><path d="M387.79,351.8a2.05,2.05,0,0,1,0,.59c0,.44-.09,1-.15,1.69-.14,1.53-.34,3.62-.58,6.18s-.49,5.72-.6,9.17-.25,7.33,1.27,11a28.12,28.12,0,0,0,6.43,9.05,67,67,0,0,0,7,5.92c2.1,1.57,3.84,2.78,5,3.62l1.37,1a3,3,0,0,1,.46.37,2.12,2.12,0,0,1-.52-.28l-1.43-.9c-1.23-.8-3-2-5.14-3.49a62.86,62.86,0,0,1-7.12-5.88,28.14,28.14,0,0,1-6.57-9.2,17.93,17.93,0,0,1-1.27-5.75c-.1-1.9-.08-3.73,0-5.46.14-3.48.44-6.59.71-9.2s.55-4.71.75-6.17c.1-.68.18-1.23.24-1.67A2.39,2.39,0,0,1,387.79,351.8Z" style="fill:#aa6550"></path><path d="M415.94,373.09a19,19,0,0,0-3.45-.69,18.74,18.74,0,0,0-3.49.44,5,5,0,0,1,3.51-1A4.9,4.9,0,0,1,415.94,373.09Z" style="fill:#aa6550"></path><path d="M383,465h0s-20.78,6.1-21.27,9.82l39.15,2.73.76-10.23-1.46.23A29.08,29.08,0,0,1,383,465Z" style="fill:#FF725E"></path><g style="opacity:0.6000000000000001"><path d="M397,468.93a1.6,1.6,0,0,1,1,1.9,1.53,1.53,0,0,1-1.87,1,1.7,1.7,0,0,1-1-2,1.6,1.6,0,0,1,2.07-.81" style="fill:#fff"></path></g><g style="opacity:0.6000000000000001"><path d="M400.88,477.56l.11-3.18L363.41,473s-1.79.64-1.68,1.88Z" style="fill:#fff"></path></g><path d="M382.38,464.77c0,.19.94.35,1.84,1s1.34,1.51,1.52,1.45,0-1.19-1.13-2S382.35,464.59,382.38,464.77Z" style="fill:#263238"></path><path d="M378.15,466.18c-.06.18.75.57,1.34,1.42s.72,1.72.91,1.73.39-1.07-.36-2.12S378.17,466,378.15,466.18Z" style="fill:#263238"></path><path d="M375.48,470.93c.17.06.5-.88.08-2s-1.28-1.56-1.37-1.41.42.75.75,1.65S375.29,470.9,375.48,470.93Z" style="fill:#263238"></path><path d="M382.81,464.69a3.68,3.68,0,0,0,2,.13,9.2,9.2,0,0,0,2.1-.49,9,9,0,0,0,1.16-.52,2.29,2.29,0,0,0,.63-.42.84.84,0,0,0,.16-1,1.09,1.09,0,0,0-.81-.5,2.81,2.81,0,0,0-.74.05,7.34,7.34,0,0,0-1.25.34,6.84,6.84,0,0,0-1.89,1.06c-1,.78-1.33,1.47-1.27,1.51s.57-.5,1.54-1.13a7.92,7.92,0,0,1,1.82-.86,6.67,6.67,0,0,1,1.15-.27c.42-.08.77-.06.87.13s0,.1-.06.22a2,2,0,0,1-.46.31,10.64,10.64,0,0,1-1.08.52,11,11,0,0,1-1.94.59A14.88,14.88,0,0,0,382.81,464.69Z" style="fill:#263238"></path><path d="M383,465a3.16,3.16,0,0,0,.65-1.86,6.54,6.54,0,0,0-.12-2.16,6.17,6.17,0,0,0-.42-1.23,1.59,1.59,0,0,0-1.18-1.07.88.88,0,0,0-.85.49,2.88,2.88,0,0,0-.26.7,4.59,4.59,0,0,0-.09,1.32,4.53,4.53,0,0,0,.7,2.08c.69,1.07,1.47,1.36,1.49,1.29s-.57-.5-1.08-1.52a4.52,4.52,0,0,1-.5-1.89,4.07,4.07,0,0,1,.12-1.13c.09-.41.27-.73.42-.68s.51.35.64.69a6.44,6.44,0,0,1,.41,1.1,7,7,0,0,1,.25,2C383.19,464.24,382.94,464.94,383,465Z" style="fill:#263238"></path><polygon points="380.09 347.18 386.32 283.63 393.89 282.22 386.58 347.3 380.09 347.18" style="fill:#263238"></polygon><path d="M439.55,278.14s2.78,18.64.51,23.61-10.53,19.43-11.35,25.63l-2.15,30-40.15-5.8.17-4.3,2.6-66.17,31.15-11.61Z" style="fill:#263238"></path><path d="M390.24,300.46c.14,0-.59,10.6-1.63,23.64s-2,23.62-2.14,23.61.58-10.6,1.62-23.65S390.09,300.45,390.24,300.46Z" style="fill:#455a64"></path><path d="M418.15,317.86a4.26,4.26,0,0,1-1.12-.6,16.61,16.61,0,0,1-2.7-2.16,25.46,25.46,0,0,1-6-9.63,51.35,51.35,0,0,1-2.46-11.1c-.18-1.45-.3-2.62-.36-3.43a5.24,5.24,0,0,1-.05-1.26,6.88,6.88,0,0,1,.25,1.24c.14.91.31,2,.52,3.39a59.61,59.61,0,0,0,2.59,11,26.82,26.82,0,0,0,5.77,9.55A33.61,33.61,0,0,0,418.15,317.86Z" style="fill:#455a64"></path><path d="M421.22,172l17.41,14.35.92,91.82s-19-5.68-26.9-3.46-18,10.4-21.58,10.22A37.94,37.94,0,0,0,385,285l1.08-13.63s-3.59-11.22-1.79-19.48,6.52-34.75,7.22-47.09l7.86-22.48Z" style="fill:#FF725E"></path><path d="M411.47,253.39a4.25,4.25,0,0,1-.31,1.06,22.2,22.2,0,0,1-1.2,2.78,30,30,0,0,1-2.31,3.84,31.47,31.47,0,0,1-7.8,7.7A30.41,30.41,0,0,1,396,271a24,24,0,0,1-2.79,1.16,5.31,5.31,0,0,1-1.07.3c0-.09,1.46-.61,3.69-1.79a34,34,0,0,0,3.77-2.33,36,36,0,0,0,4.15-3.48,36.5,36.5,0,0,0,3.53-4.1,33.12,33.12,0,0,0,2.38-3.74C410.84,254.84,411.38,253.35,411.47,253.39Z" style="fill:#263238"></path><g style="opacity:0.30000000000000004"><path d="M412.28,202.85c-.5,11.26-.15,24.17,4.49,34.44,2.14,4.77,5.07,9.37,5.54,14.58.31,3.46-.5,6.9-1.3,10.28-.92,3.84-3,9.16-1.39,12.1a30.55,30.55,0,0,0,8.94-16.79c.81-4.52-.12-9.16-1.19-13.64-3.53-14.76-8.66-29.09-14.06-43.29"></path></g><path d="M429.62,180.86s6.48,1.15,9,5.46,10.42,49.07,10.42,49.07l-29.72.64-7-30.93S408.28,179.52,429.62,180.86Z" style="fill:#FF725E"></path><path d="M449.05,235.39a3.48,3.48,0,0,1-.56.05l-1.63.08-6.13.2-21.39.55h-.2l0-.2-3.7-16.83c-.88-4-1.73-7.93-2.53-11.58v0a23.3,23.3,0,0,1-.86-7.32,35.43,35.43,0,0,1,.79-6.69,20.64,20.64,0,0,1,2-5.67,15.31,15.31,0,0,1,3.25-4,11.92,11.92,0,0,1,6.61-3,7.66,7.66,0,0,1,1.14,0,4.91,4.91,0,0,1,.83.05l.67.12a16.85,16.85,0,0,0-2.62,0,12,12,0,0,0-6.42,3.12,15.37,15.37,0,0,0-3.13,4,20.55,20.55,0,0,0-1.9,5.59,35.26,35.26,0,0,0-.74,6.6,23,23,0,0,0,.86,7.16h0c.81,3.65,1.66,7.56,2.55,11.58,1.29,6,2.53,11.65,3.66,16.84l-.24-.19,21.39-.37,6.14-.06h1.63Z" style="fill:#263238"></path><path d="M412.1,198.45a87.47,87.47,0,0,1-9.45,1.06,87,87,0,0,1-9.49.55,88.87,88.87,0,0,1,9.45-1.07A85.41,85.41,0,0,1,412.1,198.45Z" style="fill:#fafafa"></path><path d="M440.4,192.93c.05.13-6.16,2.16-13.86,4.52s-14,4.16-14,4,6.16-2.16,13.86-4.52S440.36,192.79,440.4,192.93Z" style="fill:#fafafa"></path><path d="M416.33,223.87c0,.14-6.1.28-13.63.31s-13.63-.07-13.63-.22,6.1-.28,13.63-.31S416.33,223.72,416.33,223.87Z" style="fill:#fafafa"></path><path d="M447.53,226.5c0,.14-6.32,1.12-14.16,2.18s-14.2,1.8-14.22,1.66,6.32-1.12,14.15-2.18S447.51,226.36,447.53,226.5Z" style="fill:#fafafa"></path><path d="M423.58,181c-.12.11-1.74-1.51-4-3.14s-4.32-2.67-4.25-2.81a13.33,13.33,0,0,1,4.56,2.39A13.59,13.59,0,0,1,423.58,181Z" style="fill:#fafafa"></path><path d="M410.15,255.66a4.84,4.84,0,0,1-1,0c-.67,0-1.63-.08-2.81-.15-2.37-.15-5.64-.4-9.26-.7s-6.88-.6-9.24-.85c-1.18-.12-2.14-.23-2.79-.32a4.1,4.1,0,0,1-1-.18,3.82,3.82,0,0,1,1,0l2.81.15c2.37.16,5.64.4,9.25.7s6.87.61,9.24.85c1.18.12,2.13.23,2.79.32A3.43,3.43,0,0,1,410.15,255.66Z" style="fill:#fafafa"></path><path d="M426.17,250a108.66,108.66,0,0,1-14.7,3.37,108.66,108.66,0,0,1,14.7-3.37Z" style="fill:#fafafa"></path><path d="M420.81,272.82c0,.14-7.91,1.73-17.71,3.55s-17.79,3.18-17.81,3,7.9-1.72,17.71-3.54S420.78,272.68,420.81,272.82Z" style="fill:#fafafa"></path><path d="M446.16,235.45l2.52,18.13a14.89,14.89,0,0,1-3.22,11.5l-27,33.1s-2.7,12.6-4.93,15.49c0,0-7.11-9.84-6.74-16.52l5.32-5.25,15.15-35.36-3.29-20.61Z" style="fill:#b78876"></path></g></svg>