<svg xmlns="http://www.w3.org/2000/svg" width="341.341" height="273.855" viewBox="0 0 341.341 273.855">
  <g id="Pedestrian_crossing-pana" data-name="Pedestrian crossing-pana" transform="translate(-98.397 -21.225)">
    <g id="freepik--Plants--inject-85" transform="translate(-38 -27)">
      <path id="Path_56" data-name="Path 56" d="M172.18,220.18c-12.77-3.34-23.93-11.73-30.14-22.68a43.7,43.7,0,0,1-3.16-36c3.3-9.17,9.64-17.23,12.36-26.56,3.09-10.59,1.25-21.82-.66-32.64s-3.85-22-1-32.66,12-20.61,23.72-21.37c10.87-.7,20.91,6.82,25.45,16.08s4.56,19.86,3.5,30-3.12,20.24-2.47,30.4c1.31,20.56,13.64,39.92,12.19,60.48-.75,10.7-5.19,17.55-12.78,25.6-6.54,6.94-17.42,11.51-27.06,9.38" fill="#455a64"/>
      <path id="Path_57" data-name="Path 57" d="M176,322.08c-.12,0-.21-45.56-.21-101.74s.09-101.75.21-101.75.2,45.54.2,101.75S176.14,322.08,176,322.08Z" fill="#263238"/>
      <path id="Path_58" data-name="Path 58" d="M175.44,184.63a16.241,16.241,0,0,1-1.88-1.66c-1.12-1.06-2.64-2.55-4.24-4.26s-3.08-3.23-4.14-4.34a14.812,14.812,0,0,1-1.67-1.84,16.239,16.239,0,0,1,1.88,1.66c1.12,1.06,2.64,2.55,4.24,4.26s3.08,3.23,4.14,4.34a14.81,14.81,0,0,1,1.67,1.84Z" fill="#263238"/>
      <path id="Path_59" data-name="Path 59" d="M176.67,142a13.6,13.6,0,0,0,4.15-1.73,11.43,11.43,0,0,0,3.34-3.35A11.21,11.21,0,0,0,186,131.6v-.18l.23.2a9,9,0,0,0-5,2.75,19.15,19.15,0,0,0-2.79,3.75c-.67,1.15-1.14,2.12-1.46,2.78a6,6,0,0,1-.52,1,5.76,5.76,0,0,1,.38-1.09,23.578,23.578,0,0,1,1.35-2.85,17.49,17.49,0,0,1,2.76-3.86,9.18,9.18,0,0,1,5.23-2.9h.26v.43a11.29,11.29,0,0,1-1.9,5.47,11.42,11.42,0,0,1-3.49,3.4,10.7,10.7,0,0,1-3.1,1.31,7.722,7.722,0,0,1-.9.17C176.78,142,176.67,142,176.67,142Z" fill="#263238"/>
      <path id="Path_60" data-name="Path 60" d="M176.67,142a25.752,25.752,0,0,1,2.85-3.54,27,27,0,0,1,3.16-3.3,24.859,24.859,0,0,1-2.85,3.54,27,27,0,0,1-3.16,3.3Z" fill="#263238"/>
      <path id="Path_61" data-name="Path 61" d="M188.22,301.54c-8.16-6.71-9.24-18.05-8.1-28.08.19-1.68.14-3.46,1.06-4.87s2.85-2.27,4.3-1.45c1.2.69,1.63,2.18,2.23,3.43a10,10,0,0,0,3.65,4.08,3.77,3.77,0,0,0,3.42.58c1.51-.69,1.84-2.67,2-4.34.22-3.12.45-6.23.67-9.35a16,16,0,0,1,.9-4.92,5.19,5.19,0,0,1,3.53-3.24,3.15,3.15,0,0,1,3.72,2.41,14.579,14.579,0,0,1-.11,2.08,1.77,1.77,0,0,0,.89,1.74,2.06,2.06,0,0,0,1.9-.63,22.171,22.171,0,0,0,4.46-5.7,30.681,30.681,0,0,1,4.21-5.92,9,9,0,0,1,6.38-3,5.42,5.42,0,0,1,5.26,4.12c.42,2.41-1.14,4.69-2.79,6.48a37.5,37.5,0,0,1-8.34,6.78,3.08,3.08,0,0,0-1.41,1.3c-.45,1.08.52,2.27,1.59,2.72a19.1,19.1,0,0,0,3.86.75,3.74,3.74,0,0,1,3,2.21c.55,1.76-1,3.44-2.51,4.5a32.341,32.341,0,0,1-9.88,4.71,10.7,10.7,0,0,0-3.65,1.43,3.11,3.11,0,0,0-1.27,3.46,3.17,3.17,0,0,0,3.32,1.59,22.121,22.121,0,0,0,3.78-1.12c2.36-.68,5.31-.29,6.63,1.81a5.32,5.32,0,0,1,.19,4.72,12.23,12.23,0,0,1-2.86,3.92,32.13,32.13,0,0,1-14.46,8.56c-5.47,1.43-10.44,1.54-15.58-.81" fill="#ff725e"/>
      <path id="Path_62" data-name="Path 62" d="M226.32,246.05a.94.94,0,0,1-.18.15l-.53.4c-.47.36-1.16.88-2,1.57a63.007,63.007,0,0,0-6.92,6.38c-1.36,1.45-2.79,3.1-4.29,4.9s-3.09,3.74-4.69,5.84A78.8,78.8,0,0,0,203,272.1c-.74,1.23-1.42,2.52-2.11,3.84l-2.1,4a154.429,154.429,0,0,0-7.22,15.6A76.168,76.168,0,0,0,187.71,309a55.728,55.728,0,0,0-.9,9.41c0,1.12,0,2,.05,2.58v.9a.72.72,0,0,1,0-.23,2.944,2.944,0,0,0-.06-.66c-.05-.59-.09-1.46-.11-2.58a52.519,52.519,0,0,1,.81-9.46,73.459,73.459,0,0,1,3.81-13.55,148.548,148.548,0,0,1,7.21-15.64l2.1-4c.69-1.31,1.37-2.61,2.12-3.84a74.356,74.356,0,0,1,4.72-6.83c1.6-2.1,3.2-4,4.71-5.83s3-3.45,4.34-4.89a59.313,59.313,0,0,1,7-6.33c.88-.68,1.58-1.18,2.06-1.52.24-.16.42-.28.55-.38Z" fill="#263238"/>
      <path id="Path_63" data-name="Path 63" d="M202.83,271.94a4.079,4.079,0,0,1-.1-.72c-.06-.47-.11-1.15-.16-2-.1-1.68-.17-4-.23-6.58s-.17-4.88-.3-6.56c-.06-.84-.12-1.51-.16-2a3.1,3.1,0,0,1,0-.73,2.79,2.79,0,0,1,.15.71c.09.47.18,1.14.27,2,.19,1.68.32,4,.38,6.57s.11,4.83.15,6.58a19.723,19.723,0,0,0,.06,2A3.2,3.2,0,0,1,202.83,271.94Z" fill="#263238"/>
      <path id="Path_64" data-name="Path 64" d="M224.62,269.62a5,5,0,0,1-.87,0c-.55,0-1.35,0-2.34.05-2,.06-4.72.23-7.73.56s-5.73.74-7.68,1.1c-1,.17-1.77.33-2.31.44a4.722,4.722,0,0,1-.86.14,5.221,5.221,0,0,1,.83-.26c.54-.14,1.32-.33,2.3-.53,1.95-.42,4.66-.87,7.68-1.2a74.7,74.7,0,0,1,7.76-.47h2.36A5.172,5.172,0,0,1,224.62,269.62Z" fill="#263238"/>
      <path id="Path_65" data-name="Path 65" d="M191.6,295.06a.575.575,0,0,0-.12-.27,4.8,4.8,0,0,1-.31-.8c-.26-.71-.61-1.73-1-3-.85-2.54-1.9-6.09-3-10s-2.13-7.48-2.92-10c-.38-1.25-.7-2.27-.94-3l-.25-.82a.92.92,0,0,1-.07-.3,1.47,1.47,0,0,1,.13.28l.3.8c.27.7.62,1.73,1,3,.84,2.54,1.9,6.08,3,10s2.12,7.48,2.91,10c.39,1.24.71,2.27.94,3,.11.32.19.6.26.82A1.089,1.089,0,0,1,191.6,295.06Z" fill="#263238"/>
      <path id="Path_66" data-name="Path 66" d="M220.86,288.11a1,1,0,0,1-.29.1l-.85.21-3.14.75c-2.64.63-6.29,1.55-10.31,2.57s-7.68,1.9-10.34,2.48c-1.33.29-2.41.52-3.16.66l-.86.15a1.181,1.181,0,0,1-.31,0,1.31,1.31,0,0,1,.3-.09l.85-.21,3.13-.75c2.65-.64,6.29-1.55,10.32-2.57s7.68-1.91,10.33-2.49c1.33-.29,2.41-.51,3.16-.65l.86-.15A1,1,0,0,1,220.86,288.11Z" fill="#263238"/>
      <path id="Path_67" data-name="Path 67" d="M456.56,264.28a10.75,10.75,0,0,1,5.61,6.35,19.08,19.08,0,0,1,.74,8.6c-.63,5.58-3.8,11.21-7.22,15.67-4.69-4.1-5.78-11.26-6.1-14.92-.5-5.79,2.1-16.57,7-15.7" fill="#ff725e"/>
      <path id="Path_68" data-name="Path 68" d="M461.16,304.11a9.22,9.22,0,0,1,3-8.77,12.27,12.27,0,0,1,9-2.83,5.14,5.14,0,0,1,4,1.79,3.93,3.93,0,0,1,.06,4,7.9,7.9,0,0,1-3,2.92c-4.07,2.56-8.48,4.28-13.08,2.9" fill="#ff725e"/>
      <path id="Path_69" data-name="Path 69" d="M455.13,321.22a6.745,6.745,0,0,1,.17-1.15c.15-.8.34-1.84.57-3.09a32.32,32.32,0,0,1,3.2-9.91,19.84,19.84,0,0,1,7.1-7.55,13.561,13.561,0,0,1,2.9-1.28,8.353,8.353,0,0,1,.83-.21,1,1,0,0,1,.3,0,20.824,20.824,0,0,0-3.88,1.78,20.429,20.429,0,0,0-6.9,7.5,35,35,0,0,0-3.27,9.76c-.29,1.3-.52,2.35-.7,3.08a5.888,5.888,0,0,1-.32,1.07Z" fill="#263238"/>
      <path id="Path_70" data-name="Path 70" d="M455.31,272.66a3.3,3.3,0,0,1,.06.5c0,.37.05.85.08,1.44.07,1.24.14,3,.21,5.29.15,4.47.26,10.65.23,17.48s-.2,13-.38,17.48c-.09,2.23-.18,4-.26,5.29,0,.59-.07,1.06-.09,1.44a1.918,1.918,0,0,1-.07.5,2.914,2.914,0,0,1,0-.51v-1.44c0-1.3.07-3.09.12-5.29.11-4.47.23-10.65.27-17.47s0-13-.11-17.47c0-2.2-.07-4-.09-5.3v-1.44A2.14,2.14,0,0,1,455.31,272.66Z" fill="#263238"/>
      <path id="Path_71" data-name="Path 71" d="M453,307.51a21.56,21.56,0,0,0-11.79-15.81c-1.57-.76-3.62-1.25-4.91-.08s-1,3.27-.37,4.89a18.42,18.42,0,0,0,17,11.45" fill="#ff725e"/>
      <path id="Path_72" data-name="Path 72" d="M442,297a4.93,4.93,0,0,1,1,.43,11.893,11.893,0,0,1,1.13.6c.42.27.93.53,1.43.9a19.678,19.678,0,0,1,1.64,1.24,19.229,19.229,0,0,1,1.75,1.59,23.82,23.82,0,0,1,3.32,4.26,23.412,23.412,0,0,1,2.18,4.94,21.239,21.239,0,0,1,.56,2.3,18.525,18.525,0,0,1,.28,2,15.083,15.083,0,0,1,.08,1.7,9.836,9.836,0,0,1,0,1.27,5.139,5.139,0,0,1-.12,1.08c-.09,0,.07-1.55-.21-4a18.692,18.692,0,0,0-.32-2c-.13-.71-.35-1.46-.58-2.25a22.87,22.87,0,0,0-5.42-9.05c-.58-.58-1.13-1.13-1.69-1.59s-1.1-.89-1.59-1.26C443.38,297.71,442,297.07,442,297Z" fill="#263238"/>
    </g>
  </g>
</svg>
