<svg xmlns="http://www.w3.org/2000/svg" viewBox="0 0 750 500"><g id="freepik--character-2--inject-114"><path d="M557.22,333.94l-1.49,2.56c-1.56,2.21-2.34,3.5-3.33,3.8-1.33.4-1.47-1.27-1.47-1.27s-1.54,1.36-2.48.62a1.2,1.2,0,0,1-.27-1.36s-1.43,1.16-2.22,1.11c-1.07-.08-.93-1.4-.93-1.4-1.5,1-2-.34-2-.51a3.73,3.73,0,0,1,.37-1.31c1.15-1.12,4.35-4.15,1.56-3.94s-5-.68-5.45-1.34.33-1.5,1.14-1.2a9.87,9.87,0,0,0,2.8.33,6.81,6.81,0,0,0,2.24-.34c.84-.29,1.54-.56,2.13-.81l5.8-2.58Z" style="fill:#ffbe9d"></path><path d="M553.41,335.83a6.76,6.76,0,0,0-4.87-2.63,13.47,13.47,0,0,0-11.9,4.53l.71-.77c-1.78,1.51-2.86,2.73-3.34,5a6,6,0,0,0,2.25,6.21,7.59,7.59,0,0,0,5.08.83,17.51,17.51,0,0,0,9.59-4.38,10.17,10.17,0,0,0,2.87-4A5.57,5.57,0,0,0,553.41,335.83Zm-1.15,4.67a2.16,2.16,0,0,1-3.1,1.88,6.41,6.41,0,0,1-1.8-1.17,43.74,43.74,0,0,1-4.25-4,1.72,1.72,0,0,1-.62-1.17c0-.69.79-1.08,1.46-1.25a9.22,9.22,0,0,1,7.22,1.22l-.5-.54a4.17,4.17,0,0,1,1.44,3A7.35,7.35,0,0,1,552.26,340.5Z" style="fill:#263238"></path><path d="M548.13,338.13c.55-.88,2.23-2.87,2.79-3.76a2.78,2.78,0,0,1,.77-.9.93.93,0,0,1,1.11,0,.92.92,0,0,1,.21.8,2.51,2.51,0,0,1-.31.8c-.54,1-1.25,2.86-1.78,3.87" style="fill:#ffbe9d"></path><path d="M550.92,339a9.32,9.32,0,0,1,.64-1.8c.21-.55.47-1.21.81-1.93a3.22,3.22,0,0,0,.41-1.05c0-.35-.15-.64-.48-.64-.74,0-1.09.93-1.59,1.53s-.93,1.17-1.31,1.62a11.18,11.18,0,0,1-1.27,1.43,5.28,5.28,0,0,1,1-1.64l1.22-1.68c.23-.31.41-.64.68-1a1.59,1.59,0,0,1,1.3-.74,1,1,0,0,1,.76.4,1.21,1.21,0,0,1,.19.79,3.64,3.64,0,0,1-.49,1.21c-.35.68-.64,1.33-.9,1.86A5.84,5.84,0,0,1,550.92,339Z" style="fill:#eb996e"></path><path d="M550.92,339c.55-.88,1.1-2.05,1.66-2.94a2.59,2.59,0,0,1,.77-.9.91.91,0,0,1,1.1,0,.89.89,0,0,1,.22.8,2.53,2.53,0,0,1-.32.8c-.53,1-1.53,2.59-2.06,3.6" style="fill:#ffbe9d"></path><path d="M552.29,340.36a5.94,5.94,0,0,1,.69-1.56l.87-1.63c.33-.59.83-1.34.46-1.81a.67.67,0,0,0-.78-.05,2.05,2.05,0,0,0-.67.7c-.37.56-.68,1.11-1,1.56a5,5,0,0,1-1,1.4,7.82,7.82,0,0,1,.68-1.57,18.57,18.57,0,0,1,.88-1.64,2.39,2.39,0,0,1,.81-.88,1.13,1.13,0,0,1,1.39.16,1.3,1.3,0,0,1,.12,1.36,8,8,0,0,1-.54,1c-.33.55-.66,1.07-1,1.58A5.88,5.88,0,0,1,552.29,340.36Z" style="fill:#eb996e"></path><path d="M546.26,336.58l2.32-2.69a3.14,3.14,0,0,1,1-.87.92.92,0,0,1,1.34,1.15,3.29,3.29,0,0,1-.49.85l-2.32,3.11" style="fill:#ffbe9d"></path><path d="M548.13,338.13a6.25,6.25,0,0,1,.91-1.52l1.11-1.58a4.11,4.11,0,0,0,.55-.9.74.74,0,0,0-.16-.84.9.9,0,0,0-.9,0,2.73,2.73,0,0,0-.79.66l-1.3,1.42c-.75.8-1.24,1.28-1.29,1.23a6.39,6.39,0,0,1,1-1.46c.39-.47.79-1,1.21-1.49a3.16,3.16,0,0,1,.92-.8,1.35,1.35,0,0,1,1.42.07,1.2,1.2,0,0,1,.32,1.39,4.15,4.15,0,0,1-.64,1c-.42.52-.81,1-1.19,1.51C548.64,337.67,548.18,338.18,548.13,338.13Z" style="fill:#eb996e"></path><path d="M543.41,336.25a47.28,47.28,0,0,1,3.32-3.44,3,3,0,0,1,1-.88,1.05,1.05,0,0,1,1.24.22,1,1,0,0,1,.11.94,3.11,3.11,0,0,1-.5.84l-2.32,3.12" style="fill:#ffbe9d"></path><path d="M546.27,337.05a7.77,7.77,0,0,1,1-1.67l1.21-1.73a1.56,1.56,0,0,0,.39-1,.58.58,0,0,0-.64-.58c-.77,0-1.26.88-1.86,1.41s-1.12,1-1.57,1.43c-.9.8-1.36,1.36-1.42,1.33a4.46,4.46,0,0,1,1.18-1.58l1.49-1.51c.28-.28.52-.58.84-.92a1.86,1.86,0,0,1,1.34-.66,1.17,1.17,0,0,1,.79.29,1.07,1.07,0,0,1,.34.76,2.09,2.09,0,0,1-.5,1.29l-1.31,1.67A7.64,7.64,0,0,1,546.27,337.05Z" style="fill:#eb996e"></path><path d="M510.21,423.66a6.82,6.82,0,0,1,.19-.79c.16-.56.38-1.31.64-2.25s.66-2.17,1.09-3.54.94-2.94,1.53-4.66c2.31-6.89,5.8-16.31,9.66-26.69s7.21-19.85,9.35-26.79c.55-1.73,1-3.3,1.42-4.69s.75-2.57,1-3.56.46-1.7.61-2.26a5.4,5.4,0,0,1,.25-.78,3.9,3.9,0,0,1-.15.81l-.52,2.28c-.22,1-.54,2.19-.92,3.59s-.82,3-1.35,4.71c-2.06,7-5.37,16.46-9.22,26.86s-7.41,19.78-9.8,26.63c-.6,1.71-1.14,3.27-1.59,4.64s-.87,2.54-1.17,3.51-.55,1.67-.73,2.22A4,4,0,0,1,510.21,423.66Z" style="fill:#263238"></path><path d="M555.41,471.76l9.26-16.15S549.44,445,549.56,445.35s-1,6.43,2.06,11.83,2,9.27,0,9.94c0,0-2.34-1.48-4.13-1.27s-5.94,2.8-5.94,2.8Z" style="fill:#263238"></path><path d="M584.83,424l-5.62,2.62c16.86-13.1,5-23.29,5-23.29-1.69,17.65-18.62,20.91-18.62,20.91s-10.09-1.81-18.25,0-19.88,2.88-23.67,2.49c-3.48-.37-12.1-2.66-13.48-3L511,422l-7.57-6.85-5.27-3.4a2.93,2.93,0,0,0-1.75-.47l-12.66.62a6.38,6.38,0,0,0-3.11,1h0a6.36,6.36,0,0,0-2.64,3.35l-1.87,5.52-11.22.15a9.08,9.08,0,0,0-.26,4.71,10.81,10.81,0,0,0,7.89,8.4l4.43,1.22.11-.13,15.21,3.42,4,8.15c.24,1.54,1.47,6,7.82,12,8.71,8.3,32.3-3,42.07-7.93a14.83,14.83,0,0,1,7.06-1.48,5,5,0,0,0,1.18,4c6,7.05,18.7,4.66,18.7,4.66l1.48,12.38c-4.34,1.19-7.85,7-7.85,7l13.42-4s.41-9.24.57-17.68,1.84-9.34,1.84-9.34c-3,.3-7.18-.9-10-2.22.62-4.27-2.21-11.78-2.21-11.78C583,429.94,584.83,424,584.83,424Z" style="fill:#455a64"></path><path d="M464.42,424.15a20.81,20.81,0,0,0,.63,3,16.05,16.05,0,0,0,1.44,3,12.73,12.73,0,0,0,1,1.61.77.77,0,0,0,.69.26,1.06,1.06,0,0,0,.67-.46,4.35,4.35,0,0,0,.45-1.92,16.39,16.39,0,0,0,.08-2,14,14,0,0,0-.39-3.28,4.7,4.7,0,0,0-1-1.94c-.35-.38-.61-.54-.59-.58s.32.05.76.41a4.52,4.52,0,0,1,1.23,2,12.38,12.38,0,0,1,.53,3.4,15.33,15.33,0,0,1,0,2,4.67,4.67,0,0,1-.54,2.21,1.72,1.72,0,0,1-1.08.72,1.4,1.4,0,0,1-1.22-.44,11,11,0,0,1-1.1-1.75,13.69,13.69,0,0,1-1.36-3.14,8,8,0,0,1-.33-2.29C464.32,424.44,464.38,424.14,464.42,424.15Z" style="fill:#263238"></path><path d="M466,421.63c.1,0,.19.06.23.15a2.81,2.81,0,0,1,.18,1.44,1.25,1.25,0,0,1-.07.47.48.48,0,0,1-.34.31.57.57,0,0,1-.49-.23c-.12-.15-.2-.32-.32-.46s-.12-.11-.18-.07-.05.11,0,.17a1.6,1.6,0,0,1-.09.81.67.67,0,0,1-.2.32.34.34,0,0,1-.37,0s.22-2.85,1-3S466,421.63,466,421.63Z" style="fill:#263238"></path><path d="M478.91,425a1.41,1.41,0,1,1,1.59-1.35A1.47,1.47,0,0,1,478.91,425Z" style="fill:#263238"></path><path d="M501.39,447.56c-4,6.49-4,3.82-5.18,11.95-.2,1.4-1.43,7.48-2.09,8.73a5.79,5.79,0,0,1-2.36,2.07s-5.82,2.69-7.07,5.65a3.42,3.42,0,0,0-.27,2.69L497,475.23s8.43-14.85,12.37-16.53Z" style="fill:#455a64"></path><path d="M467.19,426.33c-.17,0-.31-.07-.32-.19s.11-.24.28-.26a.24.24,0,1,1,0,.45Z" style="fill:#263238"></path><path d="M467.6,428.49c-.15.08-.38-.1-.35-.4s.29-.42.42-.32a.45.45,0,0,1,.19.39A.42.42,0,0,1,467.6,428.49Z" style="fill:#263238"></path><path d="M492.61,440.19c8.21-4.06,14.52-11.29,16-20.32l2.72,1.52s-.83,10.7-17.41,21.54Z" style="fill:#263238"></path><path d="M500.3,452.66a17.41,17.41,0,0,0,9.64,14.16c1.33.63,2.84,1.18,3.57,2.46a6.06,6.06,0,0,1,.48,3.22s-.91,6.58,1,9.33a3.57,3.57,0,0,0,2.19,1.75l3-15.87s-5.31-10.14-4.56-14.52Z" style="fill:#455a64"></path><path d="M517.52,479.11c0,.08-.31.08-.69-.14a2.56,2.56,0,0,1-1-1.3c-.42-1.26-.14-2.27,0-2.25s.22,1,.58,2S517.57,479,517.52,479.11Z" style="fill:#263238"></path><path d="M517.21,483.22c-.05.06-.45-.09-1-.53a5.76,5.76,0,0,1-1.94-4.8c.07-.69.25-1.08.32-1.06s-.1,1.66.65,3.46A14.66,14.66,0,0,0,517.21,483.22Z" style="fill:#263238"></path><path d="M482.46,421.61c-.15.08-.54-.33-1.13-.62s-1.14-.38-1.16-.56.67-.38,1.44,0S482.61,421.54,482.46,421.61Z" style="fill:#263238"></path><path d="M550.14,443.05a8.67,8.67,0,0,1-4.2-1,8.55,8.55,0,0,1-3.55-2.45c.11-.14,1.67,1,3.8,1.89S550.17,442.87,550.14,443.05Z" style="fill:#263238"></path><path d="M552.92,441.81a4.92,4.92,0,0,1-3.21-.48,5,5,0,0,1-2.62-1.93c.12-.13,1.26.71,2.85,1.36S552.93,441.63,552.92,441.81Z" style="fill:#263238"></path><path d="M502.47,415.59a1.22,1.22,0,0,1,.15.39c.07.27.17.66.28,1.17a20.09,20.09,0,0,1,.39,4.38,14,14,0,0,1-1.54,6.35,8.39,8.39,0,0,1-2.58,2.95,4.9,4.9,0,0,1-2,.78,4.4,4.4,0,0,1-2.18-.24,7.43,7.43,0,0,1-3.27-2.63,13.13,13.13,0,0,1-1.82-3.44,25.42,25.42,0,0,1-1.29-6.41c-.16-1.85-.18-3.35-.19-4.38a10.66,10.66,0,0,1,.05-1.61,10,10,0,0,1,.15,1.6c.07,1,.14,2.53.34,4.36a26.48,26.48,0,0,0,1.37,6.28,12.79,12.79,0,0,0,1.78,3.3,7.17,7.17,0,0,0,3.05,2.47,4.07,4.07,0,0,0,3.71-.49,8.12,8.12,0,0,0,2.44-2.76,14.08,14.08,0,0,0,1.59-6.14,22.57,22.57,0,0,0-.24-4.34C502.56,416.16,502.43,415.6,502.47,415.59Z" style="fill:#263238"></path><path d="M519.62,453.07c0,.06-.45.45-1,1.25a7.14,7.14,0,0,0-.81,7.28c.4.91.79,1.4.73,1.46a3.31,3.31,0,0,1-1-1.31,6.74,6.74,0,0,1,.86-7.65C519,453.32,519.59,453,519.62,453.07Z" style="fill:#263238"></path><path d="M511.18,468.18s-.13,0-.35-.12-.57-.23-1-.45a17.87,17.87,0,0,1-3.25-2.25,19.28,19.28,0,0,1-3.76-4.51,18.44,18.44,0,0,1-2.44-6.76,16.63,16.63,0,0,1-.18-1.7l.49,0c-.26,1.52-.5,3-.74,4.35l-.1.62-.33-.54a40.57,40.57,0,0,1-3.73-8c-.35-1-.58-1.86-.72-2.43a3.51,3.51,0,0,1-.17-.9,5,5,0,0,1,.32.85c.19.56.46,1.37.85,2.39a45.66,45.66,0,0,0,3.85,7.86l-.43.08c.22-1.37.46-2.83.71-4.35l.29-1.77.2,1.8c.06.55.07,1.1.18,1.66a18.81,18.81,0,0,0,2.34,6.6,20.4,20.4,0,0,0,3.6,4.48A26.75,26.75,0,0,0,511.18,468.18Z" style="fill:#263238"></path><path d="M617.36,213a10.38,10.38,0,0,0,4.53,9.4c2.21,1.45,5.14,2.19,6.39,4.52,1.39,2.62-.07,5.88.5,8.8s3,4.94,5.44,6.43,5.22,2.65,7.28,4.68,3.26,5.34,1.84,7.85c-1.21,2.13-3.85,3-6.28,3.21-3.68.33-7.36-.37-11-1.06-2.57-.49-5.28-1-7.23-2.81a11.09,11.09,0,0,1-3-5.48c-1.15-4.16-1.15-8.53-1.16-12.84q0-12.18,0-24.34" style="fill:#263238"></path><path d="M592.88,204.22c-12.42,8.2-2.79,22.48-5.72,28.37-1.13,2.26-3.28,3.84-4.76,5.89a13.56,13.56,0,0,0-.48,15c3,4.42,9.17,6.48,14,4.34,3.56-1.56,6-5,7.26-8.7a34.81,34.81,0,0,0,1.27-11.56,70.88,70.88,0,0,1,.27-11.66" style="fill:#263238"></path><path d="M637.57,257A11.74,11.74,0,0,0,632,248.3a22.31,22.31,0,0,0-10.21-3.06c-2.73-.24-5.12-1.83-8.65-.57l2.74,2.53-19.14,1.63s-9-1.49-14.08,20.8c0,0-6.34,35.79-7.89,37.2s-24.09,17.62-24.09,17.62L557.18,337l29.63-13.17,0,1.65,43.08-11.68a154.4,154.4,0,0,0-4.66-18.65c1.61-4,9.84-21.1,9.82-29.52a30.32,30.32,0,0,0-.17-3.26,3.81,3.81,0,0,0,1.54-1.09A6,6,0,0,0,637.57,257Z" style="fill:#FF725E"></path><g style="opacity:0.2"><path d="M586.81,289.4l12.78.3a5.42,5.42,0,0,0,6-3.48,129.35,129.35,0,0,0,6.16-11.42s-3.38,10.74-5.49,15.41a2.44,2.44,0,0,1-3,1.54A57.74,57.74,0,0,1,586.81,289.4Z"></path></g><path d="M625.4,297s-4.33,16.44-15.41,16.11-21.6-5.08-21.6-5.08l.5-.51s18.84,4.06,24.08,1.5C622.91,304.19,625.4,297,625.4,297Z" style="opacity:0.2"></path><path d="M586.81,323.85a2.34,2.34,0,0,1,0-.57c0-.42,0-1,0-1.61,0-1.41,0-3.44-.08-5.94-.09-5-.35-12-.06-19.62,0-1.91,0-3.77,0-5.57a24.06,24.06,0,0,0-.68-5.09c-.45-1.57-1.17-3-1.6-4.42a9.49,9.49,0,0,1-.35-4.14,18,18,0,0,1,1.93-5.64c.32-.63.58-1.11.76-1.43a3.24,3.24,0,0,1,.3-.48,2.28,2.28,0,0,1-.21.53c-.18.38-.4.87-.68,1.46a19.5,19.5,0,0,0-1.75,5.6,9.25,9.25,0,0,0,.39,4c.43,1.38,1.17,2.79,1.65,4.41a23.55,23.55,0,0,1,.73,5.2c.1,1.81.09,3.69,0,5.61-.29,7.65-.08,14.57-.09,19.59,0,2.51,0,4.55-.07,5.95,0,.7-.06,1.25-.09,1.61A2.93,2.93,0,0,1,586.81,323.85Z" style="fill:#263238"></path><polygon points="554.69 282.43 570.44 302.14 572.25 300.82 557.33 280.95 554.69 282.43" style="fill:#263238"></polygon><path d="M566.11,295.64a1.72,1.72,0,0,1,.13.38c.08.27.19.65.34,1.12.28,1,.7,2.47,1.23,4.33,1.06,3.79,2.57,9.23,4.44,15.95A49,49,0,0,0,574,322.6a19.27,19.27,0,0,0,2.91,5.09,11.86,11.86,0,0,0,5,3.59,12,12,0,0,0,6.53.51,11.8,11.8,0,0,0,9.14-9.73,8,8,0,0,0-.32-3.64,4.59,4.59,0,0,0-2.33-2.7,4.11,4.11,0,0,0-3.56.09,2.6,2.6,0,0,0-1.22,3.11,4.38,4.38,0,0,0,2.58,2.56,4.18,4.18,0,0,0,3.58-.32,7.47,7.47,0,0,0,2.69-2.55,12.66,12.66,0,0,0,1.58-3.37c1.51-4.77,1.17-9.71,1-14.3-.36-9.23-.69-17.54-1-24.53s-.47-12.61-.61-16.54c-.06-1.94-.11-3.45-.14-4.5q0-.75,0-1.17a2.38,2.38,0,0,1,0-.4,1.69,1.69,0,0,1,0,.39c0,.29,0,.68.07,1.17l.23,4.5c.18,3.93.45,9.57.77,16.53s.67,15.31,1.07,24.53c.1,2.31.21,4.68.14,7.12a26.86,26.86,0,0,1-1.15,7.35,13.27,13.27,0,0,1-1.63,3.5,8,8,0,0,1-2.87,2.71,5.45,5.45,0,0,1-1.94.62,4.3,4.3,0,0,1-2-.28,4.78,4.78,0,0,1-2.88-2.87,3.1,3.1,0,0,1,1.44-3.69,4.59,4.59,0,0,1,4-.11,5,5,0,0,1,2.59,3,8.23,8.23,0,0,1,.34,3.87,12.26,12.26,0,0,1-9.53,10.11,12.5,12.5,0,0,1-6.77-.55,12.14,12.14,0,0,1-5.19-3.74,19.42,19.42,0,0,1-3-5.2,48.77,48.77,0,0,1-1.69-5.24l-4.3-16c-.49-1.87-.87-3.33-1.14-4.35l-.29-1.14A2.2,2.2,0,0,1,566.11,295.64Z" style="fill:#fafafa"></path><path d="M574.69,287l-4.37,14.9s22.86,8.32,35.24,8.17c11.6-.15,14.93-1.46,19-10.83s8.71-20.13,9.68-26.33c0,0,6-28.32-19-25.78l-.09,22.12s-2.77,9.14-3,9.67c-1.86,4.94-4.28,12.16-6.62,13S574.69,287,574.69,287Z" style="fill:#FF725E"></path><path d="M629.53,287.51s-.06.11-.16.33l-.44,1c-.38.87-.95,2.14-1.71,3.77s-1.76,3.61-3.06,5.82a33.54,33.54,0,0,1-5.22,6.95,18.25,18.25,0,0,1-4,3.08,8.33,8.33,0,0,1-1.19.61,8.61,8.61,0,0,1-1.25.51,14.21,14.21,0,0,1-2.72.65,37.09,37.09,0,0,1-12.13-.82c-4.24-.86-8.66-2-13.25-3.24a138.48,138.48,0,0,1-14-4.41l.12.25,2-6.79c.8-2.74,1.6-5.45,2.38-8.11l-.24.15c5.61,1,11,2.31,16.11,3.36a65.36,65.36,0,0,0,14.81,1.57h.12l0-.12c2.13-5.54,3.79-10.72,5.27-15.31l3.81-11.88c1.08-3.29,2-5.86,2.59-7.6l.72-2,.18-.52a1.08,1.08,0,0,0,.05-.17l-.08.16-.21.51c-.17.44-.44,1.1-.77,2-.66,1.73-1.58,4.29-2.69,7.57s-2.4,7.27-3.89,11.86-3.18,9.75-5.33,15.27l.17-.12a64.88,64.88,0,0,1-14.72-1.6c-5.13-1.05-10.49-2.4-16.12-3.38l-.18,0-.06.18c-.78,2.66-1.58,5.37-2.39,8.11-.68,2.33-1.36,4.63-2,6.79l-.05.19.18.07a135.39,135.39,0,0,0,14.09,4.42c4.6,1.19,9,2.37,13.27,3.22a37.47,37.47,0,0,0,12.26.78,14.86,14.86,0,0,0,2.78-.68,7.19,7.19,0,0,0,1.28-.53,9.2,9.2,0,0,0,1.21-.62,18.61,18.61,0,0,0,4-3.16,33.61,33.61,0,0,0,5.21-7c1.29-2.23,2.25-4.23,3-5.87s1.29-2.93,1.65-3.8c.17-.43.3-.76.4-1A3.25,3.25,0,0,0,629.53,287.51Z" style="fill:#263238"></path><path d="M570.84,300.14l-3,0c-2.7-.21-4.2-.23-5-.93-1-.94.35-1.91.35-1.91s-2-.63-1.8-1.82c.11-.81,1-.92,1-.92s-1.73-.64-2.08-1.35c-.48-1,.72-1.51.72-1.51-2.36-1.4-2.18-2.83-1.64-3a6.75,6.75,0,0,1,2.38.65c1.55.41,5.78,1.63,4.18-.67s-2-4.66-1.62-5.37a.87.87,0,0,1,1.61.37,10.37,10.37,0,0,0,1.15,2.58,6.9,6.9,0,0,0,1.43,1.75c.68.57,1.27,1,1.78,1.42l2.68,2.49Z" style="fill:#ffbe9d"></path><path d="M634.51,271.23a7.16,7.16,0,0,1,.06-1.41c.07-.9.2-2.21.24-3.82a23.21,23.21,0,0,0-.42-5.61,13.05,13.05,0,0,0-3-6,18.59,18.59,0,0,0-5.47-4.1,19.6,19.6,0,0,0-5.32-1.77,23.7,23.7,0,0,0-5.2-.21,1.21,1.21,0,0,1,.36-.09,8.11,8.11,0,0,1,1-.16,15.8,15.8,0,0,1,3.86.11,18.92,18.92,0,0,1,5.47,1.71,18.2,18.2,0,0,1,5.64,4.18,13.32,13.32,0,0,1,3.11,6.28,22.71,22.71,0,0,1,.33,5.71c-.1,1.63-.27,2.93-.4,3.83A7.67,7.67,0,0,1,634.51,271.23Z" style="fill:#263238"></path><path d="M615.77,208.85l-.06,2.62-.52,39.23c-.06,4.55-4,8.13-8.9,8h0c-4.93-.11-8.93-3.92-8.94-8.52,0-4.83-.12-9.91-.12-9.91s-6.22-1-7.51-9.16c-.64-4-.44-10.65-.1-16.06a8.57,8.57,0,0,1,9.46-8Z" style="fill:#ffbe9d"></path><path d="M591.28,219.69a1,1,0,0,0,1,1.05,1,1,0,0,0,1.07-.94,1,1,0,0,0-1-1.05A1,1,0,0,0,591.28,219.69Z" style="fill:#263238"></path><path d="M591.06,218.52c.13.14.92-.45,2-.44s1.94.56,2.06.42-.07-.3-.43-.56a2.79,2.79,0,0,0-1.65-.51,2.71,2.71,0,0,0-1.62.52C591.11,218.21,591,218.46,591.06,218.52Z" style="fill:#263238"></path><path d="M602.5,219.69a1,1,0,0,0,1,1.05,1,1,0,0,0,1.07-.94,1,1,0,0,0-1-1.05A1,1,0,0,0,602.5,219.69Z" style="fill:#263238"></path><path d="M602.07,218.73c.13.14.92-.45,2-.44s1.94.56,2.06.42-.07-.3-.43-.56a2.79,2.79,0,0,0-1.65-.51,2.71,2.71,0,0,0-1.62.52C602.12,218.42,602,218.67,602.07,218.73Z" style="fill:#263238"></path><path d="M598,227a6.72,6.72,0,0,0-1.82-.33c-.28,0-.55-.09-.6-.28a1.42,1.42,0,0,1,.19-.85l.85-2.18a38.59,38.59,0,0,0,1.9-5.7,37.44,37.44,0,0,0-2.36,5.54l-.81,2.19a1.67,1.67,0,0,0-.15,1.12.75.75,0,0,0,.47.42,2.5,2.5,0,0,0,.49.07A7.44,7.44,0,0,0,598,227Z" style="fill:#263238"></path><path d="M597.23,240.3a20.67,20.67,0,0,0,10.87-2.9s-2.64,5.57-10.76,4.81Z" style="fill:#eb996e"></path><path d="M598.48,229.74a2,2,0,0,1,1.81-.75,1.87,1.87,0,0,1,1.27.68,1.17,1.17,0,0,1,.09,1.34,1.37,1.37,0,0,1-1.47.37,4.3,4.3,0,0,1-1.43-.86,1,1,0,0,1-.32-.33.36.36,0,0,1,0-.41" style="fill:#eb996e"></path><path d="M601.3,227.81c-.18,0-.18,1.21-1.22,2.07s-2.34.73-2.35.9.29.24.84.25a3,3,0,0,0,1.95-.68,2.62,2.62,0,0,0,1-1.73C601.52,228.11,601.38,227.81,601.3,227.81Z" style="fill:#263238"></path><path d="M602,215.59c.11.31,1.23.16,2.54.32s2.38.52,2.56.25-.11-.42-.54-.72a4.31,4.31,0,0,0-1.89-.66,4.27,4.27,0,0,0-2,.24C602.22,215.21,602,215.45,602,215.59Z" style="fill:#263238"></path><path d="M591.47,215.28c.2.25,1,0,1.9,0s1.71.17,1.89-.1,0-.38-.39-.62a2.73,2.73,0,0,0-3,.09C591.49,214.89,591.38,215.15,591.47,215.28Z" style="fill:#263238"></path><path d="M593.79,200.79c7.41-4.24,13.47-3.73,20-1.53a5.2,5.2,0,0,1,1.86,1,2,2,0,0,1,.68,1.89c-.1.41-.36.77-.43,1.18-.13.79.48,1.48.9,2.15a5.44,5.44,0,0,1-.47,6.24" style="fill:#FF725E"></path><path d="M586.91,211.91a161.89,161.89,0,0,1,30.59,4.34c3.28-.37-.88-10.32-3.86-13.46s-6.33-4.17-10.76-4.4a16.09,16.09,0,0,0-11.47,4.21,13.21,13.21,0,0,0-4.5,9.31" style="fill:#FF725E"></path><path d="M591,234.5a1.82,1.82,0,0,1,.23.53,6.4,6.4,0,0,1,.28,1.64,13.23,13.23,0,0,1-.14,2.63c-.13,1-.35,2.15-.48,3.41a9.45,9.45,0,0,0,.36,4.07,9.58,9.58,0,0,0,2.49,3.93,9,9,0,0,0,4.55,2.35,10.22,10.22,0,0,0,5.48-.44,10.08,10.08,0,0,0,4.44-3.25,11.18,11.18,0,0,0,2.16-4.69,13.32,13.32,0,0,0,0-4.71c-.21-1.48-.47-2.87-.57-4.16a11.87,11.87,0,0,1,.95-6,9.33,9.33,0,0,1,.79-1.46c.21-.32.33-.47.35-.46s-.43.67-1,2a12.07,12.07,0,0,0-.78,5.9c.12,1.26.4,2.63.63,4.13a14.12,14.12,0,0,1,0,4.86,11.74,11.74,0,0,1-2.23,4.9,10.54,10.54,0,0,1-4.66,3.42,10.71,10.71,0,0,1-5.75.45,9.45,9.45,0,0,1-4.76-2.5,9.87,9.87,0,0,1-2.57-4.14,9.53,9.53,0,0,1-.32-4.22c.16-1.29.4-2.42.56-3.42a14.36,14.36,0,0,0,.22-2.58A9.81,9.81,0,0,0,591,234.5Z" style="fill:#fafafa"></path><path d="M626.51,242.71a5.23,5.23,0,0,1-3.61,3.89,14.81,14.81,0,0,1-5.52.48c-1.31-.05-3.14.5-3.72-.69-.3-.61,0-2.09-.25-2.72-.45-1.09-1.71-1.58-2.47-2.47-1.21-1.41-1-3.55-.4-5.3s1.58-3.43,1.7-5.28c.18-2.93-1.73-5.51-3.32-8S606,217,607.34,214.4l0-.28,8.4,1.6Z" style="fill:#263238"></path><path d="M618.38,212.12l-.29-.07-.83-.24c-.72-.22-1.76-.52-3.06-.87-2.58-.71-6.18-1.58-10.21-2.27s-7.72-1-10.4-1.22c-1.33-.1-2.42-.16-3.17-.19l-.86,0-.3,0h1.17c.75,0,1.83,0,3.17.13a94.14,94.14,0,0,1,20.64,3.49c1.29.37,2.33.69,3,.93l.82.28A1.23,1.23,0,0,1,618.38,212.12Z" style="fill:#263238"></path><path d="M592.39,211.74a3.7,3.7,0,0,1,0-2.25,3.65,3.65,0,0,1,1.16-1.94,8.21,8.21,0,0,0-1,2A8.71,8.71,0,0,0,592.39,211.74Z" style="fill:#263238"></path><path d="M596.52,212a3.75,3.75,0,0,1,1.11-4.12,6.61,6.61,0,0,0-1,1.94A6.35,6.35,0,0,0,596.52,212Z" style="fill:#263238"></path><path d="M601.44,213.06c-.06,0,.3-1,.42-2.26s0-2.31,0-2.31a5.53,5.53,0,0,1,.15,2.33A5.6,5.6,0,0,1,601.44,213.06Z" style="fill:#263238"></path><path d="M606,213.54a6.69,6.69,0,0,0,.87-2.25,6.82,6.82,0,0,0-.18-2.41,3.66,3.66,0,0,1,.38,2.43A3.74,3.74,0,0,1,606,213.54Z" style="fill:#263238"></path><path d="M610.37,214.72a7.93,7.93,0,0,0,.45-2.25,7.83,7.83,0,0,0-.41-2.25,4.33,4.33,0,0,1,0,4.5Z" style="fill:#263238"></path><path d="M614.8,215.07a5.42,5.42,0,0,0,.58-1.93,5.34,5.34,0,0,0-.37-2,2.82,2.82,0,0,1,.56,2A2.79,2.79,0,0,1,614.8,215.07Z" style="fill:#263238"></path><path d="M588.48,212a3.75,3.75,0,0,1-.1-2.68,3.84,3.84,0,0,1,1.52-2.21,6.15,6.15,0,0,0-1.33,2.26A6.06,6.06,0,0,0,588.48,212Z" style="fill:#263238"></path><path d="M612.34,206.46s-2.68-.6-5.94-1.45-5.91-1.59-5.9-1.64,2.68.59,6,1.45S612.35,206.41,612.34,206.46Z" style="fill:#263238"></path><path d="M613.67,205.43s-2-.46-4.36-1.15S605,203,605,202.93s2,.46,4.36,1.15S613.68,205.38,613.67,205.43Z" style="fill:#263238"></path><path d="M538.34,468.52l4.15-8,15.09,7.68-6,11.8-1-.41c-4.28-1.89-21.63-9.9-24-12.16C524.06,464.89,538.34,468.52,538.34,468.52Z" style="fill:#FF725E"></path><g style="opacity:0.5"><path d="M546.22,477.08a5.88,5.88,0,0,1,3.56-2.24,5.74,5.74,0,0,1,4.09.7l-2.15,4.22Z" style="fill:#fff"></path></g><g style="opacity:0.4"><path d="M531.25,467s-5.15-1-5,0,17.41,9.78,25.35,13l.15-.35-20.19-10S532.11,467.45,531.25,467Z" style="fill:#fff"></path></g><path d="M552,479.74a1.27,1.27,0,0,1-.28-.1l-.76-.33L548.17,478c-2.35-1.09-5.59-2.65-9.13-4.44s-6.71-3.49-9-4.75l-2.69-1.51-.72-.42-.25-.16.27.12.74.39,2.71,1.45c2.3,1.23,5.47,2.9,9,4.7s6.76,3.36,9.11,4.49l2.77,1.33.75.37Z" style="fill:#263238"></path><path d="M531.48,469.83a6.93,6.93,0,0,0,.15-1.57,6.83,6.83,0,0,0-.4-1.53,2.32,2.32,0,0,1,.61,1.51A2.28,2.28,0,0,1,531.48,469.83Z" style="fill:#263238"></path><path d="M537.08,469.83c-.06,0-.14-.36-.18-.82s0-.83,0-.84.14.36.18.82S537.14,469.83,537.08,469.83Z" style="fill:#263238"></path><path d="M538.63,469.81s-.21-.26-.35-.63-.22-.68-.16-.7.21.26.35.63S538.68,469.79,538.63,469.81Z" style="fill:#263238"></path><path d="M540.12,468.78a2.1,2.1,0,0,1-.83-.3c-.44-.22-.78-.44-.75-.49a2.16,2.16,0,0,1,.84.3C539.82,468.51,540.15,468.72,540.12,468.78Z" style="fill:#263238"></path><path d="M540.9,467.91a1.78,1.78,0,0,1-1-.19c-.53-.22-.88-.54-.84-.59a6.76,6.76,0,0,1,.92.4A5.27,5.27,0,0,1,540.9,467.91Z" style="fill:#263238"></path><path d="M537.24,468.26a3.34,3.34,0,0,1-1-.5,6.91,6.91,0,0,1-.92-.75,3.71,3.71,0,0,1-.46-.55.54.54,0,0,1-.09-.42.4.4,0,0,1,.34-.31,2,2,0,0,1,1.94,1.63,1.9,1.9,0,0,1,0,.81.65.65,0,0,1-.1.28,3.43,3.43,0,0,0,0-1.06,2,2,0,0,0-.56-1,1.66,1.66,0,0,0-1.2-.5c-.21,0-.24.24-.12.43a3,3,0,0,0,.43.51,8,8,0,0,0,.86.77C536.88,468,537.25,468.23,537.24,468.26Z" style="fill:#263238"></path><path d="M537,468.18a1,1,0,0,1,.23-.73,1.7,1.7,0,0,1,.63-.58,1.07,1.07,0,0,1,1-.08.43.43,0,0,1,.07.6,1.14,1.14,0,0,1-.38.35,3.15,3.15,0,0,1-.76.35,1.49,1.49,0,0,1-.75.11s.28-.07.7-.24a3.83,3.83,0,0,0,.71-.38c.23-.14.51-.46.29-.63a1,1,0,0,0-.85.09,1.73,1.73,0,0,0-.59.49A4.06,4.06,0,0,0,537,468.18Z" style="fill:#263238"></path><path d="M553.81,475.46s-.41-.26-1.14-.53a5.39,5.39,0,0,0-2.94-.23,5.54,5.54,0,0,0-2.61,1.37,12.49,12.49,0,0,0-.83.94,1.05,1.05,0,0,1,.15-.31,5.14,5.14,0,0,1,6.29-1.9,4.21,4.21,0,0,1,.82.44A1.22,1.22,0,0,1,553.81,475.46Z" style="fill:#263238"></path><path d="M555.43,468.38a25.92,25.92,0,0,1-1.44,3.17,31.51,31.51,0,0,1-1.63,3.08,29.18,29.18,0,0,1,1.45-3.17A30.3,30.3,0,0,1,555.43,468.38Z" style="fill:#263238"></path><path d="M545.07,474.64a9.36,9.36,0,0,1-2.32-.9,9.91,9.91,0,0,1-2.11-1.29c0-.06,1,.51,2.21,1.11S545.09,474.59,545.07,474.64Z" style="fill:#263238"></path><path d="M548,476.14c0,.06-.19.17-.4.35s-.38.34-.43.31,0-.27.3-.47S548,476.09,548,476.14Z" style="fill:#263238"></path><path d="M549.85,475.32c0,.06-.16.16-.4.24s-.44.1-.46.05.16-.16.4-.24S549.83,475.27,549.85,475.32Z" style="fill:#263238"></path><path d="M551.76,475.5s-.23-.06-.49-.09-.48,0-.51-.06.21-.19.54-.15S551.8,475.46,551.76,475.5Z" style="fill:#263238"></path><path d="M553.05,475.78c0,.05-.13.09-.28.07s-.27-.07-.26-.13.13-.09.28-.07S553.06,475.72,553.05,475.78Z" style="fill:#263238"></path><path d="M637.08,474.86l-3.6-8.29L649,459.74l5.39,12.07-.94.49c-4.16,2.12-21.34,10.5-24.58,10.89C625.23,483.63,637.08,474.86,637.08,474.86Z" style="fill:#FF725E"></path><g style="opacity:0.5"><path d="M648.69,474.17a5.9,5.9,0,0,1,.52-4.18,5.71,5.71,0,0,1,3.12-2.72l1.91,4.33Z" style="fill:#fff"></path></g><g style="opacity:0.4"><path d="M631.39,479.38s-4,3.36-3.11,3.87,18.58-7.31,26.08-11.44l-.18-.33-20.54,9.29S632.31,479,631.39,479.38Z" style="fill:#fff"></path></g><path d="M654.42,471.36l-.26.15-.74.38-2.76,1.36c-2.34,1.14-5.59,2.67-9.22,4.27s-6.94,3-9.35,4l-2.87,1.13-.78.29a1,1,0,0,1-.28.09l.26-.13.77-.32,2.84-1.19c2.4-1,5.7-2.41,9.33-4s6.88-3.11,9.24-4.22l2.79-1.3.76-.35A1,1,0,0,1,654.42,471.36Z" style="fill:#263238"></path><path d="M633.75,481a6.79,6.79,0,0,0-1.12-1.11,7,7,0,0,0-1.43-.65,2.71,2.71,0,0,1,2.55,1.76Z" style="fill:#263238"></path><path d="M637.29,476.67a1.9,1.9,0,0,1-.75-.38c-.38-.26-.67-.5-.63-.55s.36.12.75.38S637.33,476.62,637.29,476.67Z" style="fill:#263238"></path><path d="M638.25,475.45c0,.05-.33,0-.7-.12s-.66-.27-.65-.32.34,0,.71.12S638.27,475.4,638.25,475.45Z" style="fill:#263238"></path><path d="M638.4,473.64a2,2,0,0,1-.76.46,2.07,2.07,0,0,1-.85.27c0-.05.32-.25.76-.46A2.07,2.07,0,0,1,638.4,473.64Z" style="fill:#263238"></path><path d="M638.22,472.49a2.53,2.53,0,0,1-1.77.95c0-.06.4-.21.88-.47S638.18,472.44,638.22,472.49Z" style="fill:#263238"></path><path d="M636.17,475.55a3,3,0,0,1-1,.43,6.19,6.19,0,0,1-1.16.24,4.09,4.09,0,0,1-.71,0,.67.67,0,0,1-.39-.2.44.44,0,0,1,0-.47,2,2,0,0,1,3.11.06c.11.15.15.25.14.26a2.75,2.75,0,0,0-.83-.65,2,2,0,0,0-1.09-.18,1.65,1.65,0,0,0-1.15.61c-.11.18,0,.34.26.37a3.64,3.64,0,0,0,.66,0,7.64,7.64,0,0,0,1.15-.19C635.78,475.69,636.16,475.52,636.17,475.55Z" style="fill:#263238"></path><path d="M635.94,475.71s-.27-.17-.42-.64a1.65,1.65,0,0,1,0-.84,1.09,1.09,0,0,1,.6-.88.44.44,0,0,1,.51.33,1.16,1.16,0,0,1,0,.52,3.41,3.41,0,0,1-.21.81,1.5,1.5,0,0,1-.39.65s.12-.27.26-.7a4.92,4.92,0,0,0,.15-.78c0-.27,0-.69-.3-.63s-.4.45-.47.71a1.79,1.79,0,0,0,0,.77A3.65,3.65,0,0,0,635.94,475.71Z" style="fill:#263238"></path><path d="M652.23,467.26s-.46.16-1.13.55a5.28,5.28,0,0,0-2.62,5c0,.77.23,1.23.19,1.24a1.64,1.64,0,0,1-.14-.31,4.89,4.89,0,0,1-.2-.91,5.17,5.17,0,0,1,2.7-5.17,4.84,4.84,0,0,1,.86-.35A1.26,1.26,0,0,1,652.23,467.26Z" style="fill:#263238"></path><path d="M647.78,461.53a30.19,30.19,0,0,1,1.54,3.12,28.77,28.77,0,0,1,1.35,3.21,31.51,31.51,0,0,1-1.54-3.12A29.7,29.7,0,0,1,647.78,461.53Z" style="fill:#263238"></path><path d="M646.07,473.52a9.38,9.38,0,0,1-2.16,1.22,9.73,9.73,0,0,1-2.34.82c0-.05,1-.44,2.26-1S646,473.47,646.07,473.52Z" style="fill:#263238"></path><path d="M649.1,472.17c.06,0,0,.25,0,.53s0,.51,0,.53-.19-.21-.19-.53S649.06,472.15,649.1,472.17Z" style="fill:#263238"></path><path d="M649.62,470.25s0,.22-.06.45-.21.41-.26.39,0-.23.06-.46S649.57,470.22,649.62,470.25Z" style="fill:#263238"></path><path d="M651,468.87c0,.06-.2.15-.39.33s-.3.37-.36.36,0-.29.22-.51S651,468.82,651,468.87Z" style="fill:#263238"></path><path d="M652,468.05s0,.16-.12.27-.23.16-.27.12,0-.16.12-.27S652,468,652,468.05Z" style="fill:#263238"></path><path d="M655.3,466l-19.42,9-34.8-62c-4.54-16.36-8.91-74-8.91-74l25.17,1.92s3.88,41.36,10,62.67Z" style="fill:#263238"></path><path d="M632.82,468.91a20.85,20.85,0,0,0,3-1.19c1.8-.79,4.27-1.91,7-3.17s5.17-2.43,6.93-3.3a21.39,21.39,0,0,0,2.82-1.49,21.07,21.07,0,0,0-3,1.19c-1.8.79-4.28,1.91-7,3.17s-5.16,2.44-6.93,3.3A23.24,23.24,0,0,0,632.82,468.91Z" style="fill:#455a64"></path><path d="M629.86,313.82c.47,0,4.6,17.23-.36,27.34-.5,1-4.39,6.6-4.39,6.6-13.72,16.18-27.61,47.58-31.49,55.82-8,16.92-37.31,72.57-37.31,72.57l-18.84-10.79L565,394.51,588.65,325Z" style="fill:#263238"></path><path d="M616.82,357.22a11.53,11.53,0,0,0-.74,1.42l-1.9,3.94c-1.6,3.32-3.85,7.89-6.35,12.94s-4.71,9.64-6.24,13c-.76,1.68-1.36,3.05-1.76,4a10.16,10.16,0,0,0-.58,1.5,12.27,12.27,0,0,0,.75-1.42l1.89-3.94c1.6-3.32,3.86-7.89,6.36-12.94s4.71-9.65,6.23-13c.76-1.68,1.37-3.05,1.77-4A9.7,9.7,0,0,0,616.82,357.22Z" style="fill:#455a64"></path><path d="M538.87,462.07c0,.11,4.3,2.42,9.73,5.14s9.88,4.84,9.94,4.72-4.3-2.41-9.73-5.14S538.93,462,538.87,462.07Z" style="fill:#455a64"></path></g></svg>