<svg xmlns="http://www.w3.org/2000/svg" viewBox="0 0 750 500"><g id="freepik--Character--inject-68"><path d="M380.44,198.7c-.19-4.6,2.79-8.71,3.59-13.25.89-5.11-1.42-14-7-17.24a25.43,25.43,0,0,0-12.26-3.71,19.4,19.4,0,0,0-11.35,3.88c-2.95,2.39-4.83,5.82-6.64,9.16a14.34,14.34,0,0,0-2.08,5.58c-.16,2,.73,4.21,2.58,5a8.65,8.65,0,0,0-3.59.26,2.92,2.92,0,0,0-2,2.71c.09,1.2,1.63,2.16,2.6,1.44a15.31,15.31,0,0,0-5.93,12.4c0,1.58.33,3.22-.24,4.69-1.07,2.74-4.43,3.56-7,5a9.06,9.06,0,0,0-4.65,6.15,6.06,6.06,0,0,0,3.37,6.55c1.51.59,3.41.52,4.46,1.77s.62,3.16.58,4.83a8.7,8.7,0,0,0,16.22,4.58c1.7,3.38,6.33,4.56,9.84,3.14s5.9-4.83,7-8.45a31.3,31.3,0,0,0,1.08-8.85,17.67,17.67,0,0,0,7.85.34c4.35-.91,8.38-4.35,8.86-8.77C386.4,209.87,380.68,204.77,380.44,198.7ZM369,201.23l0-16.2,4.93-4.43Z" style="fill:#263238"></path><path d="M338.65,227.24s0,0-.09.11a2,2,0,0,1-.32.28,3.84,3.84,0,0,1-1.48.7,5.08,5.08,0,0,1-5.39-2,6.66,6.66,0,0,1-1.16-4,8,8,0,0,1,1.62-4.49,12.07,12.07,0,0,1,4-3.42c1.6-.89,3.35-1.59,5-2.53a9.59,9.59,0,0,0,3.89-3.7,10.05,10.05,0,0,0,.82-5,37.52,37.52,0,0,1,0-4.74,8.33,8.33,0,0,1,1.4-3.92,8.83,8.83,0,0,1,4.78-3.51,5.85,5.85,0,0,1,2.17-.28,16.71,16.71,0,0,0-2.11.47,8.83,8.83,0,0,0-4.54,3.53A8.08,8.08,0,0,0,346,198.5a37.18,37.18,0,0,0,.06,4.69,10.53,10.53,0,0,1-.84,5.2,10,10,0,0,1-4.09,3.92c-1.69,1-3.44,1.66-5,2.53a11.7,11.7,0,0,0-3.88,3.25,7.56,7.56,0,0,0-1.57,4.23,6.3,6.3,0,0,0,1,3.77,4.72,4.72,0,0,0,2.58,1.92,5.19,5.19,0,0,0,2.47.13A5.32,5.32,0,0,0,338.65,227.24Z" style="fill:#455a64"></path><path d="M310.13,407.66c0-.9,37.78-54.66,37.78-54.66l20.87,8-47.61,54.86Z" style="fill:#ffbe9d"></path><path d="M310.13,407.66l-.34.44-6.48,8.46-8,5.51L306,442.79h11.84s-.85-2.85-6.55-4.32l-.38-11.37,10.23-11.24" style="fill:#FF725E"></path><polygon points="295.27 422.07 306.03 442.79 317.87 442.8 316.54 441.02 306.91 440.48 296.98 420.9 295.27 422.07" style="fill:#fff;opacity:0.6000000000000001"></polygon><path d="M311.25,433.27c-.09.12-.77-.27-1.69-.24s-1.59.4-1.68.29.56-.8,1.67-.81S311.35,433.18,311.25,433.27Z" style="fill:#263238"></path><path d="M311.06,430.45c-.12.08-.65-.62-1.59-.8s-1.7.25-1.78.12.1-.25.43-.43a2.22,2.22,0,0,1,2.71.55C311.06,430.18,311.11,430.42,311.06,430.45Z" style="fill:#263238"></path><path d="M311.14,426.83c-.13.06-.54-.62-1.36-.91s-1.57,0-1.63-.15.12-.22.45-.34a2,2,0,0,1,1.35,0,2,2,0,0,1,1.06.85C311.18,426.58,311.2,426.8,311.14,426.83Z" style="fill:#263238"></path><path d="M314.31,424c-.14.05-.48-.62-1.21-1.1s-1.47-.55-1.48-.7.88-.33,1.77.27S314.45,424,314.31,424Z" style="fill:#263238"></path><path d="M315.85,421.59c-.06,0-.45-.44-1-1.24l-1-1.42a3.86,3.86,0,0,1-.55-1,1,1,0,0,1,.07-.72.75.75,0,0,1,.72-.37,2.14,2.14,0,0,1,1.1.57,3.93,3.93,0,0,1,.72.82,4.06,4.06,0,0,1,.62,1.71c.12,1-.22,1.65-.27,1.62a11.46,11.46,0,0,0-.09-1.56,4.27,4.27,0,0,0-.65-1.5,3.89,3.89,0,0,0-.65-.7,1.89,1.89,0,0,0-.82-.44.2.2,0,0,0-.22.1.49.49,0,0,0,0,.34,4.62,4.62,0,0,0,.46.82l.91,1.49A5,5,0,0,1,315.85,421.59Z" style="fill:#263238"></path><path d="M316.28,421.94c-.06,0,0-.62.63-1.34a3,3,0,0,1,3.51-.63.55.55,0,0,1,.18.43.59.59,0,0,1-.14.37,1.55,1.55,0,0,1-.43.37,4.68,4.68,0,0,1-.83.48,5,5,0,0,1-1.56.44c-.92.09-1.48-.08-1.46-.14s.56,0,1.4-.23a5.59,5.59,0,0,0,1.41-.5,6.06,6.06,0,0,0,.75-.46,1.16,1.16,0,0,0,.3-.27c.06-.1,0-.07,0-.1a.8.8,0,0,0-.35-.13,3.11,3.11,0,0,0-.44-.07,2.93,2.93,0,0,0-.84.06,3,3,0,0,0-1.28.65C316.53,421.43,316.36,422,316.28,421.94Z" style="fill:#263238"></path><circle cx="303.32" cy="421.72" r="1.4" style="fill:#fff;opacity:0.6000000000000001"></circle><polygon points="378.02 356.87 407.51 421.19 422.77 421.19 402.22 354.84 378.02 356.87" style="fill:#ffbe9d"></polygon><path d="M407.19,420.38l8.92,22.95,28.62-10.94c-1.22-2.67-18.12-2.5-18.12-2.5L421.5,415Z" style="fill:#FF725E"></path><g style="opacity:0.6000000000000001"><path d="M417.28,432a1.24,1.24,0,0,0-.29,1.64,1.2,1.2,0,0,0,1.62.31,1.32,1.32,0,0,0,.31-1.74,1.26,1.26,0,0,0-1.73-.14" style="fill:#fff"></path></g><path d="M416.11,443.33,415.3,441,443,431.37s1.49.07,1.69,1Z" style="fill:#fff;opacity:0.6000000000000001"></path><path d="M427,429.57c.05.14-.63.47-1.14,1.18s-.66,1.44-.81,1.44-.25-.89.39-1.75S427,429.43,427,429.57Z" style="fill:#263238"></path><path d="M430.49,429.66c.09.13-.43.6-.68,1.37s-.14,1.45-.28,1.5-.54-.71-.21-1.67S430.44,429.53,430.49,429.66Z" style="fill:#263238"></path><path d="M433.57,432.6c-.11.08-.58-.54-.51-1.44s.6-1.46.71-1.37-.15.66-.19,1.4S433.71,432.54,433.57,432.6Z" style="fill:#263238"></path><path d="M425.47,426.29c0,.15-.72.21-1.49.56s-1.29.84-1.41.75.28-.82,1.2-1.22S425.5,426.16,425.47,426.29Z" style="fill:#263238"></path><path d="M423.49,423.16c0,.06-.49.35-1.43.54a6.7,6.7,0,0,1-1.68.11,5.93,5.93,0,0,1-1-.12,1.84,1.84,0,0,1-.56-.17.66.66,0,0,1-.35-.72.83.83,0,0,1,.49-.55,2.36,2.36,0,0,1,.57-.14,5.77,5.77,0,0,1,1,0,5.37,5.37,0,0,1,1.65.36c.9.36,1.33.8,1.29.84s-.54-.24-1.41-.49a6.18,6.18,0,0,0-1.55-.23,5.76,5.76,0,0,0-.92.06c-.34,0-.59.13-.62.3s0,.08.09.15a1.64,1.64,0,0,0,.42.12,6,6,0,0,0,.92.14,8.48,8.48,0,0,0,1.59,0A9.47,9.47,0,0,1,423.49,423.16Z" style="fill:#263238"></path><path d="M423.39,423.43s-.51-.36-.91-1.24a5,5,0,0,1-.37-2.65,1.28,1.28,0,0,1,.64-1.08.71.71,0,0,1,.75.17,2.28,2.28,0,0,1,.35.47,3.51,3.51,0,0,1,.37,1,3.58,3.58,0,0,1-.05,1.71c-.27,1-.79,1.35-.82,1.3a12.81,12.81,0,0,0,.46-1.38,3.46,3.46,0,0,0-.06-1.52,2.91,2.91,0,0,0-.34-.82c-.16-.29-.37-.49-.47-.41s-.3.37-.33.66a5.68,5.68,0,0,0-.05.91,5.24,5.24,0,0,0,.27,1.54C423.11,422.91,423.46,423.38,423.39,423.43Z" style="fill:#263238"></path><path d="M416.64,297.14l.23.29c.44.09.91.19,1.44.27a6.68,6.68,0,0,0,2.36,0,10.52,10.52,0,0,0,2.83-.81c.79-.44,1.71.3,1.37,1.05s-2.47,2-5.38,2.29.88,2.83,2.25,3.8,5.46,4.16,5.5,4.81c.05,1-1,1.2-2.32.2s-5.58-3.7-6.05-3,6.56,5.57,6.56,5.57,1.67.79,1.14,1.67c-.94,1.59-8-4.1-8.69-4.65-.46-.39-1,.4-.49.79s7.12,4.65,6.18,6.28c-.72,1.25-5.88-4.62-7.74-4.74s4.37,4.05,3.63,5.22c-.28.43-.54.72-3.77-2.2a99.09,99.09,0,0,1-7.36-8.16Z" style="fill:#ffbe9d"></path><polygon points="382.03 219.85 393.07 275.91 417.79 296.46 408.18 308.14 374.37 281.18 367.47 225.18 382.03 219.85" style="fill:#FF725E"></polygon><polygon points="382.03 219.85 393.07 275.91 417.79 296.46 408.18 308.14 374.37 281.18 367.47 225.18 382.03 219.85" style="opacity:0.30000000000000004"></polygon><path d="M384.64,273.18l-1.46-.24c.46-5.85,1.32-12.41,4.18-16.72,2.4-3.62,2.6-6.33,2.4-8,.6-6.32-4.46-10.26-5.18-16.65-.79-9.26-.76-14.38-4.78-15.42l-19.14-3.48s-22.23-3.22-17.07,24.33l9.94,31.33,3.27,2.12c-4.53,3.35-14.68,12.91-17.78,32.7-4,25.73-17,82.28-17,82.28s19-8.86,35.95,0,35.55,12.48,46.76,7.24,11.24-7.24,11.24-7.24Z" style="fill:#FF725E"></path><path d="M351.3,277.6s0,.09-.15.23l-.48.62c-.45.54-1,1.37-1.77,2.47a37.18,37.18,0,0,0-4.43,10.18,63.49,63.49,0,0,0-2,16.37c-.08,6.23.46,13.09.45,20.31a76.8,76.8,0,0,1-.67,10.53,73.91,73.91,0,0,1-2,9.62,114.67,114.67,0,0,1-5.76,15.58c-1.93,4.32-3.63,7.74-4.81,10.11-.59,1.15-1.05,2.05-1.38,2.71-.16.28-.28.51-.38.7a1.05,1.05,0,0,1-.14.23,1.16,1.16,0,0,1,.1-.26c.08-.19.19-.43.32-.72.31-.67.75-1.59,1.3-2.75,1.12-2.39,2.77-5.84,4.65-10.17a116.76,116.76,0,0,0,5.64-15.56,72.87,72.87,0,0,0,2.63-20c0-7.19-.52-14-.41-20.32A62.54,62.54,0,0,1,344.12,291a35.62,35.62,0,0,1,4.62-10.19A22.39,22.39,0,0,1,351.3,277.6Z" style="fill:#263238"></path><path d="M411.61,368.52a12.17,12.17,0,0,0-5.12-.09,19.61,19.61,0,0,0-5.63,2.18,76.3,76.3,0,0,0-6.68,4.5c-2.45,1.69-5.27,3.58-8.8,4.3a15.85,15.85,0,0,1-11-1.92,15.53,15.53,0,0,1-4.59-4.06,11.08,11.08,0,0,1-2.34-5.94,6.87,6.87,0,0,1,.56-3.3,5.28,5.28,0,0,1,2.34-2.49,5.6,5.6,0,0,1,3.42-.59,5.45,5.45,0,0,1,3.09,1.66,5.33,5.33,0,0,1,1.44,3.2,6.24,6.24,0,0,1-.74,3.38,9.37,9.37,0,0,1-5,4.28,14.45,14.45,0,0,1-6.35.79,21.73,21.73,0,0,1-6-1.42,70,70,0,0,1-9.92-5.31,39.91,39.91,0,0,0-8.79-4.15,16.26,16.26,0,0,0-7.89-.57,12.23,12.23,0,0,0-5.41,2.53,9.44,9.44,0,0,0-2.41,2.93c-.41.77-.52,1.23-.56,1.22a1.68,1.68,0,0,1,.1-.33,5.16,5.16,0,0,1,.37-.94,9.13,9.13,0,0,1,2.37-3,12.43,12.43,0,0,1,5.48-2.65,16.48,16.48,0,0,1,8.06.49,40.51,40.51,0,0,1,8.9,4.13,69.46,69.46,0,0,0,9.87,5.24,21.68,21.68,0,0,0,5.83,1.38,14,14,0,0,0,6.12-.78,8.79,8.79,0,0,0,4.76-4,5.69,5.69,0,0,0,.68-3.1,4.78,4.78,0,0,0-1.3-2.88,4.86,4.86,0,0,0-2.79-1.51,5.07,5.07,0,0,0-3.09.54,4.77,4.77,0,0,0-2.12,2.25,6.36,6.36,0,0,0-.52,3,10.68,10.68,0,0,0,2.23,5.68,15,15,0,0,0,4.44,3.94A15.47,15.47,0,0,0,385.29,379c3.43-.68,6.23-2.52,8.68-4.18a72.08,72.08,0,0,1,6.75-4.46,19.28,19.28,0,0,1,5.73-2.12,11.31,11.31,0,0,1,3.86,0A5.83,5.83,0,0,1,411.61,368.52Z" style="fill:#ebebeb"></path><g style="opacity:0.30000000000000004"><path d="M342,328c5.66-.49,11.6-1.42,16.05-5,3.41-2.69,5.6-6.67,7-10.79a38.27,38.27,0,0,0,1.28-19.6c-.37-1.86-.85-3.92.12-5.55s3.28-2.26,5.29-2.28c2.54,0,5.06.48,7.59.4s5.24-.87,6.74-2.91l-26.16-2.56c-2.27-.23-4.75-.4-6.67.84s-2.83,3.7-3.55,5.95q-3.17,10-6.35,20a56.43,56.43,0,0,0-2.62,10.58,18.82,18.82,0,0,0,1.6,10.64"></path></g><path d="M337.39,274.28c-5.29,4.31-11.11,11.89-15.09,17.43s-6.51,12.47-5.4,19.2c1.32,7.94,7.88,14.61,15.68,16.58a24.59,24.59,0,0,0,22.33-6.12,29,29,0,0,0,8.74-21.75c-.28-10.42-5.66-20.35-5-30.75a123.83,123.83,0,0,1,3.26-21c2.35-10.43.17-23.57-5.31-32.76a7.84,7.84,0,0,0-3.24-3.4c-1.45-.65-.47.39-1.05,1.87s.66,3.26,1.72,4.63c4,5.23,5.56,12.07,5.42,18.68s-1.81,13.08-3.63,19.43c-1.4,4.93-2.95,9.95-6,14.09s-7.34,4.06-12.46,3.83" style="fill:#455a64"></path><path d="M351.93,278.09a1.64,1.64,0,0,1-.09.45c-.09.29-.19.72-.39,1.25a27.63,27.63,0,0,1-2,4.41,30.72,30.72,0,0,1-11,11.39c-2.64,1.61-5.56,2.77-8.35,2.63a7.46,7.46,0,0,1-6.2-3.36,5.58,5.58,0,0,1-.42-4.76,3.93,3.93,0,0,1,.68-1.14c.21-.22.32-.33.34-.32a6.28,6.28,0,0,0-.83,1.53,5.47,5.47,0,0,0,.55,4.5,7.1,7.1,0,0,0,5.9,3.07c2.64.11,5.46-1,8.07-2.6A31.66,31.66,0,0,0,349.16,284a33.62,33.62,0,0,0,2.1-4.3A15.5,15.5,0,0,1,351.93,278.09Z" style="fill:#263238"></path><path d="M330.2,295.53a2.41,2.41,0,0,1,.88-.36,4.05,4.05,0,0,1,1.11-.17,2.06,2.06,0,0,1,1.44.53,2.32,2.32,0,0,1,.67,1.74,3.52,3.52,0,0,1-.71,2,12,12,0,0,1-1.53,1.68,6.27,6.27,0,0,1-2,1.4,3.13,3.13,0,0,1-2.53-.09,2.22,2.22,0,0,1-1.21-2,4.12,4.12,0,0,1,.57-2,6.7,6.7,0,0,1,1.06-1.46,6.51,6.51,0,0,1,2.12-1.48,2.62,2.62,0,0,1,.91-.26,9.32,9.32,0,0,0-2.76,2,5.22,5.22,0,0,0-1.42,3.23,1.73,1.73,0,0,0,1,1.59,2.7,2.7,0,0,0,2.11.05,5.76,5.76,0,0,0,1.88-1.28A12.19,12.19,0,0,0,333.2,299a3.1,3.1,0,0,0,.67-1.72,1.94,1.94,0,0,0-.5-1.47,2.49,2.49,0,0,0-2.25-.42A4.42,4.42,0,0,1,330.2,295.53Z" style="fill:#263238"></path><path d="M349.58,325.32c-.05,0,.16-.46.31-1.32a6.9,6.9,0,0,0-.34-3.6,6.43,6.43,0,0,0-1.3-2.11,6.08,6.08,0,0,0-2.38-1.53,15.82,15.82,0,0,0-6.6-.48,40.16,40.16,0,0,0-11.88,2.82c-1.45.6-2.59,1.15-3.38,1.54a8.43,8.43,0,0,1-1.24.59,5.79,5.79,0,0,1,1.14-.76,33.74,33.74,0,0,1,3.34-1.71,37.29,37.29,0,0,1,12-3,16,16,0,0,1,6.82.55,6.37,6.37,0,0,1,2.53,1.69,6.69,6.69,0,0,1,1.33,2.28,6.8,6.8,0,0,1,.19,3.76,4.1,4.1,0,0,1-.33,1C349.66,325.23,349.6,325.33,349.58,325.32Z" style="fill:#263238"></path><path d="M350.45,313.29A3.9,3.9,0,0,1,349,315.5a3.85,3.85,0,0,1-2.33,1.23c-.06-.13,1-.67,2-1.61S350.31,313.22,350.45,313.29Z" style="fill:#263238"></path><path d="M351.9,315.52c.12.06-.5,1.12-1.83,1.7a3,3,0,0,1-2.5.22c0-.16,1.1-.16,2.29-.7S351.79,315.42,351.9,315.52Z" style="fill:#263238"></path><path d="M321,318.1c.14-.06.53.59,1.22,1.19s1.38.91,1.34,1-.9,0-1.68-.66S320.84,318.14,321,318.1Z" style="fill:#263238"></path><path d="M341.25,302.57a8.46,8.46,0,0,1,1.31-2.6,8.57,8.57,0,0,1,1.76-2.33,8.46,8.46,0,0,1-1.31,2.6A8.35,8.35,0,0,1,341.25,302.57Z" style="fill:#ebebeb"></path><path d="M353.19,306.57c-.09.11-1-.58-1.82-1.74a4.23,4.23,0,0,1-1-2.33c.14-.05.65.93,1.41,2S353.29,306.46,353.19,306.57Z" style="fill:#ebebeb"></path><path d="M356.3,293.74c.09.12-.64.8-1.62,1.52s-1.85,1.2-1.94,1.09.65-.8,1.63-1.51S356.22,293.63,356.3,293.74Z" style="fill:#ebebeb"></path><path d="M354.55,286.15c-.15,0-.36-.71-.49-1.63s-.11-1.67,0-1.69.36.71.49,1.62S354.69,286.13,354.55,286.15Z" style="fill:#ebebeb"></path><path d="M360.09,305a8.77,8.77,0,0,1,.82-4.11,4.53,4.53,0,0,1-.15,2.11C360.53,304.11,360.23,305,360.09,305Z" style="fill:#ebebeb"></path><path d="M339.12,313.33c-.07.12-.79-.23-1.48-.91s-1-1.41-.91-1.49.63.47,1.28,1.12S339.21,313.21,339.12,313.33Z" style="fill:#ebebeb"></path><path d="M326.1,314.92a5.25,5.25,0,0,1-2,1,5.11,5.11,0,0,1-2.21.49,5,5,0,0,1,2-1A5,5,0,0,1,326.1,314.92Z" style="fill:#ebebeb"></path><path d="M323.58,309.23c-.11.09-1-.7-1.91-1.77a6.83,6.83,0,0,1-1.53-2.11c.11-.09,1,.7,1.92,1.77S323.69,309.13,323.58,309.23Z" style="fill:#ebebeb"></path><path d="M321.36,298.54c-.1-.09.33-.75,1-1.46s1.26-1.22,1.36-1.12-.33.75-1,1.47S321.47,298.64,321.36,298.54Z" style="fill:#ebebeb"></path><path d="M333.78,303.56c.07.13-.83.71-2,1.29a5.57,5.57,0,0,1-2.24.83c-.06-.13.84-.71,2-1.29A5.57,5.57,0,0,1,333.78,303.56Z" style="fill:#ebebeb"></path><path d="M331.7,290.83a8.4,8.4,0,0,1-.8-5,24.87,24.87,0,0,1,.8,5Z" style="fill:#ebebeb"></path><path d="M340.14,287.41c-.13,0-.57-.67-1-1.62s-.63-1.76-.49-1.82.56.67,1,1.62S340.27,287.35,340.14,287.41Z" style="fill:#ebebeb"></path><path d="M346.44,280.91a3.35,3.35,0,0,1-2.2.91,3.44,3.44,0,0,1-2.37-.25,14.1,14.1,0,0,1,2.3-.26A14.89,14.89,0,0,1,346.44,280.91Z" style="fill:#ebebeb"></path><path d="M354.66,316.87c-.13-.05.12-.92.7-1.86s1.25-1.54,1.36-1.45-.36.83-.92,1.73S354.79,316.93,354.66,316.87Z" style="fill:#ebebeb"></path><path d="M334.42,325.14c-.07.13-.87-.18-1.79-.68s-1.6-1-1.53-1.14.87.18,1.79.68S334.49,325,334.42,325.14Z" style="fill:#ebebeb"></path><path d="M340.15,324.06c-.12-.09.26-.72.67-1.52s.7-1.47.85-1.43.05.82-.39,1.67S340.25,324.16,340.15,324.06Z" style="fill:#ebebeb"></path><path d="M358.21,257.33c.12.08-.28.84-.89,1.69s-1.21,1.47-1.32,1.39.28-.84.89-1.69S358.1,257.24,358.21,257.33Z" style="fill:#ebebeb"></path><path d="M359.34,251.87c-.15,0-.11-.84.07-1.81s.44-1.75.58-1.73.11.84-.07,1.82S359.48,251.9,359.34,251.87Z" style="fill:#ebebeb"></path><path d="M360.83,240.45c-.14,0-.11-.57.07-1.2s.44-1.09.57-1.05.11.57-.07,1.2S361,240.49,360.83,240.45Z" style="fill:#ebebeb"></path><path d="M360.8,233.21c-.15,0-.26-.29-.26-.64s.11-.65.26-.65.26.29.26.64S360.94,233.21,360.8,233.21Z" style="fill:#ebebeb"></path><path d="M378.9,173.57v-.68c-9.14-2.72-20-2.61-25.54,5l4.12,36.78h0c.27,5.14,4.49,12.3,10,16.61a5.6,5.6,0,0,0,9-5c-.46-3.95-.94-8.3-1.2-11.13a2.56,2.56,0,0,0-.19-.77c0-.07,0-.14,0-.21-.45-4.74-.84-9.74-.84-9.74s6-1.61,6.49-9.71C381.23,187,378.9,173.57,378.9,173.57Z" style="fill:#ffbe9d"></path><path d="M378.89,183.33a1,1,0,0,1-.88,1.13,1,1,0,0,1-1.14-.82,1,1,0,0,1,.88-1.13A1,1,0,0,1,378.89,183.33Z" style="fill:#263238"></path><path d="M378.89,182.2c-.11.15-.95-.35-2-.24s-1.86.75-2,.62,0-.3.37-.6a2.85,2.85,0,0,1,1.57-.65,2.67,2.67,0,0,1,1.64.35C378.81,181.91,379,182.14,378.89,182.2Z" style="fill:#263238"></path><path d="M367.46,184.81a1,1,0,0,1-.88,1.13,1,1,0,0,1-1.15-.82,1,1,0,0,1,.88-1.12A1,1,0,0,1,367.46,184.81Z" style="fill:#263238"></path><path d="M367.46,183.73c-.12.15-.95-.35-2-.24s-1.85.74-2,.62,0-.31.37-.6a2.82,2.82,0,0,1,1.57-.66,2.78,2.78,0,0,1,1.64.36C367.37,183.44,367.51,183.67,367.46,183.73Z" style="fill:#263238"></path><path d="M372.25,191.49A7.69,7.69,0,0,1,374,191c.28-.06.54-.14.57-.34a1.38,1.38,0,0,0-.27-.81l-1-2.06a38.62,38.62,0,0,1-2.42-5.41,36.68,36.68,0,0,1,2.85,5.2l1,2.08a1.68,1.68,0,0,1,.25,1.08.72.72,0,0,1-.42.46,2,2,0,0,1-.47.11A6.72,6.72,0,0,1,372.25,191.49Z" style="fill:#263238"></path><path d="M374.29,204.43a20.38,20.38,0,0,1-11-1.8s3.13,5.22,11,3.69Z" style="fill:#eb996e"></path><path d="M372,194.19a2,2,0,0,0-1.84-.56,1.8,1.8,0,0,0-1.19.79,1.16,1.16,0,0,0,0,1.32,1.34,1.34,0,0,0,1.48.22,4.18,4.18,0,0,0,1.32-1,1.24,1.24,0,0,0,.29-.36.36.36,0,0,0-.05-.41" style="fill:#eb996e"></path><path d="M369.09,192.57c.18,0,.3,1.17,1.4,1.92s2.36.49,2.39.65-.26.26-.8.33a3,3,0,0,1-2-.48,2.6,2.6,0,0,1-1.1-1.61C368.9,192.88,369,192.57,369.09,192.57Z" style="fill:#263238"></path><path d="M377.91,202.22a3.78,3.78,0,0,1,.19.55c.1.36.25.9.42,1.59a19,19,0,0,1,.57,6,32.72,32.72,0,0,1-.38,4.19,12.65,12.65,0,0,1-.61,2.3,24.72,24.72,0,0,1-1.18,2.21,6.39,6.39,0,0,1-1.69,2.08,4.59,4.59,0,0,1-2.74.65,9.88,9.88,0,0,1-2.84-.43,11.72,11.72,0,0,1-2.71-1.16,11.09,11.09,0,0,1-4.17-4,7.66,7.66,0,0,1-.84-2.64c-.18-.87-.38-1.71-.58-2.53-.4-1.64-.73-3.24-1-4.72s-.48-2.86-.69-4.13c-.39-2.48-.71-4.51-.95-6-.09-.66-.17-1.2-.23-1.63a2.31,2.31,0,0,1,0-.58,2.29,2.29,0,0,1,.15.56c.09.42.2,1,.33,1.61.28,1.48.66,3.5,1.12,6,.23,1.27.48,2.65.74,4.12s.58,3,1,4.69c.2.82.41,1.66.6,2.53a7.19,7.19,0,0,0,.8,2.5,10.66,10.66,0,0,0,4,3.78,11.63,11.63,0,0,0,2.6,1.11,9.26,9.26,0,0,0,2.69.42,4.07,4.07,0,0,0,2.45-.55,6.23,6.23,0,0,0,1.57-1.91c.41-.72.86-1.46,1.16-2.14a11.1,11.1,0,0,0,.61-2.2,32.34,32.34,0,0,0,.44-4.13,20.21,20.21,0,0,0-.4-6c-.13-.66-.24-1.19-.33-1.62A2.18,2.18,0,0,1,377.91,202.22Z" style="fill:#ebebeb"></path><polygon points="398.59 260.04 395.56 285.73 412.01 285.73 414.3 260.09 398.59 260.04" style="fill:#263238"></polygon><path d="M404,286.55s0,.42-.06,1.23a15.85,15.85,0,0,0,.23,3.5,29.3,29.3,0,0,1,.7,5.56,15.06,15.06,0,0,1-1.65,7.23,9.7,9.7,0,0,1-2.88,3.27,8.8,8.8,0,0,1-4.48,1.49,6.64,6.64,0,0,1-4.79-1.59,9.24,9.24,0,0,1-2.51-4.73c-.46-1.77-.7-3.62-1.25-5.41a17.78,17.78,0,0,0-2.65-5.06c-2.24-3.19-5.27-6.14-6.86-10.13s-1.88-8.16-1.93-12.09.13-7.76-.07-11.38c-.36-7.23-1.54-13.67-2.23-19.12a89.81,89.81,0,0,1-.89-13c0-1.54.08-2.73.14-3.53,0-.38.06-.69.07-.92a1.05,1.05,0,0,1,.05-.31s0,.1,0,.31,0,.54,0,.92c0,.81-.06,2,0,3.53a95.72,95.72,0,0,0,1.06,12.92c.73,5.43,1.95,11.88,2.34,19.15.22,3.63.08,7.46.1,11.39s.33,8.06,1.91,11.9,4.51,6.8,6.79,10a18.16,18.16,0,0,1,2.7,5.2c.57,1.85.8,3.7,1.24,5.44a8.81,8.81,0,0,0,2.36,4.51,6.17,6.17,0,0,0,4.46,1.5,8.34,8.34,0,0,0,4.27-1.4,9,9,0,0,0,2.78-3.11,14.76,14.76,0,0,0,1.68-7.05,29.46,29.46,0,0,0-.6-5.53,14.45,14.45,0,0,1-.13-3.54c0-.4.07-.71.1-.91A1.24,1.24,0,0,1,404,286.55Z" style="fill:#ebebeb"></path><path d="M403.27,285.73l-.15,2a.74.74,0,0,0,.74.8h0a.74.74,0,0,0,.74-.63l.33-2.21Z" style="fill:#ebebeb"></path><path d="M353.36,213.34c4,.15,3.73,3.92,4.16,7.88a86.53,86.53,0,0,1,.26,13.73c-.68,13.55-6.82,26.52-6.82,26.52l38.91,5.82-1.42,15L339.24,277a11.67,11.67,0,0,1-9.92-15c4.4-14.29,11.59-34.91,13.2-38.33C344.7,219,348.12,213.15,353.36,213.34Z" style="fill:#FF725E"></path><path d="M337.39,276.62l.25,0,.74.1,2.85.42c2.49.35,6.12.86,10.67,1.39,9.09,1.07,21.88,2.35,36.56,3.48l-.23.19c.45-4.76.93-9.78,1.42-14.94v0l.19.24-38.9-5.86-.21,0,.06-.2c2.53-7.83,4.47-14.31,5.62-18.86.58-2.28,1-4.07,1.24-5.29l.29-1.4c.06-.31.11-.47.11-.47s0,.17-.06.48-.12.8-.23,1.41c-.22,1.23-.6,3-1.15,5.32-1.09,4.57-3,11.07-5.48,18.92l-.14-.24,38.92,5.78.21,0,0,.21v0c-.5,5.16-1,10.18-1.44,14.95l0,.21-.21,0c-14.69-1.15-27.47-2.48-36.57-3.64-4.54-.56-8.16-1.12-10.65-1.51l-2.84-.5-.74-.14Z" style="fill:#263238"></path><path d="M397.89,265.85l-.37,3.12,11.59.27s0,3.59-1.07,4.66c0,0,1.07,2.16-.12,3.35s-1.92.84-1.92.84.48,2.39-.71,3-16.7-.33-16.7-.33l1-10,3.47-.31C394.14,267.23,396.17,266,397.89,265.85Z" style="fill:#ffbe9d"></path><path d="M359.34,234.21c3.23-1.26-2.92-11.76-1.34-16.85a54.8,54.8,0,0,0,2.26-19c-.29-2.89-1.34-5.73-1-8.62.35-3.44.09-5.7,3.13-7.35s9.62-3.73,9.08-11a29.78,29.78,0,0,0,5.44,8.07c1,1,4.32,1.35,5,.59s-2.05-7.25-2.58-8.15a6.33,6.33,0,0,0-2.31-2c-4.92-2.94-11-4.29-16.48-2.54s-9.88,7.06-9.59,12.78c.16,3,1.5,5.9,1,8.85-.41,2.6-2.17,4.75-3.49,7s-2.22,5.2-.89,7.48c.58,1,1.55,1.78,1.77,2.91s-.4,2.24-.39,3.39c0,1.49,2.59,1.56,2.75,3.05,1.63,15.08,6,17.8,7.61,21.38Z" style="fill:#263238"></path><path d="M371,171.59s0,.11,0,.32a7.36,7.36,0,0,1-.16.91,10.63,10.63,0,0,1-1.34,3.11,11.21,11.21,0,0,1-3.58,3.55,13.11,13.11,0,0,1-2.71,1.23,7.82,7.82,0,0,0-2.69,1.42c-1.54,1.41-2.3,3.46-3.76,4.78a8,8,0,0,1-4.59,2.05,7.67,7.67,0,0,1-3.37-.38,6,6,0,0,1-.84-.38c-.19-.11-.28-.17-.27-.19s.42.16,1.17.38a8.1,8.1,0,0,0,3.27.2,7.71,7.71,0,0,0,4.3-2c1.35-1.23,2.07-3.27,3.75-4.81a8,8,0,0,1,2.85-1.51,14,14,0,0,0,2.65-1.17,11.31,11.31,0,0,0,3.51-3.34A14.68,14.68,0,0,0,371,171.59Z" style="fill:#455a64"></path><path d="M344.73,182.63a3.25,3.25,0,0,0,.5,1.14,3.85,3.85,0,0,0,3,1.28,5.93,5.93,0,0,0,4.44-2.05,25.09,25.09,0,0,0,1.72-2.52,6.4,6.4,0,0,1,2.41-2.41,7.37,7.37,0,0,1,3.35-.53,13.34,13.34,0,0,0,3-.22,11.86,11.86,0,0,0,4.66-2,15.26,15.26,0,0,0,3.27-3.44s0,.11-.13.31a6.47,6.47,0,0,1-.48.84,11.14,11.14,0,0,1-2.44,2.58,11.74,11.74,0,0,1-4.78,2.23,13.85,13.85,0,0,1-3.12.26,6.9,6.9,0,0,0-3.12.49,6.06,6.06,0,0,0-2.22,2.22,23.73,23.73,0,0,1-1.78,2.56,6.27,6.27,0,0,1-4.81,2.1,4,4,0,0,1-3.17-1.53,2.09,2.09,0,0,1-.35-.92A.79.79,0,0,1,344.73,182.63Z" style="fill:#455a64"></path></g></svg>