<svg xmlns="http://www.w3.org/2000/svg" width="450" height="450" viewBox="0 0 450 450">
  <g id="Playful_cat-pana" data-name="Playful cat-pana" transform="translate(-28.628 -30.89)">
    <rect id="Rectangle_1" data-name="Rectangle 1" width="450" height="450" transform="translate(28.628 30.89)" fill="#e6988a"/>
    <g id="freepik--Carpet--inject-159">
      <ellipse id="Ellipse_1" data-name="Ellipse 1" cx="178.04" cy="75.91" rx="178.04" ry="75.91" transform="translate(75.52 295.2)" fill="#f5f5f5"/>
      <path id="Path_45" data-name="Path 45" d="M207.2,366.76c-4.74.82-9.64,1.7-13.63,4.39s-6.83,7.71-5.47,12.32c1.66,5.63,8.25,7.93,14,9.22a262.33,262.33,0,0,0,113.28.27c4.55-1,10-3.09,10.53-7.73.62-5.37-5.8-8.52-11.05-9.8a209.1,209.1,0,0,0-56.17-5.85" fill="#e0e0e0"/>
      <path id="Path_46" data-name="Path 46" d="M425.87,351.92c.08,0,.31.27.68.93a16.1,16.1,0,0,1,1.26,3.12,35.82,35.82,0,0,1,1,12.83c-.07,1.41-.35,2.87-.55,4.42a28.59,28.59,0,0,1-1.12,4.78,53.6,53.6,0,0,1-1.71,5.1l-1.16,2.61c-.38.89-.91,1.74-1.37,2.63a41.869,41.869,0,0,1-8,10.17,108.472,108.472,0,0,1-11.05,9A127,127,0,0,1,375,422.68a331.216,331.216,0,0,1-35.37,11.4,333.547,333.547,0,0,1-40.29,8l-10.72,1.24-2.7.31c-.91.1-1.82.14-2.73.21l-5.49.38c-7.34.65-14.82.67-22.37.86A336.351,336.351,0,0,1,171,434.44c-3.17-.84-6.31-1.62-9.38-2.49l-9-2.82-4.4-1.38c-1.46-.44-2.87-1-4.29-1.52l-8.33-3.06c-10.9-4-20.92-8.64-29.24-14.3a63.149,63.149,0,0,1-18.92-19.3,51.439,51.439,0,0,1-7.08-19.13,38.37,38.37,0,0,1,.14-12.85,19.643,19.643,0,0,1,.83-3.23c.24-.72.41-1.07.49-1s.1.41,0,1.15-.25,1.82-.31,3.25a44.57,44.57,0,0,0,.81,12.37A51.84,51.84,0,0,0,89.86,388a61.3,61.3,0,0,0,18.5,17.79c8.08,5.23,17.86,9.52,28.71,13.33l8.27,2.89c1.41.47,2.8,1,4.25,1.44l4.37,1.3,8.91,2.68c3,.82,6.15,1.55,9.27,2.35a345.179,345.179,0,0,0,83.18,10.09c7.45-.19,14.81-.2,22-.82l5.41-.36c.9-.07,1.79-.1,2.68-.2l2.67-.29,10.6-1.2a343.118,343.118,0,0,0,39.76-7.6,346.573,346.573,0,0,0,35-10.78,127.2,127.2,0,0,0,28.25-14.16,109.618,109.618,0,0,0,10.92-8.43,39.64,39.64,0,0,0,7.71-9.18c.46-.83,1-1.6,1.38-2.42l1.19-2.42a49.423,49.423,0,0,0,1.81-4.76c.56-1.54.89-3.07,1.28-4.51a25.373,25.373,0,0,0,.75-4.19,40.53,40.53,0,0,0,0-12.37,28.094,28.094,0,0,0-.74-3.15C425.85,352.35,425.79,352,425.87,351.92Z" fill="#e0e0e0"/>
      <path id="Path_47" data-name="Path 47" d="M405.81,366.63a4.9,4.9,0,0,1-.38-1.78,13.419,13.419,0,0,0-.4-2.17,20,20,0,0,0-.82-2.91l-.62-1.7c-.22-.6-.57-1.19-.87-1.82a34.24,34.24,0,0,0-2.33-4,50.511,50.511,0,0,0-7.81-8.49c-6.59-5.73-16-11.19-27.49-16a225.429,225.429,0,0,0-40.72-11.89,345.886,345.886,0,0,0-51.16-6.09,391.432,391.432,0,0,0-59.11,1.6c-10.36,1.09-20.92,2.65-31.59,4.82a243.228,243.228,0,0,0-32,8.73c-10.55,3.83-21.14,8.44-30.5,15a53.461,53.461,0,0,0-12.35,11.54l-1.23,1.69-1.1,1.84c-.17.3-.36.59-.52.9l-.43.93c-.27.62-.59,1.23-.83,1.87a21.28,21.28,0,0,0,0,15.82c.23.63.56,1.24.83,1.87l.43.93c.16.31.35.6.52.9l1.06,1.78,1.23,1.69A53.249,53.249,0,0,0,120,393.25c9.37,6.58,20,11.19,30.51,15a242.93,242.93,0,0,0,32,8.73c10.66,2.17,21.23,3.73,31.59,4.82a391.56,391.56,0,0,0,59.12,1.6,345.914,345.914,0,0,0,51.16-6.09,225.668,225.668,0,0,0,40.72-11.89c11.52-4.78,20.9-10.23,27.48-16a50.09,50.09,0,0,0,7.81-8.49,34.238,34.238,0,0,0,2.33-4c.3-.63.65-1.22.87-1.82l.62-1.7a20,20,0,0,0,.82-2.91,13.518,13.518,0,0,0,.4-2.16c.16-1.18.29-1.79.38-1.79s.14.61.15,1.83a11.15,11.15,0,0,1-.15,2.25,18.276,18.276,0,0,1-.59,3.08c-.17.57-.35,1.18-.53,1.82a18.994,18.994,0,0,1-.79,1.95,32.634,32.634,0,0,1-2.22,4.28,49.24,49.24,0,0,1-7.74,9.15c-6.61,6.16-16.08,12-27.71,17.13a220.068,220.068,0,0,1-41.1,12.81,339.6,339.6,0,0,1-51.69,6.8,387,387,0,0,1-59.83-1.13,320.39,320.39,0,0,1-32.09-4.73A243.688,243.688,0,0,1,148.76,413c-10.86-3.91-21.8-8.61-31.79-15.59a58.37,58.37,0,0,1-13.53-12.68L102,382.87l-1.24-2.08c-.2-.35-.42-.69-.6-1.05l-.52-1.11c-.33-.75-.71-1.47-1-2.24a26.55,26.55,0,0,1,0-19.55c.29-.76.66-1.49,1-2.24l.52-1.11c.19-.36.41-.7.61-1.05l1.24-2.08,1.41-1.93A58.13,58.13,0,0,1,117,335.76c10-7,20.92-11.67,31.78-15.59a245.122,245.122,0,0,1,32.76-8.78c10.86-2.16,21.58-3.69,32.08-4.73a387,387,0,0,1,59.83-1.13,339.649,339.649,0,0,1,51.68,6.8,220.182,220.182,0,0,1,41.11,12.81c11.63,5.12,21.1,11,27.7,17.13a48.943,48.943,0,0,1,7.75,9.15,32.64,32.64,0,0,1,2.22,4.28c.28.68.59,1.31.79,1.95s.36,1.25.53,1.82a18.27,18.27,0,0,1,.59,3.08,11.192,11.192,0,0,1,.15,2.25Q405.95,366.63,405.81,366.63Z" fill="#ebebeb"/>
      <path id="Path_48" data-name="Path 48" d="M387.91,365.1c-.09,0-.22-.51-.38-1.48a4.465,4.465,0,0,0-.13-.82c-.06-.3-.18-.61-.28-1s-.21-.73-.32-1.13a12.279,12.279,0,0,0-.52-1.24,22,22,0,0,0-1.47-2.81c-.3-.5-.7-1-1.07-1.5-.18-.26-.38-.52-.57-.79l-.68-.77a36.219,36.219,0,0,0-3.15-3.2l-1.93-1.59c-.65-.55-1.41-1-2.13-1.57a76.192,76.192,0,0,0-10.52-6.09,124.617,124.617,0,0,0-13.46-5.43,216.681,216.681,0,0,0-34.49-8.44,336.483,336.483,0,0,0-42.9-4.28,384.54,384.54,0,0,0-49.48,1.21c-8.67.77-17.53,1.91-26.5,3.48A232.351,232.351,0,0,0,170.86,334a123.671,123.671,0,0,0-26.27,10.88,49.8,49.8,0,0,0-11.18,8.56c-.4.42-.74.87-1.11,1.3a11,11,0,0,0-1,1.35l-.94,1.39-.76,1.47a13.32,13.32,0,0,0,0,12.32l.77,1.47.94,1.39a11,11,0,0,0,1,1.35c.38.43.72.89,1.11,1.31a50.25,50.25,0,0,0,11.18,8.56,124,124,0,0,0,26.28,10.88,232.924,232.924,0,0,0,27.07,6.3c9,1.57,17.83,2.71,26.51,3.48a384.556,384.556,0,0,0,49.48,1.21,336.619,336.619,0,0,0,42.91-4.28,216.265,216.265,0,0,0,34.48-8.44,126,126,0,0,0,13.44-5.5,75,75,0,0,0,10.51-6c.73-.54,1.48-1,2.13-1.58l1.93-1.58a37.638,37.638,0,0,0,3.15-3.2l.68-.77.58-.79c.36-.52.76-1,1.06-1.5a20.774,20.774,0,0,0,1.47-2.81c.18-.44.36-.85.52-1.24l.32-1.13c.1-.35.19-.67.28-1a6.194,6.194,0,0,0,.13-.82c.16-1,.29-1.48.38-1.48s.14.51.15,1.54v.86l-.17,1c-.06.38-.13.78-.2,1.22a10.447,10.447,0,0,1-.43,1.35,18.67,18.67,0,0,1-1.33,3.09c-.28.56-.66,1.08-1,1.66l-.56.88-.67.85a37.631,37.631,0,0,1-3.13,3.53l-1.93,1.75c-.66.61-1.41,1.13-2.15,1.73a72.9,72.9,0,0,1-10.6,6.67,120.127,120.127,0,0,1-13.6,6,209.594,209.594,0,0,1-34.82,9.33,328.9,328.9,0,0,1-43.35,5,376.757,376.757,0,0,1-50.09-.75c-8.8-.72-17.8-1.81-26.94-3.36a234.7,234.7,0,0,1-27.69-6.31A127.683,127.683,0,0,1,142,389.8a54.781,54.781,0,0,1-12.38-9.5c-.47-.49-.89-1-1.33-1.55a15.608,15.608,0,0,1-1.25-1.63l-1.16-1.73-1-1.88a18.5,18.5,0,0,1,0-16.85l1-1.87,1.17-1.73a14.35,14.35,0,0,1,1.25-1.63c.44-.51.86-1.06,1.32-1.55A55.17,55.17,0,0,1,142,340.39a127.13,127.13,0,0,1,27.4-11.29,232.58,232.58,0,0,1,27.68-6.31c9.14-1.55,18.14-2.64,26.94-3.36a376.618,376.618,0,0,1,50.08-.75,328.7,328.7,0,0,1,43.35,5A209.721,209.721,0,0,1,352.28,333a122.818,122.818,0,0,1,13.6,5.95,73.453,73.453,0,0,1,10.6,6.68c.73.59,1.49,1.12,2.14,1.73l1.93,1.75a36.423,36.423,0,0,1,3.14,3.53l.66.85.57.87c.35.58.73,1.11,1,1.66a20,20,0,0,1,1.33,3.1c.15.48.3.93.43,1.35a8.143,8.143,0,0,1,.2,1.22l.17,1v.86C388.05,364.59,388,365.1,387.91,365.1Z" fill="#ebebeb"/>
    </g>
    <g id="freepik--Cat--inject-159">
      <path id="Path_49" data-name="Path 49" d="M284.64,326.38s10.53-11.82,21-9.65,12.3,4,12.3,4S334,317,334.18,319.06s-5,12.52-5,12.52a19.64,19.64,0,0,1,.53,18s12.46,11.61,6.9,14.57-17.43-.92-17.43-.92-24.49,23.66-46,28.13-47.65-6.77-56.64-15.91c-9.52-9.67-17.55-35.73-15.67-37.06,2.74-1.92-1.93-16.08,16-29S233.22,289,233.22,289l7-2.37s-7.19,22.29,3.22,36.59S272.32,344.4,284.64,326.38Z" fill="#ff725e"/>
      <g id="Group_1" data-name="Group 1" opacity="0.2">
        <path id="Path_50" data-name="Path 50" d="M305.49,316.49a10.51,10.51,0,0,0-5,3.87,7,7,0,0,0-.86,6.1,5.28,5.28,0,0,0,4.86,3.5c2.52-.07,5-2.18,7.32-1.1,1.41.67,2.06,2.31,3.25,3.32a4.54,4.54,0,0,0,6.63-1.21,5.53,5.53,0,0,0,0-4.83,11.34,11.34,0,0,0-3.12-3.87,23.25,23.25,0,0,0-13.54-5.49" fill="#fff"/>
      </g>
      <path id="Path_51" data-name="Path 51" d="M204.3,335.69c-1.68-2.67-9-1-11.63.7s-4.33,4.53-6,7.19c-2.46,3.85-5.32,7.58-9.16,10.07s-8.8,3.6-13.07,2-7.2-5.82-9.89-9.65-5.84-7.83-10.37-9c-6.21-1.62-12.88,3.28-14.5,9.49s1,12.95,5.38,17.64c7.21,7.73,18.89,10.5,29.18,8s19.07-9.66,24.68-18.62c2.12-3.39,3.88-7.1,6.78-9.85s7.41-4.36,11-2.52" fill="#ff725e"/>
      <path id="Path_52" data-name="Path 52" d="M296.75,328.66a6,6,0,0,1-1.43,4.19c.38-.62-.24-1.36-.8-1.82s-1.19-1.17-.84-1.8c.54-1,2.34,0,3.11-.81" fill="#263238"/>
      <path id="Path_53" data-name="Path 53" d="M294.5,323.33a5.072,5.072,0,0,1-1.13.83,4.52,4.52,0,0,0-2,2.39,2.39,2.39,0,0,0,1.05,2.63c.7.42,1.26.38,1.26.48s-.57.26-1.45-.12a2.61,2.61,0,0,1-1.19-1.13,2.74,2.74,0,0,1-.23-2,4.4,4.4,0,0,1,2.34-2.59,3.24,3.24,0,0,1,1.35-.49Z" fill="#263238"/>
      <path id="Path_54" data-name="Path 54" d="M302.17,338.16a1.17,1.17,0,1,1-.77.32" fill="#263238"/>
      <path id="Path_55" data-name="Path 55" d="M303.2,322.55a1.17,1.17,0,1,1-.77.32" fill="#263238"/>
      <g id="back-leg-inner" transform="translate(-89.335 67.102) rotate(-19)">
        <path id="Path_61" data-name="Path 61" d="M211.07,334a15.93,15.93,0,0,0,6.32-16.22,3.74,3.74,0,0,1,0-2.85c.82-1.29,2.7-.63,4.2-.41,8.37,1.2,23.64.48,23.64.48,5.14-.48,13.14-1.32,13.14-1.32-3.85,6.45-13,11.3-19.95,11.19a35.809,35.809,0,0,1,7.11,8.32A28.07,28.07,0,0,1,249.77,351a21.41,21.41,0,0,1-9.32,15.44c-5.23,3.34-12.32,3.82-17.69.7" fill="#ff725e"/>
        <path id="Path_62" data-name="Path 62" d="M229.82,369.3a24.5,24.5,0,0,0,4.39-.6,19.67,19.67,0,0,0,10.06-6.57,20.91,20.91,0,0,0,4.94-12.1A25.68,25.68,0,0,0,249,345a28.731,28.731,0,0,0-1.19-5.25,31.169,31.169,0,0,0-2.17-5.22,30.449,30.449,0,0,0-7.39-9.35l-.54-.46h.71a26.86,26.86,0,0,0,13.31-4.09,19.05,19.05,0,0,0,6.39-7l.29.41a216.4,216.4,0,0,1-41.64.53l.21-.27a19.8,19.8,0,0,1,.76,8.93,20.409,20.409,0,0,1-2,6.47,19.846,19.846,0,0,1-2.35,3.58c-.32.37-.58.64-.75.82l-.28.27a2.5,2.5,0,0,1,.23-.31c.16-.19.41-.47.71-.85a21.931,21.931,0,0,0,2.24-3.61,20.48,20.48,0,0,0,1.89-6.41,19.68,19.68,0,0,0-.83-8.76l-.1-.29h.31a224.52,224.52,0,0,0,41.54-.68l.55-.07-.26.48a19.63,19.63,0,0,1-6.58,7.17,27.29,27.29,0,0,1-13.6,4.18l.16-.5a32.44,32.44,0,0,1,9.69,14.84,28.812,28.812,0,0,1,1.19,5.34,25.9,25.9,0,0,1,.17,5.18,21,21,0,0,1-.91,4.78,21.72,21.72,0,0,1-4.21,7.53,19.53,19.53,0,0,1-10.3,6.52c-.35.08-.68.17-1,.23l-.9.1-.76.1H230.1Z" fill="#263238"/>
        <path id="Path_63" data-name="Path 63" d="M248.58,319.24a13.2,13.2,0,0,0,3.5-1.83c1.69-1.41,2.22-3.21,2.39-3.15s0,.49-.25,1.2a6.43,6.43,0,0,1-1.77,2.39,6.33,6.33,0,0,1-2.64,1.34C249.06,319.36,248.58,319.31,248.58,319.24Z" fill="#263238"/>
      </g>
      <g id="front-leg-inner" transform="translate(170.866 -102.129) rotate(24)">
        <path id="Path_56" data-name="Path 56" d="M288.1,338.75a36.34,36.34,0,0,0-8.79-23c-1.8-2.07-4-4-6.65-4.61s-5.91.58-6.83,3.17c-.85,2.43.5,5,1.59,7.35a40.85,40.85,0,0,1,2.88,25.93" fill="#ff725e"/>
        <path id="Path_57" data-name="Path 57" d="M287.48,338.43a4,4,0,0,1,0-.74c0-.48,0-1.18-.06-2.09a36.15,36.15,0,0,0-1.28-7.55,33.88,33.88,0,0,0-4.84-10.22,17.38,17.38,0,0,0-4.57-4.77,8.531,8.531,0,0,0-3.18-1.3,7,7,0,0,0-3.48.3,5.21,5.21,0,0,0-2.7,2.1,5.55,5.55,0,0,0-.68,3.27,33.142,33.142,0,0,0,1.7,6.46,65.6,65.6,0,0,1,2.8,11.11,25.9,25.9,0,0,1,0,7.73,17.679,17.679,0,0,1-.45,2.06,4,4,0,0,1-.25.69c-.06,0,.26-1,.48-2.78a27.29,27.29,0,0,0-.2-7.64,68.174,68.174,0,0,0-2.94-11l-1-3.15a15.7,15.7,0,0,1-.73-3.43,6,6,0,0,1,.75-3.61,5.77,5.77,0,0,1,3-2.34,7.47,7.47,0,0,1,3.77-.33,9.09,9.09,0,0,1,3.39,1.4,18,18,0,0,1,4.7,4.93,33.6,33.6,0,0,1,5.9,18.07c0,.92,0,1.63,0,2.11A3.252,3.252,0,0,1,287.48,338.43Z" fill="#263238"/>
        <path id="Path_58" data-name="Path 58" d="M270.43,319.57A17.21,17.21,0,0,1,268.6,317a17.58,17.58,0,0,1-1.82-2.61,9.18,9.18,0,0,1,3.65,5.22Z" fill="#263238"/>
        <path id="Path_59" data-name="Path 59" d="M272.86,317.14a12.66,12.66,0,0,1-2-2.41,12.39,12.39,0,0,1-1.83-2.54c.11-.11,1.21.8,2.28,2.19A6.87,6.87,0,0,1,272.86,317.14Z" fill="#263238"/>
        <path id="Path_60" data-name="Path 60" d="M275.76,316.36c-.17,0-.44-1.23-1.15-2.61a25.754,25.754,0,0,1-1.43-2.48,4.45,4.45,0,0,1,1.94,2.22A4.34,4.34,0,0,1,275.76,316.36Z" fill="#263238"/>
      </g>
      <g id="ball" transform="translate(-56.79 495.19) rotate(-90)">
        <circle id="Ellipse_2" data-name="Ellipse 2" cx="36.58" cy="36.58" r="36.58" transform="translate(228.98 263.41)" fill="#455a64"/>
        <path id="Path_74" data-name="Path 74" d="M288.17,273.88a2.611,2.611,0,0,1-.33.63l-1.06,1.74a30.708,30.708,0,0,1-1.78,2.68c-.74,1-1.53,2.22-2.55,3.43l-1.56,1.93c-.54.67-1.17,1.32-1.79,2-1.21,1.41-2.65,2.78-4.14,4.25a87.071,87.071,0,0,1-10.64,8.5,86.125,86.125,0,0,1-11.93,6.56c-1.93.81-3.75,1.62-5.52,2.2-.88.3-1.72.63-2.55.88l-2.38.7a41.356,41.356,0,0,1-4.14,1,31.419,31.419,0,0,1-3.16.62l-2,.31a3.68,3.68,0,0,1-.7.07,3.381,3.381,0,0,1,.69-.19l2-.41c.87-.16,1.93-.38,3.14-.71s2.6-.61,4.1-1.11l2.36-.73c.82-.26,1.65-.6,2.52-.91,1.75-.6,3.55-1.41,5.47-2.23a82.561,82.561,0,0,0,22.41-15c1.49-1.46,2.94-2.81,4.16-4.2.62-.68,1.25-1.32,1.81-2l1.57-1.9c1-1.19,1.85-2.36,2.61-3.36s1.37-1.88,1.85-2.62l1.15-1.67A4.73,4.73,0,0,1,288.17,273.88Z" fill="#263238"/>
        <path id="Path_75" data-name="Path 75" d="M261,301.5a8.608,8.608,0,0,1-.88-1.23c-.27-.41-.59-.92-.92-1.53s-.74-1.29-1.09-2.09a39.69,39.69,0,0,1-2.24-5.73,45.246,45.246,0,0,1-1.52-7.39,44.776,44.776,0,0,1-.16-7.53,40.727,40.727,0,0,1,.91-6.09c.17-.86.42-1.61.61-2.28a16.153,16.153,0,0,1,.56-1.7,7.908,7.908,0,0,1,.58-1.4c.11,0-.66,2.06-1.35,5.47a43,43,0,0,0-.78,6,43.71,43.71,0,0,0,1.66,14.74,43.052,43.052,0,0,0,2.1,5.71C259.85,299.64,261.05,301.44,261,301.5Z" fill="#263238"/>
        <path id="Path_76" data-name="Path 76" d="M270.76,292.92A5,5,0,0,1,270,292a24,24,0,0,1-1.81-2.74,30.524,30.524,0,0,1-2.1-4.41,35,35,0,0,1-1.61-5.76,35.579,35.579,0,0,1-.53-6,30.572,30.572,0,0,1,.41-4.87,23.738,23.738,0,0,1,.73-3.21,4.818,4.818,0,0,1,.41-1.13c.1,0-.38,1.67-.74,4.4a37.3,37.3,0,0,0-.28,4.8A39.192,39.192,0,0,0,265,279a38.1,38.1,0,0,0,1.55,5.69,33.806,33.806,0,0,0,2,4.39C269.81,291.49,270.85,292.85,270.76,292.92Z" fill="#263238"/>
        <path id="Path_77" data-name="Path 77" d="M279.86,284.55a10.58,10.58,0,0,1-1.81-2.45,24.35,24.35,0,0,1-2.73-6.83,24.05,24.05,0,0,1-.55-7.34,10.309,10.309,0,0,1,.55-3c.1,0-.08,1.16-.14,3a27.74,27.74,0,0,0,3.23,13.95C279.28,283.54,279.94,284.49,279.86,284.55Z" fill="#263238"/>
        <path id="Path_78" data-name="Path 78" d="M297.75,281.57a3.233,3.233,0,0,1-.33.67l-1.06,1.9a29.567,29.567,0,0,1-1.78,2.93c-.78,1.11-1.53,2.42-2.55,3.76L290.47,293c-.54.74-1.17,1.47-1.79,2.24-1.22,1.57-2.66,3.12-4.16,4.77a99.317,99.317,0,0,1-10.71,9.75,100.325,100.325,0,0,1-12.11,8c-2,1-3.84,2.05-5.66,2.84-.9.4-1.76.83-2.61,1.18l-2.46,1c-1.55.65-3,1.09-4.27,1.53s-2.37.76-3.29,1l-2.09.55a3.437,3.437,0,0,1-.74.15,4.292,4.292,0,0,1,.71-.26l2.06-.66c.9-.27,2-.61,3.24-1.09s2.7-.92,4.23-1.6l2.43-1c.85-.36,1.7-.79,2.59-1.21,1.8-.8,3.64-1.83,5.6-2.87a104.757,104.757,0,0,0,12-7.94,105.911,105.911,0,0,0,10.68-9.67c1.49-1.63,2.94-3.16,4.17-4.7.62-.77,1.26-1.48,1.81-2.21l1.58-2.1c1-1.32,1.85-2.61,2.61-3.7s1.38-2.07,1.86-2.87.85-1.36,1.15-1.83a4.543,4.543,0,0,1,.45-.73Z" fill="#263238"/>
        <path id="Path_79" data-name="Path 79" d="M302.74,286.53a3.22,3.22,0,0,1-.23.7c-.2.51-.47,1.16-.79,2l-.58,1.43c-.23.51-.51,1.05-.79,1.64-.59,1.17-1.2,2.54-2.06,4L297,298.47c-.45.78-1,1.55-1.52,2.36a58.819,58.819,0,0,1-3.62,5,77.131,77.131,0,0,1-21.25,18.66c-1.91,1.07-3.7,2.13-5.47,2.94-.87.41-1.7.85-2.53,1.2l-2.4,1c-1.51.67-2.95,1.09-4.19,1.53-.62.2-1.19.41-1.73.57l-1.49.39-2.05.53a3.72,3.72,0,0,1-.73.14,3.75,3.75,0,0,1,.7-.26l2-.62,1.47-.44c.53-.18,1.09-.4,1.71-.62,1.22-.46,2.64-.91,4.13-1.6l2.37-1c.82-.36,1.64-.81,2.51-1.23,1.75-.82,3.52-1.89,5.4-3a78.84,78.84,0,0,0,21.11-18.53c1.32-1.73,2.6-3.34,3.64-5,.53-.81,1.08-1.56,1.54-2.33l1.32-2.22c.88-1.39,1.5-2.74,2.12-3.89.29-.58.59-1.12.83-1.62s.43-1,.63-1.4c.36-.79.65-1.43.88-1.92a4.9,4.9,0,0,1,.36-.58Z" fill="#263238"/>
        <path id="Path_80" data-name="Path 80" d="M256.6,293a34.515,34.515,0,0,1-3.39-1.3,70,70,0,0,0-16.9-4.34,33.766,33.766,0,0,1-3.6-.49,3.18,3.18,0,0,1,1-.06c.63,0,1.54.05,2.66.14a54.7,54.7,0,0,1,17,4.37c1,.46,1.85.86,2.41,1.16a3.361,3.361,0,0,1,.82.52Z" fill="#263238"/>
        <path id="Path_81" data-name="Path 81" d="M255.55,280.57c-.08.16-3.34-1.55-7.65-2.86s-8-1.74-8-1.92a8.6,8.6,0,0,1,2.42.13,35.44,35.44,0,0,1,11.11,3.4,8.19,8.19,0,0,1,2.12,1.25Z" fill="#263238"/>
        <path id="Path_82" data-name="Path 82" d="M252.27,304.17a26.524,26.524,0,0,1-3.1-1.12,67.126,67.126,0,0,0-7.58-2.29,65.733,65.733,0,0,0-7.81-1.34,26.859,26.859,0,0,1-3.27-.4,14.7,14.7,0,0,1,3.31,0,48.219,48.219,0,0,1,15.5,3.67,13.742,13.742,0,0,1,2.95,1.48Z" fill="#263238"/>
        <path id="Path_83" data-name="Path 83" d="M211.66,300.13a14.006,14.006,0,0,0,2.17-.41,12.829,12.829,0,0,0,5.16-3,24.4,24.4,0,0,0,5.17-7.23c1.57-3,3-6.49,5.34-9.69a34.691,34.691,0,0,1,7.83-7.85,35.282,35.282,0,0,1,8-4.31,33.371,33.371,0,0,1,5.87-1.65c.71-.13,1.27-.18,1.65-.23a2.048,2.048,0,0,1,.57,0,18,18,0,0,1-2.17.48,37.392,37.392,0,0,0-5.77,1.81,36.558,36.558,0,0,0-7.8,4.36,35.12,35.12,0,0,0-7.67,7.76c-2.3,3.13-3.73,6.6-5.34,9.6a24,24,0,0,1-5.37,7.28,12.46,12.46,0,0,1-5.37,2.89,8.6,8.6,0,0,1-1.65.22,2.171,2.171,0,0,1-.62-.03Z" fill="#455a64"/>
        <path id="Path_84" data-name="Path 84" d="M283.78,293.9c-.08-.09,1.77-1.34,4.15-4a30,30,0,0,0,6.54-12A12.85,12.85,0,0,0,295,274a5.88,5.88,0,0,0-1.05-3.33,4.67,4.67,0,0,0-2.6-1.72,7.08,7.08,0,0,0-2.8-.14,14.77,14.77,0,0,0-3.95,1.32,8.723,8.723,0,0,1-1.43.62,8.318,8.318,0,0,1,1.33-.82,13.539,13.539,0,0,1,4-1.52,7.42,7.42,0,0,1,3,.08,5.1,5.1,0,0,1,2.91,1.86,6.55,6.55,0,0,1,1.19,3.62,13.26,13.26,0,0,1-.49,4,28.76,28.76,0,0,1-6.8,12.16,24.78,24.78,0,0,1-3.16,2.85,6.741,6.741,0,0,1-1.37.92Z" fill="#455a64"/>
      </g>
      <g id="front-leg" transform="translate(201.732 -94.3) rotate(30)">
        <path id="Path_56-2" data-name="Path 56" d="M288.1,338.75a36.34,36.34,0,0,0-8.79-23c-1.8-2.07-4-4-6.65-4.61s-5.91.58-6.83,3.17c-.85,2.43.5,5,1.59,7.35a40.85,40.85,0,0,1,2.88,25.93" fill="#ff725e"/>
        <path id="Path_57-2" data-name="Path 57" d="M287.48,338.43a4,4,0,0,1,0-.74c0-.48,0-1.18-.06-2.09a36.15,36.15,0,0,0-1.28-7.55,33.88,33.88,0,0,0-4.84-10.22,17.38,17.38,0,0,0-4.57-4.77,8.531,8.531,0,0,0-3.18-1.3,7,7,0,0,0-3.48.3,5.21,5.21,0,0,0-2.7,2.1,5.55,5.55,0,0,0-.68,3.27,33.142,33.142,0,0,0,1.7,6.46,65.6,65.6,0,0,1,2.8,11.11,25.9,25.9,0,0,1,0,7.73,17.679,17.679,0,0,1-.45,2.06,4,4,0,0,1-.25.69c-.06,0,.26-1,.48-2.78a27.29,27.29,0,0,0-.2-7.64,68.174,68.174,0,0,0-2.94-11l-1-3.15a15.7,15.7,0,0,1-.73-3.43,6,6,0,0,1,.75-3.61,5.77,5.77,0,0,1,3-2.34,7.47,7.47,0,0,1,3.77-.33,9.09,9.09,0,0,1,3.39,1.4,18,18,0,0,1,4.7,4.93,33.6,33.6,0,0,1,5.9,18.07c0,.92,0,1.63,0,2.11A3.252,3.252,0,0,1,287.48,338.43Z" fill="#263238"/>
        <path id="Path_58-2" data-name="Path 58" d="M270.43,319.57A17.21,17.21,0,0,1,268.6,317a17.58,17.58,0,0,1-1.82-2.61,9.18,9.18,0,0,1,3.65,5.22Z" fill="#263238"/>
        <path id="Path_59-2" data-name="Path 59" d="M272.86,317.14a12.66,12.66,0,0,1-2-2.41,12.39,12.39,0,0,1-1.83-2.54c.11-.11,1.21.8,2.28,2.19A6.87,6.87,0,0,1,272.86,317.14Z" fill="#263238"/>
        <path id="Path_60-2" data-name="Path 60" d="M275.76,316.36c-.17,0-.44-1.23-1.15-2.61a25.754,25.754,0,0,1-1.43-2.48,4.45,4.45,0,0,1,1.94,2.22A4.34,4.34,0,0,1,275.76,316.36Z" fill="#263238"/>
      </g>
      <g id="back-leg" transform="matrix(1, 0.017, -0.017, 1, 5.981, -6.072)">
        <path id="Path_61-2" data-name="Path 61" d="M211.07,334a15.93,15.93,0,0,0,6.32-16.22,3.74,3.74,0,0,1,0-2.85c.82-1.29,2.7-.63,4.2-.41,8.37,1.2,23.64.48,23.64.48,5.14-.48,13.14-1.32,13.14-1.32-3.85,6.45-13,11.3-19.95,11.19a35.809,35.809,0,0,1,7.11,8.32A28.07,28.07,0,0,1,249.77,351a21.41,21.41,0,0,1-9.32,15.44c-5.23,3.34-12.32,3.82-17.69.7" fill="#ff725e"/>
        <path id="Path_62-2" data-name="Path 62" d="M229.82,369.3a24.5,24.5,0,0,0,4.39-.6,19.67,19.67,0,0,0,10.06-6.57,20.91,20.91,0,0,0,4.94-12.1A25.68,25.68,0,0,0,249,345a28.731,28.731,0,0,0-1.19-5.25,31.169,31.169,0,0,0-2.17-5.22,30.449,30.449,0,0,0-7.39-9.35l-.54-.46h.71a26.86,26.86,0,0,0,13.31-4.09,19.05,19.05,0,0,0,6.39-7l.29.41a216.4,216.4,0,0,1-41.64.53l.21-.27a19.8,19.8,0,0,1,.76,8.93,20.409,20.409,0,0,1-2,6.47,19.846,19.846,0,0,1-2.35,3.58c-.32.37-.58.64-.75.82l-.28.27a2.5,2.5,0,0,1,.23-.31c.16-.19.41-.47.71-.85a21.931,21.931,0,0,0,2.24-3.61,20.48,20.48,0,0,0,1.89-6.41,19.68,19.68,0,0,0-.83-8.76l-.1-.29h.31a224.52,224.52,0,0,0,41.54-.68l.55-.07-.26.48a19.63,19.63,0,0,1-6.58,7.17,27.29,27.29,0,0,1-13.6,4.18l.16-.5a32.44,32.44,0,0,1,9.69,14.84,28.812,28.812,0,0,1,1.19,5.34,25.9,25.9,0,0,1,.17,5.18,21,21,0,0,1-.91,4.78,21.72,21.72,0,0,1-4.21,7.53,19.53,19.53,0,0,1-10.3,6.52c-.35.08-.68.17-1,.23l-.9.1-.76.1H230.1Z" fill="#263238"/>
        <path id="Path_63-2" data-name="Path 63" d="M248.58,319.24a13.2,13.2,0,0,0,3.5-1.83c1.69-1.41,2.22-3.21,2.39-3.15s0,.49-.25,1.2a6.43,6.43,0,0,1-1.77,2.39,6.33,6.33,0,0,1-2.64,1.34C249.06,319.36,248.58,319.31,248.58,319.24Z" fill="#263238"/>
      </g>
      <path id="Path_64" data-name="Path 64" d="M291.61,335.69c0,.07-.62,0-1.24-.64a2.75,2.75,0,0,1-.65-1.44,3.36,3.36,0,0,1,.33-1.89,4,4,0,0,1,2.63-2.11,2.7,2.7,0,0,1,1.39,0,7.563,7.563,0,0,0-1.27.37,4,4,0,0,0-2.23,2,2.77,2.77,0,0,0,.12,2.82C291.13,335.44,291.64,335.61,291.61,335.69Z" fill="#263238"/>
      <g id="Group_2" data-name="Group 2" opacity="0.3">
        <path id="Path_65" data-name="Path 65" d="M331.26,318.38c1.16.05-2.67,3.95-4.28,5.71a3.67,3.67,0,0,1-2.28,1.44,3.47,3.47,0,0,1-2.05-.77,17.748,17.748,0,0,1-4.07-3.81l-.26-.31S328.84,318.27,331.26,318.38Z"/>
      </g>
      <g id="Group_3" data-name="Group 3" opacity="0.3">
        <path id="Path_66" data-name="Path 66" d="M326.19,352.89a16.14,16.14,0,0,0-6,8.31,19.42,19.42,0,0,0,11.37,1.8,2.82,2.82,0,0,0,2.07-1c.58-.88.1-2.07-.49-2.94-1.76-2.59-4.38-4.43-6.95-6.21"/>
      </g>
      <path id="Path_67" data-name="Path 67" d="M289.25,361.58c-.09,0,.52-1.53,1.31-4a57.29,57.29,0,0,0,2.65-20c-.11-2.59-.31-4.19-.22-4.21a4.41,4.41,0,0,1,.26,1.11c.13.72.26,1.77.37,3.07a48.72,48.72,0,0,1-2.68,20.13,30.64,30.64,0,0,1-1.16,2.87A4.131,4.131,0,0,1,289.25,361.58Z" fill="#263238"/>
      <path id="Path_68" data-name="Path 68" d="M296.24,358.25c-.09,0,.16-1.36.41-3.55a50.56,50.56,0,0,0-1-17.05c-.49-2.15-.9-3.46-.81-3.49a3.22,3.22,0,0,1,.4.88c.23.58.51,1.44.81,2.51a41.421,41.421,0,0,1,1,17.21,24.527,24.527,0,0,1-.51,2.57,2.882,2.882,0,0,1-.3.92Z" fill="#263238"/>
      <path id="Path_69" data-name="Path 69" d="M293.35,321a6.46,6.46,0,0,1,.58,3.11,6.56,6.56,0,0,1-.41,3.13,13.859,13.859,0,0,1-.16-3.11,13.423,13.423,0,0,1-.01-3.13Z" fill="#263238"/>
      <g id="Group_4" data-name="Group 4" opacity="0.2">
        <path id="Path_70" data-name="Path 70" d="M303.39,376.29c-.45-2.72-4.45-7.26-7.21-7.18s-5.29,1.42-7.77,2.63-5.19,2.33-7.92,1.94c-3.51-.51-6.24-3.39-9.67-4.3a11,11,0,0,0-8.63,1.62,18.279,18.279,0,0,0-5.9,6.74c-1.47,2.69-2.5,5.64-4.39,8.05s-5,4.68-8,3.89c0,0,19.2,6.24,34.68.56C290,386.08,303.39,376.29,303.39,376.29Z" fill="#fff"/>
      </g>
      <g id="Group_5" data-name="Group 5" opacity="0.2">
        <path id="Path_71" data-name="Path 71" d="M285.49,326.58a7.1,7.1,0,0,0-7.7,9.4,13.3,13.3,0,0,1,.92,2.61c.24,1.74-.83,3.37-1.07,5.1a5,5,0,0,0,1.44,4.28,4.08,4.08,0,0,0,4.35.78c1.75-.79,2.6-2.78,3.09-4.63a27.71,27.71,0,0,0-1.16-17.48" fill="#fff"/>
      </g>
      <g id="Group_6" data-name="Group 6" opacity="0.2">
        <path id="Path_72" data-name="Path 72" d="M211,369.24a24.76,24.76,0,0,0,20.7-5.29c2.92-2.48,5.31-5.83,5.77-9.64s-1.42-8-5-9.49c-4.75-2-10.31,1.37-15.26,0a18.21,18.21,0,0,1-5.57-3.25,13,13,0,0,0-5.76-2.81c-2.14-.27-4.6.72-5.31,2.77v1.74C202.75,350.41,206.66,359.57,211,369.24Z" fill="#fff"/>
      </g>
      <g id="Group_7" data-name="Group 7" opacity="0.2">
        <path id="Path_73" data-name="Path 73" d="M151,372.44a8.24,8.24,0,0,0,9.73-8.72,6.267,6.267,0,0,0-.32-1.46c-1.29-3.51-4.38-6.49-8.09-6.92-2.2-.26-4.55.36-6.6-.48s-3.41-3.16-4.17-5.37-1.25-4.58-2.62-6.48-4-3.15-6.08-2c0,0-6.74,6-2.38,15.95C134,364.93,140.73,370.69,151,372.44Z" fill="#fff"/>
      </g>
    </g>
  </g>
</svg>
