<svg xmlns="http://www.w3.org/2000/svg" width="563.42" height="372.785" viewBox="0 0 563.42 372.785">
  <g id="Group_16" data-name="Group 16" transform="translate(-18.98 -90)">
    <g id="meet-background" transform="translate(-14.49 23.99)">
      <g id="freepik--background-complete--inject-168" transform="translate(0 55)">
        <rect id="Rectangle_2" data-name="Rectangle 2" width="41.962" height="0.286" transform="translate(416.684 383.36)" fill="#ebebeb"/>
        <rect id="Rectangle_3" data-name="Rectangle 3" width="52.124" height="0.286" transform="translate(506.513 383.509)" fill="#ebebeb"/>
        <path id="Path_3" data-name="Path 3" d="M383.379,223.534c0,7.739-5.967,10.78-13.316,10.78s-13.3-3.041-13.3-10.78,5.955-14,13.3-14S383.379,215.783,383.379,223.534Z" transform="translate(95.248 -32.871)" fill="#e0e0e0"/>
        <path id="Path_4" data-name="Path 4" d="M356.8,207.61s-.608,6.939,3.421,10.46l7.741-4.973C366.287,209.782,356.8,207.61,356.8,207.61Z" transform="translate(95.249 -33.146)" fill="#e0e0e0"/>
        <path id="Path_5" data-name="Path 5" d="M383.029,208.43s-8.755.149-12.758,4.116L377.276,219C381.331,217.164,383.029,208.43,383.029,208.43Z" transform="translate(98.855 -33.029)" fill="#e0e0e0"/>
        <path id="Path_6" data-name="Path 6" d="M360.2,226.734c-.519,10.677,1.723,41.418,4.789,45.8-3.7-.949-5.917,1.52-4.282,4.047H416.83s6.753-32.433-27.874-35.108c-6.538-6.345-9.414-17.079-9.414-17.079Z" transform="translate(96.145 -30.743)" fill="#e0e0e0"/>
        <path id="Path_7" data-name="Path 7" d="M403.166,269.685a7.873,7.873,0,0,0,5.068.629,16,16,0,0,0,5.41-1.875,15.2,15.2,0,0,0,7.108-8.231,14.965,14.965,0,0,0-.773-10.529,27.264,27.264,0,0,0-2.787-4.927c-.52-.812-1.191-1.543-1.761-2.286s-1.343-1.635-1.964-2.492a30.789,30.789,0,0,1-3.269-5.5,17.452,17.452,0,0,1-1.558-6.39,11.25,11.25,0,0,1,1.862-6.745,13.337,13.337,0,0,1,5.8-4.744,23.8,23.8,0,0,1,14.646-.869,32.462,32.462,0,0,1,6.753,2.366,41.039,41.039,0,0,1,6,3.608,2.964,2.964,0,0,1,.551,4.453,3.774,3.774,0,0,1-4.935.5,2.576,2.576,0,0,1-.279-.229h0a26.193,26.193,0,0,0-9.718-5.567,17.58,17.58,0,0,0-10.871-.069,8.4,8.4,0,0,0-3.928,2.812,7.436,7.436,0,0,0-1.406,4.458,13.876,13.876,0,0,0,1.013,5.087,27.426,27.426,0,0,0,2.661,4.939c.532.812,1.128,1.566,1.711,2.366s1.267,1.669,1.875,2.572a29.173,29.173,0,0,1,3,5.579,18.066,18.066,0,0,1,.634,12.575,18.269,18.269,0,0,1-8.527,9.969,20.088,20.088,0,0,1-6.614,2.447,14.019,14.019,0,0,1-3.8.171,10.224,10.224,0,0,1-3.877-1.063,1.63,1.63,0,0,1-.69-2.349,2.022,2.022,0,0,1,2.6-.623h.063Z" transform="translate(106.856 -32.094)" fill="#e0e0e0"/>
        <path id="Path_8" data-name="Path 8" d="M226.254,144.045c3.8-13.467,1.824-20.989,1.824-20.989s-2.825-3.155-1.2-6.2a53.21,53.21,0,0,1,6.829,3.681c1.419-1.463,12.67-.64,16.192.377-1.546-1.966-.355-4.7-.355-4.7a15.632,15.632,0,0,1,7.538,6.859c2.749,5.041,2.217,16.348,2.217,16.348s42.051-11.809,45.51,27.631H228.788S223.176,154.906,226.254,144.045Z" transform="translate(60.159 -46.233)" fill="#e0e0e0"/>
        <path id="Path_9" data-name="Path 9" d="M78.972,310.2c2.534-1.143,8.273-2.115,13.265-6.653.456-5.625,8.729-12.392,22.337-11.661,13.937.755,20.183,32.844,8.565,23.253,2.711,7.911,3.522,25.928,27.709,42.836,17.37,12.141,17.459,35.668,3.8,35.668H88.5c-6.056,0,0-10.232,6.943-9.409,6.335-4.093,5.144-29.2,5.144-29.2s-9.5-25.15-3.129-33.793C90.083,324.628,73.308,321.587,78.972,310.2Z" transform="translate(20.778 -21.086)" fill="#e0e0e0"/>
        <path id="Path_10" data-name="Path 10" d="M162.748,346.53c4.827,12.9-1.368,28.751-19.968,25.333l1.368,3.43C164.813,386.153,184.451,361.929,162.748,346.53Z" transform="translate(38.119 -13.253)" fill="#e0e0e0"/>
        <path id="Path_11" data-name="Path 11" d="M209.041,273.876V396.039H55.445V273.876h153.6m2.458-2.206H53V398.256H211.5Z" transform="translate(14.15 -23.973)" fill="#f0f0f0"/>
        <rect id="Rectangle_8" data-name="Rectangle 8" width="2.445" height="126.586" transform="translate(73.536 247.697)" fill="#f0f0f0"/>
        <rect id="Rectangle_9" data-name="Rectangle 9" width="2.445" height="126.586" transform="translate(102.182 247.697)" fill="#f0f0f0"/>
        <rect id="Rectangle_10" data-name="Rectangle 10" width="2.445" height="126.586" transform="translate(130.841 247.697)" fill="#f0f0f0"/>
        <rect id="Rectangle_11" data-name="Rectangle 11" width="2.445" height="126.586" transform="translate(159.5 247.697)" fill="#f0f0f0"/>
        <rect id="Rectangle_12" data-name="Rectangle 12" width="2.445" height="126.586" transform="translate(188.159 247.697)" fill="#f0f0f0"/>
        <rect id="Rectangle_13" data-name="Rectangle 13" width="2.445" height="126.586" transform="translate(216.806 247.697)" fill="#f0f0f0"/>
        <rect id="Rectangle_14" data-name="Rectangle 14" width="23.705" height="20.772" transform="translate(67.935 310.985)" fill="#f0f0f0"/>
        <path id="Path_12" data-name="Path 12" d="M343.5,273.876V396.039H189.9V273.876H343.5m2.445-2.206H187.45V398.256h158.5Z" transform="translate(50.045 -23.973)" fill="#f0f0f0"/>
        <rect id="Rectangle_15" data-name="Rectangle 15" width="2.445" height="126.586" transform="translate(243.881 247.697)" fill="#f0f0f0"/>
        <rect id="Rectangle_16" data-name="Rectangle 16" width="2.445" height="126.586" transform="translate(272.527 247.697)" fill="#f0f0f0"/>
        <rect id="Rectangle_17" data-name="Rectangle 17" width="2.445" height="126.586" transform="translate(301.186 247.697)" fill="#f0f0f0"/>
        <rect id="Rectangle_18" data-name="Rectangle 18" width="2.445" height="126.586" transform="translate(329.846 247.697)" fill="#f0f0f0"/>
        <rect id="Rectangle_19" data-name="Rectangle 19" width="2.445" height="126.586" transform="translate(358.505 247.697)" fill="#f0f0f0"/>
        <rect id="Rectangle_20" data-name="Rectangle 20" width="2.445" height="126.586" transform="translate(387.164 247.697)" fill="#f0f0f0"/>
        <rect id="Rectangle_21" data-name="Rectangle 21" width="23.705" height="20.772" transform="translate(238.281 310.985)" fill="#f0f0f0"/>
        <path id="Path_13" data-name="Path 13" d="M477.954,273.876V396.039h-153.6V273.876h153.6m2.445-2.206H321.9V398.256H480.4Z" transform="translate(85.941 -23.973)" fill="#f0f0f0"/>
        <rect id="Rectangle_22" data-name="Rectangle 22" width="2.445" height="126.586" transform="translate(414.226 247.697)" fill="#f0f0f0"/>
        <rect id="Rectangle_23" data-name="Rectangle 23" width="2.445" height="126.586" transform="translate(442.873 247.697)" fill="#f0f0f0"/>
        <rect id="Rectangle_24" data-name="Rectangle 24" width="2.445" height="126.586" transform="translate(471.532 247.697)" fill="#f0f0f0"/>
        <rect id="Rectangle_25" data-name="Rectangle 25" width="2.445" height="126.586" transform="translate(500.191 247.697)" fill="#f0f0f0"/>
        <rect id="Rectangle_26" data-name="Rectangle 26" width="2.445" height="126.586" transform="translate(528.85 247.697)" fill="#f0f0f0"/>
        <rect id="Rectangle_27" data-name="Rectangle 27" width="2.445" height="126.586" transform="translate(557.509 247.697)" fill="#f0f0f0"/>
        <rect id="Rectangle_28" data-name="Rectangle 28" width="23.705" height="20.772" transform="translate(408.626 310.985)" fill="#f0f0f0"/>
        <path id="Path_14" data-name="Path 14" d="M209.041,163.148V285.31H55.445V163.148h153.6m2.458-2.218H53V287.516H211.5Z" transform="translate(14.15 -39.831)" fill="#f0f0f0"/>
        <rect id="Rectangle_29" data-name="Rectangle 29" width="2.445" height="126.586" transform="translate(73.536 121.099)" fill="#f0f0f0"/>
        <rect id="Rectangle_30" data-name="Rectangle 30" width="2.445" height="126.586" transform="translate(102.182 121.099)" fill="#f0f0f0"/>
        <rect id="Rectangle_31" data-name="Rectangle 31" width="2.445" height="126.586" transform="translate(130.841 121.099)" fill="#f0f0f0"/>
        <rect id="Rectangle_32" data-name="Rectangle 32" width="2.445" height="126.586" transform="translate(159.5 121.099)" fill="#f0f0f0"/>
        <rect id="Rectangle_33" data-name="Rectangle 33" width="2.445" height="126.586" transform="translate(188.159 121.099)" fill="#f0f0f0"/>
        <rect id="Rectangle_34" data-name="Rectangle 34" width="2.445" height="126.586" transform="translate(216.806 121.099)" fill="#f0f0f0"/>
        <rect id="Rectangle_35" data-name="Rectangle 35" width="23.705" height="20.772" transform="translate(67.935 184.398)" fill="#f0f0f0"/>
        <path id="Path_15" data-name="Path 15" d="M343.5,163.148V285.31H189.9V163.148H343.5m2.445-2.218H187.45V287.516h158.5Z" transform="translate(50.045 -39.831)" fill="#f0f0f0"/>
        <rect id="Rectangle_36" data-name="Rectangle 36" width="2.445" height="126.586" transform="translate(243.881 121.099)" fill="#f0f0f0"/>
        <rect id="Rectangle_37" data-name="Rectangle 37" width="2.445" height="126.586" transform="translate(272.527 121.099)" fill="#f0f0f0"/>
        <rect id="Rectangle_38" data-name="Rectangle 38" width="2.445" height="126.586" transform="translate(301.186 121.099)" fill="#f0f0f0"/>
        <rect id="Rectangle_39" data-name="Rectangle 39" width="2.445" height="126.586" transform="translate(329.846 121.099)" fill="#f0f0f0"/>
        <rect id="Rectangle_40" data-name="Rectangle 40" width="2.445" height="126.586" transform="translate(358.505 121.099)" fill="#f0f0f0"/>
        <rect id="Rectangle_41" data-name="Rectangle 41" width="2.445" height="126.586" transform="translate(387.164 121.099)" fill="#f0f0f0"/>
        <rect id="Rectangle_42" data-name="Rectangle 42" width="23.705" height="20.772" transform="translate(238.281 184.398)" fill="#f0f0f0"/>
        <path id="Path_16" data-name="Path 16" d="M477.954,163.148V285.31h-153.6V163.148h153.6m2.445-2.218H321.9V287.516H480.4Z" transform="translate(85.941 -39.831)" fill="#f0f0f0"/>
        <rect id="Rectangle_43" data-name="Rectangle 43" width="2.445" height="126.586" transform="translate(414.226 121.099)" fill="#f0f0f0"/>
        <rect id="Rectangle_44" data-name="Rectangle 44" width="2.445" height="126.586" transform="translate(442.873 121.099)" fill="#f0f0f0"/>
        <rect id="Rectangle_45" data-name="Rectangle 45" width="2.445" height="126.586" transform="translate(471.532 121.099)" fill="#f0f0f0"/>
        <rect id="Rectangle_46" data-name="Rectangle 46" width="2.445" height="126.586" transform="translate(500.191 121.099)" fill="#f0f0f0"/>
        <rect id="Rectangle_47" data-name="Rectangle 47" width="2.445" height="126.586" transform="translate(528.85 121.099)" fill="#f0f0f0"/>
        <rect id="Rectangle_48" data-name="Rectangle 48" width="2.445" height="126.586" transform="translate(557.509 121.099)" fill="#f0f0f0"/>
        <rect id="Rectangle_49" data-name="Rectangle 49" width="23.705" height="20.772" transform="translate(408.626 184.398)" fill="#f0f0f0"/>
        <path id="Path_17" data-name="Path 17" d="M209.041,85.658V169.82H55.445V85.658h153.6M211.5,83.44H53v88.667H211.5Z" transform="translate(14.15 -50.927)" fill="#f0f0f0"/>
        <rect id="Rectangle_50" data-name="Rectangle 50" width="2.445" height="88.609" transform="translate(73.536 32.524)" fill="#f0f0f0"/>
        <rect id="Rectangle_51" data-name="Rectangle 51" width="2.445" height="88.609" transform="translate(102.182 32.524)" fill="#f0f0f0"/>
        <rect id="Rectangle_52" data-name="Rectangle 52" width="2.445" height="88.609" transform="translate(130.841 32.524)" fill="#f0f0f0"/>
        <rect id="Rectangle_53" data-name="Rectangle 53" width="2.445" height="88.609" transform="translate(159.5 32.524)" fill="#f0f0f0"/>
        <rect id="Rectangle_54" data-name="Rectangle 54" width="2.445" height="88.609" transform="translate(188.159 32.524)" fill="#f0f0f0"/>
        <rect id="Rectangle_55" data-name="Rectangle 55" width="2.445" height="88.609" transform="translate(216.806 32.524)" fill="#f0f0f0"/>
        <rect id="Rectangle_56" data-name="Rectangle 56" width="23.705" height="20.772" transform="translate(67.935 57.846)" fill="#f0f0f0"/>
        <path id="Path_18" data-name="Path 18" d="M343.5,85.658V169.82H189.9V85.658H343.5m2.445-2.218H187.45v88.667h158.5V83.44Z" transform="translate(50.045 -50.927)" fill="#f0f0f0"/>
        <rect id="Rectangle_57" data-name="Rectangle 57" width="2.445" height="88.609" transform="translate(243.881 32.524)" fill="#f0f0f0"/>
        <rect id="Rectangle_58" data-name="Rectangle 58" width="2.445" height="88.609" transform="translate(272.527 32.524)" fill="#f0f0f0"/>
        <rect id="Rectangle_59" data-name="Rectangle 59" width="2.445" height="88.609" transform="translate(301.186 32.524)" fill="#f0f0f0"/>
        <rect id="Rectangle_60" data-name="Rectangle 60" width="2.445" height="88.609" transform="translate(329.846 32.524)" fill="#f0f0f0"/>
        <rect id="Rectangle_61" data-name="Rectangle 61" width="2.445" height="88.609" transform="translate(358.505 32.524)" fill="#f0f0f0"/>
        <rect id="Rectangle_62" data-name="Rectangle 62" width="2.445" height="88.609" transform="translate(387.164 32.524)" fill="#f0f0f0"/>
        <rect id="Rectangle_63" data-name="Rectangle 63" width="23.705" height="20.772" transform="translate(238.281 57.846)" fill="#f0f0f0"/>
        <path id="Path_19" data-name="Path 19" d="M477.954,85.658V169.82h-153.6V85.658h153.6M480.4,83.44H321.9v88.667H480.4Z" transform="translate(85.941 -50.927)" fill="#f0f0f0"/>
        <rect id="Rectangle_64" data-name="Rectangle 64" width="2.445" height="88.609" transform="translate(414.226 32.524)" fill="#f0f0f0"/>
        <rect id="Rectangle_65" data-name="Rectangle 65" width="2.445" height="88.609" transform="translate(442.873 32.524)" fill="#f0f0f0"/>
        <rect id="Rectangle_66" data-name="Rectangle 66" width="2.445" height="88.609" transform="translate(471.532 32.524)" fill="#f0f0f0"/>
        <rect id="Rectangle_67" data-name="Rectangle 67" width="2.445" height="88.609" transform="translate(500.191 32.524)" fill="#f0f0f0"/>
        <rect id="Rectangle_68" data-name="Rectangle 68" width="2.445" height="88.609" transform="translate(528.85 32.524)" fill="#f0f0f0"/>
        <rect id="Rectangle_69" data-name="Rectangle 69" width="2.445" height="88.609" transform="translate(557.509 32.524)" fill="#f0f0f0"/>
        <rect id="Rectangle_70" data-name="Rectangle 70" width="23.705" height="20.772" transform="translate(408.626 57.846)" fill="#f0f0f0"/>
      </g>
    </g>
    <g id="meet-foreground" transform="translate(-147.34 -10.337)">
      <g id="freepik--Floor--inject-284" transform="translate(112.98)">
        <path id="Path_112" data-name="Path 112" d="M616.76,465.81c0,.15-126.115.27-281.693.27S53.34,466,53.34,465.81s126.115-.26,281.728-.26S616.76,465.67,616.76,465.81Z" fill="#263238"/>
      </g>
      <g id="freepik--Character--inject-284">
        <path id="Path_113" data-name="Path 113" d="M597.47,460.37l.64-5.38,19.36-1,.34,10.84-1.25.12c-5.52.45-28.14,1.92-31.87.89C580.52,464.66,597.47,460.37,597.47,460.37Z" fill="#ff725e"/>
        <g id="Group_1" data-name="Group 1" opacity="0.4">
          <path id="Path_114" data-name="Path 114" d="M610.53,464.83a7,7,0,0,1,2.44-4.35,6.79,6.79,0,0,1,4.66-1.58l.15,5.61Z"/>
        </g>
        <g id="Group_2" data-name="Group 2" opacity="0.4">
          <path id="Path_115" data-name="Path 115" d="M589.2,462.76s-5.93,1.88-5.16,2.85,23.68.34,33.77-.82v-.44L591,465.3S590.37,462.78,589.2,462.76Z"/>
        </g>
        <path id="Path_116" data-name="Path 116" d="M618.08,464.33h-.35l-1,.09-3.64.26c-3.08.19-7.33.4-12,.53s-9,.16-12,.14l-3.66-.06h-1a1.44,1.44,0,0,1-.34,0h4.99c3.09,0,7.35-.07,12-.2s9-.32,12-.47l3.65-.18h1Z" fill="#263238"/>
        <path id="Path_117" data-name="Path 117" d="M591.06,465.61a8.84,8.84,0,0,0-.73-1.72,8.617,8.617,0,0,0-1.28-1.37,2.74,2.74,0,0,1,1.48,1.23,2.69,2.69,0,0,1,.53,1.86Z" fill="#263238"/>
        <path id="Path_118" data-name="Path 118" d="M596.9,462.45a2.585,2.585,0,0,1-.66-.76,2.23,2.23,0,0,1-.45-.89,2.587,2.587,0,0,1,.66.76,2.231,2.231,0,0,1,.45.89Z" fill="#263238"/>
        <path id="Path_119" data-name="Path 119" d="M598.5,461.54a2.94,2.94,0,0,1-.72-.45c-.35-.3-.61-.59-.56-.64s.36.15.72.45S598.54,461.49,598.5,461.54Z" fill="#263238"/>
        <path id="Path_120" data-name="Path 120" d="M599.47,459.62a2.187,2.187,0,0,1-1,.16,2.341,2.341,0,0,1-1-.08,2.28,2.28,0,0,1,1-.16,2.34,2.34,0,0,1,1,.08Z" fill="#263238"/>
        <path id="Path_121" data-name="Path 121" d="M599.79,458.28a2.12,2.12,0,0,1-1.16.37,2.07,2.07,0,0,1-1.21-.13,6.261,6.261,0,0,1,1.19-.12,5.942,5.942,0,0,1,1.18-.12Z" fill="#263238"/>
        <path id="Path_122" data-name="Path 122" d="M596.17,460.71a3.711,3.711,0,0,1-1.29,0,7.572,7.572,0,0,1-1.38-.27,3.588,3.588,0,0,1-.8-.3.72.72,0,0,1-.33-.39.51.51,0,0,1,.19-.52,2.37,2.37,0,0,1,2.94.61,2.3,2.3,0,0,1,.44.85c.06.22.06.35,0,.35a3.57,3.57,0,0,0-.61-1.09,2.4,2.4,0,0,0-1.12-.68,2.06,2.06,0,0,0-1.54.14c-.2.16-.11.4.12.53a3.83,3.83,0,0,0,.73.29,9.989,9.989,0,0,0,1.34.31C595.68,460.69,596.17,460.67,596.17,460.71Z" fill="#263238"/>
        <path id="Path_123" data-name="Path 123" d="M595.84,460.79a1.29,1.29,0,0,1-.18-.9,2.21,2.21,0,0,1,.33-.95,1.29,1.29,0,0,1,1.06-.68.51.51,0,0,1,.41.58,1.42,1.42,0,0,1-.2.58,4.259,4.259,0,0,1-.59.8c-.4.41-.71.57-.73.54s.26-.24.6-.65a4.7,4.7,0,0,0,.52-.79c.17-.28.28-.77,0-.82s-.64.31-.83.57a2.17,2.17,0,0,0-.35.85,4.451,4.451,0,0,0-.04.87Z" fill="#263238"/>
        <path id="Path_124" data-name="Path 124" d="M617.52,458.85s-.58,0-1.48.09a6.27,6.27,0,0,0-5.14,4.33c-.29.87-.3,1.45-.35,1.44a1.55,1.55,0,0,1,0-.4,6.1,6.1,0,0,1,.19-1.09,6.28,6.28,0,0,1,1.95-3.05,6.19,6.19,0,0,1,3.34-1.4,5,5,0,0,1,1.1,0,1.06,1.06,0,0,1,.39.08Z" fill="#263238"/>
        <path id="Path_125" data-name="Path 125" d="M615.36,453.83a12.47,12.47,0,0,1,.21,2.48,12.656,12.656,0,0,1,0,2.49,12.7,12.7,0,0,1-.21-2.48A12.558,12.558,0,0,1,615.36,453.83Z" fill="#263238"/>
        <path id="Path_126" data-name="Path 126" d="M608,462.94a11.648,11.648,0,0,1-2.92.37,11.8,11.8,0,0,1-2.94-.15c0-.07,1.31,0,2.93-.09a26.566,26.566,0,0,1,2.93-.13Z" fill="#263238"/>
        <path id="Path_127" data-name="Path 127" d="M611.88,462.83a4.842,4.842,0,0,1-.22.58c-.12.3-.2.58-.27.57s-.11-.31,0-.66S611.84,462.78,611.88,462.83Z" fill="#263238"/>
        <path id="Path_128" data-name="Path 128" d="M613.31,460.94c.05.05-.07.26-.27.48s-.41.35-.46.31.08-.26.28-.48S613.26,460.9,613.31,460.94Z" fill="#263238"/>
        <path id="Path_129" data-name="Path 129" d="M615.41,460c0,.07-.28.08-.57.19s-.5.27-.55.23.1-.33.47-.46a.784.784,0,0,1,.65.04Z" fill="#263238"/>
        <path id="Path_130" data-name="Path 130" d="M616.91,459.61c0,.06-.09.16-.25.23s-.32.08-.35,0,.09-.17.26-.24S616.88,459.54,616.91,459.61Z" fill="#263238"/>
        <path id="Path_131" data-name="Path 131" d="M622.44,273.32v12.91l-5.2,8.55c0,3.13-4.91,78.14-4.91,78.14l6.26,85.1-23.87,2.43-16.05-98.91,11.11-89.74Z" fill="#263238"/>
        <path id="Path_132" data-name="Path 132" d="M595.34,458l-1.61-5.88,19.75-9.25L618.4,454l-1.25.64c-5.57,2.8-28.52,13.87-32.84,14.37C579.49,469.61,595.34,458,595.34,458Z" fill="#ff725e"/>
        <g id="Group_3" data-name="Group 3" opacity="0.4">
          <path id="Path_133" data-name="Path 133" d="M610.83,457.13a7.84,7.84,0,0,1,.71-5.56,7.63,7.63,0,0,1,4.19-3.61l2.52,5.78Z"/>
        </g>
        <g id="Group_4" data-name="Group 4" opacity="0.4">
          <path id="Path_134" data-name="Path 134" d="M587.73,464s-5.39,4.46-4.18,5.14,24.83-9.62,34.85-15.08l-.23-.45-27.45,12.26S589,463.5,587.73,464Z"/>
        </g>
        <path id="Path_135" data-name="Path 135" d="M618.48,453.42a1.5,1.5,0,0,1-.33.2l-1,.51-3.69,1.8c-3.12,1.5-7.47,3.51-12.32,5.63s-9.27,3.95-12.5,5.22l-3.83,1.49-1,.38a1.587,1.587,0,0,1-.38.12,1.927,1.927,0,0,1,.36-.17l1-.43,3.79-1.57c3.2-1.32,7.62-3.17,12.46-5.29s9.2-4.1,12.35-5.56L617.1,454l1-.46Z" fill="#263238"/>
        <path id="Path_136" data-name="Path 136" d="M590.87,466.16a9.821,9.821,0,0,0-1.49-1.49,8.911,8.911,0,0,0-1.91-.88,3,3,0,0,1,2.07.65A3.07,3.07,0,0,1,590.87,466.16Z" fill="#263238"/>
        <path id="Path_137" data-name="Path 137" d="M595.62,460.4a2.8,2.8,0,0,1-1-.51c-.51-.34-.89-.68-.85-.74s.49.17,1,.51S595.66,460.33,595.62,460.4Z" fill="#263238"/>
        <path id="Path_138" data-name="Path 138" d="M596.91,458.78c0,.07-.45,0-.95-.17s-.87-.36-.85-.43.44,0,.94.17S596.93,458.71,596.91,458.78Z" fill="#263238"/>
        <path id="Path_139" data-name="Path 139" d="M597.11,456.36a2.833,2.833,0,0,1-1,.61,2.591,2.591,0,0,1-1.13.36,3.139,3.139,0,0,1,1-.61,3,3,0,0,1,1.13-.36Z" fill="#263238"/>
        <path id="Path_140" data-name="Path 140" d="M596.87,454.83c.06.05-.37.52-1,.88a2.24,2.24,0,0,1-1.31.37,8.212,8.212,0,0,1,1.19-.62A7.8,7.8,0,0,1,596.87,454.83Z" fill="#263238"/>
        <path id="Path_141" data-name="Path 141" d="M594.13,458.9a4.22,4.22,0,0,1-1.33.57,9.339,9.339,0,0,1-1.56.31,4.243,4.243,0,0,1-1,0,.83.83,0,0,1-.51-.27.58.58,0,0,1,0-.62,2.67,2.67,0,0,1,4.14.09.88.88,0,0,1,.2.35,3.86,3.86,0,0,0-1.1-.87,2.61,2.61,0,0,0-1.46-.25,2.27,2.27,0,0,0-1.54.8c-.14.25,0,.46.34.5a3.791,3.791,0,0,0,.89,0,8.627,8.627,0,0,0,1.53-.24C593.6,459.08,594.11,458.86,594.13,458.9Z" fill="#263238"/>
        <path id="Path_142" data-name="Path 142" d="M593.81,459.11a1.632,1.632,0,0,1-.55-.85,2.32,2.32,0,0,1-.06-1.13A1.43,1.43,0,0,1,594,456a.56.56,0,0,1,.67.43,1.691,1.691,0,0,1,0,.7,4.614,4.614,0,0,1-.28,1.07,2,2,0,0,1-.53.87,7.282,7.282,0,0,0,.35-.93,5.292,5.292,0,0,0,.21-1c.06-.36,0-.92-.4-.84s-.54.6-.63.95a2.537,2.537,0,0,0,0,1,6,6,0,0,0,.42.86Z" fill="#263238"/>
        <path id="Path_143" data-name="Path 143" d="M615.59,448c0,.05-.62.2-1.5.72a7.32,7.32,0,0,0-2.74,2.83,7.23,7.23,0,0,0-.79,3.85c.07,1,.3,1.64.25,1.65s-.09-.14-.19-.42a6.118,6.118,0,0,1-.26-1.21A6.86,6.86,0,0,1,614,448.5a6.618,6.618,0,0,1,1.15-.47,1.4,1.4,0,0,1,.44-.03Z" fill="#263238"/>
        <path id="Path_144" data-name="Path 144" d="M611.22,443.63a14,14,0,0,1,1.27,2.49,14.567,14.567,0,0,1,1,2.61,14,14,0,0,1-1.27-2.49,14.565,14.565,0,0,1-1-2.61Z" fill="#263238"/>
        <path id="Path_145" data-name="Path 145" d="M607.34,456.25a18.31,18.31,0,0,1-6,2.7c0-.08,1.37-.58,3-1.33S607.3,456.18,607.34,456.25Z" fill="#263238"/>
        <path id="Path_146" data-name="Path 146" d="M611.4,454.48c.07,0,0,.33,0,.7v.71a1.047,1.047,0,0,1-.25-.71C611.15,454.75,611.33,454.45,611.4,454.48Z" fill="#263238"/>
        <path id="Path_147" data-name="Path 147" d="M612.09,451.91c.07,0,0,.3-.09.61s-.27.54-.34.51,0-.3.09-.61S612,451.88,612.09,451.91Z" fill="#263238"/>
        <path id="Path_148" data-name="Path 148" d="M613.9,450.09c0,.07-.26.19-.52.43s-.4.5-.48.47,0-.38.3-.67S613.89,450,613.9,450.09Z" fill="#263238"/>
        <path id="Path_149" data-name="Path 149" d="M615.28,449c.05.05,0,.21-.16.35s-.31.21-.36.16,0-.21.16-.35S615.22,448.94,615.28,449Z" fill="#263238"/>
        <path id="Path_150" data-name="Path 150" d="M571.25,273.32c-.88.49-16.11,54.75-23.38,80.8a37.07,37.07,0,0,0,2.47,26.36L588.67,458l28.92-13.54L582.88,368.2l30.66-94.88Z" fill="#263238"/>
        <path id="Path_151" data-name="Path 151" d="M588.67,458l.5-.26,1.49-.73,5.74-2.75,21.11-10-.09.26C610.8,429.75,602,410,592.35,388.45l-9.66-21.72v-.18L598,319.11c1.92-5.87,3.46-10.56,4.52-13.81.53-1.59,1-2.82,1.23-3.69l.33-.95a1.713,1.713,0,0,1,.13-.31,3,3,0,0,1-.09.33l-.28,1c-.27.87-.66,2.11-1.15,3.72l-4.38,13.85L583.16,366.7v-.18c3.05,6.84,6.31,14.17,9.68,21.72,9.59,21.61,18.36,41.34,24.94,56.16l.08.18-.17.08-21.19,9.82-5.79,2.65-1.51.68a1.282,1.282,0,0,1-.53.19Z" fill="#455a64"/>
        <path id="Path_152" data-name="Path 152" d="M619.91,286.23a104.86,104.86,0,0,1-7.7,7.2c-4.35,3.86-8,6.91-8.05,6.8s3.36-3.33,7.7-7.19S619.81,286.13,619.91,286.23Z" fill="#455a64"/>
        <path id="Path_153" data-name="Path 153" d="M597.56,272.85a3.431,3.431,0,0,1-.27,1,9.662,9.662,0,0,1-1.44,2.58,11.342,11.342,0,0,1-3.3,2.89,10.37,10.37,0,0,1-10.39.19,11.32,11.32,0,0,1-3.4-2.77,9.831,9.831,0,0,1-1.53-2.52,3.856,3.856,0,0,1-.32-1,16.14,16.14,0,0,0,2.13,3.32,11.349,11.349,0,0,0,3.35,2.58,10.11,10.11,0,0,0,9.92-.18,11.369,11.369,0,0,0,3.25-2.7,16.108,16.108,0,0,0,2-3.39Z" fill="#455a64"/>
        <path id="Path_154" data-name="Path 154" d="M573.65,360.75a14.872,14.872,0,0,1,2.53,1.41c1.53.92,3.62,2.24,5.91,3.71l1.17.75.36.24-.37.2c-2.09,1.19-4,2.22-5.29,2.94a12.487,12.487,0,0,1-2.2,1.06,11.709,11.709,0,0,1,2-1.36c1.3-.8,3.12-1.88,5.2-3.08v.44l-1.17-.75c-2.29-1.48-4.35-2.84-5.83-3.84a16.659,16.659,0,0,1-2.31-1.72Z" fill="#455a64"/>
        <path id="Path_155" data-name="Path 155" d="M543.17,208.46l-8.98,16.96-47.97,26.23,9.13,17.74,63.91-30.46,9.59-22.5Z" fill="#ffbe9d"/>
        <path id="Path_156" data-name="Path 156" d="M477.6,253.69c-1.49-.64-4.65-2.13-6.15-2.72a5.5,5.5,0,0,0-4.69,0c-2,1.12-2.45,4-1.36,6a7.46,7.46,0,0,0,5.57,3.47,5.74,5.74,0,0,0,7.94,7.26c1.13-.58,2-1.52,3.12-2.2a15.56,15.56,0,0,1,4.15-1.64l20.67-6a5.43,5.43,0,1,0,2.43-9c1.47-2.59,1.28-6.2-.91-8.22s-6.31-1.58-7.61,1.1a28.193,28.193,0,0,0-.91,3.21,7.1,7.1,0,0,1-4.21,4.47Z" fill="#ff725e"/>
        <g id="Group_5" data-name="Group 5" opacity="0.2">
          <path id="Path_157" data-name="Path 157" d="M477.6,253.69c-1.49-.64-4.65-2.13-6.15-2.72a5.5,5.5,0,0,0-4.69,0c-2,1.12-2.45,4-1.36,6a7.46,7.46,0,0,0,5.57,3.47,5.74,5.74,0,0,0,7.94,7.26c1.13-.58,2-1.52,3.12-2.2a15.56,15.56,0,0,1,4.15-1.64l20.67-6a5.43,5.43,0,1,0,2.43-9c1.47-2.59,1.28-6.2-.91-8.22s-6.31-1.58-7.61,1.1a28.193,28.193,0,0,0-.91,3.21,7.1,7.1,0,0,1-4.21,4.47Z"/>
        </g>
        <path id="Path_158" data-name="Path 158" d="M477.14,254.8c-1.49-.63-4.65-2.12-6.15-2.72a5.57,5.57,0,0,0-4.69,0c-2,1.12-2.45,4-1.37,6a7.5,7.5,0,0,0,5.58,3.47,5.74,5.74,0,0,0,7.94,7.27c1.13-.58,2-1.53,3.12-2.21a16,16,0,0,1,4.14-1.64l20.68-6a5.42,5.42,0,1,0,2.43-9c1.47-2.58,1.28-6.2-.91-8.21s-6.32-1.59-7.61,1.09a26.256,26.256,0,0,0-.91,3.21,7.13,7.13,0,0,1-4.22,4.48Z" fill="#ff725e"/>
        <path id="Path_159" data-name="Path 159" d="M545,138.05c-2.25-3.94-4.53-7.94-5.68-12.32s-1.1-9.28,1.17-13.21a17.89,17.89,0,0,1,8.1-6.92c4.56-2.15,10.18-2.95,14.52-.39s6.29,7.66,7.36,12.53c.71,3.2,1.14,6.63,0,9.7-1.72,4.55-6.5,7.2-11.2,8.46s-9.65,1.52-14.2,3.23" fill="#263238"/>
        <path id="Path_160" data-name="Path 160" d="M576.2,118l9.86,45.79-22.84,5.07-3.9-12.7s-9.74,1.41-12.71-7.85c-1.44-4.5-3.67-14-5.57-22.63a18,18,0,0,1,13.3-21.37h0A18,18,0,0,1,576.2,118Z" fill="#ffbe9d"/>
        <path id="Path_161" data-name="Path 161" d="M559.26,156a22.64,22.64,0,0,0,11.06-7.17s-.81,7.57-10.34,9.58Z" fill="#eb996e"/>
        <path id="Path_162" data-name="Path 162" d="M545.71,131.65a1.39,1.39,0,0,0,1.69.95,1.33,1.33,0,0,0,1-1.62,1.39,1.39,0,0,0-1.69-.95,1.33,1.33,0,0,0-1,1.62Z" fill="#263238"/>
        <path id="Path_163" data-name="Path 163" d="M544.47,129.76c.21.12,1-.93,2.42-1.37s2.7,0,2.8-.26-.21-.36-.77-.56a3.91,3.91,0,0,0-2.31,0,3.66,3.66,0,0,0-1.86,1.31C544.41,129.35,544.36,129.71,544.47,129.76Z" fill="#263238"/>
        <path id="Path_164" data-name="Path 164" d="M559.3,127.73a1.4,1.4,0,0,0,1.7,1,1.33,1.33,0,0,0,1-1.62,1.4,1.4,0,0,0-1.69-1,1.33,1.33,0,0,0-1.01,1.62Z" fill="#263238"/>
        <path id="Path_165" data-name="Path 165" d="M558.59,125.71c.21.12,1-.93,2.42-1.36s2.7,0,2.8-.27-.21-.36-.77-.55a3.82,3.82,0,0,0-2.31,0,3.66,3.66,0,0,0-1.86,1.31C558.54,125.3,558.48,125.66,558.59,125.71Z" fill="#263238"/>
        <path id="Path_166" data-name="Path 166" d="M556.66,137.9a9.27,9.27,0,0,0-2.45.29c-.38.07-.74.11-.88-.12a1.9,1.9,0,0,1-.09-1.16c.07-1,.15-2,.22-3.11.29-4.41.37-8,.19-8s-.55,3.56-.83,8c-.06,1.09-.12,2.12-.17,3.11a2.18,2.18,0,0,0,.25,1.49,1,1,0,0,0,.76.35,2.379,2.379,0,0,0,.65-.11,9.758,9.758,0,0,0,2.35-.74Z" fill="#263238"/>
        <path id="Path_167" data-name="Path 167" d="M561.16,137.59c-.23.06.24,1.61-.75,3.12s-2.69,1.84-2.63,2.06.46.19,1.16,0a4.1,4.1,0,0,0,2.23-1.64,3.53,3.53,0,0,0,.53-2.58C561.56,137.88,561.27,137.55,561.16,137.59Z" fill="#263238"/>
        <path id="Path_168" data-name="Path 168" d="M556.5,120.23c.26.34,1.63-.28,3.36-.59s3.24-.28,3.35-.69c0-.2-.3-.49-1-.7a5.64,5.64,0,0,0-2.67-.1,5.71,5.71,0,0,0-2.44,1.07C556.6,119.66,556.38,120.06,556.5,120.23Z" fill="#263238"/>
        <path id="Path_169" data-name="Path 169" d="M543.72,125.46c.35.25,1.23-.39,2.41-.77s2.25-.45,2.38-.86c0-.2-.21-.47-.74-.65a3.7,3.7,0,0,0-3.86,1.32C543.6,125,543.56,125.34,543.72,125.46Z" fill="#263238"/>
        <path id="Path_170" data-name="Path 170" d="M575.21,126c.14-.12,5.81-3.85,7.55,2.56s-5,6.85-5.11,6.67S575.21,126,575.21,126Z" fill="#ffbe9d"/>
        <path id="Path_171" data-name="Path 171" d="M579,132.22a1.717,1.717,0,0,0,.34.08,1.16,1.16,0,0,0,.84-.21,2.88,2.88,0,0,0,.61-2.83,4,4,0,0,0-.75-1.52,1.34,1.34,0,0,0-1.08-.62.58.58,0,0,0-.57.48c0,.2,0,.32,0,.34s-.16-.07-.18-.35a.72.72,0,0,1,.14-.47.87.87,0,0,1,.57-.33,1.61,1.61,0,0,1,1.44.68,3.91,3.91,0,0,1,.88,1.68,3,3,0,0,1-.88,3.21,1.21,1.21,0,0,1-1.07.11C579,132.37,578.93,132.24,579,132.22Z" fill="#eb996e"/>
        <path id="Path_172" data-name="Path 172" d="M578.68,124.65a3.5,3.5,0,0,0-2.58,2.51c-.13,1,.09,2.09,0,3.12a2.31,2.31,0,0,1-1.85,2.21,2,2,0,0,1-1.77-1,5.6,5.6,0,0,1-.65-2c-.54-3.08-.82-6.21-1.62-9.24a16,16,0,0,0-4.53-8.06,8.839,8.839,0,0,0-8.71-1.89c-1.93.76-3.42,2.35-5.3,3.23a8.14,8.14,0,0,1-7.11-.17,15.152,15.152,0,0,0-1.47-.5,3.829,3.829,0,0,1,.06-2.17c2.79-4.8,9.49-8,15-8.24a19.36,19.36,0,0,1,15.16,6c3.7,4.14,5.1,11,5.38,16.29" fill="#263238"/>
        <path id="Path_173" data-name="Path 173" d="M568.17,104.7c.15,0,.09-.16.1-.31.05-1.24-1.19-3.64-5.56-4-3.27-.31-7.39.79-10.41,2.09s-6.1,2.74-9.39,2.8a29.147,29.147,0,0,0-3.62,0,4,4,0,0,0-3.06,1.69A2.17,2.17,0,0,0,537,110a3.74,3.74,0,0,0-4.81,1.87,4.38,4.38,0,0,0,1.48,5.12,5.37,5.37,0,0,0,5.46.36l5.25-6.58s2,.75,5.49-.61C553.15,108.87,565.72,105.09,568.17,104.7Z" fill="#263238"/>
        <path id="Path_174" data-name="Path 174" d="M532.12,114.09a4.672,4.672,0,0,0,.87.91,4.11,4.11,0,0,0,3.25.49,9.77,9.77,0,0,0,4.13-2.87,28.626,28.626,0,0,1,5-4,22,22,0,0,1,5.86-2.62,18.771,18.771,0,0,1,5.2-.69,15.521,15.521,0,0,1,3.51.44,4.6,4.6,0,0,1,1.23.41,26.509,26.509,0,0,0-4.74-.48,19.78,19.78,0,0,0-5.07.78,22.39,22.39,0,0,0-5.71,2.6A29.428,29.428,0,0,0,540.7,113a9.94,9.94,0,0,1-4.38,2.88,4.2,4.2,0,0,1-3.46-.69,2.688,2.688,0,0,1-.63-.75C532.14,114.21,532.1,114.1,532.12,114.09Z" fill="#455a64"/>
        <path id="Path_175" data-name="Path 175" d="M563.63,105.7a6.65,6.65,0,0,0-.77-.87,6.262,6.262,0,0,0-2.65-1.55c-2.54-.82-6.32-.14-10.06,1.4s-7.1,3.25-9.79,3.83a4.55,4.55,0,0,1-3.19-.37,2.87,2.87,0,0,1-.68-.56c-.14-.16-.18-.25-.17-.26a7.15,7.15,0,0,0,.95.64,4.51,4.51,0,0,0,3,.19c2.58-.65,5.87-2.39,9.68-4s7.71-2.21,10.36-1.26a6.07,6.07,0,0,1,2.69,1.76,2.6,2.6,0,0,1,.63,1.05Z" fill="#455a64"/>
        <path id="Path_176" data-name="Path 176" d="M560.22,170a14.19,14.19,0,0,1,13.11-6,11.63,11.63,0,0,1,6.5,2.89c2.73,2.51,6.58,5.54,6.76,9.25s-1.66,9.47-2.63,13c-3,10.93-7.51,22.5-11.82,33l-32.31-15.28,16.59-31.61Z" fill="#ff725e"/>
        <g id="Group_6" data-name="Group 6" opacity="0.2">
          <path id="Path_177" data-name="Path 177" d="M560.22,170a14.19,14.19,0,0,1,13.11-6,11.63,11.63,0,0,1,6.5,2.89c2.73,2.51,6.58,5.54,6.76,9.25s-1.66,9.47-2.63,13c-3,10.93-7.51,22.5-11.82,33l-32.31-15.28,13.65-26a90.378,90.378,0,0,1,6.63-10.74Z"/>
        </g>
        <path id="Path_178" data-name="Path 178" d="M561.67,213.36A18.632,18.632,0,0,1,559,211c-.79-.77-1.71-1.7-2.69-2.77a21.591,21.591,0,0,1-2.93-3.74,16.51,16.51,0,0,0-2.88-3.62,7.651,7.651,0,0,0-3.25-1.78,6.67,6.67,0,0,0-3.43.14,2.25,2.25,0,0,1,.87-.41,5.31,5.31,0,0,1,2.64-.08,7.62,7.62,0,0,1,3.49,1.77,16,16,0,0,1,3,3.7,23,23,0,0,0,2.84,3.7c1,1.08,1.85,2,2.6,2.83l1.77,1.9a3.431,3.431,0,0,1,.64.72Z" fill="#e0e0e0"/>
        <path id="Path_179" data-name="Path 179" d="M564,198.4a8.92,8.92,0,0,1-2.4-1,41.28,41.28,0,0,1-5.3-3.3,34.537,34.537,0,0,1-4.72-4.1,7.712,7.712,0,0,1-1.58-2c.07,0,.67.72,1.82,1.81a46.932,46.932,0,0,0,4.76,3.94c2,1.42,3.8,2.6,5.17,3.4A22.477,22.477,0,0,1,564,198.4Z" fill="#e0e0e0"/>
        <path id="Path_180" data-name="Path 180" d="M565.74,188.73a29,29,0,0,1-6.46-3.49,36.621,36.621,0,0,1-4.16-3.12,6,6,0,0,1-1.46-1.59,17,17,0,0,1,1.69,1.31c1,.81,2.54,1.86,4.22,3s3.23,2.06,4.36,2.75a11.287,11.287,0,0,1,1.81,1.14Z" fill="#e0e0e0"/>
        <path id="Path_181" data-name="Path 181" d="M560.22,170a14.19,14.19,0,0,1,13.11-6,11.63,11.63,0,0,1,6.5,2.89c2.73,2.51,6.58,5.54,6.76,9.25s-1.66,9.47-2.63,13c-3,10.93-7.51,22.5-11.82,33l-32.31-15.28,16.59-31.61Z" fill="#ff725e"/>
        <g id="Group_7" data-name="Group 7" opacity="0.2">
          <path id="Path_182" data-name="Path 182" d="M560.22,170a14.19,14.19,0,0,1,13.11-6,11.63,11.63,0,0,1,6.5,2.89c2.73,2.51,6.58,5.54,6.76,9.25s-1.66,9.47-2.63,13c-3,10.93-7.51,22.5-11.82,33l-32.31-15.28,13.65-26a90.378,90.378,0,0,1,6.63-10.74Z"/>
        </g>
        <path id="Path_183" data-name="Path 183" d="M561.67,213.36A18.632,18.632,0,0,1,559,211c-.79-.77-1.71-1.7-2.69-2.77a21.591,21.591,0,0,1-2.93-3.74,16.51,16.51,0,0,0-2.88-3.62,7.651,7.651,0,0,0-3.25-1.78,6.67,6.67,0,0,0-3.43.14,2.25,2.25,0,0,1,.87-.41,5.31,5.31,0,0,1,2.64-.08,7.62,7.62,0,0,1,3.49,1.77,16,16,0,0,1,3,3.7,23,23,0,0,0,2.84,3.7c1,1.08,1.85,2,2.6,2.83l1.77,1.9a3.431,3.431,0,0,1,.64.72Z" fill="#e0e0e0"/>
        <path id="Path_184" data-name="Path 184" d="M564,198.4a8.92,8.92,0,0,1-2.4-1,41.28,41.28,0,0,1-5.3-3.3,34.537,34.537,0,0,1-4.72-4.1,7.712,7.712,0,0,1-1.58-2c.07,0,.67.72,1.82,1.81a46.932,46.932,0,0,0,4.76,3.94c2,1.42,3.8,2.6,5.17,3.4A22.477,22.477,0,0,1,564,198.4Z" fill="#e0e0e0"/>
        <path id="Path_185" data-name="Path 185" d="M565.74,188.73a29,29,0,0,1-6.46-3.49,36.621,36.621,0,0,1-4.16-3.12,6,6,0,0,1-1.46-1.59,17,17,0,0,1,1.69,1.31c1,.81,2.54,1.86,4.22,3s3.23,2.06,4.36,2.75a11.287,11.287,0,0,1,1.81,1.14Z" fill="#e0e0e0"/>
        <path id="Path_186" data-name="Path 186" d="M561.18,165.73l23.44-13.35s11.2,4.58,18.27,12.88c9.31,10.94,13.68,26,15.21,39.53,1.3,11.56,6.94,68.53,6.94,68.53H564.75V235.1Z" fill="#ff725e"/>
        <g id="Group_8" data-name="Group 8" opacity="0.2">
          <path id="Path_187" data-name="Path 187" d="M564.68,249.84c3.27,1.6,7.38.6,10.18-1.72s4.48-5.75,5.57-9.22c1-3.11,1.58-6.42,3.41-9.11,1.37-2,3.33-3.55,4.9-5.42,4.71-5.62,5.3-13.51,5.69-20.83a72.7,72.7,0,0,0-5.73,12.53c-.61,1.76-2.23,5.33-2.23,5.33l-4.58-2.21c-5.74,9.93-11.28,18.49-17,28.41"/>
        </g>
        <path id="Path_188" data-name="Path 188" d="M618.73,212.3a9.949,9.949,0,0,0-1.27-.05,8.11,8.11,0,0,0-3.31.85,26.687,26.687,0,0,0-4.35,2.76,12.25,12.25,0,0,1-5.87,2.59,12.59,12.59,0,0,1-6.25-1.48c-1.77-.84-3.33-1.65-4.65-2.32L589.92,213a6.54,6.54,0,0,1-1.11-.66,6.9,6.9,0,0,1,1.2.47l3.18,1.47,4.69,2.22a12.32,12.32,0,0,0,6,1.39,12.08,12.08,0,0,0,5.65-2.46,24.474,24.474,0,0,1,4.47-2.71,7.82,7.82,0,0,1,3.46-.71,4.28,4.28,0,0,1,.95.14,1.192,1.192,0,0,1,.32.15Z" fill="#e0e0e0"/>
        <path id="Path_189" data-name="Path 189" d="M621.16,235.56a16.609,16.609,0,0,0-1.63-1,13.339,13.339,0,0,0-4.9-1.43,22.409,22.409,0,0,0-7.57.57c-2.82.62-5.84,1.66-9.11,2.45a29.6,29.6,0,0,1-17-.81,26.36,26.36,0,0,1-4.73-2.19c-.53-.3-.92-.58-1.19-.76s-.41-.28-.4-.3.61.32,1.69.88a29.548,29.548,0,0,0,4.75,2,30.571,30.571,0,0,0,7.49,1.47,29.839,29.839,0,0,0,9.28-.82c3.24-.77,6.27-1.81,9.12-2.41a22.55,22.55,0,0,1,7.73-.47,13,13,0,0,1,5,1.62,8.446,8.446,0,0,1,1.17.82A2.383,2.383,0,0,1,621.16,235.56Z" fill="#e0e0e0"/>
        <path id="Path_190" data-name="Path 190" d="M564.76,253a2.342,2.342,0,0,1,.49-.38c.17-.11.4-.2.66-.34a6.72,6.72,0,0,1,1-.26c1.55-.3,3.79.25,6.28,1.3a35.67,35.67,0,0,0,4.15,1.47,22,22,0,0,0,5,.73,45.529,45.529,0,0,0,11.48-1.31c4-.88,7.84-1.93,11.4-2.5a37.21,37.21,0,0,1,9.53-.5,20.37,20.37,0,0,1,6.25,1.55,11.085,11.085,0,0,1,1.56.78,2.368,2.368,0,0,1,.52.33,3.292,3.292,0,0,1-.57-.24,17.242,17.242,0,0,0-1.59-.69,22.049,22.049,0,0,0-6.2-1.37,38.8,38.8,0,0,0-9.42.61c-3.53.59-7.32,1.66-11.37,2.54A44.911,44.911,0,0,1,582.28,256a24,24,0,0,1-9.24-2.34c-2.47-1.08-4.62-1.66-6.11-1.44a5.669,5.669,0,0,0-2.17.78Z" fill="#e0e0e0"/>
        <path id="Path_191" data-name="Path 191" d="M623.21,265.54c0,.07-.81-.29-2.32-.51a15.48,15.48,0,0,0-6.37.73c-2.62.78-5.57,2.21-8.94,3.61a43.24,43.24,0,0,1-11.51,2.91,46.29,46.29,0,0,1-11.87-.16,44.349,44.349,0,0,1-9.39-2.43A19.363,19.363,0,0,1,571,269l-1.6-.71c-1-.51-1.82-.92-2.49-1.31l-1.51-.93a2.612,2.612,0,0,1-.51-.36,3.513,3.513,0,0,1,.56.27l1.56.84c.68.36,1.54.75,2.51,1.23l1.61.67c.57.25,1.18.48,1.83.7a45.79,45.79,0,0,0,9.33,2.29,46.71,46.71,0,0,0,11.74.13,44.51,44.51,0,0,0,11.39-2.84,93.212,93.212,0,0,1,9-3.52,15.06,15.06,0,0,1,6.5-.58,8,8,0,0,1,2.29.66Z" fill="#e0e0e0"/>
        <path id="Path_192" data-name="Path 192" d="M615.3,189.83a3.7,3.7,0,0,0-.71-.38,3.54,3.54,0,0,0-2.08-.16,7,7,0,0,0-2.81,1.45,33,33,0,0,1-3.29,2.35,24.91,24.91,0,0,1-6.78,2.83,19.412,19.412,0,0,1-2.19.41c-.53.06-.82.07-.82,0s1.13-.27,2.91-.8a28.35,28.35,0,0,0,6.61-2.92,38.783,38.783,0,0,0,3.27-2.28,6.9,6.9,0,0,1,3-1.43,3.5,3.5,0,0,1,2.24.34C615.16,189.54,615.32,189.81,615.3,189.83Z" fill="#e0e0e0"/>
        <path id="Path_193" data-name="Path 193" d="M596.62,168.87a25.552,25.552,0,0,1,6.27-3.61,12.121,12.121,0,0,1-3,2,12.62,12.62,0,0,1-3.27,1.61Z" fill="#e0e0e0"/>
        <path id="Path_194" data-name="Path 194" d="M570.9,179.05a4.062,4.062,0,0,1-1.34-.39,28.578,28.578,0,0,0-3.14-1,13.079,13.079,0,0,0-4.62,0,2.929,2.929,0,0,1,1.31-.52,7.62,7.62,0,0,1,3.43,0,15.141,15.141,0,0,1,3.16,1.22,3.685,3.685,0,0,1,1.2.69Z" fill="#e0e0e0"/>
        <path id="Path_195" data-name="Path 195" d="M589.9,155a6.172,6.172,0,0,1-.78,1,22.809,22.809,0,0,1-2.45,2.49,34,34,0,0,1-9.92,5.79c-4.18,1.68-8.12,2.72-10.89,3.65-1.4.45-2.51.85-3.28,1.14a5.64,5.64,0,0,1-1.21.41,7,7,0,0,1,1.13-.6c.75-.35,1.85-.8,3.24-1.3,2.76-1,6.67-2.12,10.82-3.78a37.36,37.36,0,0,0,9.88-5.59,31.17,31.17,0,0,0,2.53-2.35,5.9,5.9,0,0,1,.93-.86Z" fill="#e0e0e0"/>
        <path id="Path_196" data-name="Path 196" d="M560.3,208.32a2.208,2.208,0,0,1-.17.4l-.56,1.11L557.4,214c-1.91,3.62-4.61,8.7-7.81,14.76v.06h-.07l-18.05,8.4L503.81,250l-8.39,3.8-2.29,1a7.855,7.855,0,0,1-.82.32,5.112,5.112,0,0,1,.77-.42l2.25-1.1,8.33-4,27.55-12.86,18.08-8.35-.11.1c3.28-6,6-11.07,8-14.67l2.29-4.12.61-1.08a2.893,2.893,0,0,1,.22-.3Z" fill="#eb996e"/>
        <path id="Path_197" data-name="Path 197" d="M560.3,208.32l-10.86,20.57-49,22.79-9.51,4.17a12.16,12.16,0,0,1-3.94-.95,18,18,0,0,1-4.42-2.45c-1.15-1-3-.17-2.71,1.22s3.35,4.37,8.12,5.92-5.26,6.5-7.92,7.59c.35,2.6,5,1,5.5,2.39a2.54,2.54,0,0,0-1.57,3.72c.41.92,2.5.46,3.9,0a1.64,1.64,0,0,1,2,.83l.4.81c1.2,2.57,5.66.26,5.66.26a52.572,52.572,0,0,0,4.95-2.61c.39-.28,4-1.95,6.6-3.08v.05l1.12-.54h0c7.13-3.49,39.77-15.43,53.42-20.39a16.27,16.27,0,0,0,9-7.92l10.95-21.54Z" fill="#ffbe9d"/>
        <path id="Path_198" data-name="Path 198" d="M600.85,186.71c-5.39,11.45-11.48,28.42-14.41,34.47l-30.12-14.82,18.25-34.15c4.23-6.5,11.92-8.44,18.91-5.09h0C601.16,170.79,604.48,179,600.85,186.71Z" fill="#ff725e"/>
        <path id="Path_199" data-name="Path 199" d="M556.32,206.36a2.157,2.157,0,0,1,.16-.34l.52-1,2.07-4c1.83-3.48,4.46-8.48,7.71-14.64,1.64-3.1,3.43-6.49,5.36-10.12a26.9,26.9,0,0,1,3.36-5.46,15.42,15.42,0,0,1,12.5-5.29,15.92,15.92,0,0,1,7.11,2.17,15.551,15.551,0,0,1,5.42,5.48,16.238,16.238,0,0,1,1.55,3.66,15.608,15.608,0,0,1,.56,4,15.319,15.319,0,0,1-1.14,6c-.75,1.84-1.55,3.63-2.31,5.41-1.53,3.56-3,7-4.47,10.4l-8.06,18.69-.09.21-.2-.1-21.9-10.9-6.05-3-1.57-.8c-.35-.18-.51-.28-.51-.28l.57.26,1.63.78,6.14,2.95L586.54,221l-.29.11,8-18.72c1.45-3.36,2.93-6.84,4.46-10.4.76-1.78,1.55-3.58,2.3-5.41a14.8,14.8,0,0,0,1.1-5.76,15.1,15.1,0,0,0-.54-3.85,15.833,15.833,0,0,0-1.5-3.54,15,15,0,0,0-5.23-5.3A15.22,15.22,0,0,0,588,166a15,15,0,0,0-12.11,5.11,26.88,26.88,0,0,0-3.31,5.34l-5.39,10L559.27,201l-2.17,4-.57,1C556.4,206.24,556.32,206.36,556.32,206.36Z" fill="#263238"/>
        <path id="Path_200" data-name="Path 200" d="M489.15,268.42a8.33,8.33,0,0,1-8.91-.67A13.23,13.23,0,0,0,489.15,268.42Z" fill="#eb996e"/>
        <path id="Path_201" data-name="Path 201" d="M590.63,207.77a5.32,5.32,0,0,1-1.27.22c-.82.1-2,.22-3.49.29a27.412,27.412,0,0,1-5.21-.22,14.94,14.94,0,0,1-6-2.17,33.916,33.916,0,0,1-4.73-4.28,14.38,14.38,0,0,0-4.08-3,7.46,7.46,0,0,0-3.31-.76c-.81,0-1.25.18-1.26.13s.1-.06.3-.14a4.342,4.342,0,0,1,1-.19,7.1,7.1,0,0,1,3.47.62,14.339,14.339,0,0,1,4.26,3,34.994,34.994,0,0,0,4.69,4.19,15,15,0,0,0,5.81,2.14,29.09,29.09,0,0,0,5.13.32c1.47,0,2.66-.09,3.48-.13A8,8,0,0,1,590.63,207.77Z" fill="#e0e0e0"/>
        <path id="Path_202" data-name="Path 202" d="M596.62,196.36a4.9,4.9,0,0,1-1.27.15,19.647,19.647,0,0,1-3.46-.16,17.062,17.062,0,0,1-5-1.37,18,18,0,0,1-5-3.89c-1.55-1.6-3-3.18-4.41-4.4a13.812,13.812,0,0,0-4.32-2.54,8.46,8.46,0,0,0-3.33-.5c-.8.06-1.23.19-1.25.14s.1-.06.31-.13a5.129,5.129,0,0,1,.92-.21,7.94,7.94,0,0,1,3.47.35,13.54,13.54,0,0,1,4.5,2.52,59.326,59.326,0,0,1,4.49,4.4,18,18,0,0,0,4.8,3.82,17.6,17.6,0,0,0,4.82,1.44,42.213,42.213,0,0,0,4.73.38Z" fill="#e0e0e0"/>
        <path id="Path_203" data-name="Path 203" d="M602,181.62a4.852,4.852,0,0,1-1.2,0l-3.25-.18-4.81-.33c-1.81-.14-3.81-.29-5.9-.64a20.09,20.09,0,0,1-5.72-1.69,10.52,10.52,0,0,1-3.58-3.31A16,16,0,0,1,576,172.6a4.537,4.537,0,0,1-.38-1.14,36.981,36.981,0,0,0,2.24,3.81,10.492,10.492,0,0,0,3.52,3.09,20.86,20.86,0,0,0,5.58,1.61c2,.34,4,.51,5.85.67l4.81.44,3.23.34A5.13,5.13,0,0,1,602,181.62Z" fill="#e0e0e0"/>
        <path id="Path_204" data-name="Path 204" d="M492.31,271.56a9.12,9.12,0,0,1-8.16,1.86,38.548,38.548,0,0,0,4.19-.45,35.551,35.551,0,0,0,3.97-1.41Z" fill="#eb996e"/>
      </g>
      <g id="freepik--Dog--inject-284" transform="translate(-29.742 -8.715)">
        <path id="Path_205" data-name="Path 205" d="M433.661,334.185a10.641,10.641,0,0,0-5.011,11.736,12,12,0,0,0,10.981,8.53,11.449,11.449,0,0,0,11.133-6.9,10.114,10.114,0,0,0-3.6-11.959c-3.755-2.752-9.531-3.873-13.5-1.408" transform="translate(22.536 0.937)" fill="#ff725e"/>
        <g id="Group_9" data-name="Group 9" transform="translate(450.861 333.757)" opacity="0.3">
          <path id="Path_206" data-name="Path 206" d="M433.661,334.185a10.641,10.641,0,0,0-5.011,11.736,12,12,0,0,0,10.981,8.53,11.449,11.449,0,0,0,11.133-6.9,10.114,10.114,0,0,0-3.6-11.959c-3.755-2.752-9.531-3.873-13.5-1.408" transform="translate(-428.325 -332.821)" fill="#fff"/>
        </g>
        <path id="Path_207" data-name="Path 207" d="M435.246,352.888a14.452,14.452,0,0,0,1.53-2.307,6.726,6.726,0,0,0-.1-6.215,7.694,7.694,0,0,0-5.281-3.828,18.688,18.688,0,0,0-2.9-.275,2.065,2.065,0,0,1,.788-.18,7.29,7.29,0,0,1,2.2.074,7.87,7.87,0,0,1,5.754,3.947,6.85,6.85,0,0,1-.047,6.636,6.37,6.37,0,0,1-1.267,1.672C435.52,352.761,435.28,352.909,435.246,352.888Z" transform="translate(22.561 1.357)" fill="#fafafa"/>
        <path id="Path_208" data-name="Path 208" d="M448.678,348.693a2.011,2.011,0,0,1-.833-.074,9.081,9.081,0,0,1-2.157-.688,10.687,10.687,0,0,1-5.136-5.016,9.872,9.872,0,0,1-.616-6.9,9.186,9.186,0,0,1,.8-1.979c.251-.444.422-.667.457-.656a20.045,20.045,0,0,0-.845,2.72,10.259,10.259,0,0,0,.742,6.583,11.005,11.005,0,0,0,4.794,4.9q1.366.623,2.8,1.111Z" transform="translate(24.128 0.969)" fill="#fafafa"/>
        <path id="Path_209" data-name="Path 209" d="M378.907,359.048c1.815-1.513,3.093-3.609,2.146-5.641l-.057-.159h0a4,4,0,0,0-1.039-1.4,7.651,7.651,0,0,0-3.5-1.524c-4.223-.857-8.686.085-12.932-.688a15.443,15.443,0,0,0,2.443,6.6,10.5,10.5,0,0,0,5.856,4.233,8.07,8.07,0,0,0,7.088-1.429Z" transform="translate(13.37 1.917)" fill="#455a64"/>
        <path id="Path_210" data-name="Path 210" d="M380.574,360.244c-.137-1.926-.959-3.81-2.922-4.307H377.5a4.248,4.248,0,0,0-1.552-.1,6.429,6.429,0,0,0-2.933,1.365c-2.854,2.117-4.566,5.418-7.328,7.63a15.5,15.5,0,0,0,6.027,1.968,9.535,9.535,0,0,0,6.13-1.386,5.881,5.881,0,0,0,2.728-5.175Z" transform="translate(13.677 2.277)" fill="#455a64"/>
        <path id="Path_211" data-name="Path 211" d="M379.071,360.049a3.065,3.065,0,0,1-2.958-1.623,2.654,2.654,0,0,1,.588-3.14,3.2,3.2,0,0,1,3.375-.6" transform="translate(15.112 2.197)" fill="#455a64"/>
        <path id="Path_212" data-name="Path 212" d="M346.24,429.27c-8.606,2.519-17.875-4.233-20.4-12.234s0-16.657,3.162-24.489,7.111-15.62,7.579-23.981c.525-9.6-4.223-19.663-13.115-24.605s-21.687-3.609-28.159,3.937-3.984,20.52,5.41,24.573c-2.511-1.291-5.148-2.625-7.99-2.709s-6.038,1.513-6.54,4.138,1.644,4.963,3.927,6.53,4.954,2.847,6.369,5.122c2.226,3.588.514,8.054-.548,12.075-3.86,14.75,2.16,30.21,15.292,39.272a43.474,43.474,0,0,0,44.965,2.308" transform="translate(2.422 1.416)" fill="#ff725e"/>
        <g id="Group_10" data-name="Group 10" transform="translate(339.901 431.248)" opacity="0.3">
          <path id="Path_213" data-name="Path 213" d="M337.627,425c-1.039.73-2.568-.317-3.824,0a2.982,2.982,0,0,0-1.678,2.117,11.846,11.846,0,0,0-.833,6.826,6.3,6.3,0,0,0,4.817,4.8,1.737,1.737,0,0,0,1.769-.487,1.673,1.673,0,0,0,.16-.942L337.7,425.6" transform="translate(-331.114 -424.942)"/>
        </g>
        <path id="Path_214" data-name="Path 214" d="M370.22,468.639,363.6,432.1l26.459-6.477a19.613,19.613,0,0,1,12.556,10.689c2.534,5.334,1.461,14.4-.536,20.023a57.079,57.079,0,0,1,15.649,1.693c4.92,1.556,9.679,4.836,8.96,10.445Z" transform="translate(13.381 6.346)" fill="#ff725e"/>
        <path id="Path_215" data-name="Path 215" d="M370.22,468.639,363.6,432.1l26.459-6.477a19.613,19.613,0,0,1,12.556,10.689c2.534,5.334,1.461,14.4-.536,20.023a57.079,57.079,0,0,1,15.649,1.693c4.92,1.556,9.748,5.016,9.029,10.583Z" transform="translate(13.381 6.346)" fill="#ff725e"/>
        <g id="Group_11" data-name="Group 11" transform="translate(376.981 431.966)" opacity="0.3">
          <path id="Path_216" data-name="Path 216" d="M370.22,468.639,363.6,432.1l26.459-6.477a19.613,19.613,0,0,1,12.556,10.689c2.534,5.334,1.461,14.4-.536,20.023a57.079,57.079,0,0,1,15.649,1.693c4.92,1.556,9.748,5.016,9.029,10.583Z" transform="translate(-363.6 -425.62)"/>
        </g>
        <path id="Path_220" data-name="Path 220" d="M402.358,324.48a2.156,2.156,0,0,1,.057.561V341.36a43.287,43.287,0,0,1-.217,5.217A13.505,13.505,0,0,1,400.509,352a8.036,8.036,0,0,1-4.7,3.566,10.582,10.582,0,0,1-10.022-2.752,10.847,10.847,0,0,1-2.283-3.577,12.822,12.822,0,0,1-.742-5.9,11.051,11.051,0,0,1,.263-1.6,1.734,1.734,0,0,1,.171-.54c.057,0-.126.762-.2,2.117a13.317,13.317,0,0,0,.913,5.757,10.469,10.469,0,0,0,2.226,3.408,10,10,0,0,0,4.121,2.423,9.682,9.682,0,0,0,5.331.116,7.457,7.457,0,0,0,4.36-3.323,13.2,13.2,0,0,0,1.632-5.207,44.532,44.532,0,0,0,.24-5.154c.057-3.291.1-6.255.137-8.784s.1-4.445.137-5.926c0-.646.057-1.175.068-1.609a1.859,1.859,0,0,1,.205-.529Z" transform="translate(16.08 0.45)" fill="#263238"/>
        <path id="Path_221" data-name="Path 221" d="M431.645,320.925a3.639,3.639,0,0,0,.73,2.773,5.7,5.7,0,0,0,2.374,1.619,5.784,5.784,0,0,0,3.744.519,13.2,13.2,0,0,0-.183-4.392,1.61,1.61,0,0,0-.673-1.164,1.851,1.851,0,0,0-.8-.159,13.53,13.53,0,0,0-5.194.8" transform="translate(23 0.196)" fill="#263238"/>
        <g id="Front-leg-down" transform="translate(6 -1)">
          <path id="Path_219" data-name="Path 219" d="M432.23,389.16c0,.476.388,70.979.388,70.979s14.428,1.058,16.4,10.583H423.11S407.2,427.46,402.29,423.8a73.347,73.347,0,0,0-12.83-6.932l7.237-2.826-4.942-5.8s2.283,2.445,5.273-1.524" transform="translate(17.039 4.221)" fill="#ff725e"/>
          <path id="Path_223" data-name="Path 223" d="M426.95,455.868c-.16,0-.2-15.081-.1-33.664s.331-33.654.491-33.654.217,15.07.1,33.664S427.109,455.868,426.95,455.868Z" transform="translate(22.319 4.185)" fill="#263238"/>
        </g>
        <g id="Front-leg-down-2" data-name="Front-leg-down" transform="translate(6 -1)" opacity="0.11">
          <path id="Path_219-2" data-name="Path 219" d="M432.23,389.16c0,.476.388,70.979.388,70.979s14.428,1.058,16.4,10.583H423.11S407.2,427.46,402.29,423.8a73.347,73.347,0,0,0-12.83-6.932l7.237-2.826-4.942-5.8s2.283,2.445,5.273-1.524" transform="translate(17.039 4.221)"/>
          <path id="Path_223-2" data-name="Path 223" d="M426.95,455.868c-.16,0-.2-15.081-.1-33.664s.331-33.654.491-33.654.217,15.07.1,33.664S427.109,455.868,426.95,455.868Z" transform="translate(22.319 4.185)"/>
        </g>
        <g id="Front-leg-down-3" data-name="Front-leg-down">
          <path id="Path_219-3" data-name="Path 219" d="M432.23,389.16c0,.476.388,70.979.388,70.979s14.428,1.058,16.4,10.583H423.11S407.2,427.46,402.29,423.8a73.347,73.347,0,0,0-12.83-6.932l7.237-2.826-4.942-5.8s2.283,2.445,5.273-1.524" transform="translate(17.039 4.221)" fill="#ff725e"/>
          <path id="Path_223-3" data-name="Path 223" d="M426.95,455.868c-.16,0-.2-15.081-.1-33.664s.331-33.654.491-33.654.217,15.07.1,33.664S427.109,455.868,426.95,455.868Z" transform="translate(22.319 4.185)" fill="#263238"/>
        </g>
        <path id="Path_218" data-name="Path 218" d="M349.548,474.985h64.366c-.308-13.853-11.186-12.319-11.186-12.319H387.889c8.138-4.233,10.5-15.059,10.5-15.059,15.535-3.863,27.965-20.944,27.965-20.944l12.111-23.187.628,8.371,5.593-10.583c5.273-18.732-10.524-46.152-10.524-46.152l12.43.328c0-6.128-8.081-6.128-13.983-7.408s-3.721-8.382-3.721-8.382,13.971,1.619,19.564-4.508,2.8-14.816,2.8-14.816L431.06,322.58c-2.8-2.9-12.738-7.08-19.268-5.471s-18.64,10.308-20.808,15.134-3.116,20.3-4.223,33.505-10.079,21.9-18.149,30.278-19.941,14.213-28.045,23.229c-2.523,2.826-3.778,7.683-4.3,13.038a57.73,57.73,0,0,0,10.787,39.231Z" transform="translate(9.479)" fill="#ff725e"/>
        <path id="Path_224" data-name="Path 224" d="M402,466.79c-.091,0,.068-.73,0-1.873a8.03,8.03,0,0,0-5.216-6.889c-1.141-.455-1.918-.561-1.895-.646a4.034,4.034,0,0,1,2.043.286,7.612,7.612,0,0,1,5.49,7.239A3.369,3.369,0,0,1,402,466.79Z" transform="translate(17.807 8.196)" fill="#263238"/>
        <path id="Path_225" data-name="Path 225" d="M365.16,425.53a3.484,3.484,0,0,1,.548-.233,15.382,15.382,0,0,1,1.632-.55,26.34,26.34,0,0,1,6.278-1.005,23.74,23.74,0,0,1,9.326,1.482,19.757,19.757,0,0,1,9.04,6.635,14.262,14.262,0,0,1,2.351,5.164,15.023,15.023,0,0,1,.171,5.228,17.451,17.451,0,0,1-3.424,8.159,28.1,28.1,0,0,1-4.372,4.307c-.559.466-1.016.8-1.324,1.058a2.378,2.378,0,0,1-.491.328,2.876,2.876,0,0,1,.411-.413l1.244-1.111a31.712,31.712,0,0,0,4.189-4.371,17.328,17.328,0,0,0,3.207-8,14.825,14.825,0,0,0-.194-5.048,13.811,13.811,0,0,0-2.283-4.974,19.449,19.449,0,0,0-8.766-6.477,23.818,23.818,0,0,0-9.131-1.556,28.776,28.776,0,0,0-6.244.815C365.959,425.307,365.183,425.583,365.16,425.53Z" transform="translate(13.602 6.235)" fill="#263238"/>
        <path id="Path_226" data-name="Path 226" d="M410.025,436.032a3.316,3.316,0,0,1-.24-.3l-.594-.9c-.5-.783-1.221-1.947-2.089-3.439s-1.895-3.291-2.979-5.387a52.177,52.177,0,0,1-3.185-7.154l.514.053c-.708,1.217-1.438,2.5-2.18,3.82l-.274.466-.251-.476a10.7,10.7,0,0,1-1.141-6.191,10.389,10.389,0,0,1,.422-1.979l.514.243-3.755,4.54-.4.487-.1-.6a39.513,39.513,0,0,1,.4-15.737,34.536,34.536,0,0,1,1.324-4.434c.183-.508.354-.889.457-1.143a1.917,1.917,0,0,1,.194-.392,10.907,10.907,0,0,1-.468,1.6c-.32,1.058-.753,2.519-1.141,4.434a41.361,41.361,0,0,0-.194,15.578l-.514-.116,3.744-4.551.959-1.175L398.6,414.7a10.651,10.651,0,0,0-.388,1.884,10.322,10.322,0,0,0,1.141,5.9h-.514l2.2-3.81.308-.55.194.593a56.385,56.385,0,0,0,3.082,7.112c1.05,2.117,2.032,3.926,2.854,5.429l1.952,3.514a11.213,11.213,0,0,1,.594,1.259Z" transform="translate(17.636 4.707)" fill="#263238"/>
        <path id="Path_227" data-name="Path 227" d="M439.623,466.727c-.091,0-.171-.72-.582-1.82a9.657,9.657,0,0,0-6.734-5.948c-1.2-.317-1.986-.36-1.986-.444a4.458,4.458,0,0,1,2.089.074,9.587,9.587,0,0,1,4.474,2.18,8.422,8.422,0,0,1,2.557,4.032,3.627,3.627,0,0,1,.183,1.926Z" transform="translate(22.818 8.258)" fill="#263238"/>
        <g id="Group_13" data-name="Group 13" transform="translate(407.926 403.254)" opacity="0.3">
          <path id="Path_231" data-name="Path 231" d="M395.675,398.49a31.619,31.619,0,0,0-4.771,12.022,14.965,14.965,0,0,0,3.424,12.107,26.415,26.415,0,0,0,5.3,4.053l5.468,3.492a14,14,0,0,0-3.87-10.5c-.422,1.058-.833,2.17-1.256,3.249a8.451,8.451,0,0,1-1.861-7.556l-3.767,3.778a97.191,97.191,0,0,1,2.1-20.541" transform="translate(-390.711 -398.49)"/>
        </g>
        <g id="Group_14" data-name="Group 14" transform="translate(399.044 338.127)" opacity="0.3">
          <path id="Path_232" data-name="Path 232" d="M382.93,343.776c.114,3.3.628,6.974,2.717,9.662a10.348,10.348,0,0,0,9.2,4.043c4.337-.582,7.465-4.445,8.31-8.466s-.091-8.1-1.039-12.064c.228,3.7.434,7.524-.947,11.006s-4.748,6.572-8.755,6.572a8.885,8.885,0,0,1-6.986-3.619,11.082,11.082,0,0,1-2.5-7.165" transform="translate(-382.928 -336.95)"/>
        </g>
        <g id="Group_15" data-name="Group 15" transform="translate(393.955 362.066)" opacity="0.3">
          <path id="Path_233" data-name="Path 233" d="M378.47,359.57c1.94,9.863,12.978,16.933,22.669,21.5s20.477,6.889,31.3,8.064a37.029,37.029,0,0,0,6.4.286c1.3-.1,2.888-.571,3.059-1.767s-1.358-2.117-2.66-2.582a376.705,376.705,0,0,1-41.092-17.61c-6-3.016-12.054-6.223-18.743-7.514" transform="translate(-378.47 -359.57)"/>
        </g>
        <path id="Path_234" data-name="Path 234" d="M379.506,353.59a12.874,12.874,0,0,0-1.678.37,3.462,3.462,0,0,0-2.267,2.789,3.326,3.326,0,0,0,1.559,3.179,13.749,13.749,0,0,0,1.541.7,2.534,2.534,0,0,1-1.769-.37,3.818,3.818,0,0,1-1.427-1.323,3.526,3.526,0,0,1,.514-4.35,4.051,4.051,0,0,1,1.712-1,2.448,2.448,0,0,1,1.815,0Z" transform="translate(14.985 2.137)" fill="#263238"/>
        <path id="Path_235" data-name="Path 235" d="M379.059,357.9c-.16,0-.5-.921-1.3-1.894s-1.678-1.545-1.587-1.693,1.2.275,2.066,1.365S379.218,357.889,379.059,357.9Z" transform="translate(15.158 2.188)" fill="#263238"/>
        <path id="Path_236" data-name="Path 236" d="M378.368,356.3c.114.106-.4.709-1.256,1.185s-1.666.614-1.712.466.6-.487,1.4-.942S378.231,356.185,378.368,356.3Z" transform="translate(15.05 2.304)" fill="#263238"/>
        <path id="Path_237" data-name="Path 237" d="M375.559,357.261a9.77,9.77,0,0,0-1.838.339,8.664,8.664,0,0,0-3.493,2.614,35.1,35.1,0,0,1-4.509,4.487,34.862,34.862,0,0,1,4.064-4.847,7.97,7.97,0,0,1,3.8-2.625,2.681,2.681,0,0,1,1.976.032Z" transform="translate(13.681 2.349)" fill="#263238"/>
        <path id="Path_238" data-name="Path 238" d="M374,362.378c-.1-.127.594-.73,1.324-1.556s1.244-1.556,1.393-1.492-.148.963-.936,1.841A3.422,3.422,0,0,1,374,362.378Z" transform="translate(14.851 2.482)" fill="#263238"/>
        <path id="Path_239" data-name="Path 239" d="M373.42,360.252c0-.148.594-.413,1.37-.709s1.438-.508,1.53-.37-.479.571-1.3.889S373.454,360.4,373.42,360.252Z" transform="translate(14.77 2.47)" fill="#263238"/>
        <path id="Path_240" data-name="Path 240" d="M371.59,354.259a3.426,3.426,0,0,1,2.4-.3,3.536,3.536,0,0,1,2.226.878,15.9,15.9,0,0,1-2.283-.328,11.2,11.2,0,0,1-2.343-.25Z" transform="translate(14.511 2.166)" fill="#263238"/>
        <path id="Path_241" data-name="Path 241" d="M373,352.093c0-.148,1.141-.085,2.112.72s1.141,1.82,1.016,1.841-.559-.741-1.415-1.429S372.909,352.252,373,352.093Z" transform="translate(14.71 2.056)" fill="#263238"/>
        <path id="Path_242" data-name="Path 242" d="M378.47,359.679c2.4,4.688,5.947,7.408,10.273,10.583a90.13,90.13,0,0,0,45.521,17.726,14.3,14.3,0,0,0,4.3-.074,5.141,5.141,0,0,0,3.424-2.2c.879-1.482.536-3.3.126-4.942a104.791,104.791,0,0,0-4.566-14.213,2.97,2.97,0,0,0-.6-1.058c-.9-.868-1.233-.847-2.466-.423-8.915,3.037-20.1,2.053-29.232-.413S388.024,358.8,378.6,357.7Z" transform="translate(15.485 2.387)" fill="#455a64"/>
        <path id="Path_243" data-name="Path 243" d="M438.775,370.009l-.639.106-1.815.286c-.788.127-1.758.275-2.888.37s-2.42.275-3.858.328-2.991.18-4.68.159-3.493,0-5.388-.106a96.113,96.113,0,0,1-12.213-1.524,93.731,93.731,0,0,1-11.837-3.175c-1.769-.646-3.424-1.228-4.977-1.9s-2.945-1.281-4.212-1.894-2.4-1.217-3.424-1.746-1.815-.995-2.488-1.418l-1.541-.931-.525-.339.559.3,1.564.91c.673.4,1.507.878,2.5,1.376s2.1,1.143,3.424,1.714,2.671,1.259,4.223,1.863,3.207,1.249,4.977,1.884a95.034,95.034,0,0,0,11.8,3.175,97.5,97.5,0,0,0,12.191,1.513c1.883.074,3.675.18,5.365.138s3.242-.053,4.668-.138,2.717-.19,3.847-.3,2.112-.212,2.9-.328l1.826-.243A6.137,6.137,0,0,1,438.775,370.009Z" transform="translate(15.459 2.417)" fill="#e0e0e0"/>
        <path id="Path_244" data-name="Path 244" d="M441.845,378.455s-.959.18-2.728.423a74.99,74.99,0,0,1-7.511.582,74.167,74.167,0,0,1-46.274-14.372,65.56,65.56,0,0,1-5.616-4.656c-1.256-1.175-1.906-1.863-1.906-1.863l.514.466c.342.3.81.773,1.45,1.333a69.459,69.459,0,0,0,5.707,4.6A75.223,75.223,0,0,0,431.652,379.3q3.761-.076,7.5-.508c.89-.1,1.564-.212,2.032-.265Z" transform="translate(15.391 2.438)" fill="#e0e0e0"/>
        <path id="Path_245" data-name="Path 245" d="M384.8,367.432a.852.852,0,0,0-.1-.328,5.907,5.907,0,0,1-.114-.9,8.4,8.4,0,0,1,.342-2.974,8.967,8.967,0,0,1,1.381-2.709,7.829,7.829,0,0,1,.616-.709c.16-.159.251-.233.263-.222s-.3.381-.731,1.058a9.579,9.579,0,0,0-1.712,5.6C384.753,367,384.833,367.432,384.8,367.432Z" transform="translate(16.347 2.497)" fill="#e0e0e0"/>
        <path id="Path_246" data-name="Path 246" d="M380.694,363.7a2.416,2.416,0,0,1,0-.825,8.739,8.739,0,0,1,.571-1.926,8.9,8.9,0,0,1,1-1.757,2.645,2.645,0,0,1,.582-.635,24.3,24.3,0,0,0-1.37,2.476,26.082,26.082,0,0,0-.788,2.667Z" transform="translate(15.794 2.437)" fill="#e0e0e0"/>
        <path id="Path_247" data-name="Path 247" d="M390.1,372.138a14.694,14.694,0,0,1,.514-1.577,28.015,28.015,0,0,0,1.427-7.81,6.283,6.283,0,0,1,.068-1.651,1.437,1.437,0,0,1,.057.445v1.206a22.372,22.372,0,0,1-.377,3.979,23.089,23.089,0,0,1-1.062,3.873c-.183.487-.342.868-.468,1.132a2.75,2.75,0,0,1-.16.4Z" transform="translate(17.129 2.585)" fill="#e0e0e0"/>
        <path id="Path_248" data-name="Path 248" d="M399.144,378.253a3.5,3.5,0,0,1-.217-.55c-.125-.36-.274-.889-.434-1.545a20.226,20.226,0,0,1,.365-10.435,12.645,12.645,0,0,1,.536-1.513,2.143,2.143,0,0,1,.251-.529,3.376,3.376,0,0,1-.171.561c-.126.36-.285.878-.457,1.524a22.94,22.94,0,0,0-.788,5.164,22.4,22.4,0,0,0,.434,5.2c.125.656.251,1.185.354,1.556A3.537,3.537,0,0,1,399.144,378.253Z" transform="translate(18.244 2.735)" fill="#e0e0e0"/>
        <path id="Path_249" data-name="Path 249" d="M409.052,382.96a2.642,2.642,0,0,1-.263-.646c-.148-.423-.342-1.058-.559-1.82a39.69,39.69,0,0,1-1.415-12.393,13.88,13.88,0,0,1,.148-1.884,5.03,5.03,0,0,1,.091-.688,2.661,2.661,0,0,1,0,.688c0,.445,0,1.058-.068,1.894a46.267,46.267,0,0,0,1.4,12.34c.194.783.365,1.408.491,1.831a4.7,4.7,0,0,1,.171.677Z" transform="translate(19.489 2.843)" fill="#e0e0e0"/>
        <path id="Path_250" data-name="Path 250" d="M416.65,366.38a2.885,2.885,0,0,1,.251.783,6.053,6.053,0,0,1,0,2.254c-.148.942-.514,2.032-.708,3.26a4.667,4.667,0,0,0,.765,3.8,10.7,10.7,0,0,0,1.678,1.386,3.5,3.5,0,0,1,1.3,1.587,4.38,4.38,0,0,1-.5,3.281,22.305,22.305,0,0,0-.959,2.053c-.171.508-.217.783-.24.783a3.314,3.314,0,0,1,.148-.815,16.508,16.508,0,0,1,.9-2.117,4.3,4.3,0,0,0,.445-3.175,3.415,3.415,0,0,0-1.244-1.482,10.409,10.409,0,0,1-1.712-1.418,4.817,4.817,0,0,1-.8-3.969c.217-1.249.594-2.328.765-3.249a6.693,6.693,0,0,0,.114-2.212C416.741,366.655,416.627,366.38,416.65,366.38Z" transform="translate(20.771 2.893)" fill="#e0e0e0"/>
        <path id="Path_251" data-name="Path 251" d="M431.117,387.608a2.261,2.261,0,0,0,.8-.593,2.8,2.8,0,0,0,.388-2.487,7.875,7.875,0,0,0-2.408-3.122,8.153,8.153,0,0,1-2.431-4.233,37.266,37.266,0,0,1-.662-4.783,13.975,13.975,0,0,0-.89-3.8,7.315,7.315,0,0,0-1.438-2.244c-.457-.455-.765-.656-.753-.677a4.792,4.792,0,0,1,.822.624,6.788,6.788,0,0,1,1.518,2.244,13.236,13.236,0,0,1,.959,3.831,40.508,40.508,0,0,0,.673,4.752,8.1,8.1,0,0,0,2.363,4.148,7.862,7.862,0,0,1,2.408,3.175,2.808,2.808,0,0,1-.479,2.572,1.718,1.718,0,0,1-.605.455C431.208,387.587,431.128,387.619,431.117,387.608Z" transform="translate(21.885 2.851)" fill="#e0e0e0"/>
        <path id="Path_252" data-name="Path 252" d="M376.956,359.73a1.689,1.689,0,0,1-.217.444,7.488,7.488,0,0,1-.776,1.058,9.611,9.611,0,0,1-3.641,2.7,10.608,10.608,0,0,1-4.566.825,8.359,8.359,0,0,1-1.4-.18c-.331-.063-.514-.116-.5-.138a17.822,17.822,0,0,0,1.918.159,10.55,10.55,0,0,0,8.093-3.461C376.591,360.333,376.911,359.709,376.956,359.73Z" transform="translate(13.7 2.505)" fill="#e0e0e0"/>
        <path id="Path_253" data-name="Path 253" d="M373.435,366.22a6.307,6.307,0,0,0-4.075-6.35,1.085,1.085,0,0,1,.331.074,5.4,5.4,0,0,1,.845.37,5.869,5.869,0,0,1,3.036,5.577C373.515,366.114,373.515,366.23,373.435,366.22Z" transform="translate(14.196 2.513)" fill="#e0e0e0"/>
        <path id="Path_254" data-name="Path 254" d="M377.738,364.531a5.3,5.3,0,0,0-.251-1.376,7.54,7.54,0,0,0-4.315-5.027c-.833-.37-1.4-.487-1.393-.519a1.458,1.458,0,0,1,.411.053,6.981,6.981,0,0,1,1.05.328,7.671,7.671,0,0,1,2.911,2.053,7.028,7.028,0,0,1,1.518,3.08,5.754,5.754,0,0,1,.1,1.058,1.454,1.454,0,0,1-.034.349Z" transform="translate(14.538 2.382)" fill="#e0e0e0"/>
        <path id="Path_255" data-name="Path 255" d="M371.245,350.13a2.154,2.154,0,0,1-.925.667c-.639.328-1.632.5-2.58.942a7.8,7.8,0,0,0-2.831,2.424,2.756,2.756,0,0,1,.571-.942,6.06,6.06,0,0,1,2.146-1.683c1-.455,2-.6,2.625-.878a8.94,8.94,0,0,0,.993-.529Z" transform="translate(13.567 1.946)" fill="#e0e0e0"/>
        <path id="Path_256" data-name="Path 256" d="M377.2,350.36a1.636,1.636,0,0,1-.137.476,7.824,7.824,0,0,1-.571,1.217,11.926,11.926,0,0,1-7.077,5.5,8.91,8.91,0,0,1-1.393.307l-.514.053s.731-.148,1.861-.508a12.76,12.76,0,0,0,6.974-5.429,18.075,18.075,0,0,0,.857-1.616Z" transform="translate(13.934 1.959)" fill="#e0e0e0"/>
        <path id="Path_257" data-name="Path 257" d="M375.914,356.347a3.752,3.752,0,0,1-.479-.222l-1.278-.7-4.212-2.254-4.258-2.2-1.29-.656a2.711,2.711,0,0,1-.457-.265,2.549,2.549,0,0,1,.5.191l1.324.593c1.141.529,2.637,1.27,4.292,2.117s3.139,1.7,4.189,2.328l1.233.751a2.556,2.556,0,0,1,.434.318Z" transform="translate(13.429 1.941)" fill="#e0e0e0"/>
        <path id="Path_258" data-name="Path 258" d="M352,405.361a8.99,8.99,0,0,1,1.872-2.635,9.453,9.453,0,0,1,2.283-2.286,8.991,8.991,0,0,1-1.872,2.635A9.454,9.454,0,0,1,352,405.361Z" transform="translate(11.741 4.878)" fill="#263238"/>
        <path id="Path_259" data-name="Path 259" d="M353.3,405.719c-.137-.1.342-.931,1.05-1.873s1.4-1.63,1.541-1.545-.331.921-1.05,1.863S353.44,405.8,353.3,405.719Z" transform="translate(11.922 4.986)" fill="#263238"/>
        <path id="Path_260" data-name="Path 260" d="M356.669,406.256c-.171,0-.2-.783-.08-1.725s.342-1.672.514-1.651.194.783.08,1.725S356.829,406.277,356.669,406.256Z" transform="translate(12.379 5.02)" fill="#263238"/>
        <path id="Path_261" data-name="Path 261" d="M383.187,387.7a5.131,5.131,0,0,1-.4-2.423,5.305,5.305,0,0,1,.194-2.455,5.159,5.159,0,0,1,.4,2.434,5.276,5.276,0,0,1-.194,2.445Z" transform="translate(16.086 3.851)" fill="#263238"/>
        <path id="Path_262" data-name="Path 262" d="M385.129,388.279a5.078,5.078,0,0,1-.639-5.069,20.031,20.031,0,0,1,.217,2.551A16.779,16.779,0,0,1,385.129,388.279Z" transform="translate(16.279 3.874)" fill="#263238"/>
        <path id="Path_263" data-name="Path 263" d="M388.073,388.768a6.53,6.53,0,0,1-2.283-5.048,15.129,15.129,0,0,1,1.141,2.529,15.363,15.363,0,0,1,1.141,2.519Z" transform="translate(16.52 3.904)" fill="#263238"/>
        <path id="Path_264" data-name="Path 264" d="M409.262,360.445c-.068.138-1.141-.275-1.975-1.355s-.867-2.191-.708-2.191.457.91,1.141,1.873S409.353,360.308,409.262,360.445Z" transform="translate(19.45 2.34)" fill="#263238"/>
        <path id="Path_265" data-name="Path 265" d="M410.637,360.045c-.068.138-.913-.127-1.644-.857s-.936-1.535-.788-1.587.571.572,1.221,1.217S410.717,359.907,410.637,360.045Z" transform="translate(19.684 2.381)" fill="#263238"/>
        <path id="Path_266" data-name="Path 266" d="M413.648,360.467a4.291,4.291,0,0,1-2.443-1.418,3.938,3.938,0,0,1-1.415-2.328c.16-.074.788.931,1.849,1.947S413.739,360.329,413.648,360.467Z" transform="translate(19.914 2.33)" fill="#263238"/>
        <path id="Path_267" data-name="Path 267" d="M387.754,339.327c-.171,0-.388-.73-.479-1.661a3.471,3.471,0,0,1,.1-1.725,3.263,3.263,0,0,1,.479,1.672C387.96,338.554,387.914,339.316,387.754,339.327Z" transform="translate(16.725 1.118)" fill="#263238"/>
        <path id="Path_268" data-name="Path 268" d="M389.291,338.616c-.148.063-.594-.7-.708-1.736s.148-1.852.3-1.831.183.815.3,1.778S389.451,338.564,389.291,338.616Z" transform="translate(16.911 1.067)" fill="#263238"/>
        <path id="Path_269" data-name="Path 269" d="M390.957,339.357c-.137.074-.765-.751-1.062-1.947a2.958,2.958,0,0,1,0-2.18c.171,0,.274.942.559,2.053S391.117,339.283,390.957,339.357Z" transform="translate(17.071 1.077)" fill="#263238"/>
        <path id="Path_270" data-name="Path 270" d="M356.31,442.431a14.429,14.429,0,0,1,1.21-5.641,6.965,6.965,0,0,1-.308,2.868,7.538,7.538,0,0,1-.9,2.773Z" transform="translate(12.35 6.997)" fill="#263238"/>
        <path id="Path_271" data-name="Path 271" d="M358.015,440.7c-.16,0-.16-.73,0-1.556s.434-1.482.594-1.45.16.72,0,1.545a2.725,2.725,0,0,1-.594,1.461Z" transform="translate(12.574 7.049)" fill="#263238"/>
        <path id="Path_272" data-name="Path 272" d="M297.959,387.962c-.171,0,0-1.9-.434-4.17s-1.336-3.969-1.141-4.043a7.608,7.608,0,0,1,1.758,3.947,7.247,7.247,0,0,1-.183,4.265Z" transform="translate(3.87 3.672)" fill="#263238"/>
        <path id="Path_273" data-name="Path 273" d="M439.915,326.89a2.729,2.729,0,0,1-.114.952,15.629,15.629,0,0,1-.776,2.508,17.5,17.5,0,0,1-1.872,3.482,11.529,11.529,0,0,1-3.641,3.387,16.908,16.908,0,0,1-4.794,1.746,26.884,26.884,0,0,1-6.94.593,3.922,3.922,0,0,1-1.027-.127c0-.1,1.472-.053,3.8-.286a30.1,30.1,0,0,0,4.041-.677,17.521,17.521,0,0,0,4.566-1.714,11.636,11.636,0,0,0,3.493-3.175,19.84,19.84,0,0,0,1.94-3.334C439.538,328.213,439.812,326.869,439.915,326.89Z" transform="translate(21.465 0.591)" fill="#263238"/>
        <path id="Path_274" data-name="Path 274" d="M412.394,326.53a1.875,1.875,0,1,0,.126,0" transform="translate(20.027 0.57)" fill="#263238"/>
        <path id="Path_275" data-name="Path 275" d="M406.112,327.99c-.228.053-.548-.254-.753-.857a4.067,4.067,0,0,1,1.632-4.424c.559-.37,1.016-.423,1.141-.243.3.37-.525,1.386-1,2.762S406.637,327.852,406.112,327.99Z" transform="translate(19.267 0.327)" fill="#263238"/>
        <path id="Path_276" data-name="Path 276" d="M374.65,382.25a30.289,30.289,0,0,1-12.944,7.683,6.237,6.237,0,0,0,3.082.921,20.742,20.742,0,0,1-6.278,2.318,10.433,10.433,0,0,0,9.283-.39,8.962,8.962,0,0,0,4.723-7.42" transform="translate(12.661 3.818)" fill="#ff725e"/>
        <path id="Path_277" data-name="Path 277" d="M278.469,370.578a5.472,5.472,0,0,1-.628-1.281,14.318,14.318,0,0,1-.628-1.587c-.194-.614-.468-1.312-.651-2.117a31.324,31.324,0,0,1-.97-5.63,32.831,32.831,0,0,1,1.872-13.758,33.27,33.27,0,0,1,2.454-5.228c.388-.73.845-1.333,1.2-1.884a16.473,16.473,0,0,1,1-1.365,6.406,6.406,0,0,1,.959-1.058c.1.063-1.21,1.661-2.785,4.519a34.885,34.885,0,0,0-2.283,5.207,38.312,38.312,0,0,0-1.621,6.72,37.3,37.3,0,0,0-.228,6.879,34.414,34.414,0,0,0,.833,5.577C277.738,368.694,278.583,370.546,278.469,370.578Z" transform="translate(0.919 1.161)" fill="#263238"/>
        <path id="Path_278" data-name="Path 278" d="M270.873,365.741a3.068,3.068,0,0,1-.411-.847,14.868,14.868,0,0,1-.788-2.423,23.548,23.548,0,0,1,1.883-16.308,17.106,17.106,0,0,1,1.324-2.212,3.123,3.123,0,0,1,.6-.741c.029.021-.651,1.175-1.541,3.111a25.913,25.913,0,0,0-1.8,16.075C270.508,364.461,270.976,365.709,270.873,365.741Z" transform="translate(0 1.542)" fill="#263238"/>
        <path id="Path_279" data-name="Path 279" d="M342.144,368.057c-.137,0,.114-1.915-.2-4.985a20.214,20.214,0,0,0-.388-2.487,27.423,27.423,0,0,0-.708-2.794,29.821,29.821,0,0,0-6.712-11.525c-.742-.751-1.415-1.482-2.146-2.117a24.591,24.591,0,0,0-2.02-1.672c-2.591-1.926-4.463-2.773-4.4-2.879a7.1,7.1,0,0,1,1.313.571,13.365,13.365,0,0,1,1.472.8,19.97,19.97,0,0,1,1.861,1.2,22.826,22.826,0,0,1,2.112,1.64,28.547,28.547,0,0,1,2.214,2.117,32.223,32.223,0,0,1,4.143,5.5,30.1,30.1,0,0,1,2.682,6.223,25.69,25.69,0,0,1,1.061,7.5,10.508,10.508,0,0,1-.091,1.577,6.59,6.59,0,0,1-.194,1.323Z" transform="translate(8.002 1.332)" fill="#263238"/>
        <path id="Path_221-2" data-name="Path 221" d="M431.645,320.925a3.639,3.639,0,0,0,.73,2.773,5.7,5.7,0,0,0,2.374,1.619,5.784,5.784,0,0,0,3.744.519,13.2,13.2,0,0,0-.183-4.392,1.61,1.61,0,0,0-.673-1.164,1.851,1.851,0,0,0-.8-.159,13.53,13.53,0,0,0-5.194.8" transform="translate(23 0.196)" fill="#263238"/>
        <path id="Path_220-2" data-name="Path 220" d="M402.358,324.48a2.156,2.156,0,0,1,.057.561V341.36a43.287,43.287,0,0,1-.217,5.217A13.505,13.505,0,0,1,400.509,352a8.036,8.036,0,0,1-4.7,3.566,10.582,10.582,0,0,1-10.022-2.752,10.847,10.847,0,0,1-2.283-3.577,12.822,12.822,0,0,1-.742-5.9,11.051,11.051,0,0,1,.263-1.6,1.734,1.734,0,0,1,.171-.54c.057,0-.126.762-.2,2.117a13.317,13.317,0,0,0,.913,5.757,10.469,10.469,0,0,0,2.226,3.408,10,10,0,0,0,4.121,2.423,9.682,9.682,0,0,0,5.331.116,7.457,7.457,0,0,0,4.36-3.323,13.2,13.2,0,0,0,1.632-5.207,44.532,44.532,0,0,0,.24-5.154c.057-3.291.1-6.255.137-8.784s.1-4.445.137-5.926c0-.646.057-1.175.068-1.609a1.859,1.859,0,0,1,.205-.529Z" transform="translate(16.08 0.45)" fill="#263238"/>
      </g>
    </g>
  </g>
</svg>
