<svg xmlns="http://www.w3.org/2000/svg" width="447.243" height="383.558" viewBox="0 0 447.243 383.558">
  <g id="back" transform="translate(0 -31.842)">
    <g id="Group_25" data-name="Group 25">
      <path id="Path_19" data-name="Path 19" d="M420.361,192.229a31.967,31.967,0,0,0-5.535-.41H99.305l6.88-3.2a64,64,0,0,0,18.08-12.8l88.48-88.48a33.12,33.12,0,0,0,4.64-42.4,32,32,0,0,0-48-4.16l-160,160a32,32,0,0,0-.025,45.255l.025.025,160,160a32,32,0,0,0,48-3.2,33.12,33.12,0,0,0-4.64-42.4l-88.32-88.64a64,64,0,0,0-16-11.68l-9.6-4.32h314.24a33.12,33.12,0,0,0,33.76-26.88A32,32,0,0,0,420.361,192.229Z" fill="#fbf6f3"/>
    </g>
  </g>
</svg>
