<svg xmlns="http://www.w3.org/2000/svg" width="511.995" height="511.985" viewBox="0 0 511.995 511.985"><g transform="translate(0.001 -0.07)"><path d="M437.126,74.939c-99.826-99.826-262.307-99.826-362.133,0C-25,174.939-25,337.067,75,437.061s262.128,99.991,362.123-.009C536.951,337.226,536.951,174.784,437.126,74.939Z" fill="#a44a3f"/><path d="M400.225,355.018l-75.063-73.041,75.063-73.041a25.378,25.378,0,0,0,.014-36.546,27.014,27.014,0,0,0-37.5-.014l-75.115,73.093L212.5,172.376a27.014,27.014,0,0,0-37.5.014,25.378,25.378,0,0,0,.014,36.547l75.063,73.041-75.063,73.041A25.378,25.378,0,0,0,175,391.564a27.014,27.014,0,0,0,37.5.013l75.115-73.093,75.115,73.093a27.013,27.013,0,0,0,37.5-.013,25.378,25.378,0,0,0-.014-36.546Z" transform="translate(-32 -26)" fill="#fff"/></g></svg>