<svg xmlns="http://www.w3.org/2000/svg" width="387.78" height="350.56" viewBox="0 0 387.78 350.56">
  <g id="dog-home" transform="translate(-56.11 -77)">
    <g id="freepik--background-complete--inject-34">
      <path id="Path_172" data-name="Path 172" d="M0,0H38.75V.25L26.24.169Z" transform="translate(81.58 397.08)" fill="#ebebeb"/>
      <rect id="Rectangle_10" data-name="Rectangle 10" width="18.8" height="0.25" transform="translate(379 399.53)" fill="#ebebeb"/>
      <rect id="Rectangle_11" data-name="Rectangle 11" width="36.56" height="0.25" transform="translate(238.44 395.31)" fill="#ebebeb"/>
      <rect id="Rectangle_12" data-name="Rectangle 12" width="28.76" height="4" transform="translate(66.58 127)" fill="#e6e6e6"/>
      <rect id="Rectangle_13" data-name="Rectangle 13" width="138.22" height="4" transform="translate(95.34 127)" fill="#f0f0f0"/>
      <path id="Path_87" data-name="Path 87" d="M144.2,77H84.86l6.05,50h59.34Z" fill="#f5f5f5"/>
      <path id="Path_88" data-name="Path 88" d="M137.21,83.55H93.44l4.46,36.9h43.78Z" fill="#fafafa"/>
      <path id="Path_89" data-name="Path 89" d="M202.67,79.28H156.1L161.88,127h46.56Z" fill="#f5f5f5"/>
      <path id="Path_90" data-name="Path 90" d="M196,85.54H164.28l4.26,35.21h31.72Z" fill="#fafafa"/>
      <path id="Path_91" data-name="Path 91" d="M357.12,377a5.4,5.4,0,1,0-5.4,5.4A5.4,5.4,0,0,0,357.12,377Z" fill="#e0e0e0"/>
      <path id="Path_92" data-name="Path 92" d="M353.17,377a5.39,5.39,0,1,0-1.575,3.818A5.4,5.4,0,0,0,353.17,377Z" fill="#ebebeb"/>
      <path id="Path_93" data-name="Path 93" d="M336.82,377a5.4,5.4,0,1,0-5.4,5.4A5.4,5.4,0,0,0,336.82,377Z" fill="#e0e0e0"/>
      <path id="Path_94" data-name="Path 94" d="M332.87,377a5.39,5.39,0,1,0-1.575,3.818A5.4,5.4,0,0,0,332.87,377Z" fill="#ebebeb"/>
      <path id="Path_95" data-name="Path 95" d="M436.67,377a5.39,5.39,0,1,0-1.575,3.818A5.4,5.4,0,0,0,436.67,377Z" fill="#e0e0e0"/>
      <path id="Path_96" data-name="Path 96" d="M432.73,377a5.4,5.4,0,1,0-5.4,5.4A5.4,5.4,0,0,0,432.73,377Z" fill="#ebebeb"/>
      <path id="Path_97" data-name="Path 97" d="M416.37,377a5.39,5.39,0,1,0-1.575,3.818A5.4,5.4,0,0,0,416.37,377Z" fill="#e0e0e0"/>
      <path id="Path_98" data-name="Path 98" d="M412.43,377a5.4,5.4,0,1,0-5.4,5.4A5.4,5.4,0,0,0,412.43,377Z" fill="#ebebeb"/>
      <rect id="Rectangle_14" data-name="Rectangle 14" width="27.56" height="142.94" transform="translate(320.22 230.73)" fill="#ebebeb"/>
      <rect id="Rectangle_15" data-name="Rectangle 15" width="90" height="142.94" transform="translate(437.78 373.66) rotate(180)" fill="#f5f5f5"/>
      <rect id="Rectangle_16" data-name="Rectangle 16" width="80.22" height="133.5" transform="translate(432.89 368.95) rotate(180)" fill="#ebebeb"/>
      <rect id="Rectangle_17" data-name="Rectangle 17" width="76.22" height="33.56" transform="translate(430.89 271.22) rotate(180)" fill="#f5f5f5"/>
      <rect id="Rectangle_18" data-name="Rectangle 18" width="76.22" height="33.56" transform="translate(430.89 306.28) rotate(180)" fill="#f5f5f5"/>
      <rect id="Rectangle_19" data-name="Rectangle 19" width="76.22" height="59.22" transform="translate(430.89 367) rotate(180)" fill="#f5f5f5"/>
      <path id="Path_99" data-name="Path 99" d="M406,312.53H379.52a1,1,0,0,1-1-1h0a1,1,0,0,1,1-1H406a1,1,0,0,1,1,1h0A1,1,0,0,1,406,312.53Z" fill="#fafafa"/>
      <path id="Path_100" data-name="Path 100" d="M406,277.56H379.52a1,1,0,0,1-1-1h0a1,1,0,0,1,1-1H406a1,1,0,0,1,1,1h0A1,1,0,0,1,406,277.56Z" fill="#fafafa"/>
      <path id="Path_101" data-name="Path 101" d="M406,242.5H379.52a1,1,0,0,1-1-1h0a1,1,0,0,1,1-1H406a1,1,0,0,1,1,1h0A1,1,0,0,1,406,242.5Z" fill="#fafafa"/>
      <rect id="Rectangle_20" data-name="Rectangle 20" width="4.28" height="1.97" rx="0.96" transform="translate(337.88 222.58)" fill="#e0e0e0"/>
      <path id="Path_102" data-name="Path 102" d="M295,139l26.34,26.34A18.63,18.63,0,0,0,295,139Z" fill="#e6e6e6"/>
      <path id="Path_103" data-name="Path 103" d="M331.55,142.08l-10.27,10.27L308,139.05l10.27-10.27a9.39,9.39,0,0,1,13.3,0h0a9.39,9.39,0,0,1-.02,13.3Z" fill="#e6e6e6"/>
      <rect id="Rectangle_21" data-name="Rectangle 21" width="2.22" height="62" transform="translate(331.567 128.585) rotate(-45)" fill="#e6e6e6"/>
      <rect id="Rectangle_22" data-name="Rectangle 22" width="2.22" height="62" transform="matrix(0.86, 0.51, -0.51, 0.86, 375.41, 171.255)" fill="#e6e6e6"/>
      <circle id="Ellipse_3" data-name="Ellipse 3" cx="3.83" cy="3.83" r="3.83" transform="translate(327.72 124.95)" fill="#e6e6e6"/>
      <path id="Path_104" data-name="Path 104" d="M378.66,171.67a2.44,2.44,0,1,1-.711-1.732,2.45,2.45,0,0,1,.711,1.732Z" fill="#e6e6e6"/>
      <path id="Path_105" data-name="Path 105" d="M354.36,223.56H336.3l-1.42,7.16h20.89Z" fill="#e6e6e6"/>
      <rect id="Rectangle_23" data-name="Rectangle 23" width="211.16" height="34.81" transform="translate(63.78 260.67)" fill="#ebebeb"/>
      <rect id="Rectangle_24" data-name="Rectangle 24" width="77.68" height="30.67" transform="translate(194.72 262.74)" fill="#f5f5f5"/>
      <rect id="Rectangle_25" data-name="Rectangle 25" width="77.68" height="30.67" transform="translate(114.28 262.74)" fill="#f5f5f5"/>
      <path id="Path_106" data-name="Path 106" d="M106.64,382.4h-4.67l9.97-86.92h4.67Z" fill="#f5f5f5"/>
      <path id="Path_107" data-name="Path 107" d="M65.57,382.4H60.9l9.97-86.92h4.67Z" fill="#f5f5f5"/>
      <path id="Path_108" data-name="Path 108" d="M232.09,382.4h4.66l-9.97-86.92h-4.66Z" fill="#f5f5f5"/>
      <path id="Path_109" data-name="Path 109" d="M273.16,382.4h4.67l-9.97-86.92h-4.67Z" fill="#f5f5f5"/>
      <path id="Path_110" data-name="Path 110" d="M165.67,222.33H149.34l-6.8,38.34h16.33Z" fill="#e0e0e0"/>
      <path id="Path_111" data-name="Path 111" d="M201.99,189H110.66l2.77,55.56h91.34Z" fill="#e6e6e6"/>
      <path id="Path_112" data-name="Path 112" d="M199.89,190.32h-87l2.64,52.92h87Z" fill="#fafafa"/>
      <path id="Path_113" data-name="Path 113" d="M281.19,230.73H249.65a25.07,25.07,0,0,0-24,19.13l-8.33,34.8-17.12-.06h-.05a17,17,0,0,0-16.71,13.82l-2.28,11.91a8.82,8.82,0,0,0-7.23,6.61h84.61a25,25,0,0,0,24-19.12l12-50a13.61,13.61,0,0,0-13.35-17.09Zm-82.85,79.51H185.68l2.13-11a12.57,12.57,0,0,1,12.33-10.2h0l16.06.05-2,8.47a16.57,16.57,0,0,1-15.86,12.68Z" fill="#e6e6e6"/>
      <path id="Path_114" data-name="Path 114" d="M256.4,316.94h3.62l14.22,65.46h-3.61Z" fill="#e0e0e0"/>
      <path id="Path_115" data-name="Path 115" d="M242.84,316.94h3.62l14.22,65.46h-3.62Z" fill="#e0e0e0"/>
      <path id="Path_116" data-name="Path 116" d="M189.63,316.94h-3.61L171.8,382.4h3.61Z" fill="#e0e0e0"/>
      <path id="Path_117" data-name="Path 117" d="M203.19,316.94h-3.61L185.36,382.4h3.61Z" fill="#e0e0e0"/>
    </g>
    <g id="freepik--Shadow--inject-34">
      <ellipse id="freepik--path--inject-34" cx="193.89" cy="11.32" rx="193.89" ry="11.32" transform="translate(56.11 404.92)" fill="#f5f5f5"/>
    </g>
    <g id="freepik--Character--inject-34">
      <path id="Path_118" data-name="Path 118" d="M270.17,118.06c-.21.58-.7,1-1.08.83s-.51-.69-.3-1.28.7-1,1.08-.84S270.39,117.47,270.17,118.06Z" fill="#263238"/>
      <path id="Path_119" data-name="Path 119" d="M269.53,119a23.539,23.539,0,0,1-4.62,4.1,3.43,3.43,0,0,0,2.59,1.43Z" fill="#ffbe9d"/>
      <path id="Path_120" data-name="Path 120" d="M273.5,115.5a.33.33,0,0,1-.25-.15,2.78,2.78,0,0,0-2.27-1.23.34.34,0,0,1-.36-.34.38.38,0,0,1,.36-.38,3.49,3.49,0,0,1,2.88,1.53.37.37,0,0,1-.1.5.36.36,0,0,1-.26.07Z" fill="#263238"/>
      <path id="Path_121" data-name="Path 121" d="M286,128.37c-1.95,5.41-4.62,15.44-1.3,19.56,0,0-2.39,5.45-12.73,4.31C260.59,151,267.4,146,267.4,146c6.43-.79,7-5.39,6.57-9.81Z" fill="#ffbe9d"/>
      <path id="Path_122" data-name="Path 122" d="M287.08,150c1.12-1.68,2.36-3.61.36-4.39-2.21-.86-14.63-2.5-19.1-1.52s-3.67,4.61-3.67,4.61Z" fill="#e6988a"/>
      <path id="Path_123" data-name="Path 123" d="M243.51,408.08c-1,0-1.92-.14-2.22-.58a.67.67,0,0,1,.05-.79,1,1,0,0,1,.59-.42c1.29-.35,3.9,1.18,4,1.24a.18.18,0,0,1-.07.33,13.318,13.318,0,0,1-2.35.22Zm-1.15-1.48a1.29,1.29,0,0,0-.35,0,.59.59,0,0,0-.37.25c-.13.23-.09.34,0,.4.34.5,2.27.51,3.7.31a7.719,7.719,0,0,0-2.98-.96Z" fill="#e6988a"/>
      <path id="Path_124" data-name="Path 124" d="M245.83,407.87h-.07c-.91-.41-2.66-2.07-2.49-2.93,0-.21.2-.46.7-.51a1.29,1.29,0,0,1,1,.31c.94.8,1.06,2.86,1.06,2.95a.19.19,0,0,1-.08.16.15.15,0,0,1-.12.02Zm-1.73-3.1H244c-.33,0-.35.16-.36.21-.11.51,1.08,1.82,2,2.38a4.2,4.2,0,0,0-.91-2.36A.92.92,0,0,0,244.1,404.77Z" fill="#e6988a"/>
      <rect id="Rectangle_26" data-name="Rectangle 26" width="7.65" height="17.72" transform="translate(246.61 389.97)" fill="#ffbe9d"/>
      <path id="Path_125" data-name="Path 125" d="M309.77,399.24l-7.64.83-4.99-17.2,7.64-.83Z" fill="#ffbe9d"/>
      <path id="Path_126" data-name="Path 126" d="M298.57,401.81c-1,.24-1.92.35-2.32,0a.67.67,0,0,1-.15-.77,1,1,0,0,1,.48-.56c1.18-.65,4.11.17,4.23.21a.18.18,0,0,1,.13.15.19.19,0,0,1-.11.18,13,13,0,0,1-2.26.79Zm-1.49-1.14a1.509,1.509,0,0,0-.34.13.55.55,0,0,0-.29.33c-.08.25,0,.35.05.4.45.39,2.34-.08,3.7-.62a8.091,8.091,0,0,0-3.12-.24Z" fill="#e6988a"/>
      <path id="Path_127" data-name="Path 127" d="M300.79,401h-.07c-1-.17-3.12-1.33-3.16-2.2,0-.21.08-.49.56-.66a1.26,1.26,0,0,1,1,.06c1.12.53,1.74,2.48,1.77,2.56a.2.2,0,0,1,0,.18.21.21,0,0,1-.1.06Zm-2.46-2.55h-.11c-.31.12-.3.24-.3.29,0,.52,1.51,1.47,2.55,1.79a4,4,0,0,0-1.47-2,1,1,0,0,0-.67-.04Z" fill="#e6988a"/>
      <path id="Path_128" data-name="Path 128" d="M301.72,399.36l8.36-2.4a.63.63,0,0,1,.75.32l3.09,6.11a1.17,1.17,0,0,1-.77,1.62c-2.93.79-4.39,1-8.07,2.08-2.26.65-6.86,2.22-10,3.12s-4.29-2-3.08-2.68c5.43-2.89,7.17-5.21,8.6-7.37A2,2,0,0,1,301.72,399.36Z" fill="#455a64"/>
      <path id="Path_129" data-name="Path 129" d="M246.69,406.8h8.36a.64.64,0,0,1,.63.52l1.21,6.81a1.17,1.17,0,0,1-1.16,1.36c-3-.06-7.36-.23-11.15-.23-4.43,0-6.85.24-12.05.24-3.14,0-3.87-3.18-2.54-3.46,6-1.31,9.52-1.45,14.83-4.64a3.66,3.66,0,0,1,1.87-.6Z" fill="#455a64"/>
      <path id="Path_130" data-name="Path 130" d="M288.81,162.23c-.66.3-1.1.48-1.64.71l-1.53.6c-1,.38-2.05.73-3.07,1.07-2.05.65-4.1,1.24-6.17,1.75s-4.14,1-6.21,1.38c-1,.2-2.09.37-3.13.55a15.428,15.428,0,0,1-2.46.29,12.931,12.931,0,0,1-2.58-.24,17,17,0,0,1-4-1.41,25.262,25.262,0,0,1-3.21-1.86,42.8,42.8,0,0,1-5.28-4.28,62.861,62.861,0,0,1-8.45-9.79l4.26-3.85c3.08,2.43,6.3,4.9,9.49,7a44.909,44.909,0,0,0,4.79,2.77,11.54,11.54,0,0,0,4.1,1.33,2,2,0,0,0,.48,0c.13-.05-.12,0,.57-.2l2.86-.86c1.91-.55,3.79-1.18,5.67-1.77s3.74-1.23,5.58-1.87l2.74-1,2.55-.93Z" fill="#ffbe9d"/>
      <path id="Path_131" data-name="Path 131" d="M246.6,148.61l-2.62-5-4.3,3.251-2.606,1.969a10.87,10.87,0,0,0,5.64,3.57Z" fill="#ffbe9d"/>
      <path id="Path_132" data-name="Path 132" d="M239.09,140.49l-4.9,4.34,2.88,4,6.91-5.22Z" fill="#ffbe9d"/>
      <path id="Path_133" data-name="Path 133" d="M295.05,159.9c-2.15,7-23.51,11.8-23.51,11.8l-9.48-15.94s10-3,18.78-6.06C290,146.48,297.24,152.78,295.05,159.9Z" fill="#263238"/>
      <path id="Path_134" data-name="Path 134" d="M198.35,150.33l14.57-3.71c6,5.27,2.54,15.43,2.54,15.43s6.61,3.51,5.45,5.57-14.55-4.11-20.12-10.09S198.35,150.33,198.35,150.33Z" fill="#e6988a"/>
      <path id="Path_135" data-name="Path 135" d="M198.35,150.33l14.57-3.71c6,5.27,2.54,15.43,2.54,15.43s6.61,3.51,5.45,5.57-14.55-4.11-20.12-10.09S198.35,150.33,198.35,150.33Z" opacity="0.2"/>
      <path id="Path_136" data-name="Path 136" d="M224.89,141.66l4.32-11.22s5.24,6.33,7.55,7.8c1.24.79,5.09-.83,8.37-.57,1.48.11,4,1.79,2.35,3.63s-4.9-.41-7,1C237,144.62,231,147.66,224.89,141.66Z" fill="#e6988a"/>
      <path id="Path_137" data-name="Path 137" d="M224.89,141.66l4.32-11.22s5.24,6.33,7.55,7.8c1.24.79,5.09-.83,8.37-.57,1.48.11,4,1.79,2.35,3.63s-4.9-.41-7,1C237,144.62,231,147.66,224.89,141.66Z" fill="#ff8e7e"/>
      <path id="Path_138" data-name="Path 138" d="M220.54,107c-1.34,3.67,1.42,5.48,3.27,4.83,3.69-1.31,8.86,1.43,9.71-1.25s.82-8.81-2-8.8S222,102.91,220.54,107Z" fill="#455a64"/>
      <path id="Path_139" data-name="Path 139" d="M197.72,162.28c4.475,2.474,19.049-2.4,29.3-16.35a52.9,52.9,0,0,0,9.7-26.1s8-2,9.62-5.24c1.16-2.27-.27-4.82-1.44-6.11l-.31-.33a1.72,1.72,0,0,0-2.41-.05c-.31.29-.66.61-1,.92a8.29,8.29,0,0,1-3.5,2c-6,1-7-4.47-10.8-5.86s-13.3,3.36-11.72,10.74,2.18,11.31,1.21,12.83a25.7,25.7,0,0,1-4.7,3.38l-.08.05c-4,2.5-9.6,5.78-14,8.14h0c-2.08,1.11-3.87,2-5.07,2.53C187,145.12,188.36,157.13,197.72,162.28Z" fill="#ff8e7e"/>
      <path id="Path_140" data-name="Path 140" d="M236.86,119.74a65.33,65.33,0,0,0,10-1.93c1.58-.52,1.47,2.47.61,3.29-3.32,3.16-12.12,4.57-12.12,4.57S234.67,120.32,236.86,119.74Z" fill="#ff8e7e"/>
      <path id="Path_141" data-name="Path 141" d="M248.66,119.39a4.32,4.32,0,0,0-4-1.22l-4,1h0s5.86,3.1,6.87,4.31S250.88,121.81,248.66,119.39Z" fill="#e6988a"/>
      <path id="Path_142" data-name="Path 142" d="M248.66,119.39a4.32,4.32,0,0,0-4-1.22l-4,1h0s5.86,3.1,6.87,4.31S250.88,121.81,248.66,119.39Z" fill="#e6988a"/>
      <path id="Path_143" data-name="Path 143" d="M248.66,119.39a4.32,4.32,0,0,0-4-1.22l-4,1h0s5.86,3.1,6.87,4.31S250.88,121.81,248.66,119.39Z" fill="#fff" opacity="0.5"/>
      <path id="Path_144" data-name="Path 144" d="M244.07,111.79c-1.53,1.47-3.5,1.9-4.4,1s-.39-2.89,1.14-4.36,3.5-1.9,4.4-1S245.6,110.32,244.07,111.79Z" fill="#455a64"/>
      <path id="Path_145" data-name="Path 145" d="M219.27,142.3l10.2-6.35s.37,8.21,1.33,10.78c.51,1.37,4.55,2.4,7,4.58,1.11,1,2.12,3.85-.31,4.32s-3.67-3.29-6.25-3.43C227.16,152,220.53,150.76,219.27,142.3Z" fill="#ff8e7e"/>
      <path id="Path_147" data-name="Path 147" d="M226.42,112.78a5,5,0,0,0-1.49,0h-.26a.879.879,0,0,1-.14-.23,1.071,1.071,0,1,1,1.89.17Z" fill="#263238"/>
      <path id="Path_148" data-name="Path 148" d="M231.42,110.33a3,3,0,0,1,.77-.86l.17-.12a.891.891,0,0,0-.1-.23,1.22,1.22,0,0,0-1.35-.62.77.77,0,0,0-.29,1.19,1.36,1.36,0,0,0,.8.64Z" fill="#263238"/>
      <path id="Path_149" data-name="Path 149" d="M238.1,125.68s-12.9,3.18-21.9.88c-.44.66-1.9,3.59-1.9,3.59s13.19,7.08,21.55,8.11c1.67-3.3.32-5.67,1.59-6.85C238.37,129.7,238.1,125.68,238.1,125.68Z" fill="#455a64"/>
      <path id="Path_150" data-name="Path 150" d="M199.69,140.39c-5.77,2.8-17.78,3.41-26.07-3.16a18,18,0,0,0,1.39,3.35c-.62-.32-1.28-.67-2-1.06a7.12,7.12,0,0,0,3.07,3.2,14.363,14.363,0,0,0-2.11-.33,7.3,7.3,0,0,0,4.34,2.36,14.14,14.14,0,0,0-2.68.34,7.18,7.18,0,0,0,4.67,1,13.442,13.442,0,0,0-1.93.87,6.9,6.9,0,0,0,4.38-.21c-.23.15-.46.3-.69.48a5.63,5.63,0,0,0,3.22-.47c-.24.19-.47.38-.71.6a5.5,5.5,0,0,0,3.09-.75,35,35,0,0,0,10.58-3.21Z" fill="#ff8e7e"/>
      <path id="Path_151" data-name="Path 151" d="M220.84,109.85c-3.44-3-6.78-1-7.55,1-1.54,4-7,8-4.39,10.11s9.71,4.9,11.36,2.18S224.69,113.22,220.84,109.85Z" fill="#455a64"/>
      <path id="Path_152" data-name="Path 152" d="M194.79,150.43l15,1.29c3.93,6.94-2.67,15.4-2.67,15.4s5.1,5.48,3.32,7S198,165.51,194.72,158,194.79,150.43,194.79,150.43Z" fill="#ff8e7e"/>
      <path id="Path_153" data-name="Path 153" d="M258.24,159.56c-2,1.94-4,3.59-6,5.3s-4.15,3.28-6.3,4.85A87.548,87.548,0,0,1,232,178c-1.23.61-2.59,1.1-3.9,1.64a8.329,8.329,0,0,1-2.58.55,8.18,8.18,0,0,1-2.69-.34,9.14,9.14,0,0,1-3.53-2.12,15.94,15.94,0,0,1-3.15-4.37,32.6,32.6,0,0,1-1.7-4.06,65.24,65.24,0,0,1-3.12-15.8l5.62-1.17a128.007,128.007,0,0,0,5.79,13.4,27.229,27.229,0,0,0,1.69,2.78,5.82,5.82,0,0,0,1.51,1.65c.14.09.14,0-.27-.2a2.5,2.5,0,0,0-1.53,0c1-.53,2-1,3-1.57a96,96,0,0,0,11.88-8c1.94-1.47,3.84-3,5.74-4.57s3.78-3.21,5.5-4.73Z" fill="#ffbe9d"/>
      <path id="Path_154" data-name="Path 154" d="M255.38,146.82s-9.51,8.2-10.61,65.37l40.68,4.5c.54-7.17,1.87-31.31,9.84-57.35a8.3,8.3,0,0,0-6.14-10.55c-1.44-.32-2.95-.62-4.46-.86A150.908,150.908,0,0,0,267.4,146a79,79,0,0,0-12.02.82Z" fill="#455a64"/>
      <path id="Path_155" data-name="Path 155" d="M291.65,150.18c-2,33-41.15,42.55-46.32,43.66a.7.7,0,0,0-.56.69v1a.71.71,0,0,0,.87.69c6.39-1.53,46-12.28,47.9-44.83a1,1,0,0,0-.44-.86l-.89-.59a.36.36,0,0,0-.56.24Z" fill="#ff725e"/>
      <path id="Path_156" data-name="Path 156" d="M250.55,192.89s16.06-4.64,20.55-8.89c-.77,4.61-2,10.17-9,13.44S248.55,197.5,250.55,192.89Z" fill="#ff725e"/>
      <path id="Path_157" data-name="Path 157" d="M257.85,193.32c-.07.84-.41,1.52-.77,1.52s-.6-.68-.53-1.52.4-1.52.76-1.52S257.91,192.48,257.85,193.32Z" opacity="0.3"/>
      <path id="Path_158" data-name="Path 158" d="M263.54,156.74c-.22,7.21-18.31,20-18.31,20l-12.36-15.71A178.173,178.173,0,0,0,250,149.6C260.45,141.41,263.72,150.89,263.54,156.74Z" fill="#455a64"/>
      <path id="Path_159" data-name="Path 159" d="M211.89,155.94l-5.7-5.38,6.72-4.55s3.84,2.64,4.32,6.46a2.37,2.37,0,0,1-1.82,2.53Z" fill="#ffbe9d"/>
      <path id="Path_160" data-name="Path 160" d="M202.95,146.89l6.06-3.65,3.9,2.77-6.72,4.55Z" fill="#ffbe9d"/>
      <rect id="Rectangle_27" data-name="Rectangle 27" width="7.65" height="9.13" transform="translate(246.61 389.97)" opacity="0.2"/>
      <path id="Path_161" data-name="Path 161" d="M304.79,382.05l-7.65.82,2.77,9.54,7.45-1.5Z" fill="#455a64" opacity="0.2"/>
      <path id="Path_162" data-name="Path 162" d="M290.05,123.09c-3.08,7-4.53,11.3-9.5,13.82-7.47,3.79-15.09-2.35-14.16-10.07.84-7,5.74-17.29,13.79-17.89a9.92,9.92,0,0,1,9.87,14.14Z" fill="#ffbe9d"/>
      <path id="Path_163" data-name="Path 163" d="M273.92,123.05c-.32-1.35-.46-7,3.84-8.6s13.9,3.13,15.24,7.67-4.51,11.82-8.55,13S273.46,136.42,273.92,123.05Z" fill="#455a64"/>
      <path id="Path_164" data-name="Path 164" d="M277.8,116.26c-5-3.56-7.12-6.51-3.35-9.08a1.46,1.46,0,0,1,2.11.4s-2.95-2.69,0-5.33,4.58,2.62,4.58,2.62-1.4-4.21,2.73-4.09,4.07,4.94,4.07,4.94.7-3.22,4.53-2.38c4.7,1,5.53,11.11,2.5,17.56,6.11.58,4.25,7.79-4.41,7.47S275.69,122.44,277.8,116.26Z" fill="#455a64"/>
      <path id="Path_165" data-name="Path 165" d="M293.56,121.25s4.22-3.19,5-7.64C298.71,120.72,295.27,121.29,293.56,121.25Z" fill="#263238"/>
      <path id="Path_166" data-name="Path 166" d="M277.2,123.66a9.14,9.14,0,0,1-4.37,3.56c-2.36.89-3.34-.9-2.5-3,.75-1.92,2.88-4.68,5.17-4.68S278.43,121.7,277.2,123.66Z" fill="#ffbe9d"/>
      <path id="Path_167" data-name="Path 167" d="M259.2,213.79s4.22,57.74,8,79.65c4.18,24,28.42,97.44,28.42,97.44l13.89-2.53s-17.51-69-19.45-92.74c-2.1-25.78-4.63-78.92-4.63-78.92Z" fill="#ff725e"/>
      <path id="Path_168" data-name="Path 168" d="M266.31,237.76c-.76-3.18-2.5.82-4.52,7.75,1.53,17.14,3.53,37,5.44,47.93.42,2.45,1.06,5.42,1.86,8.78C268.39,277.76,268.37,246.35,266.31,237.76Z" opacity="0.3"/>
      <path id="Path_169" data-name="Path 169" d="M244.77,212.19s-5.55,58.07-5.74,81.41c-.2,24.27,4.8,103.74,4.8,103.74h13s3.88-78,5.5-101.89c1.77-26,9.21-80.3,9.21-80.3Z" fill="#ff725e"/>
      <path id="Path_170" data-name="Path 170" d="M292.71,386.21c-.06,0,2.17,5,2.17,5l15.64-2.85-.95-4.67Z" fill="#455a64"/>
      <path id="Path_171" data-name="Path 171" d="M241.57,392.17c-.06,0,.49,5.39.49,5.39h15.77l.64-4.81Z" fill="#455a64"/>
    </g>
  </g>
</svg>
