<svg xmlns="http://www.w3.org/2000/svg" width="398.8" height="512.017" viewBox="0 0 398.8 512.017">
  <g id="favourite-h" transform="translate(-56.609)">
    <path id="Path_1" data-name="Path 1" d="M317.909,114.13c13.675,13.99,15.222,37.7-.78,53.9-.218.242.376-.375-61.31,63.15-64.309-66.238-61.2-63.039-61.31-63.15-16.135-16.544-14.311-40.057-.78-53.9a35.846,35.846,0,0,1,51.37-.37,15,15,0,0,0,21.44,0A35.847,35.847,0,0,1,317.909,114.13Z" fill="#fbf6f3"/>
    <path id="Path_2" data-name="Path 2" d="M440.409,0H71.609a15,15,0,0,0-15,15V496.67a15.01,15.01,0,0,0,24.11,11.91L256,374.48,431.279,508.9a15.009,15.009,0,0,0,24.13-11.9V15a15,15,0,0,0-15-15ZM339.389,188.18l-72.81,74.98a15,15,0,0,1-21.52,0l-72.8-74.97c-41.6-42.587-11.547-115.08,47.52-115.08a64.9,64.9,0,0,1,36.04,10.79,66,66,0,0,1,83.54,9.25C364.969,119.35,364.979,161.97,339.389,188.18Z" fill="#fbf6f3"/>
  </g>
</svg>
