<svg xmlns="http://www.w3.org/2000/svg" width="390" height="512" viewBox="0 0 390 512"><g transform="translate(-61)"><path d="M106,512H406a45.05,45.05,0,0,0,45-45V150H346a45.05,45.05,0,0,1-45-45V0H106A45.05,45.05,0,0,0,61,45V467A45.05,45.05,0,0,0,106,512Zm60-301H346a15,15,0,0,1,0,30H166a15,15,0,0,1,0-30Zm0,60H346a15,15,0,0,1,0,30H166a15,15,0,0,1,0-30Zm0,60H346a15,15,0,0,1,0,30H166a15,15,0,0,1,0-30Zm0,60H286a15,15,0,0,1,0,30H166a15,15,0,0,1,0-30Z" fill="#4e598c"/><path d="M346,120h96.211L331,8.789V105A15.011,15.011,0,0,0,346,120Z" fill="#4e598c"/></g></svg>