<svg id="gear-h" xmlns="http://www.w3.org/2000/svg" width="512" height="512" viewBox="0 0 512 512">
  <g id="Group_2" data-name="Group 2">
    <g id="Group_1" data-name="Group 1">
      <path id="Path_1" data-name="Path 1" d="M256,181a75,75,0,1,0,75,75A75.088,75.088,0,0,0,256,181Z" fill="#fbf6f3"/>
    </g>
  </g>
  <g id="Group_4" data-name="Group 4">
    <g id="Group_3" data-name="Group 3">
      <path id="Path_2" data-name="Path 2" d="M512,298.3V213.7l-69.408-13.667a192.759,192.759,0,0,0-15.1-36.343l38.73-58.1-59.81-59.81-58.1,38.73a192.731,192.731,0,0,0-36.343-15.1L298.3,0H213.7L200.029,69.408a192.758,192.758,0,0,0-36.343,15.1L105.59,45.78,45.78,105.59l38.73,58.1a192.731,192.731,0,0,0-15.1,36.343L0,213.7V298.3l69.408,13.667a192.758,192.758,0,0,0,15.1,36.343L45.78,406.41l59.81,59.81,58.1-38.73a192.732,192.732,0,0,0,36.343,15.1L213.7,512H298.3l13.667-69.408a192.759,192.759,0,0,0,36.343-15.1l58.1,38.73,59.81-59.81-38.73-58.1a192.732,192.732,0,0,0,15.1-36.343ZM256,361A105,105,0,1,1,361,256,105.127,105.127,0,0,1,256,361Z" fill="#fbf6f3"/>
    </g>
  </g>
</svg>
