<svg xmlns="http://www.w3.org/2000/svg" width="487.582" height="487.58" viewBox="0 0 487.582 487.58"><g transform="translate(0 -0.001)"><path d="M300.784,118.214A78.826,78.826,0,0,0,232,158.253a78.934,78.934,0,0,0-68.81-40.039c-43.535,0-78.815,34.981-78.815,78.128C84.374,285.934,232,376.732,232,376.732s147.6-90.371,147.6-180.39C379.6,153.195,344.3,118.214,300.784,118.214Z" transform="translate(12 11.387)" fill="#a44a3f"/><path d="M243.791,0C109.15,0,0,109.149,0,243.79S109.15,487.581,243.791,487.581,487.582,378.431,487.582,243.79,378.432,0,243.791,0Zm0,455.074c-116.5,0-211.281-94.777-211.281-211.285S127.293,32.506,243.791,32.506,455.078,127.283,455.078,243.79,360.291,455.075,243.791,455.075Z" fill="#a44a3f"/></g></svg>