<svg xmlns="http://www.w3.org/2000/svg" width="487.582" height="487.58" viewBox="0 0 487.582 487.58"><g transform="translate(0 -0.001)"><path d="M323.279,118.214a86.9,86.9,0,0,0-75.934,44.59A87,87,0,0,0,84.374,205.223c0,99.776,162.971,200.9,162.971,200.9s162.943-100.644,162.943-200.9A87.016,87.016,0,0,0,323.279,118.214Z" fill="#a44a3f"/><path d="M243.791,0C109.15,0,0,109.149,0,243.79S109.15,487.581,243.791,487.581,487.582,378.431,487.582,243.79,378.432,0,243.791,0Zm0,455.074c-116.5,0-211.281-94.777-211.281-211.285S127.293,32.506,243.791,32.506,455.078,127.283,455.078,243.79,360.291,455.075,243.791,455.075Z" fill="#a44a3f"/></g></svg>