<svg xmlns="http://www.w3.org/2000/svg" width="487.582" height="490.001" viewBox="0 0 487.582 490.001"><path d="M270.07,118.214c-24.436-.051-47,13.471-59.022,35.374-12.042-21.9-34.606-35.414-59.044-35.374-37.356,0-67.629,30.906-67.629,69.026,0,79.154,126.673,159.374,126.673,159.374S337.7,266.772,337.7,187.24C337.7,149.12,307.41,118.214,270.07,118.214Z" transform="translate(33 24.387)" fill="none" stroke="#a44a3f" stroke-width="25"/><path d="M243.791,0C109.15,0,0,109.149,0,243.79S109.15,490,243.791,490,487.582,378.431,487.582,243.79,378.432,0,243.791,0Zm0,455.074c-116.5,0-211.281-94.777-211.281-211.285S127.293,32.506,243.791,32.506,455.078,127.283,455.078,243.79,360.291,455.075,243.791,455.075Z" fill="#a44a3f"/></svg>