<svg xmlns="http://www.w3.org/2000/svg" width="446.812" height="362.08" viewBox="0 0 446.812 362.08"><g transform="translate(-26.81 -75.18)"><path d="M438.41,137.21c-10.17-20.77-26-39.47-47-49.2-36-16.71-80.64-3.25-109.8,23.73-15.48,14.33-27.95,32.3-46.08,43.11-30.69,18.3-70.51,12.08-103.32,26.26-29.69,12.83-50.82,42.44-55.73,74.41s5.68,65.49,26.15,90.54,50.2,41.8,81.75,48.91l37.44,1.09a253.14,253.14,0,0,0,105.24-19.15C360,363.12,389.7,342.52,412.29,315,452.44,266.08,466.24,194.05,438.41,137.21Z" fill="#ebebeb"/><path d="M461.93,437c0,.15-97.42.26-217.55.26S26.81,437.19,26.81,437s97.39-.26,217.57-.26S461.93,436.9,461.93,437Z" fill="#263238"/><path d="M339.7,264a17.27,17.27,0,0,1-5.15,16.9c-3.05,2.7-7,4.26-9.8,7.23a15.21,15.21,0,0,0-3.05,14.68,19.41,19.41,0,0,0,10.23,11.34,22.71,22.71,0,0,0,20.6-.7c7.73-4.37,12.23-13.14,13.37-21.95s-.65-17.73-3-26.3" fill="#263238"/><path d="M437.19,419.35c8-1.31,15.5,1.13,23.42,2.88a14,14,0,0,0,6.49.35c3.43-.88,5.87-4.22,6.4-7.72a12.64,12.64,0,0,0-2-8.76,8.411,8.411,0,0,0-2.74-2.73,9.53,9.53,0,0,0-3.83-1,27.21,27.21,0,0,0-14.1,2.66,41.58,41.58,0,0,0-11.7,8.48c-1.68,1.68-1.18,3.61-1.92,5.87" fill="#263238"/><path d="M275,290.23a62,62,0,0,1,.46-23,30.2,30.2,0,0,1,4-10.45,6.7,6.7,0,0,1,2.93-2.75,5.1,5.1,0,0,1,5.21,1.23A8.71,8.71,0,0,1,290,262a21.37,21.37,0,0,1-1.78,7.12c-3.09,7.9-8,14.46-13.25,21.1" fill="#263238"/><path d="M430,319.14c1.81,1.29,42,87.86,42,87.86h0a17.07,17.07,0,0,0-10.25-1l-2.18.58a36.48,36.48,0,0,0-10.95,5l-11.47,7.76h0a3.28,3.28,0,0,1-1.63-2.53v-.33L404.36,363Z" fill="#ff725e"/><path d="M279.09,181.32l10.72,60.93c3.45,8.2,43.68,57.88,43.68,57.88l-13.3,42.74-52.84-72.25a27.61,27.61,0,0,1-7.44-19.38l2.06-65.1Z" fill="#ffbe9d"/><path d="M336.14,290.58l27.59,2.09,24.06,3.73S430,307.49,430,312.11c0,1.54-11.52,38.23-18,60.21a152.82,152.82,0,0,0-3.88,16.24L430,437H326.17V392.59s-7-58.33-5.77-66.3S336.14,290.58,336.14,290.58Z" fill="#ff725e"/><path d="M266,156.7a122.133,122.133,0,0,1,1.9-18.5c.15-.87.51-1.92,1.38-2,1.08-.14,1.63,1.25,1.77,2.33a65.189,65.189,0,0,1-.91,22.11" fill="#eb996e"/><path d="M278.3,285.72c11.84-10.58,12.24-28.91,11.23-43.5a4.89,4.89,0,0,1,.46-3.13c1.13-1.61,3.88-1,5,.62s1,3.75.94,5.71c.61-1.66,3.21-1.65,4.43-.37s1.43,3.21,1.57,5l.39,4.88,34.59,33s.95-3,3.49-1.27,4.18,5.38,4.18,5.38l-24.37,53.19-45.23-55A18.369,18.369,0,0,1,278.3,285.72Z" fill="#ff725e"/><path d="M325.24,322.53A45.86,45.86,0,0,0,317.3,338a28.2,28.2,0,0,0,.51,17.22A23.88,23.88,0,0,0,336.14,370" fill="#ff725e"/><path d="M437.19,419.35,435.88,437h25.63l6-31.25h0a32.28,32.28,0,0,0-21.67,6.79Z" fill="#ffbe9d"/><path d="M290.35,281.81a8.589,8.589,0,0,1,.56-1.41c.4-.88.94-2.18,1.55-3.8s1.26-3.58,1.87-5.78a69.118,69.118,0,0,0,1.51-7.29,67.8,67.8,0,0,0,.63-7.41c0-2.29,0-4.35-.14-6.08s-.27-3.12-.4-4.08a9.646,9.646,0,0,1-.14-1.51,7.583,7.583,0,0,1,.34,1.48,40.324,40.324,0,0,1,.57,4.08,55.839,55.839,0,0,1,.25,6.12,57.88,57.88,0,0,1-2.16,14.81,54.9,54.9,0,0,1-2,5.79c-.66,1.62-1.25,2.9-1.71,3.76A10,10,0,0,1,290.35,281.81Z" fill="#263238"/><path d="M297.88,272.52A24.729,24.729,0,0,1,299,270a37.32,37.32,0,0,0,3-12.81,24.56,24.56,0,0,1,.15-2.75,10.35,10.35,0,0,1,.22,2.76,30.461,30.461,0,0,1-3,12.95A9.9,9.9,0,0,1,297.88,272.52Z" fill="#263238"/><path d="M338.5,300.18c-.08-.05.34-.7.58-1.88a9.92,9.92,0,0,0-.26-4.63,34.708,34.708,0,0,0-1.73-4.42,7.561,7.561,0,0,1-.7-1.88,9,9,0,0,1,1,1.72,22.909,22.909,0,0,1,1.91,4.44,9.07,9.07,0,0,1,.11,4.86A3.57,3.57,0,0,1,338.5,300.18Z" fill="#263238"/><path d="M332.49,370.62a2.058,2.058,0,0,1-.44-.25l-1.18-.78c-1-.69-2.49-1.7-4.23-3.07a36.263,36.263,0,0,1-5.61-5.37,21.52,21.52,0,0,1-4.34-8.45,26.569,26.569,0,0,1-.58-9.5,37.511,37.511,0,0,1,1.71-7.57,49.46,49.46,0,0,1,1.91-4.87c.26-.56.46-1,.61-1.28a2.21,2.21,0,0,1,.25-.44,16.992,16.992,0,0,1-.67,1.8c-.45,1.14-1.1,2.8-1.75,4.9a39.713,39.713,0,0,0-1.58,7.51,26.74,26.74,0,0,0,.6,9.32,21.34,21.34,0,0,0,4.21,8.28,38,38,0,0,0,5.47,5.38c1.7,1.4,3.13,2.45,4.12,3.2l1.12.86C332.37,370.49,332.5,370.6,332.49,370.62Z" fill="#263238"/><path d="M389.14,380.51a1.709,1.709,0,0,1-.44.16c-.3.08-.73.23-1.3.34a26.4,26.4,0,0,1-4.9.59,27.53,27.53,0,0,1-26.07-16.49,25.891,25.891,0,0,1-1.57-4.68c-.14-.57-.19-1-.25-1.32a2.089,2.089,0,0,1-.05-.47,13.644,13.644,0,0,1,.5,1.73,28,28,0,0,0,27.43,20.86,30.171,30.171,0,0,0,4.87-.42A17.134,17.134,0,0,1,389.14,380.51Z" fill="#263238"/><path d="M405.05,400c-.14,0,1.18-5.57,3-12.35s3.32-12.25,3.45-12.21-1.18,5.56-2.95,12.34S405.19,400,405.05,400Z" fill="#263238"/><path d="M419,388.21c-.12.07-4.14-6.5-9-14.68s-8.66-14.87-8.53-14.94,4.14,6.49,9,14.67S419.17,388.13,419,388.21Z" fill="#263238"/><path d="M457.39,404.4c0,.1-1.46.22-3.74.8a29.5,29.5,0,0,0-3.91,1.29,32.568,32.568,0,0,0-4.48,2.32,31.636,31.636,0,0,0-4,3.05,29.372,29.372,0,0,0-2.85,3c-1.5,1.81-2.24,3.08-2.33,3a4.45,4.45,0,0,1,.47-.92,18.585,18.585,0,0,1,1.57-2.34,26.769,26.769,0,0,1,2.81-3.1,28.942,28.942,0,0,1,4.06-3.14,29.468,29.468,0,0,1,4.58-2.32,25.431,25.431,0,0,1,4-1.21,18.111,18.111,0,0,1,2.78-.42A3.63,3.63,0,0,1,457.39,404.4Z" fill="#263238"/><path d="M462.29,398.38c0,.11-1.61-.09-4.18.13a26.723,26.723,0,0,0-17.52,8.78c-1.71,1.92-2.51,3.32-2.6,3.27a4.581,4.581,0,0,1,.53-1,9.66,9.66,0,0,1,.72-1.11,17.534,17.534,0,0,1,1.07-1.4,24.3,24.3,0,0,1,3.26-3.22,28,28,0,0,1,4.72-3.06,27.563,27.563,0,0,1,5.26-1.94,24.142,24.142,0,0,1,4.54-.69,17.424,17.424,0,0,1,1.75,0,11.862,11.862,0,0,1,1.33.08,4.471,4.471,0,0,1,1.12.16Z" fill="#263238"/><g opacity="0.3"><path d="M355.63,360.77c-2.35,4.46-.39,9.9,1.76,14.47,1.67,3.54,3.53,7.13,6.57,9.6A14,14,0,0,0,384.31,382a31.59,31.59,0,0,1-29.16-20.63"/></g><g opacity="0.3"><path d="M401.54,358.59c-1.8,4.29-.44,10.16,1.44,14.41s3.88,9,2.37,13.41a5.639,5.639,0,0,0-.59,2.52c.1.86,1,1.69,1.81,1.29a2,2,0,0,0,.81-1.24q2.13-6.42,4.27-12.83"/></g><path d="M306.94,302.1a62.609,62.609,0,0,1,1-8,62.169,62.169,0,0,1,1.53-7.88,59.181,59.181,0,0,1-1,8,61.057,61.057,0,0,1-1.53,7.88Z" fill="#fafafa"/><path d="M296.41,299.89c-.13.08-1.85-2.32-4.23-5.08s-4.48-4.83-4.38-4.94a24.679,24.679,0,0,1,4.78,4.6A25.608,25.608,0,0,1,296.41,299.89Z" fill="#fafafa"/><path d="M305.45,274.13a8.62,8.62,0,0,1-1.13,1.8c-.76,1.07-1.87,2.5-3.16,4s-2.53,2.85-3.46,3.77a8.088,8.088,0,0,1-1.59,1.4c-.11-.1,2.08-2.47,4.65-5.51S305.33,274,305.45,274.13Z" fill="#fafafa"/><path d="M301.92,261.54c-.15.06-.72-1.21-1.82-2.48s-2.28-2-2.2-2.15a4.88,4.88,0,0,1,2.59,1.81A5,5,0,0,1,301.92,261.54Z" fill="#fafafa"/><path d="M292.8,269.3a7.18,7.18,0,0,1-2.6.67,6.9,6.9,0,0,1-2.68.16,14,14,0,0,1,5.28-.83Z" fill="#fafafa"/><path d="M315.81,280.41a27.308,27.308,0,0,0-.33-4.65,26.546,26.546,0,0,0-1.63-4.37,7.85,7.85,0,0,1,2.13,4.26A8,8,0,0,1,315.81,280.41Z" fill="#fafafa"/><path d="M328.1,293.63a23.42,23.42,0,0,0-7.25-7.31,12.64,12.64,0,0,1,7.25,7.31Z" fill="#fafafa"/><path d="M308.37,316.57a12,12,0,0,1-9.17-.31c.05-.15,2,.48,4.57.55S308.33,316.42,308.37,316.57Z" fill="#fafafa"/><path d="M317.63,321.32c-.14-.06.64-2.36,1.29-5.28s.94-5.34,1.09-5.32a16.87,16.87,0,0,1-.58,5.43A17.061,17.061,0,0,1,317.63,321.32Z" fill="#fafafa"/><path d="M337.86,322.09a35.609,35.609,0,0,1-4.37-4.4,37.361,37.361,0,0,1-4-4.76,36.5,36.5,0,0,1,4.36,4.41A38.626,38.626,0,0,1,337.86,322.09Z" fill="#fafafa"/><path d="M347.28,345.46a19.108,19.108,0,0,1-3.26-3,19.54,19.54,0,0,1-2.88-3.36,19.112,19.112,0,0,1,3.26,3A18.121,18.121,0,0,1,347.28,345.46Z" fill="#fafafa"/><path d="M329.77,347.69a14.52,14.52,0,0,1-4,3,14.15,14.15,0,0,1-4.62,2c0-.14,2-1,4.36-2.41S329.67,347.57,329.77,347.69Z" fill="#fafafa"/><path d="M337.83,369.92c-.15,0,.45-2.66.75-5.95s.21-6,.36-6a19.211,19.211,0,0,1,.16,6,18.929,18.929,0,0,1-1.27,5.95Z" fill="#fafafa"/><path d="M368.14,351.85a16.811,16.811,0,0,1-4.33-3.81,16.391,16.391,0,0,1-3.19-4.79c.13-.09,1.5,2.08,3.58,4.45S368.24,351.72,368.14,351.85Z" fill="#fafafa"/><path d="M379.21,361.28c-.12-.09,1.4-2.17,3.1-4.84s2.95-4.91,3.08-4.84a21.449,21.449,0,0,1-2.65,5.12,20.861,20.861,0,0,1-3.53,4.56Z" fill="#fafafa"/><path d="M377.59,338.2a52.341,52.341,0,0,1-10-2.7,27.519,27.519,0,0,1,5.08,1.1,25.608,25.608,0,0,1,4.92,1.6Z" fill="#fafafa"/><path d="M369.52,378.82a21.2,21.2,0,0,1,0-4.74,22.4,22.4,0,0,1,.54-4.71,20.88,20.88,0,0,1,0,4.74,22,22,0,0,1-.54,4.71Z" fill="#fafafa"/><path d="M376.5,392.73a40.181,40.181,0,0,0,1.26-4.93,38.69,38.69,0,0,0,.08-5.09,12,12,0,0,1-1.34,10Z" fill="#fafafa"/><path d="M358.41,389.66a15.43,15.43,0,0,1,1.92-10c.14.06-.78,2.17-1.3,4.94S358.56,389.65,358.41,389.66Z" fill="#fafafa"/><path d="M341.91,396.71a56,56,0,0,1-4.7-3.65,58.081,58.081,0,0,1-4.63-3.73,24.279,24.279,0,0,1,5,3.32,25.411,25.411,0,0,1,4.33,4.06Z" fill="#fafafa"/><path d="M353.08,377.09a86.36,86.36,0,0,1-12,6.35A44.9,44.9,0,0,1,347,380a43.673,43.673,0,0,1,6.08-2.91Z" fill="#fafafa"/><path d="M387.79,421.12a4.528,4.528,0,0,1-.65.16c-.43.08-1.06.24-1.88.35a40.118,40.118,0,0,1-7,.45,43.2,43.2,0,0,1-37.65-23.52,39.565,39.565,0,0,1-2.68-6.51c-.27-.79-.4-1.42-.52-1.84a3.159,3.159,0,0,1-.13-.66,3.66,3.66,0,0,1,.23.63c.15.41.31,1,.61,1.81a45.3,45.3,0,0,0,8.7,14.91,43.92,43.92,0,0,0,31.45,14.81,45.492,45.492,0,0,0,7-.28c.83-.08,1.46-.21,1.89-.25a2.818,2.818,0,0,1,.63-.06Z" fill="#263238"/><path d="M357.91,415.94a7.77,7.77,0,0,1,.47-4.73,7.69,7.69,0,0,1,2.76-3.87,24.608,24.608,0,0,0-2.27,4.06A25.363,25.363,0,0,0,357.91,415.94Z" fill="#fafafa"/><path d="M349.68,412.5a17.463,17.463,0,0,0-2.6,2.48,18.279,18.279,0,0,0-1.64,3.19,6.13,6.13,0,0,1,4.24-5.67Z" fill="#fafafa"/><path d="M381.33,431.34a10.24,10.24,0,0,1-8-5,18,18,0,0,0,8,5Z" fill="#fafafa"/><path d="M386.25,403.64a7.88,7.88,0,0,1-5.43,6.4,21.356,21.356,0,0,0,3.24-2.75,20.671,20.671,0,0,0,2.19-3.65Z" fill="#fafafa"/><path d="M400.24,424.29c-.12-.1,1.2-1.77,2.42-4.07s1.87-4.33,2-4.28a15.38,15.38,0,0,1-4.44,8.35Z" fill="#fafafa"/><path d="M418.73,427c.06.15-1.76.87-3.59,2.38s-2.93,3.13-3.06,3a8.11,8.11,0,0,1,2.73-3.45A8,8,0,0,1,418.73,427Z" fill="#fafafa"/><path d="M404.63,403.33c-.16.05-1-2.87-2.87-6.11s-3.87-5.52-3.74-5.62a6.24,6.24,0,0,1,1.43,1.4,24.83,24.83,0,0,1,4.72,8.38,6.62,6.62,0,0,1,.46,1.95Z" fill="#fafafa"/><path d="M407.39,373.56a46.437,46.437,0,0,1-9.6,2.21A46.843,46.843,0,0,1,407.39,373.56Z" fill="#fafafa"/><path d="M398.88,364.66a22,22,0,0,1-3.06-3.52,21.705,21.705,0,0,1-2.65-3.83,20.091,20.091,0,0,1,3.06,3.51,20.349,20.349,0,0,1,2.65,3.84Z" fill="#fafafa"/><path d="M420,359.32a23.29,23.29,0,0,1-9.36-2.22,40.766,40.766,0,0,1,4.69,1.09A39.561,39.561,0,0,1,420,359.32Z" fill="#fafafa"/><path d="M435,359.05a38.756,38.756,0,0,1,1.53-4.16,35.4,35.4,0,0,1,1.53-4.17,13.07,13.07,0,0,1-1,4.35,12.739,12.739,0,0,1-2.06,3.98Z" fill="#fafafa"/><path d="M431.58,379.37a15,15,0,0,1-8-4.74c.1-.12,1.68,1.26,3.87,2.55S431.63,379.22,431.58,379.37Z" fill="#fafafa"/><path d="M441.32,378.75a36.24,36.24,0,0,1,1.1-5.94A35.627,35.627,0,0,1,444,367a69.627,69.627,0,0,1-2.71,11.76Z" fill="#fafafa"/><path d="M433.19,401.47a61.119,61.119,0,0,1-6.66-9.11,31.232,31.232,0,0,1,3.54,4.4,30.65,30.65,0,0,1,3.12,4.71Z" fill="#fafafa"/><path d="M447.07,392.78c-.14.07-1.05-1.74-2.49-3.76s-2.83-3.49-2.72-3.6a11.62,11.62,0,0,1,3.15,3.3A11.279,11.279,0,0,1,447.07,392.78Z" fill="#fafafa"/><path d="M460.09,390.83a49.669,49.669,0,0,1-3.2-4.19,52.075,52.075,0,0,1-3.2-4.18,27.1,27.1,0,0,1,6.4,8.37Z" fill="#fafafa"/><path d="M457,399.46a9.639,9.639,0,0,0-1.19-3.41,9.849,9.849,0,0,0-2.67-2.44c0-.06.46,0,1.09.31a5.4,5.4,0,0,1,2,1.84,5.49,5.49,0,0,1,.89,2.58C457.22,399,457.09,399.46,457,399.46Z" fill="#fafafa"/><path d="M446.88,411.29c-.08,0-.05-.27-.13-.62a2.05,2.05,0,0,0-.69-1.15,2,2,0,0,0-1.28-.39c-.36,0-.59.09-.63,0s.15-.27.58-.39a1.9,1.9,0,0,1,2.38,1.86C447.1,411.08,446.94,411.31,446.88,411.29Z" fill="#fafafa"/><path d="M342.84,430.2a14.41,14.41,0,0,1-8.24-8.2,24.36,24.36,0,0,0,8.24,8.24Z" fill="#fafafa"/><path d="M279.19,182c-1.61-15.21-4.52-29.52-5.31-44.43a2.7,2.7,0,0,0-.71-2.06,1.86,1.86,0,0,0-2.59.75,5.68,5.68,0,0,0-.5,3,68.819,68.819,0,0,1-4,23.27c-1.71,4.85-4,9.5-5.28,14.47s1.13,6.66,3.37,11.29" fill="#ffbe9d"/><path d="M264.2,188.27a13.93,13.93,0,0,1-5.29-13.17c.51-3,2-5.72,3.18-8.52s2.09-5.91,1.37-8.86a14.92,14.92,0,0,1-.8-3.39c0-1.16.75-2.46,1.91-2.51a2.84,2.84,0,0,1,2.17,1.31c1.95,2.41,3.51,9.45,2.53,14.71" fill="#ffbe9d"/><path d="M269.27,167.84s.1-.81.16-2.27a27.241,27.241,0,0,0-.51-6.14,22.233,22.233,0,0,0-1.2-4.07,8.241,8.241,0,0,0-1.12-2,2.85,2.85,0,0,0-1.87-1.27,1.8,1.8,0,0,0-1.67,1.4,4.24,4.24,0,0,0,.16,2.57,13.32,13.32,0,0,1,.7,2.83,11.331,11.331,0,0,1-.11,3c-.7,4.06-2.86,7.34-4,10.59a14.35,14.35,0,0,0-.89,4.74,13.87,13.87,0,0,0,.62,4.16,14.27,14.27,0,0,0,3,5.31c1,1.07,1.65,1.54,1.62,1.59a2.64,2.64,0,0,1-.5-.33,11.131,11.131,0,0,1-1.27-1.13,13.68,13.68,0,0,1-3.2-5.33,13.841,13.841,0,0,1-.7-4.27,14.66,14.66,0,0,1,.87-4.9c1.1-3.32,3.23-6.6,3.89-10.51a10.359,10.359,0,0,0,.11-2.88,12.691,12.691,0,0,0-.67-2.75,4.69,4.69,0,0,1-.14-2.87,2.78,2.78,0,0,1,.79-1.23,1.84,1.84,0,0,1,1.38-.49A3.27,3.27,0,0,1,267,153a8.741,8.741,0,0,1,1.16,2.16,21,21,0,0,1,1.16,4.16,24.7,24.7,0,0,1,.35,6.22,12.441,12.441,0,0,1-.22,1.68,2.27,2.27,0,0,1-.18.62Z" fill="#eb996e"/><path d="M400,249.05a6.9,6.9,0,0,0,6.17,5.34,8.66,8.66,0,0,0,7.53-3.7,11.67,11.67,0,0,0,1.87-8.36c-.57-4.21-3.37-8.26-7.43-9.51s-9.11,1-10.23,5.08l-4.68,6.53Z" fill="#263238"/><path d="M394.47,236.22A27.23,27.23,0,0,0,370,205.72c-14.51-1.38-27.42,9.43-29.59,23.85-1.91,12.64-3.55,25.4-3.49,30,.18,14,8.35,19.42,11.67,21a18.341,18.341,0,0,0,3.68.91h0a.09.09,0,0,1,.07.11l-3.1,16c-1.41,10.51,4.46,19.89,14.95,21.42s18.76-6.54,20.37-17.06Z" fill="#ffbe9d"/><path d="M342.82,237.74c.23.33,2.07-.66,4.44-.31s3.92,1.79,4.22,1.53c.15-.11-.06-.66-.73-1.32a6.12,6.12,0,0,0-3.33-1.59,5.92,5.92,0,0,0-3.59.61C343,237.11,342.7,237.59,342.82,237.74Z" fill="#263238"/><path d="M363.86,242.3c.23.33,2.08-.66,4.44-.31s3.93,1.79,4.23,1.53c.14-.11-.06-.66-.74-1.33a6.11,6.11,0,0,0-3.32-1.58,5.91,5.91,0,0,0-3.59.61C364.07,241.67,363.75,242.15,363.86,242.3Z" fill="#263238"/><path d="M355.68,253.48a15.93,15.93,0,0,0-3.74-1.25c-.6-.15-1.15-.36-1.19-.78a3.11,3.11,0,0,1,.66-1.73l2.46-4.34c3.43-6.19,6-11.31,5.76-11.45s-3.24,4.77-6.67,11l-2.39,4.37a3.65,3.65,0,0,0-.66,2.33,1.57,1.57,0,0,0,.87,1,4.319,4.319,0,0,0,1,.29,15.569,15.569,0,0,0,3.9.56Z" fill="#263238"/><path d="M352.36,281.58s9,2.08,21.45-3.12c0,0-5.36,11.55-22.28,7.44Z" fill="#eb996e"/><path d="M355.85,259.33a4.31,4.31,0,0,1,4-1,4,4,0,0,1,2.48,1.84,2.47,2.47,0,0,1-.23,2.84,2.86,2.86,0,0,1-3.21.33,8.88,8.88,0,0,1-2.76-2.24,2.53,2.53,0,0,1-.58-.8.78.78,0,0,1,.14-.88" fill="#eb996e"/><path d="M362.4,256.13c-.38-.08-.76,2.49-3.22,4s-5.16.82-5.23,1.18c-.06.16.54.59,1.69.79a6.48,6.48,0,0,0,4.34-.84,5.64,5.64,0,0,0,2.54-3.37C362.77,256.82,362.58,256.14,362.4,256.13Z" fill="#263238"/><path d="M365.49,234.6c.14.68,2.55.72,5.27,1.46s4.87,1.82,5.32,1.3c.2-.25-.1-.91-.91-1.67a9.52,9.52,0,0,0-8.07-2.1C366,233.85,365.44,234.28,365.49,234.6Z" fill="#263238"/><path d="M345.21,230.45c.33.6,2.05.28,4,.54s3.57.88,4,.38c.21-.25,0-.83-.63-1.44a5.84,5.84,0,0,0-6.48-.74C345.37,229.64,345.06,230.16,345.21,230.45Z" fill="#263238"/><path d="M337.67,226.44c2.89,4.41,12.07,1.68,17.61-1.35a13.18,13.18,0,0,0,18-3.72c3.17,4,9.62,2.7,12-1.85s1-10.82-2.2-14.8-7.94-6-12.6-6.85c-11.05-2-23.08,2.24-29.69,12.23-3.05,4.61-4.88,10.82-3.07,16.34" fill="#263238"/><path d="M368.21,199.44c0,.2-2.61-.3-6.71.38a24.4,24.4,0,0,0-13.88,7.47A30.24,30.24,0,0,0,341,221.75a40,40,0,0,0-.35,6.7,6.129,6.129,0,0,1-.37-1.8,20.762,20.762,0,0,1,.08-5,29.13,29.13,0,0,1,6.62-15,24,24,0,0,1,14.48-7.51,21.29,21.29,0,0,1,5-.08,5.869,5.869,0,0,1,1.75.38Z" fill="#455a64"/><path d="M353.27,220a4.54,4.54,0,0,1-.22-1.57,15.51,15.51,0,0,1,.45-4.31A17.75,17.75,0,0,1,375.78,201a16.231,16.231,0,0,1,4,1.7,4.34,4.34,0,0,1,1.27,1,32.681,32.681,0,0,0-5.42-2,17.71,17.71,0,0,0-21.5,12.66C353.15,217.7,353.46,220,353.27,220Z" fill="#455a64"/><path d="M379.78,215.2a52.268,52.268,0,0,0-1.86,12,17.67,17.67,0,0,0,3.59,11.34c3.86,4.65,10.3,6.07,16.24,7.2a47,47,0,0,0,2.77-25c-.68-4.09-2-8.26-4.88-11.24a13.59,13.59,0,0,0-16.5-2" fill="#263238"/><path d="M383.08,234.56c-1.56,3.38-1.45,7.29-.91,11s1.48,7.34,1.44,11.06-1.22,7.67-4.14,10a17.593,17.593,0,0,0-2.48,2,2.59,2.59,0,0,0-.52,2.93c.56.9,2.25.88,2.49-.15l-.15.26a1.65,1.65,0,0,0,1.4,2.49,7.49,7.49,0,0,0,5.34-2.62c1.91-2.21,2.67-5.18,3.17-8,1.54-8.83,1.24-18,3.68-26.61" fill="#263238"/><path d="M349.17,292.55a21.51,21.51,0,0,0,28.73,15.26c5.18-2,9.36-5.9,13.39-9.71a31.37,31.37,0,0,1-29.07,36.46c-6.63.4-13.75-1.62-17.92-6.79a20.1,20.1,0,0,1-4-13,47.36,47.36,0,0,1,2.62-13.6c1.18-3.78,3.05-8,6.87-9.05" fill="#ff725e"/><path d="M396.61,246c4,2.15,6.14,6.65,6.91,11.09s.38,9,.57,13.49,1.05,9.21,3.9,12.7c3,3.72,7.75,5.48,12,7.75,9.32,5,17,13.53,19.8,23.75s.26,22-7.39,29.35c-7,6.66-17.1,9-26.74,9-6.87,0-14.42-1.48-18.71-6.85s-4-12.9-2.5-19.52,4.25-13.05,4.36-19.84a35.35,35.35,0,0,1-5.28,11.74c-.71,1-1.92,2.1-3,1.52s-.75-2.45-.19-3.7c8.28-18.43,5.4-55.58,10.31-75.93" fill="#263238"/><path d="M389.79,243.91c.25-.08,9.92-1.91,8.67,7.65s-10.58,6.34-10.56,6.07S389.79,243.91,389.79,243.91Z" fill="#ffbe9d"/><path d="M391.29,254.39a3.755,3.755,0,0,0,.42.3,1.69,1.69,0,0,0,1.24.19c1.06-.24,2.12-1.74,2.39-3.45a5.67,5.67,0,0,0-.16-2.45,1.93,1.93,0,0,0-1.09-1.44.86.86,0,0,0-1,.33c-.16.25-.13.45-.18.46s-.18-.19-.06-.57a1.07,1.07,0,0,1,.46-.55,1.26,1.26,0,0,1,1-.13,2.37,2.37,0,0,1,1.55,1.71,5.779,5.779,0,0,1,.23,2.74c-.31,1.92-1.53,3.59-3,3.81a1.78,1.78,0,0,1-1.49-.45C391.28,254.62,391.26,254.4,391.29,254.39Z" fill="#eb996e"/><path d="M339.29,313.15a23.617,23.617,0,0,1,1.62-2.95,39.811,39.811,0,0,0,3.45-7.29,18,18,0,0,0,.86-7.92,30.933,30.933,0,0,0-.76-3.25,2.7,2.7,0,0,1,.43.81,10.618,10.618,0,0,1,.7,2.39,17,17,0,0,1-.73,8.13,33.58,33.58,0,0,1-3.63,7.32c-.56.88-1,1.58-1.37,2.05A5.057,5.057,0,0,1,339.29,313.15Z" fill="#263238"/><path d="M344.16,302.12c-.14,0-.41-.82-1.27-1.39s-1.72-.57-1.74-.72.21-.17.6-.18a2.51,2.51,0,0,1,1.44.47,2.63,2.63,0,0,1,.94,1.19C344.26,301.86,344.23,302.1,344.16,302.12Z" fill="#fafafa"/><path d="M350.34,302.1a18.826,18.826,0,0,0-2.46-2.31,16.539,16.539,0,0,0-3.1-1.34,4.49,4.49,0,0,1,3.38.91,4.64,4.64,0,0,1,2.18,2.74Z" fill="#fafafa"/><path d="M354.22,322.39a16.61,16.61,0,0,1,.58-4.08,16.429,16.429,0,0,1,1.09-4,16.662,16.662,0,0,1-.58,4.09A16.432,16.432,0,0,1,354.22,322.39Z" fill="#fafafa"/><path d="M369.82,325.45a36.5,36.5,0,0,1,.27-8.61,35.131,35.131,0,0,1-.27,8.61Z" fill="#fafafa"/><path d="M51.31,369.89,35.89,437.04l32.61.1,15.06-59.05Z" fill="#b78876"/><path d="M211.45,287.39c-3.1-4.15-6.66-8.14-8.29-13.06-.79-2.38-1.1-4.9-1.94-7.26s-2.37-4.66-4.71-5.55-4.12,0-5.64,1.68l-11.19,32.73,6.45,25.14c6.44-1.45,14.5-3.17,20.52-5.88s10-7.05,10.42-13.64C217.36,296.38,214.55,291.55,211.45,287.39Z" fill="#263238"/><path d="M109.62,281.61s-38.9,16.93-43.76,24.57S45,368.29,45,368.29l41,12L85.3,437H185.8l-.83-100-12.6-55.26s-22.19-1.43-24.25-2.44S109.62,281.61,109.62,281.61Z" fill="#ff725e"/><path d="M247.86,143c.32-2.29-1.29-4.81-.13-6.82a5.68,5.68,0,0,1,3.11-2.11,5,5,0,0,1,1.92-.45,1.69,1.69,0,0,1,1.57,1,2.14,2.14,0,0,1-.77,2.07,6.1,6.1,0,0,0-1.51,1.74,10.441,10.441,0,0,0,.37,4.92,86.931,86.931,0,0,1,3.31,10.7" fill="#b78876"/><path d="M239.65,143.78c.14-3.47,3-17.14,3.1-20.61,2.35.72,3.71,3.22,4.15,5.64s.21,4.91.63,7.33c.56,3.25,2.25,6.18,3.95,9s3.48,5.69,4.25,8.89,3.67,11.52,1.41,13.92" fill="#b78876"/><path d="M239,167.18l-13.91,66.08c-.49,3-52.72,48.55-52.72,48.55L182.68,323l68-66.53a27.64,27.64,0,0,0,7.45-19.39l-1.16-62Z" fill="#b78876"/><path d="M236.62,144.2l2.38,23,18,7.92s.22-1.63,1-9.6c.85-8.78-8.59-12.55-12.8-19-1.8-2.77-1.33-7.87-2.72-14.19-.16-.73-1.16-5.15-1.7-7.52a5.34,5.34,0,0,0-2.16-3.25c-.82-.54-1.74-.81-2.41,0S236.62,144.2,236.62,144.2Z" fill="#b78876"/><path d="M247.86,171c2-1.73,2.48-4.83,1.73-7.4a18.87,18.87,0,0,0-4.25-6.76,26.821,26.821,0,0,1-4.69-6.5c-.76-1.72-1.12-3.62-2-5.31s-2.37-3.24-4.25-3.31c1.51,9.51,1.47,15,4.56,25.42" fill="#b78876"/><path d="M236.27,152.58s-.07-.26-.18-.76-.3-1.33-.48-2.18c-.43-2-1-4.55-1.59-7.48l-.06-.28h.29a4.66,4.66,0,0,1,3.36,1.26,10.09,10.09,0,0,1,2.82,4.81A24.938,24.938,0,0,0,242,152.1a12.8,12.8,0,0,0,1.76,2.43,3.63,3.63,0,0,1,.6.95,7.372,7.372,0,0,1-.76-.82,11.36,11.36,0,0,1-1.92-2.38,23.58,23.58,0,0,1-1.72-4.19,9.89,9.89,0,0,0-2.7-4.58,4.25,4.25,0,0,0-3-1.15l.24-.3C235.71,148.08,236.49,152.59,236.27,152.58Z" fill="#7c5142"/><path d="M244.36,146.73a86.178,86.178,0,0,1-1.66-9.38,87.169,87.169,0,0,1-1.15-9.46,83.844,83.844,0,0,1,1.66,9.39,87.157,87.157,0,0,1,1.15,9.45Z" fill="#7c5142"/><path d="M250.09,147.51a1.122,1.122,0,0,1,.13.35h-.15a53.839,53.839,0,0,1-1.82-6.54c-.43-1.93-.74-3.69-.93-5a7.75,7.75,0,0,1-.18-2.09c.15,0,.76,3.11,1.62,7,.69,3.11,1.33,5.73,1.46,6.61h-.15C250.06,147.63,250.06,147.51,250.09,147.51Z" fill="#7c5142"/><path d="M253.64,160.18c-.08,0-.44-.52-1.16-1.29a11.25,11.25,0,0,0-7.25-3.5,12,12,0,0,1-1.73-.11,4,4,0,0,1,1.74-.26,9.84,9.84,0,0,1,7.51,3.63,3.92,3.92,0,0,1,.89,1.53Z" fill="#7c5142"/><path d="M240.63,169a13.611,13.611,0,0,1-1.19-2.72,60.3,60.3,0,0,1-2.06-6.86,59.386,59.386,0,0,1-1.26-7,14.52,14.52,0,0,1-.18-3,20.21,20.21,0,0,1,.54,2.91c.3,1.79.76,4.27,1.4,7s1.36,5.12,1.91,6.86a21.08,21.08,0,0,1,.84,2.81Z" fill="#7c5142"/><path d="M160.16,283a6.34,6.34,0,0,1,8.52-2c7.34-6,14.85-11.82,22.19-17.79-2.4,12-4,28.73,1.37,39.71,0,0,6.77,12.58,17.55,10.66L200.17,323,185,337.07" fill="#ff725e"/><path d="M157.78,288.6a8.1,8.1,0,0,1,1.41-4.51,8.19,8.19,0,0,1,3.36-3.34A17.53,17.53,0,0,0,157.78,288.6Z" fill="#263238"/><path d="M165.71,296a6.17,6.17,0,0,1-.84-2.18,14.1,14.1,0,0,1,1.93-10.91,6.26,6.26,0,0,1,1.54-1.77c.07.06-.51.74-1.22,2a15.9,15.9,0,0,0-1.89,5.15,16.16,16.16,0,0,0,0,5.49A21.98,21.98,0,0,1,165.71,296Z" fill="#263238"/><path d="M202.45,321.68a8.12,8.12,0,0,1-2.39,1,13.29,13.29,0,0,1-7-.21,16.86,16.86,0,0,1-8.42-6,28.34,28.34,0,0,1-5-11.71,88.351,88.351,0,0,1-1.2-23.12c.23-3,.56-5.34.84-7,.13-.82.25-1.45.34-1.88a3.291,3.291,0,0,1,.16-.65,2.8,2.8,0,0,1-.06.67l-.24,1.89c-.21,1.64-.49,4-.67,7a92.689,92.689,0,0,0,1.34,23A28.24,28.24,0,0,0,185,316.1a16.52,16.52,0,0,0,8.15,6,13.461,13.461,0,0,0,6.85.37A19.2,19.2,0,0,0,202.45,321.68Z" fill="#fafafa"/><path d="M86.19,397.17c-.14,0-.26-14.22-.26-31.75s.12-31.75.26-31.75.26,14.21.26,31.75S86.34,397.17,86.19,397.17Z" fill="#263238"/><path d="M85.39,322.7c-.11,0-.08-1.42-.57-3.63a20.12,20.12,0,0,0-1.25-3.76,22.591,22.591,0,0,0-2.47-4.16,22.85,22.85,0,0,0-3.37-3.48,20.678,20.678,0,0,0-3.29-2.2c-2-1.05-3.39-1.4-3.36-1.5a3.5,3.5,0,0,1,1,.2,7.549,7.549,0,0,1,1.11.37,10.912,10.912,0,0,1,1.43.61A18.348,18.348,0,0,1,78,307.29a22.461,22.461,0,0,1,3.47,3.54,21.26,21.26,0,0,1,2.5,4.29A18.5,18.5,0,0,1,85.18,319a12.218,12.218,0,0,1,.21,1.54,8.539,8.539,0,0,1,.06,1.17A4.31,4.31,0,0,1,85.39,322.7Z" fill="#263238"/><path d="M153.88,281.17a4.651,4.651,0,0,1,.17.85,20.867,20.867,0,0,1,.26,2.45,25.5,25.5,0,0,1-1.25,8.95,26.26,26.26,0,0,1-7.25,11.22A25.81,25.81,0,0,1,115,307a26.24,26.24,0,0,1-8.84-10,25.589,25.589,0,0,1-2.57-8.66,22.648,22.648,0,0,1-.11-2.46,5.12,5.12,0,0,1,0-.86,5.119,5.119,0,0,1,.07.85,24.31,24.31,0,0,0,.2,2.44,26.42,26.42,0,0,0,2.7,8.52,26.1,26.1,0,0,0,8.77,9.79,25.5,25.5,0,0,0,30.22-2.27,26.09,26.09,0,0,0,7.22-11,26.77,26.77,0,0,0,1.4-8.83,17.033,17.033,0,0,0-.17-2.44A2.634,2.634,0,0,1,153.88,281.17Z" fill="#263238"/><path d="M85.33,367.93c0,.14-8.31-2.47-18.45-5.82s-18.33-6.18-18.28-6.32,8.3,2.47,18.45,5.82S85.37,367.79,85.33,367.93Z" fill="#fafafa"/><path d="M184,354.05c0,.15-22.05.36-49.25.47s-49.26.09-49.26,0,22.05-.36,49.26-.47S184,353.91,184,354.05Z" fill="#fafafa"/><path d="M184.5,362.76c0,.14-22.17.26-49.5.26s-49.51-.12-49.51-.26,22.16-.26,49.51-.26S184.5,362.61,184.5,362.76Z" fill="#fafafa"/><path d="M170.92,373.34a4.549,4.549,0,0,1-.28.81c-.22.56-.52,1.32-.89,2.28l-.66,1.64c-.26.6-.57,1.23-.89,1.92-.66,1.36-1.34,2.94-2.29,4.6l-1.44,2.62c-.5.91-1.1,1.81-1.68,2.77-1.14,1.93-2.54,3.87-4,5.94a107.829,107.829,0,0,1-10.7,12.4,107.466,107.466,0,0,1-12.61,10.46c-2.1,1.4-4.07,2.77-6,3.87-1,.56-1.88,1.14-2.8,1.63L124,425.66c-1.67.91-3.27,1.57-4.64,2.2-.69.3-1.33.6-1.93.85l-1.66.63-2.29.85a4.386,4.386,0,0,1-.82.26,5.189,5.189,0,0,1,.78-.36l2.26-.94,1.63-.67c.6-.26,1.23-.57,1.91-.89,1.36-.65,2.94-1.33,4.59-2.26l2.63-1.4c.91-.5,1.82-1.09,2.78-1.65,1.93-1.11,3.88-2.49,6-3.89a101.269,101.269,0,0,0,23.2-22.75c1.45-2.05,2.86-4,4-5.89.59-.95,1.2-1.84,1.71-2.74l1.45-2.6c1-1.63,1.67-3.2,2.35-4.55.33-.68.66-1.3.93-1.89s.49-1.13.7-1.62c.41-.94.74-1.68,1-2.24a8.214,8.214,0,0,1,.34-.77Z" fill="#263238"/><g opacity="0.3"><path d="M166.86,382c-6.72,8.18-13.76,14.11-23.63,17.93-4.73,1.82-9.68,3.07-14.26,5.24s-8.9,5.44-11,10.07c-1.59,3.58-.82,9,3,9.78a8.11,8.11,0,0,0,4.35-.67c19.55-7.09,32.4-25,41.48-42.35"/></g><path d="M96.93,204.08c-4.22,3.31-4.5,9.5-4.29,14.86S92.91,230.4,89,234.1c-3.2,3.05-8.8,4.18-9.72,8.51a5,5,0,0,0,8.08,4.95c-1.36,3.39-.74,7.73,2.15,10s7.94,1.19,9-2.29a4.42,4.42,0,1,0,8.6,2" fill="#263238"/><path d="M158.17,242.89a5.33,5.33,0,1,0,10-3.62c-.83-2.08-3-3.65-3.05-5.88-.13-2.7,2.71-4.49,5.2-5.54s5.41-2.45,5.8-5.12-1.84-4.72-3.7-6.55-3.65-4.61-2.34-6.87c.67-1.15,2-1.77,2.86-2.78,1.94-2.24,1.16-6-1.08-7.91s-5.45-2.35-8.38-2-5.73,1.45-8.6,2.16a35.39,35.39,0,0,1-28-5" fill="#263238"/><path d="M99.8,224.7l10.29,59.64A19.19,19.19,0,0,0,132.38,300h0a19.2,19.2,0,0,0,15.74-20.6c-.47-5.29-.87-9.67-.87-9.67s14.94-3.84,13.65-19c-.63-7.34-3.14-22.35-5.58-35.91a28.38,28.38,0,0,0-30.7-23.21l-1.46.14A28.19,28.19,0,0,0,99.8,224.7Z" fill="#b78876"/><path d="M152.13,224.61a2.16,2.16,0,0,1-1.87,2.39,2.07,2.07,0,0,1-2.42-1.73,2.16,2.16,0,0,1,1.87-2.39,2.07,2.07,0,0,1,2.42,1.73Z" fill="#263238"/><path d="M152.79,222.54c-.24.3-2-.75-4.33-.52s-3.93,1.57-4.21,1.31c-.13-.12.09-.65.78-1.27a5.94,5.94,0,0,1,3.34-1.39,5.76,5.76,0,0,1,3.48.76C152.62,221.91,152.91,222.4,152.79,222.54Z" fill="#263238"/><path d="M129.33,227.28a2.18,2.18,0,0,1-1.88,2.38,2.08,2.08,0,0,1-2.42-1.73,2.18,2.18,0,0,1,1.87-2.39,2.09,2.09,0,0,1,2.43,1.74Z" fill="#263238"/><path d="M129.92,225.2c-.24.31-2-.74-4.33-.51s-3.92,1.57-4.21,1.31c-.13-.12.09-.65.78-1.27a6,6,0,0,1,3.34-1.39,5.69,5.69,0,0,1,3.48.76C129.75,224.58,130,225.07,129.92,225.2Z" fill="#263238"/><path d="M140.07,241.67a15.274,15.274,0,0,1,3.71-1.06c.59-.12,1.15-.29,1.21-.71a3.14,3.14,0,0,0-.57-1.72l-2.21-4.36c-3.07-6.22-5.35-11.35-5.1-11.47s2.94,4.82,6,11l2.13,4.4a3.43,3.43,0,0,1,.53,2.3,1.49,1.49,0,0,1-.89,1,4.481,4.481,0,0,1-1,.24,15.769,15.769,0,0,1-3.81.38Z" fill="#263238"/><path d="M129.63,216c-.17.66-2.52.58-5.22,1.18s-4.85,1.56-5.26,1c-.19-.25.13-.89,1-1.59a9,9,0,0,1,3.8-1.76,8.88,8.88,0,0,1,4.19.09C129.15,215.25,129.7,215.7,129.63,216Z" fill="#263238"/><path d="M151.28,215.87c-.36.57-2,.18-4,.34s-3.53.71-4,.19c-.19-.25,0-.81.68-1.38a5.51,5.51,0,0,1,3.13-1.18,5.45,5.45,0,0,1,3.25.76C151.15,215.08,151.43,215.6,151.28,215.87Z" fill="#263238"/><path d="M114.64,206.46l-.08.08a12,12,0,0,0-3.68,8.14v.31c-.17,4.39.36,8.78.15,13.16s-1.28,8.92-4.19,12.21c-1.19,1.35-3.43,2.42-4.65,1.09a3.71,3.71,0,0,1-.74-1.93c-1.82-10.36-5.58-19.35-6.62-30.28a9.21,9.21,0,0,1,3.09-7.86c2.12-1.87,4.75-3.84,7.41-2.88s6.41,5.39,8.58,7.21" fill="#263238"/><path d="M105.58,231.06c-.27-.08-10.72-2.06-9.38,8.27s11.44,6.86,11.42,6.56S105.58,231.06,105.58,231.06Z" fill="#b78876"/><path d="M104,242.39a2.74,2.74,0,0,1-.45.32,1.77,1.77,0,0,1-1.34.21c-1.14-.26-2.29-1.88-2.58-3.73a6,6,0,0,1,.17-2.65,2.12,2.12,0,0,1,1.18-1.56.93.93,0,0,1,1.12.36c.18.27.14.49.2.5s.2-.2.06-.62a1.17,1.17,0,0,0-.49-.6,1.38,1.38,0,0,0-1-.13,2.57,2.57,0,0,0-1.68,1.85,6.29,6.29,0,0,0-.25,3c.34,2.07,1.66,3.88,3.21,4.12a1.91,1.91,0,0,0,1.61-.49A1.067,1.067,0,0,0,104,242.39Z" fill="#7c5142"/><path d="M105.12,200.14c-3-3.9,3.46-10.54,8.42-12.65s11.95-.28,17.21.91c3.31.76,6.66,1.93,10,1.46a23,23,0,0,0,6.41-2.31,16.83,16.83,0,0,1,6.5-2,6.28,6.28,0,0,1,5.8,2.93c1.06,2,.11,5-2.11,5.55a5.12,5.12,0,1,1,2.28,9.3c1.37-1.26,3.81.37,3.81,2.22s-1.55,3.37-3.17,4.28c-4.14,2.32-9.24,2.2-13.86,1.13s-9-3-13.6-4.2-12.31-3.36-16.61-1.35c-3.16,1.47-5.06,5.64-7,5a6.35,6.35,0,0,1-3.73-4.34,18.36,18.36,0,0,1-.38-5.92" fill="#263238"/><path d="M105.71,232.83a90.408,90.408,0,0,0,1.88,16.34A30.55,30.55,0,0,0,115,263.62c5,5.13,11.56,10,18.66,11.21,7.75,1.28,17.23-.34,23.54-5,3-2.21,5.17-7,4.24-10.62a7.88,7.88,0,0,0,4.5-6.6c.16-2.8-1.55-6.3-3.76-6.67,1.66-.28,2.14-2.92,1.51-4.41s-2.82-1.94-4.48-1.62a11.56,11.56,0,0,0-4.47,2.3,15.769,15.769,0,0,1-4.33,2.58c-5.36,1.74-10.79-3-16.42-2.77-5.09.2-9.62,4.43-14.67,3.72a10.17,10.17,0,0,1-6.8-4.73c-1.56-2.39-.88-11.22-1.49-14" fill="#263238"/><g opacity="0.6"><path d="M146.56,256.64a9.551,9.551,0,0,1-1.24-.38,6.64,6.64,0,0,0-5.78,1.05c-.64.46-1,.83-1,.78a2.484,2.484,0,0,1,.81-1,6,6,0,0,1,6.11-1.1C146.2,256.24,146.59,256.59,146.56,256.64Z" fill="#455a64"/></g><path d="M135.61,245.15c.38-.06.63,2.47,3,4s5,1.05,5.06,1.4c.05.15-.55.55-1.69.69a6.31,6.31,0,0,1-4.21-1,5.49,5.49,0,0,1-2.32-3.42C135.22,245.8,135.44,245.15,135.61,245.15Z" fill="#fff"/><path d="M128.09,273.14a2.679,2.679,0,0,1,.65.24c.43.16,1.06.38,1.89.61a33.712,33.712,0,0,0,7.2,1.13,31.759,31.759,0,0,0,5-.1,28,28,0,0,0,5.65-1.1,23,23,0,0,0,5.76-2.63,17.48,17.48,0,0,0,5-4.54,10.39,10.39,0,0,0,2-7.5v-.21l.18-.08a8.11,8.11,0,0,0,3.13-2.57,9.13,9.13,0,0,0,1-1.68,6.07,6.07,0,0,0,.44-1.81,7.13,7.13,0,0,0-2.4-6.05l-.15-.12.12-.15a4.2,4.2,0,0,0,.62-4.11,4,4,0,0,0-2.3-2.26,4.4,4.4,0,0,0-2.09-.29c-.49.06-.73.15-.74.12a2.53,2.53,0,0,1,.73-.22,4.36,4.36,0,0,1,4.68,2.53,4.56,4.56,0,0,1-.6,4.47v-.27a7.55,7.55,0,0,1,2.62,6.39,6.59,6.59,0,0,1-.47,2,10.391,10.391,0,0,1-1.05,1.78,8.48,8.48,0,0,1-3.32,2.75l.15-.3a10.75,10.75,0,0,1-2,7.92,17.94,17.94,0,0,1-5.15,4.67,22.509,22.509,0,0,1-5.89,2.65,27.579,27.579,0,0,1-5.75,1.08,32.229,32.229,0,0,1-5.09,0,31.53,31.53,0,0,1-7.23-1.31,16.281,16.281,0,0,1-1.87-.71,3.7,3.7,0,0,1-.72-.33Z" fill="#455a64"/><path d="M82.76,246.75a1.58,1.58,0,0,1-.53-.26,3,3,0,0,1-1-1.32,4.49,4.49,0,0,1-.21-2.66,5.37,5.37,0,0,1,2-2.93,13.359,13.359,0,0,1,3.8-2,24.629,24.629,0,0,0,4.42-1.88,8.64,8.64,0,0,0,3.33-3.92,14.33,14.33,0,0,0,1.18-5.5c.08-3.91-.82-7.62-.92-11.07s.5-6.67,2.07-8.83a8.32,8.32,0,0,1,5-3.43,5.66,5.66,0,0,1,1.68-.08,4.1,4.1,0,0,1,.58.11,8.93,8.93,0,0,0-2.21.17,8.27,8.27,0,0,0-4.79,3.44c-1.46,2.1-2.07,5.22-1.89,8.6s1,7.09,1,11.11A14.84,14.84,0,0,1,95,232a9.09,9.09,0,0,1-3.55,4.12A23.641,23.641,0,0,1,86.9,238a13.15,13.15,0,0,0-3.71,1.86,5.06,5.06,0,0,0-1.93,2.7,4.27,4.27,0,0,0,.11,2.52,3.33,3.33,0,0,0,1.39,1.67Z" fill="#455a64"/><path d="M157.73,193.86a2.278,2.278,0,0,1,.45-.21,3.352,3.352,0,0,1,.59-.2,5,5,0,0,1,.83-.17,6.19,6.19,0,0,1,5.1,1.83h0a8.29,8.29,0,0,1,1.55,6.2,10.17,10.17,0,0,1-4.1,6.77,15.71,15.71,0,0,1-8.7,3A34.88,34.88,0,0,1,143.36,210a45.76,45.76,0,0,1-14.66-6.49,46.068,46.068,0,0,0-6-3.49,16.4,16.4,0,0,0-5.8-1.48,17.32,17.32,0,0,0-8.51,1.58c-1.87.88-2.76,1.64-2.8,1.58a12.279,12.279,0,0,1,2.71-1.77,17.25,17.25,0,0,1,8.62-1.76,16.7,16.7,0,0,1,6,1.45,46.531,46.531,0,0,1,6.09,3.49,46.09,46.09,0,0,0,14.52,6.38,34.74,34.74,0,0,0,9.94,1.12,15.43,15.43,0,0,0,8.45-2.88,9.86,9.86,0,0,0,4-6.46,8,8,0,0,0-1.39-6h0a6.09,6.09,0,0,0-4.85-1.87,13,13,0,0,0-1.95.46Z" fill="#455a64"/><path d="M152.43,185.05a5.85,5.85,0,0,1-.47,2.29,9.75,9.75,0,0,1-4.28,4.67,12.26,12.26,0,0,1-4.17,1.5,17.61,17.61,0,0,1-5.08,0c-3.57-.45-7.26-1.85-11.14-3.06s-7.79-1.93-11.23-1.19a14.84,14.84,0,0,0-7.89,4.6,15.41,15.41,0,0,0-3.19,5.36c-.46,1.42-.55,2.25-.61,2.24a2.46,2.46,0,0,1,0-.6,11.45,11.45,0,0,1,.37-1.7,14.77,14.77,0,0,1,3.11-5.55,15,15,0,0,1,8.06-4.82c3.56-.79,7.58-.06,11.48,1.16s7.56,2.62,11.05,3.08a17.13,17.13,0,0,0,4.95,0,12,12,0,0,0,4.06-1.39,9.76,9.76,0,0,0,4.27-4.43A14.248,14.248,0,0,0,152.43,185.05Z" fill="#455a64"/><path d="M228.12,121.76c-.09.11-5.71-4.46-12.56-10.21S203.24,101,203.34,100.93s5.71,4.46,12.56,10.22S228.22,121.65,228.12,121.76Z" fill="#263238"/><path d="M256.64,114.91c-.14,0-.71-8.88-1.26-19.85s-.89-19.87-.75-19.88.71,8.88,1.27,19.86S256.78,114.91,256.64,114.91Z" fill="#263238"/><path d="M238.48,108.56c-.14,0-1.89-5-3.92-11.33S231,85.79,231.14,85.75s1.89,5,3.92,11.32S238.61,108.52,238.48,108.56Z" fill="#263238"/><path d="M222.29,131.14a69,69,0,0,1-7.71-3.25,67,67,0,0,1-7.5-3.73,69,69,0,0,1,7.71,3.25,68,68,0,0,1,7.5,3.73Z" fill="#263238"/><path d="M196,119.65c0,.14-.85.16-1.86,0s-1.81-.34-1.79-.48.85-.16,1.85,0S196,119.51,196,119.65Z" fill="#263238"/><path d="M231.79,79.29c-.15,0-.26-.81-.26-1.82s.11-1.83.26-1.83.26.82.26,1.83S231.93,79.29,231.79,79.29Z" fill="#263238"/><path d="M292,93.41c.11.1-4.51,5.39-10.3,11.82S271.13,116.8,271,116.7s4.51-5.38,10.3-11.82S291.9,93.32,292,93.41Z" fill="#263238"/><path d="M299.35,86.14c.1.1-.43.8-1.19,1.56s-1.45,1.28-1.55,1.18.43-.8,1.19-1.55S299.25,86,299.35,86.14Z" fill="#263238"/><path d="M317.17,111.74a9.123,9.123,0,0,1-1.36.81c-.89.49-2.19,1.18-3.81,2-3.25,1.64-7.8,3.78-12.92,5.91s-9.85,3.83-13.31,5c-1.72.57-3.12,1-4.1,1.29a8,8,0,0,1-1.53.39,9.458,9.458,0,0,1,1.47-.58l4-1.45c3.42-1.23,8.11-3,13.23-5.1s9.67-4.21,13-5.76l3.88-1.84a10.8,10.8,0,0,1,1.45-.67Z" fill="#263238"/><path d="M302.55,136.36a13.62,13.62,0,0,1-2.66.87c-1.66.46-4,1-6.58,1.45s-5,.7-6.69.82a12.859,12.859,0,0,1-2.79.05,18.507,18.507,0,0,1,2.76-.42c1.7-.21,4.05-.53,6.63-1s4.91-.92,6.59-1.28A15.1,15.1,0,0,1,302.55,136.36Z" fill="#263238"/><path d="M315.84,133.9a16.08,16.08,0,0,1-5.76,0A16.08,16.08,0,0,1,315.84,133.9Z" fill="#263238"/><path d="M240.68,382a10.65,10.65,0,0,1,7,4.48,18.73,18.73,0,0,1,3,7.93c.91,5.44-.56,11.62-2.58,16.76-5.55-2.61-8.51-9.07-9.8-12.45-2-5.33-2.51-16.22,2.33-16.72" fill="#ff725e"/><path d="M256.33,418.86a9.05,9.05,0,0,1-.21-9.1,12,12,0,0,1,7.38-5.66,5.08,5.08,0,0,1,4.27.3,3.88,3.88,0,0,1,1.4,3.67,7.92,7.92,0,0,1-1.74,3.69c-2.9,3.74-6.38,6.82-11.1,7.1" fill="#ff725e"/><path d="M254.93,436.1a4.2,4.2,0,0,1-.19-1.14c-.07-.74-.17-1.82-.24-3.15a39.29,39.29,0,0,1,.63-10.4,19.71,19.71,0,0,1,4.73-9.27,12.761,12.761,0,0,1,2.46-2,3.26,3.26,0,0,1,1-.52,25.564,25.564,0,0,0-3.18,2.83,20.48,20.48,0,0,0-4.44,9.1,44.571,44.571,0,0,0-.8,10.26A35.64,35.64,0,0,1,254.93,436.1Z" fill="#263238"/><path d="M242,390.29a12,12,0,0,1,.7,1.78c.41,1.16,1,2.84,1.66,4.93,1.37,4.18,3.16,10,5,16.45s3.32,12.35,4.34,16.63c.51,2.14.9,3.87,1.15,5.08a11.244,11.244,0,0,1,.34,1.88,10.579,10.579,0,0,1-.57-1.82c-.35-1.3-.8-3-1.34-5-1.13-4.25-2.7-10.12-4.52-16.57s-3.54-12.28-4.8-16.49l-1.47-5a11.643,11.643,0,0,1-.49-1.87Z" fill="#263238"/><path d="M248.94,424a21.22,21.22,0,0,0-15.16-12c-1.68-.32-3.75-.28-4.69,1.16s-.13,3.36.88,4.74a18.11,18.11,0,0,0,19,6.64" fill="#ff725e"/><path d="M235.62,416.79a3.839,3.839,0,0,1,1.11.12,8.863,8.863,0,0,1,1.27.27,15.373,15.373,0,0,1,1.66.49,22.379,22.379,0,0,1,4.08,1.91,23.56,23.56,0,0,1,7.88,7.63,22.241,22.241,0,0,1,2,4,14.347,14.347,0,0,1,.55,1.64,8.721,8.721,0,0,1,.32,1.27,3.48,3.48,0,0,1,.14,1.1c-.11,0-.42-1.53-1.41-3.84a25,25,0,0,0-2.11-3.87,27.131,27.131,0,0,0-3.45-4.14,27.579,27.579,0,0,0-4.24-3.32,25.433,25.433,0,0,0-3.94-2C237.16,417.17,235.6,416.91,235.62,416.79Z" fill="#263238"/></g></svg>