<svg xmlns="http://www.w3.org/2000/svg" width="109.829" height="106.648" viewBox="0 0 109.829 106.648">
  <g id="Group_1" data-name="Group 1" transform="translate(-319.663 -269.364)">
    <path id="Path_1" data-name="Path 1" d="M319.663,374.283h5.229l2.054-6.964a21.569,21.569,0,0,0,0-7.874c-.831-3.949-2.048-3.685-3.323-7.92s-1.775-4.854-1.775-9.019,3.043-8.807,3.043-8.807v-9.757a20.334,20.334,0,0,1,2.054-6.691,19.438,19.438,0,0,1,4.552-5.189l2.731,7.328H340.6l4.279-3.96,2.094,8.512a12.192,12.192,0,0,1,0,4.721,9.986,9.986,0,0,1-2.094,5.036,23.245,23.245,0,0,1-4.279,4.49l10.147,1.247a33.277,33.277,0,0,1,8.268,1.616,19.567,19.567,0,0,1,6.087,3.771,16.393,16.393,0,0,1,1.993,2.693,36.837,36.837,0,0,1,2.044,4.009,27.584,27.584,0,0,1,2.075,6.019,20.653,20.653,0,0,1,.656,7.318v9.422h6.372" fill="none" stroke="#707070" stroke-width="3"/>
    <path id="Path_2" data-name="Path 2" d="M343.058,374.283h7.556V353.664s1.445-4.346,2.288-6.849,1.081-3.165,1.081-3.165l3.323-8.193,4.233-6.964,4.291-6.691,5.4-6.691,6.418-6.645,5.416-7.328,3.96-6.327a58.558,58.558,0,0,1,0-9.741,14.371,14.371,0,0,1,1.964-6.054,18.486,18.486,0,0,1,3.582-4.233,13.446,13.446,0,0,1,4.848-2.731c2.336-.98,2.238-1.188,4.5-1.188a11.422,11.422,0,0,1,4.543,1.188,14.984,14.984,0,0,1,4.552,2.731,12.657,12.657,0,0,1,2.731,4.233h14.247v3.96a19.608,19.608,0,0,1-1.106,4.936,5.6,5.6,0,0,1-2.217,2.62l-4.233,2.458-3.05,1.821-3.641,2.8a8,8,0,0,0-2.731,3.529,10.527,10.527,0,0,0,0,4.87,32.192,32.192,0,0,1,1.49,3.64s.931,3.578,1.241,5.464a17.161,17.161,0,0,1,0,4.232s.044,4.806-1.241,7.891-2.764,5.6-3.9,8.222a61.79,61.79,0,0,0-2.139,6.054v24.9l2.139,7.874h5.143" fill="none" stroke="#707070" stroke-width="3"/>
    <path id="Path_3" data-name="Path 3" d="M391.579,333.909l-2.094,4.6v32.772l2.094,4.233h5.462" transform="translate(0 -1)" fill="none" stroke="#707070" stroke-width="3"/>
    <path id="Path_4" data-name="Path 4" d="M390.608,275.712s-.47,8.128,0,11.473a13.244,13.244,0,0,0,2.959,6.114l2.882,5.426a14.983,14.983,0,0,0,4.87-3.271c1.821-2.048,1.5-2.141,2.412-4.659a27.216,27.216,0,0,0,1.231-5.414,14.122,14.122,0,0,0,0-3.932,24.765,24.765,0,0,0-1.231-4.5l-2.412-5.2" transform="translate(1)" fill="none" stroke="#707070" stroke-width="3"/>
  </g>
</svg>
