<svg xmlns="http://www.w3.org/2000/svg" width="132.494" height="136.214" viewBox="0 0 132.494 136.214">
  <g id="Group_1" data-name="Group 1" transform="translate(-307.417 -240.798)">
    <path id="Path_1" data-name="Path 1" d="M378.243,373.078H371.87v-9.339a20.3,20.3,0,0,0-.656-7.253,27.172,27.172,0,0,0-2.075-5.966,36.392,36.392,0,0,0-2.044-3.974,16.267,16.267,0,0,0-1.993-2.67,19.585,19.585,0,0,0-6.087-3.737,33.542,33.542,0,0,0-8.268-1.6L340.6,337.3a23.139,23.139,0,0,0,4.279-4.45,9.851,9.851,0,0,0,2.094-4.992,11.981,11.981,0,0,0,0-4.679l-2.094-8.437-4.279,3.925h-6.372L331.5,311.4a19.33,19.33,0,0,0-4.552,5.143,20.02,20.02,0,0,0-2.054,6.632v9.671s-3.043,4.6-3.043,8.729.5,4.742,1.775,8.939,2.492,3.936,3.323,7.85a21.2,21.2,0,0,1,0,7.8l-2.054,6.9H309.917V269.316L378.243,242.3l59.147,27.019-1.346,105.231" transform="translate(0 1.218)" fill="none" stroke="#fbf6f3" stroke-width="5"/>
    <path id="Path_2" data-name="Path 2" d="M343.058,374.283h7.556V353.664s1.445-4.346,2.288-6.849,1.081-3.165,1.081-3.165l3.323-8.193,4.233-6.964,4.291-6.691,5.4-6.691,6.418-6.645,5.416-7.328,3.96-6.327a58.558,58.558,0,0,1,0-9.741,14.371,14.371,0,0,1,1.964-6.054,18.486,18.486,0,0,1,3.582-4.233,13.446,13.446,0,0,1,4.848-2.731c2.336-.98,2.238-1.188,4.5-1.188a11.422,11.422,0,0,1,4.543,1.188,14.984,14.984,0,0,1,4.552,2.731,12.657,12.657,0,0,1,2.731,4.233h14.247v3.96a19.608,19.608,0,0,1-1.106,4.936,5.6,5.6,0,0,1-2.217,2.62l-4.233,2.458-3.05,1.821-3.641,2.8a8,8,0,0,0-2.731,3.529,10.527,10.527,0,0,0,0,4.87,32.192,32.192,0,0,1,1.49,3.64s.931,3.578,1.241,5.464a17.161,17.161,0,0,1,0,4.232s.044,4.806-1.241,7.891-2.764,5.6-3.9,8.222a61.79,61.79,0,0,0-2.139,6.054v24.9l2.139,7.874h28.949" fill="none" stroke="#fbf6f3" stroke-width="5"/>
    <path id="Path_3" data-name="Path 3" d="M391.579,333.909l-2.094,4.6v32.772l2.094,4.233h5.462" transform="translate(0 -1)" fill="none" stroke="#fbf6f3" stroke-width="5"/>
    <path id="Path_4" data-name="Path 4" d="M390.608,275.712s-.47,8.128,0,11.473a13.244,13.244,0,0,0,2.959,6.114l2.882,5.426a14.983,14.983,0,0,0,4.87-3.271c1.821-2.048,1.5-2.141,2.412-4.659a27.216,27.216,0,0,0,1.231-5.414,14.122,14.122,0,0,0,0-3.932,24.765,24.765,0,0,0-1.231-4.5l-2.412-5.2" transform="translate(1)" fill="none" stroke="#fbf6f3" stroke-width="5"/>
    <path id="Path_5" data-name="Path 5" d="M309.917,271.142H368.5" fill="none" stroke="#fbf6f3" stroke-width="5"/>
  </g>
</svg>
