<svg xmlns="http://www.w3.org/2000/svg" width="237.978" height="245.466" viewBox="0 0 237.978 245.466">
  <g id="Group_1" data-name="Group 1" transform="translate(-304.917 -238.079)">
    <path id="Path_1" data-name="Path 1" d="M432.091,476.939H420.7V460.184a36.534,36.534,0,0,0-1.172-13.013,48.866,48.866,0,0,0-3.711-10.7,65.384,65.384,0,0,0-3.655-7.13,29.174,29.174,0,0,0-3.564-4.79,35.007,35.007,0,0,0-10.884-6.705c-6.417-2.395-14.785-2.874-14.785-2.874l-18.143-2.218a41.449,41.449,0,0,0,7.651-7.984c2.849-4.235,2.808-4.619,3.744-8.957a21.565,21.565,0,0,0,0-8.395l-3.744-15.137-7.651,7.042H353.388l-4.883-13.032a34.637,34.637,0,0,0-8.139,9.228,36.011,36.011,0,0,0-3.673,11.9v17.352s-5.442,8.256-5.442,15.662.895,8.508,3.174,16.039,4.456,7.062,5.941,14.084a38.152,38.152,0,0,1,0,14l-3.673,12.384H309.917V290.773L432.091,242.3l105.763,48.477-2.408,188.8" transform="translate(0 1.218)" fill="none" stroke="#fbf6f3" stroke-width="10"/>
    <path id="Path_2" data-name="Path 2" d="M343.058,456.413h13.51V419.419s2.585-7.8,4.09-12.288,1.932-5.678,1.932-5.678l5.941-14.7,7.569-12.495,7.673-12,9.662-12,11.476-11.923,9.685-13.148,7.081-11.351s-.878-10.392,0-17.476,3.513-10.861,3.513-10.861A33.146,33.146,0,0,1,431.6,277.9c3.768-3.124,4.491-3.142,8.669-4.9s4-2.132,8.043-2.132A20.372,20.372,0,0,1,456.433,273a26.772,26.772,0,0,1,8.139,4.9,22.722,22.722,0,0,1,4.883,7.595H494.93v7.1a35.283,35.283,0,0,1-1.978,8.856,10.043,10.043,0,0,1-3.964,4.7l-7.569,4.41-5.453,3.267-6.511,5.019a14.341,14.341,0,0,0-4.883,6.332c-1.221,3.767,0,8.738,0,8.738a57.868,57.868,0,0,1,2.663,6.53s1.665,6.42,2.22,9.8a30.894,30.894,0,0,1,0,7.593s.079,8.622-2.22,14.158-4.942,10.04-6.977,14.752a111.12,111.12,0,0,0-3.825,10.861v44.67l3.825,14.128h51.765" transform="translate(26.119 21.72)" fill="none" stroke="#fbf6f3" stroke-width="10"/>
    <path id="Path_3" data-name="Path 3" d="M393.229,333.909l-3.744,8.248v58.8l3.744,7.595H403" transform="translate(62.709 69.994)" fill="none" stroke="#fbf6f3" stroke-width="10"/>
    <path id="Path_4" data-name="Path 4" d="M390.772,278.856s-.841,14.583,0,20.585,5.291,10.969,5.291,10.969l5.154,9.735s5.453-2.195,8.709-5.869,2.685-3.842,4.314-8.36a48.973,48.973,0,0,0,2.2-9.713,25.419,25.419,0,0,0,0-7.055,44.548,44.548,0,0,0-2.2-8.07l-4.314-9.326" transform="translate(65.217 22.426)" fill="none" stroke="#fbf6f3" stroke-width="10"/>
    <path id="Path_5" data-name="Path 5" d="M309.917,271.142H414.675" transform="translate(0 21.941)" fill="none" stroke="#fbf6f3" stroke-width="10"/>
  </g>
</svg>
