<svg xmlns="http://www.w3.org/2000/svg" width="277.763" height="255.801" viewBox="0 0 277.763 255.801">
  <g id="Group_1" data-name="Group 1" transform="translate(-285.028 -227.743)">
    <path id="Path_1" data-name="Path 1" d="M432.091,476.939H420.7V460.184a36.534,36.534,0,0,0-1.172-13.013,48.866,48.866,0,0,0-3.711-10.7,65.384,65.384,0,0,0-3.655-7.13,19.386,19.386,0,0,0-6.014-6.795c-3.612-2.874-2.017-2.305-8.434-4.7s-14.785-2.874-14.785-2.874l-18.143-2.218a41.449,41.449,0,0,0,7.651-7.984c2.849-4.235,2.808-4.619,3.744-8.957a21.565,21.565,0,0,0,0-8.395l-3.744-15.137-7.651,7.042H353.388l-4.883-13.032a34.637,34.637,0,0,0-8.139,9.228,36.011,36.011,0,0,0-3.673,11.9v17.352s-5.442,8.256-5.442,15.662.895,8.508,3.174,16.039,4.456,7.062,5.941,14.084a38.152,38.152,0,0,1,0,14l-3.673,12.384h-42.2V287.175l126.2-51.252,133.832,51.252v192.4" transform="translate(0 1.218)" fill="none" stroke="#fbf6f3" stroke-width="10"/>
    <path id="Path_2" data-name="Path 2" d="M343.058,456.413h13.51V419.419s2.585-7.8,4.09-12.288,1.932-5.678,1.932-5.678l5.941-14.7,7.569-12.495,7.673-12,9.662-12,11.476-11.923,9.685-13.148,7.081-11.351s-.878-10.392,0-17.476,3.513-10.861,3.513-10.861A33.146,33.146,0,0,1,431.6,277.9c3.768-3.124,4.491-3.142,8.669-4.9s4-2.132,8.043-2.132A20.372,20.372,0,0,1,456.433,273a26.772,26.772,0,0,1,8.139,4.9,22.722,22.722,0,0,1,4.883,7.595H494.93v7.1a35.283,35.283,0,0,1-1.978,8.856,10.043,10.043,0,0,1-3.964,4.7l-7.569,4.41-5.453,3.267-6.511,5.019a14.341,14.341,0,0,0-4.883,6.332c-1.221,3.767,0,8.738,0,8.738a57.868,57.868,0,0,1,2.663,6.53s1.665,6.42,2.22,9.8a30.894,30.894,0,0,1,0,7.593s.079,8.622-2.22,14.158-4.942,10.04-6.977,14.752a111.12,111.12,0,0,0-3.825,10.861v44.67l3.825,14.128h72.7" transform="translate(26.119 21.72)" fill="none" stroke="#fbf6f3" stroke-width="10"/>
    <path id="Path_3" data-name="Path 3" d="M393.229,333.909l-3.744,8.248v58.8l3.744,7.595H403" transform="translate(62.709 69.994)" fill="none" stroke="#fbf6f3" stroke-width="10"/>
    <path id="Path_4" data-name="Path 4" d="M390.779,277.859s-.855,12.535,0,17.694,5.379,9.429,5.379,9.429l5.24,8.368s5.544-1.886,8.853-5.045,2.73-3.3,4.385-7.186a36.563,36.563,0,0,0,2.238-8.349,18.515,18.515,0,0,0,0-6.064,33.859,33.859,0,0,0-2.238-6.937l-4.385-8.017" transform="translate(65.217 22.426)" fill="none" stroke="#fbf6f3" stroke-width="10"/>
    <path id="Path_6" data-name="Path 6" d="M287.8,483.208V286.82l134.116-56.688L560.558,286.82l-.7,195.849" transform="translate(-0.273 0.319)" fill="none" stroke="#fbf6f3" stroke-width="5"/>
  </g>
</svg>
