<svg xmlns="http://www.w3.org/2000/svg" width="427.23" height="252.034" viewBox="0 0 427.23 252.034"><g transform="translate(-36.07 -162.379)"><path d="M463.3,411c0,.15-95.65.27-213.6.27s-213.63-.1-213.63-.27,95.63-.28,213.63-.28S463.3,410.87,463.3,411Z" fill="#263238"/><g transform="translate(22.092 -30.542)"><path d="M305.907,292.339c-1.713,1.693-3.313,2.023-4.095-1.273-1.726-7.261-6.009-12.283-8.176-12.908a2.325,2.325,0,0,0-2.369,3.773,26.085,26.085,0,0,1,3.213,6.909,16.525,16.525,0,0,1,.895,5.943c-.063,1.739-.189,3.284-.315,4.659,0,0,2.457,13.476,0,17.169l18.419,8.772,8.617-8.772s5.606-4.341,3.994-10.874-8.076-14.851-8.076-14.851c-2.217-.977,3.628-12.42,5.9-16.147s1.26-6.181-1.373-5.772c-1.776.284-9.008,11.545-11.162,15.283-1.172,2.045-3.4,6.056-5.468,8.09" fill="#ffbe9d"/><path d="M316.742,292.785a5.582,5.582,0,0,1-.378,1.329c-.277.841-.743,2.057-1.373,3.523s-1.449,3.2-2.457,5.079a8.288,8.288,0,0,1-2.066,2.807,2.837,2.837,0,0,1-2.016.643,2.754,2.754,0,0,1-1.889-.9,3.444,3.444,0,0,1-.894-1.75,4.372,4.372,0,0,1,.139-1.818,16.767,16.767,0,0,1,1.361-3.079l2.52-5.022,1.789-3.409a6.008,6.008,0,0,1,.743-1.193,5.976,5.976,0,0,1-.5,1.3c-.441.92-.97,2.068-1.613,3.409s-1.537,3.193-2.52,5.068a19.405,19.405,0,0,0-1.26,2.988,4.113,4.113,0,0,0-.1,1.6,2.808,2.808,0,0,0,.731,1.454,2.086,2.086,0,0,0,1.451.7,2.148,2.148,0,0,0,1.547-.509,7.963,7.963,0,0,0,1.94-2.591c1.033-1.852,1.89-3.557,2.52-5s1.26-2.625,1.562-3.409a6.061,6.061,0,0,1,.769-1.216Z" transform="translate(3.88 2.735)" fill="#eb996e"/><path d="M312.97,307.927c0,.091-.857-.193-2.318-.25a9.991,9.991,0,0,0-5.506,1.386l-.529.33v-.58a24.544,24.544,0,0,0,0-3.193,24.264,24.264,0,0,0-1.764-7.34,24.564,24.564,0,0,1-1.26-2.92,9.426,9.426,0,0,1,1.739,2.761,20.914,20.914,0,0,1,1.991,7.454,21.677,21.677,0,0,1,0,3.273l-.491-.25a9.856,9.856,0,0,1,5.9-1.273,5.351,5.351,0,0,1,2.242.6Z" transform="translate(2.826 3.603)" fill="#eb996e"/><path d="M319.827,298.525a3.285,3.285,0,0,1-.378,1.057c-.277.659-.706,1.614-1.26,2.784l-.894,1.92a10.69,10.69,0,0,1-1.26,2.17,3.953,3.953,0,0,1-2.6,1.5,2.751,2.751,0,0,1-1.7-.3,2.59,2.59,0,0,1-1.109-1.25,5.148,5.148,0,0,1-.139-2.954,14.365,14.365,0,0,1,.794-2.579,33.281,33.281,0,0,1,2.054-4.091l1.613-2.67a4.1,4.1,0,0,1,.617-.966,20.335,20.335,0,0,1-1.739,3.818c-.579,1.136-1.26,2.523-1.9,4.091a15.459,15.459,0,0,0-.731,2.5,4.735,4.735,0,0,0,.126,2.648,1.931,1.931,0,0,0,2.1,1.136,3.347,3.347,0,0,0,2.2-1.25,11.258,11.258,0,0,0,1.26-2.034l.957-1.9c.6-1.136,1.1-2.079,1.449-2.716a3.732,3.732,0,0,1,.529-.92Z" transform="translate(5.103 3.302)" fill="#eb996e"/></g><path d="M141.81,347.49l-30.19-30.33,15.18-27.88c15.18-19.44,47.32-18.19,47.32-18.19A184.26,184.26,0,0,1,221.51,274c25.53,5,23.47,21.86,23.47,21.86l3.42,62.57,3.67,50.95-94.15,1.9-16.11-63.75" fill="#758be7"/><path d="M192.53,408.3l-84.33,1a27.41,27.41,0,0,1-25.11-39.1l36.06-66.87L152,325.53,129.59,372l68.26,1.22Z" fill="#758be7"/><path d="M231.891,289.32c3.869-13.71,24.51,9.659,24.51,9.659L309.67,390.14l-39.48,2.58s-29.794-39.66-29.264-38.9C241.866,355.22,228.023,303.03,231.891,289.32Z" transform="translate(-44.522 27.687) rotate(-8)" fill="#758be7"/><path d="M150.3,331.54a1.81,1.81,0,0,1,.09-.54c.1-.4.21-.9.36-1.52.31-1.31.77-3.21,1.24-5.57s1-5.2,1.33-8.36a43.769,43.769,0,0,0,0-10.31,27.08,27.08,0,0,0-3.49-9.61,38.89,38.89,0,0,0-5-6.77,47.607,47.607,0,0,0-4.1-4,19.455,19.455,0,0,1-1.58-1.38,2.681,2.681,0,0,1,.46.29c.28.21.73.5,1.25.93a40.2,40.2,0,0,1,4.24,3.87,37.553,37.553,0,0,1,5.16,6.77,27,27,0,0,1,3.6,9.79,43.069,43.069,0,0,1-.08,10.43,83.71,83.71,0,0,1-1.44,8.38c-.52,2.37-1,4.26-1.41,5.56-.18.65-.34,1.15-.45,1.49A3,3,0,0,1,150.3,331.54Z" fill="#263238"/><path d="M147.58,335.14a8.41,8.41,0,0,1-.58,1.51c-.4,1-1,2.34-1.77,4-1.53,3.39-3.7,8.05-6.2,13.15s-4.86,9.67-6.61,13c-.88,1.64-1.6,3-2.11,3.87a10.453,10.453,0,0,1-.84,1.39,10,10,0,0,1,.66-1.48c.51-1,1.17-2.34,2-3.95l6.47-13c2.45-5.07,4.68-9.65,6.34-13.08.78-1.61,1.42-2.95,1.92-4a9.449,9.449,0,0,1,.72-1.41Z" fill="#263238"/><path d="M192.53,408.3v-.69c.05-.48.12-1.15.2-2,.2-1.78.48-4.31.83-7.5.74-6.47,1.8-15.57,3-26.3l.24.26H171.89L128.38,372l-13.2-.08-3.59-.05h-1.26a1.339,1.339,0,0,1,.32,0h.94l3.59-.05,13.2-.08,43.58-.07h25.18v.26c-1.32,10.72-2.43,19.82-3.23,26.28-.4,3.18-.73,5.71-1,7.49q-.16,1.26-.27,2l-.08.51C192.55,408.24,192.54,408.3,192.53,408.3Z" fill="#263238"/><path d="M130.18,372.74a21.3,21.3,0,0,1-1.68-2.11,32.821,32.821,0,0,0-9.82-8.29,25.6,25.6,0,0,1-2.36-1.3,9.329,9.329,0,0,1,2.53,1,27.12,27.12,0,0,1,9.94,8.39,9.78,9.78,0,0,1,1.39,2.31Z" fill="#263238"/><path d="M249.8,379.36a4.81,4.81,0,0,1-.14-.87c-.07-.61-.16-1.44-.28-2.49-.23-2.16-.54-5.29-.87-9.16-.69-7.75-1.48-18.47-2.18-30.31s-1.19-22.58-1.47-30.35c-.14-3.89-.24-7-.28-9.21,0-1.05,0-1.88-.05-2.5a8.3,8.3,0,0,1,0-.87,5,5,0,0,1,.09.87c0,.61.08,1.45.14,2.5.11,2.22.26,5.35.45,9.19.37,7.77.92,18.49,1.62,30.34s1.44,22.55,2,30.31c.3,3.83.54,7,.71,9.18.08,1,.14,1.88.19,2.49a4.867,4.867,0,0,1,.07.88Z" fill="#263238"/><path d="M174.52,322.51a9.73,9.73,0,0,1,.11-1.37c.12-.95.27-2.22.46-3.78.44-3.3,1-7.82,1.74-13.06l.38.24-6.47,4.53-6.58,4.58-.47.33.08-.57c.8-5.19,1.48-9.67,2-13,.26-1.53.46-2.79.62-3.73a7.649,7.649,0,0,1,.28-1.33,7.64,7.64,0,0,1-.12,1.36c-.12.94-.27,2.2-.47,3.75-.45,3.28-1.08,7.77-1.8,13l-.38-.24,6.57-4.6,6.48-4.51.47-.33-.08.57c-.77,5.22-1.44,9.74-1.92,13-.25,1.55-.45,2.82-.6,3.76a8,8,0,0,1-.3,1.4Z" fill="#e0e0e0"/><path d="M212.16,326.56a7.9,7.9,0,0,1-1-.95c-.65-.7-1.53-1.63-2.61-2.77l-8.93-9.68.43-.15c-.21,2.45-.43,5.11-.66,7.87s-.47,5.5-.68,8l-.05.58-.38-.43-8.69-9.8-2.48-2.86a6.7,6.7,0,0,1-.84-1.07,8.788,8.788,0,0,1,1,1l2.58,2.76,8.82,9.67-.43.15c.21-2.49.43-5.19.67-8s.46-5.42.67-7.87l.05-.57.38.42,8.8,9.81,2.51,2.87a8.44,8.44,0,0,1,.84,1.02Z" fill="#e0e0e0"/><path d="M231.1,325.22a6.941,6.941,0,0,1-.68,1.2l-2,3.22-7.14,11.08-.24-.38L228.8,339l7.9-1.33.57-.1L237,338l-7.3,10.86L227.5,352a8.66,8.66,0,0,1-.82,1.09,9.272,9.272,0,0,1,.68-1.18l2-3.2,7.15-11,.25.38-7.9,1.37-7.79,1.32-.57.09.32-.47,7.29-11,2.14-3.15A11.131,11.131,0,0,1,231.1,325.22Z" fill="#e0e0e0"/><path d="M205.91,344.6a7.151,7.151,0,0,1-.68,1.19l-2,3.23-7.13,11.07-.25-.38,7.78-1.34,7.91-1.34.57-.09-.33.47-7.3,10.87-2.15,3.12a7.2,7.2,0,0,1-.82,1.08,10.206,10.206,0,0,1,.68-1.18c.52-.8,1.2-1.87,2-3.19l7.15-11,.25.38-7.9,1.37-7.79,1.31-.57.1.32-.48,7.29-11c.88-1.3,1.6-2.36,2.15-3.15a9.142,9.142,0,0,1,.82-1.04Z" fill="#e0e0e0"/><path d="M260.34,325a9.7,9.7,0,0,1-.68,1.19l-2,3.23-7.13,11.07-.25-.38,7.78-1.34,7.91-1.34.57-.09-.32.47-7.31,10.87c-.88,1.28-1.6,2.33-2.15,3.11a6.913,6.913,0,0,1-.82,1.09,9.631,9.631,0,0,1,.69-1.18l2-3.19,7.15-11,.25.38-7.9,1.36-7.79,1.32-.56.1.31-.48,7.29-11,2.15-3.15a6.758,6.758,0,0,1,.81-1.04Z" fill="#e0e0e0"/><path d="M291.74,375.34a8.169,8.169,0,0,1-1-.9L288,371.8l-9.41-9.22.42-.17c-.08,2.46-.16,5.12-.25,7.89s-.2,5.52-.29,8v.58l-.41-.41-9.16-9.35-2.62-2.73a8.673,8.673,0,0,1-.9-1,8.677,8.677,0,0,1,1,.9l2.72,2.63,9.3,9.22-.43.17c.08-2.5.17-5.2.26-8s.2-5.43.29-7.89v-.57l.4.4,9.27,9.36,2.65,2.74A8,8,0,0,1,291.74,375.34Z" fill="#e0e0e0"/><path d="M132.89,308.94a8.879,8.879,0,0,1-.68,1.19l-2,3.23-7.13,11.08-.25-.38,7.78-1.35,7.91-1.33.57-.1-.32.48-7.31,10.86-2.14,3.12a8.16,8.16,0,0,1-.82,1.08,7.65,7.65,0,0,1,.68-1.17l2-3.2c1.81-2.77,4.29-6.57,7.15-11l.25.38-7.9,1.37-7.79,1.32-.56.09.31-.47c2.93-4.4,5.45-8.2,7.29-11l2.15-3.15A8.411,8.411,0,0,1,132.89,308.94Z" fill="#e0e0e0"/><path d="M93.35,383.72a7.34,7.34,0,0,1,.92,1l2.44,2.93L105,397.88l-.44.12c.36-2.43.74-5.07,1.15-7.82s.81-5.46,1.18-7.93l.08-.57.36.46,8.06,10.32,2.29,3a8,8,0,0,1,.78,1.11,8.85,8.85,0,0,1-.91-1l-2.4-2.92L107,382.44l.44-.11c-.36,2.47-.75,5.15-1.16,7.93s-.8,5.38-1.17,7.81l-.08.57-.36-.45-8.16-10.34-2.33-3a10.414,10.414,0,0,1-.83-1.13Z" fill="#e0e0e0"/><path d="M183.65,335.3a8.627,8.627,0,0,1-1.36.18l-3.8.33-13.14,1,.16-.42,5.76,5.4,5.83,5.5.42.4h-.58l-13.07.72-3.78.16a7.87,7.87,0,0,1-1.36,0,9.371,9.371,0,0,1,1.35-.17l3.77-.3,13.06-.9-.15.42-5.85-5.48-5.74-5.42-.42-.4h.57l13.15-.79,3.8-.19A9.144,9.144,0,0,1,183.65,335.3Z" fill="#e0e0e0"/><path d="M161.49,385.7a11.1,11.1,0,0,1,.94,1l2.49,2.88,8.51,10.06-.44.12c.31-2.44.65-5.08,1-7.83s.71-5.48,1-7.95l.08-.58.36.45L183.71,394l2.35,3a10,10,0,0,1,.8,1.1,8.2,8.2,0,0,1-.93-1l-2.46-2.87-8.4-10,.43-.13c-.31,2.48-.65,5.16-1,7.95s-.7,5.4-1,7.84l-.08.57-.36-.44-8.37-10.18-2.38-3a7.121,7.121,0,0,1-.82-1.14Z" fill="#e0e0e0"/><path d="M121.88,348.74a8.13,8.13,0,0,1-1.36.18l-3.79.32-13.14,1,.15-.43,5.77,5.41,5.83,5.5.42.4h-.58l-13.07.72-3.78.16A7.868,7.868,0,0,1,97,362a7.843,7.843,0,0,1,1.35-.17l3.77-.3,13.06-.91-.15.43-5.85-5.48-5.75-5.42-.41-.4h.57l13.15-.8,3.8-.18a8.926,8.926,0,0,1,1.34-.03Z" fill="#e0e0e0"/><path d="M155.91,384.57a8.1,8.1,0,0,1-1.36.17l-3.8.33-13.14,1,.16-.43,5.76,5.41,5.83,5.5.42.4h-.57l-13.08.71-3.78.17a7.87,7.87,0,0,1-1.36,0,7.84,7.84,0,0,1,1.35-.17l3.77-.3,13.06-.91-.15.43-5.85-5.48-5.74-5.4-.42-.39h.57l13.15-.8,3.81-.18a7.565,7.565,0,0,1,1.37-.06Z" fill="#e0e0e0"/><path d="M232.72,293.41a8.63,8.63,0,0,1-1.36.18l-3.8.32-13.13,1,.15-.42,5.76,5.4,5.83,5.5.42.4h-.57l-13.08.72-3.78.16a7.866,7.866,0,0,1-1.36,0,7.843,7.843,0,0,1,1.35-.17l3.77-.3,13.07-.9-.16.42L220,300.25l-5.74-5.42-.42-.4h.57l13.15-.8,3.81-.18a8.992,8.992,0,0,1,1.35-.04Z" fill="#e0e0e0"/><path d="M195.36,384.57s16.82-4.85,22.39-6.27c2.17-.55,11.46,4.35,17.88,8.43,0,0,8.84,5.24,8.13,6.85-.79,1.78-4,1.42-9.25-1,0,0,1.82,5.27-1.75,5.15,0,0,1.77,5.7-1.57,6.29s-4.12-6.68-7.06-7.07-9-.79-9-.79-5.07,8.4-9,9-13-.47-13-.47Z" fill="#ffbe9d"/><path d="M224.07,385.73a28.61,28.61,0,0,1,4.7,2.65,27.92,27.92,0,0,1,4.42,3.1,55,55,0,0,1-9.12-5.75Z" fill="#eb996e"/><path d="M223.08,389a35.72,35.72,0,0,1,5.58,2.29A35.85,35.85,0,0,1,234,394a35,35,0,0,1-5.58-2.28A34.259,34.259,0,0,1,223.08,389Z" fill="#eb996e"/><path d="M224.88,396.81a28,28,0,0,1,7.52,1,28.179,28.179,0,0,1-7.52-1Z" fill="#eb996e"/><path d="M173.47,211a3.45,3.45,0,0,1-4.87,4.08c-2.28-1.15-2.57-4.3-2.12-6.81s1.3-5.2.25-7.53c-.81-1.78-2.56-2.91-3.92-4.31a11.06,11.06,0,0,1-3.07-9.36,9.29,9.29,0,0,1,6.38-7.3c3.35-.93,7.48.1,10-2.33,1.81-1.76,1.92-4.63,3.32-6.73,2.17-3.26,6.76-3.78,10.64-3.25s7.82,1.78,11.62.83c3.17-.79,5.77-3,8.75-4.36a17.13,17.13,0,0,1,22.3,23.52,11,11,0,0,1-5.31,5.25" fill="#263238"/><path d="M192.77,293.61h0A19.27,19.27,0,0,0,212,274.07l-.25-18.38s15.44-1.55,16.46-16.85.29-50.61.29-50.61h0A53.32,53.32,0,0,0,174.68,192l-2.36,1.63,1.15,80.94a19.27,19.27,0,0,0,19.3,19.04Z" fill="#ffbe9d"/><path d="M224.46,216a2.29,2.29,0,0,1,0-4.55.77.77,0,0,1,.37,0,2.29,2.29,0,0,1,0,4.55,1.149,1.149,0,0,1-.37,0Z" fill="#263238"/><path d="M227.46,211.06c-.25.26-1.69-1-3.8-1.11s-3.7.88-3.91.6.15-.59.85-1.06a5.19,5.19,0,0,1,6.16.41C227.39,210.46,227.59,211,227.46,211.06Z" fill="#263238"/><path d="M203.07,211.58a2.23,2.23,0,1,1-3.1.56A2.23,2.23,0,0,1,203.07,211.58Z" fill="#263238"/><path d="M204.46,211.67c-.26.26-1.7-1-3.8-1.11s-3.7.88-3.92.6c-.11-.13.16-.59.85-1.06a5.19,5.19,0,0,1,6.16.41C204.38,211.07,204.58,211.56,204.46,211.67Z" fill="#263238"/><path d="M212,229.53c0-.16,1.31-.36,3.45-.54.55,0,1-.13,1.05-.42a3.12,3.12,0,0,0-.31-1.6c-.47-1.43-.94-2.87-1.44-4.38-2-6.23-3.31-11.36-3-11.46s2.17,4.87,4.14,11.1c.46,1.52.91,3,1.34,4.4a3.54,3.54,0,0,1,.18,2.31,1.43,1.43,0,0,1-1,.83,3.27,3.27,0,0,1-.95.07C213.3,229.8,212,229.7,212,229.53Z" fill="#263238"/><path d="M205,231.49a39.5,39.5,0,0,0,10.18,3.57,5.84,5.84,0,0,1-7,1.94C203.67,235.07,205,231.49,205,231.49Z" fill="#fff"/><path d="M211.81,255.47a35.69,35.69,0,0,1-19.66-6.76s4.12,11.27,19.47,10.73Z" fill="#eb996e"/><path d="M228.63,192.1s-9.25,4.7-21.5-1.12c-8-3.82-17.37-5.59-19.39-3.94s-2.29,9.85-10.13,12.4c0,0,.85,15.66-5.41,15.22s-2.82-24.77-2.82-24.77l15.13-7.76,16.61-3.47,15.75,1.91,12.22,3.09Z" fill="#263238"/><path d="M173.34,209.63c-.25-.13-10.35-3.69-10.58,6.8s10.34,8.56,10.36,8.26S173.34,209.63,173.34,209.63Z" fill="#ffbe9d"/><path d="M170,220.64a3.071,3.071,0,0,1-.5.26,1.82,1.82,0,0,1-1.37,0c-1.1-.43-2-2.21-2-4.1a6.22,6.22,0,0,1,.57-2.61,2.13,2.13,0,0,1,1.41-1.37,1,1,0,0,1,1.07.53c.13.29.06.5.11.52s.23-.17.16-.6a1.2,1.2,0,0,0-.4-.67,1.39,1.39,0,0,0-1-.29,2.57,2.57,0,0,0-1.95,1.58,6.35,6.35,0,0,0-.7,2.91c0,2.11,1.06,4.12,2.56,4.59a2,2,0,0,0,1.68-.24C170,220.9,170,220.66,170,220.64Z" fill="#eb996e"/><path d="M168,176.8a5.77,5.77,0,0,1,6.48,2.42,16.259,16.259,0,0,0-3-1.8A17,17,0,0,0,168,176.8Z" fill="#263238"/><path d="M174.31,170.52c.19,0-.1,2.21.26,4.83a20.709,20.709,0,0,0,1.47,4.57,4.464,4.464,0,0,1-.88-1.15,9.82,9.82,0,0,1-1.1-3.34,10.91,10.91,0,0,1,.25-4.91Z" fill="#263238"/><path d="M217.4,206c-.06-.12.39-.49,1.24-.83a9.46,9.46,0,0,1,7,.07c.84.36,1.29.73,1.23.85-.13.28-2.15-.51-4.74-.51S217.52,206.31,217.4,206Z" fill="#263238"/><path d="M194,203.82c-.06-.12.39-.48,1.24-.83a9.38,9.38,0,0,1,3.51-.63,9.143,9.143,0,0,1,3.512.7c.838.359,1.278.729,1.228.859a46.245,46.245,0,0,0-4.75-.52C196.14,203.39,194.14,204.1,194,203.82Z" fill="#263238"/><path d="M215.59,207.68a2.87,2.87,0,0,1,0,.62c0,.44,0,1,.05,1.69s0,1.62.06,2.62a9.67,9.67,0,0,0,.5,3.4,8.86,8.86,0,0,0,6.34,5.77,8.381,8.381,0,0,0,2.56.22,8.23,8.23,0,0,0,2.61-.55,8.8,8.8,0,0,0,4.32-3.49,9,9,0,0,0,1.4-5.12q0-2.685,0-5.16l.24.24-13-.12-3.77-.07h-1.37a10.069,10.069,0,0,1,1.29-.06l3.71-.07,13.14-.12H234v5.41a9.44,9.44,0,0,1-1.47,5.4,9.3,9.3,0,0,1-4.58,3.69,8.669,8.669,0,0,1-2.77.57,8.921,8.921,0,0,1-2.69-.25,9.17,9.17,0,0,1-6.58-6.12,9.93,9.93,0,0,1-.44-3.54c0-1,0-1.93.05-2.69s0-1.23.05-1.67A3.76,3.76,0,0,1,215.59,207.68Z" fill="#263238"/><path d="M191.08,207.16v2.31c0,.74,0,1.62.05,2.63a10.23,10.23,0,0,0,.5,3.4,9.14,9.14,0,0,0,2.21,3.49,8.88,8.88,0,0,0,4.13,2.27,8.854,8.854,0,0,0,9.49-3.81,9,9,0,0,0,1.41-5.12v-5.17l.24.24-13-.12-3.76-.06h-1.37a10,10,0,0,1,1.28-.06l3.71-.06,13.14-.12h.24v5.41a9.5,9.5,0,0,1-1.48,5.4,9.31,9.31,0,0,1-4.57,3.68,8.72,8.72,0,0,1-2.77.57,9,9,0,0,1-2.7-.25,9.222,9.222,0,0,1-6.58-6.12,9.93,9.93,0,0,1-.44-3.54c0-1,0-1.93.06-2.69a15.186,15.186,0,0,0,0-1.67,2,2,0,0,1,.21-.61Z" fill="#263238"/><path d="M215.81,208.41a23,23,0,0,1-6.9,0A22.179,22.179,0,0,1,215.81,208.41Z" fill="#263238"/><path d="M172,208.54a90.51,90.51,0,0,1,9.56-.29,91.433,91.433,0,0,1,9.57.23,84.327,84.327,0,0,1-9.56.29,85.544,85.544,0,0,1-9.57-.23Z" fill="#263238"/><path d="M274.87,435.142c4.59,12.546,13.748,19.964,23.4,18.954h0c11.5-1.186,20.9-13.975,22.61-30.766l5.8-97.777L303.45,317.1l-9.49,76.584S289,425.775,274.87,435.142Z" transform="translate(102.23 -105.315) rotate(14)" fill="#ffbe9d"/><path d="M299.24,329.45l29.19,2.09s-4.49,51.65-5.36,59.66-6,20.09-23.83,20.09-21.15-6.07-29.08-18.57c9.35-6.48,24.2-25.83,24.2-25.83Z" fill="#ff725e"/><path d="M313,336.4a9.851,9.851,0,0,1-.54,1.27l-1.63,3.44L305.07,353l-.29-.35,7.57-2.25,7.69-2.26.56-.16-.27.51-6,11.65-1.77,3.35a7.862,7.862,0,0,1-.69,1.17,10.588,10.588,0,0,1,.54-1.25c.42-.86,1-2,1.64-3.41l5.81-11.73.29.35-7.68,2.28-7.58,2.22-.55.16.26-.51L310.57,341c.73-1.39,1.32-2.53,1.76-3.38a8.268,8.268,0,0,1,.67-1.22Z" fill="#e0e0e0"/><path d="M310.24,386.08a8.63,8.63,0,0,1-1.36.18l-3.8.33-13.14,1,.16-.43,5.76,5.4,5.83,5.5.42.4h-.58l-13.07.72-3.78.16a7.866,7.866,0,0,1-1.36,0,8.756,8.756,0,0,1,1.35-.16l3.77-.31,13.06-.9-.15.43-5.85-5.49-5.74-5.42-.42-.39h.57l13.15-.79,3.81-.19A9,9,0,0,1,310.24,386.08Z" fill="#e0e0e0"/><path d="M231.891,289.32c3.869-13.71,24.51,9.659,24.51,9.659l48.163,89.583L270.19,392.72s-29.794-39.66-29.264-38.9C241.866,355.22,228.023,303.03,231.891,289.32Z" transform="translate(229.58 762.334) rotate(-132)" fill="#758be7"/><path d="M161.49,385.7a11.1,11.1,0,0,1,.94,1l2.49,2.88,8.51,10.06-.44.12c.31-2.44.65-5.08,1-7.83s.71-5.48,1-7.95l.08-.58.36.45L183.71,394l2.35,3a10,10,0,0,1,.8,1.1,8.2,8.2,0,0,1-.93-1l-2.46-2.87-8.4-10,.43-.13c-.31,2.48-.65,5.16-1,7.95s-.7,5.4-1,7.84l-.08.57-.36-.44-8.37-10.18-2.38-3a7.121,7.121,0,0,1-.82-1.14Z" transform="translate(147 -83)" fill="#e0e0e0"/><path d="M279.32,325.23l-33.19,82.08H186.28v3.71H364.55l36.47-85.79Z" fill="#263238"/><path d="M330.06,373.69c-1.2,4.13-4.7,6.74-7.82,5.84s-4.67-5-3.47-9.13,4.71-6.74,7.83-5.84S331.27,369.56,330.06,373.69Z" fill="#fafafa"/></g></svg>