<svg xmlns="http://www.w3.org/2000/svg" width="446.85" height="401.336" viewBox="0 0 446.85 401.336">
  <g id="adopt" transform="translate(-24.47 -48.87)">
    <g id="freepik--background-complete--inject-329">
      <rect id="Rectangle_1" data-name="Rectangle 1" width="240.4" height="110.87" transform="translate(172.18 255.87)" fill="#f5f5f5"/>
      <path id="Path_1" data-name="Path 1" d="M406.87,361.51H177.69V261.7H406.87ZM179.18,360H405.37V263.2H179.18Z" fill="#e0e0e0"/>
      <rect id="Rectangle_2" data-name="Rectangle 2" width="58.73" height="110.87" transform="translate(412.59 255.87)" fill="#e0e0e0"/>
      <path id="Path_2" data-name="Path 2" d="M178.43,292.59H406.12a.3.3,0,0,0,0-.6H178.43a.3.3,0,1,0,0,.6Z" fill="#e0e0e0"/>
      <path id="Path_3" data-name="Path 3" d="M293,292.29a250.138,250.138,0,0,0,.08-30.12.31.31,0,1,0-.62,0,250.15,250.15,0,0,0,.08,30.12.23.23,0,1,0,.46,0Z" fill="#e0e0e0"/>
      <path id="Path_4" data-name="Path 4" d="M354.3,277.23a3.1,3.1,0,1,1-3.1-3.1,3.1,3.1,0,0,1,3.1,3.1Z" fill="#e0e0e0"/>
      <path id="Path_5" data-name="Path 5" d="M234.82,277.23a3.1,3.1,0,1,1-.911-2.2,3.11,3.11,0,0,1,.911,2.2Z" fill="#e0e0e0"/>
      <circle id="Ellipse_1" data-name="Ellipse 1" cx="3.1" cy="3.1" r="3.1" transform="translate(289.18 308.51)" fill="#e0e0e0"/>
      <path id="Path_6" data-name="Path 6" d="M200.93,366.74l-12.38,69.61h6.96l22.82-69.61Z" fill="#e0e0e0"/>
      <path id="Path_7" data-name="Path 7" d="M395.58,366.74l10.35,69.73h-6.96l-20.8-69.73Z" fill="#e0e0e0"/>
      <path id="Path_8" data-name="Path 8" d="M442.05,366.74l11.73,69.73h-6.96l-22.17-69.73Z" fill="#e0e0e0"/>
      <path id="Path_9" data-name="Path 9" d="M295.17,343a3.1,3.1,0,1,1-.9-2.2A3.1,3.1,0,0,1,295.17,343Z" fill="#e0e0e0"/>
      <path id="Path_10" data-name="Path 10" d="M178.43,326.92H406.12a.3.3,0,0,0,0-.6H178.43a.3.3,0,1,0,0,.6Z" fill="#e0e0e0"/>
      <path id="Path_11" data-name="Path 11" d="M410.77,218.27l12.05,38.12h-8.73l-3.84-13.14Z" fill="#ebebeb"/>
      <path id="Path_12" data-name="Path 12" d="M234.6,206.19s-8.08,6.16-.34,14.29a.69.69,0,0,0,.51.21l70.57-.41s6-6.76,1-14.55Z" fill="#ebebeb"/>
      <path id="Path_13" data-name="Path 13" d="M289.75,212.62c0,.07-8.79.14-19.63.14s-19.62-.07-19.62-.14,8.78-.15,19.62-.15S289.75,212.54,289.75,212.62Z" fill="#e0e0e0"/>
      <path id="Path_14" data-name="Path 14" d="M278.77,215.17c0,.08-4.13.14-9.23.14s-9.22-.06-9.22-.14,4.13-.14,9.22-.14S278.77,215.09,278.77,215.17Z" fill="#e0e0e0"/>
      <path id="Path_15" data-name="Path 15" d="M297,220.06s.16-.82.38-2.12a30,30,0,0,0,.4-5.15,30.539,30.539,0,0,0-.5-5.14c-.24-1.3-.46-2.1-.42-2.11a1.869,1.869,0,0,1,.21.54c.12.36.26.88.41,1.53a25.45,25.45,0,0,1,.59,5.18,24.23,24.23,0,0,1-.5,5.18c-.13.66-.26,1.18-.37,1.54a2.318,2.318,0,0,1-.2.55Z" fill="#e0e0e0"/>
      <path id="Path_16" data-name="Path 16" d="M302.23,205.65a2,2,0,0,1,.31.51,6.053,6.053,0,0,1,.32.63c.11.25.25.53.36.86a15.721,15.721,0,0,1,.67,2.35,17.81,17.81,0,0,1,.31,3,18.27,18.27,0,0,1-.26,3,16,16,0,0,1-.64,2.35c-.1.33-.24.62-.34.87a5.543,5.543,0,0,1-.31.64,4.122,4.122,0,0,1-.3.52c-.05,0,.34-.79.76-2.09a16.745,16.745,0,0,0,.57-2.34,18.9,18.9,0,0,0,.23-2.92,17.565,17.565,0,0,0-.28-2.93,18,18,0,0,0-.6-2.32C302.59,206.42,302.18,205.67,302.23,205.65Z" fill="#e0e0e0"/>
      <path id="Path_17" data-name="Path 17" d="M245.74,220.15a1.93,1.93,0,0,1-.33-.47,5,5,0,0,1-.33-.59c-.12-.24-.26-.5-.38-.81a12.869,12.869,0,0,1-.69-2.23,14,14,0,0,1-.27-2.84,13.79,13.79,0,0,1,.35-2.84,12.229,12.229,0,0,1,.75-2.2,7.51,7.51,0,0,1,.39-.8,5.157,5.157,0,0,1,.35-.58,2.1,2.1,0,0,1,.34-.47c.05,0-.4.72-.9,1.93a14.531,14.531,0,0,0-.68,2.18,15.828,15.828,0,0,0-.32,2.78,16.081,16.081,0,0,0,.25,2.79,13.388,13.388,0,0,0,.62,2.2C245.35,219.43,245.78,220.12,245.74,220.15Z" fill="#e0e0e0"/>
      <path id="Path_18" data-name="Path 18" d="M238.12,221.87a2.571,2.571,0,0,1-.37-.53,7.461,7.461,0,0,1-.37-.67,8.852,8.852,0,0,1-.42-.91,14.879,14.879,0,0,1-.81-2.49,15.58,15.58,0,0,1-.14-6.38,15.361,15.361,0,0,1,.7-2.53,8.288,8.288,0,0,1,.38-.92,7.116,7.116,0,0,1,.34-.68,2.3,2.3,0,0,1,.34-.55,21.467,21.467,0,0,0-.87,2.22,15.941,15.941,0,0,0-.63,2.5,18.36,18.36,0,0,0-.23,3.15,17.781,17.781,0,0,0,.37,3.14,17.171,17.171,0,0,0,.73,2.47C237.68,221.06,238.17,221.84,238.12,221.87Z" fill="#e0e0e0"/>
      <path id="Path_19" data-name="Path 19" d="M302.75,241.77v13.51H276.62V241.77Z" fill="#ebebeb"/>
      <path id="Path_20" data-name="Path 20" d="M218.36,248.65v.36a7.73,7.73,0,0,0,7.77,7.24H304v-1H285.5a6.75,6.75,0,0,1-6.75-6.75h0a6.76,6.76,0,0,1,6.75-6.76H304v-1.43l-77.84.26a7.79,7.79,0,0,0-7.8,8.08Z" fill="#e0e0e0"/>
      <path id="Path_21" data-name="Path 21" d="M302.75,248.71c0,.07-5.37.14-12,.14s-12-.07-12-.14,5.37-.15,12-.15S302.75,248.63,302.75,248.71Z" fill="#e0e0e0"/>
      <path id="Path_22" data-name="Path 22" d="M302.38,251.75c0,.08-5.09.14-11.36.14s-11.35-.06-11.35-.14,5.08-.14,11.35-.14S302.38,251.67,302.38,251.75Z" fill="#e0e0e0"/>
      <path id="Path_23" data-name="Path 23" d="M302.75,254.53c0,.08-4.57.14-10.2.14s-10.21-.06-10.21-.14,4.57-.14,10.21-.14S302.75,254.45,302.75,254.53Z" fill="#e0e0e0"/>
      <path id="Path_24" data-name="Path 24" d="M302.75,246c0,.08-5.26.14-11.75.14s-11.75-.06-11.75-.14,5.26-.14,11.75-.14S302.75,245.89,302.75,246Z" fill="#e0e0e0"/>
      <path id="Path_25" data-name="Path 25" d="M302.38,243.24c0,.08-4.69.14-10.47.14s-10.46-.06-10.46-.14,4.69-.15,10.46-.15S302.38,243.16,302.38,243.24Z" fill="#e0e0e0"/>
      <path id="Path_26" data-name="Path 26" d="M227.79,240.83a16.241,16.241,0,0,0-1.65,2,10,10,0,0,0,.13,11.58,16.871,16.871,0,0,0,1.7,1.92,2.241,2.241,0,0,1-.56-.41,9.159,9.159,0,0,1-1.3-1.39,9.88,9.88,0,0,1-.14-11.81,8.76,8.76,0,0,1,1.27-1.42A2.679,2.679,0,0,1,227.79,240.83Z" fill="#f5f5f5"/>
      <path id="Path_27" data-name="Path 27" d="M225.16,240.54a16.457,16.457,0,0,0-1.66,2,10,10,0,0,0,.14,11.57,16.872,16.872,0,0,0,1.7,1.92,2.241,2.241,0,0,1-.56-.41,8.68,8.68,0,0,1-1.3-1.39,9.84,9.84,0,0,1-.14-11.81,8.321,8.321,0,0,1,1.27-1.42,2.68,2.68,0,0,1,.55-.46Z" fill="#f5f5f5"/>
      <path id="Path_28" data-name="Path 28" d="M278,240.83a16.775,16.775,0,0,0-1.66,2,10,10,0,0,0,.14,11.58,15.762,15.762,0,0,0,1.7,1.92,2.24,2.24,0,0,1-.56-.41,8.68,8.68,0,0,1-1.3-1.39,9.84,9.84,0,0,1-.14-11.81,8.317,8.317,0,0,1,1.27-1.42,2.679,2.679,0,0,1,.55-.47Z" fill="#f5f5f5"/>
      <path id="Path_29" data-name="Path 29" d="M275.41,240.54a16.456,16.456,0,0,0-1.66,2,10,10,0,0,0,.14,11.57,15.76,15.76,0,0,0,1.7,1.92,2.241,2.241,0,0,1-.56-.41,8.681,8.681,0,0,1-1.3-1.39,10,10,0,0,1-2-5.88,10.14,10.14,0,0,1,1.9-5.93,8.79,8.79,0,0,1,1.26-1.42,2.868,2.868,0,0,1,.52-.46Z" fill="#f5f5f5"/>
      <path id="Path_30" data-name="Path 30" d="M236.65,250.55c0-1.83-.05-3.66-.08-5.49a3.79,3.79,0,0,0-.19-1.42,1.37,1.37,0,0,0-1-.88,2.09,2.09,0,0,0-2.24,1.06,5.19,5.19,0,0,0-.54,2.7,39.225,39.225,0,0,0,.21,4.33,5,5,0,0,0,.51,2,1.85,1.85,0,0,0,1.67,1,1.9,1.9,0,0,0,1.47-1.28,5.49,5.49,0,0,0,.19-2.02Z" fill="#f5f5f5"/>
      <path id="Path_31" data-name="Path 31" d="M266.87,249c0,.08-5.63.14-12.56.14s-12.57-.06-12.57-.14,5.63-.14,12.57-.14S266.87,248.89,266.87,249Z" fill="#f5f5f5"/>
      <path id="Path_32" data-name="Path 32" d="M231.43,240.29l-.14-12.8h6.97l.24,12.8Z" fill="#f5f5f5"/>
      <path id="Path_33" data-name="Path 33" d="M237.85,229.76a35.07,35.07,0,0,1-6.48,0,37.561,37.561,0,0,1,6.48,0Z" fill="#e0e0e0"/>
      <path id="Path_34" data-name="Path 34" d="M237.85,231.74a37.56,37.56,0,0,1-6.48,0,37.561,37.561,0,0,1,6.48,0Z" fill="#e0e0e0"/>
      <path id="Path_35" data-name="Path 35" d="M237.85,233.72a37.56,37.56,0,0,1-6.48,0A35.07,35.07,0,0,1,237.85,233.72Z" fill="#e0e0e0"/>
      <path id="Path_36" data-name="Path 36" d="M237.85,235.69a37.56,37.56,0,0,1-6.48,0,37.559,37.559,0,0,1,6.48,0Z" fill="#e0e0e0"/>
      <path id="Path_37" data-name="Path 37" d="M237.85,237.67a37.56,37.56,0,0,1-6.48,0,35.071,35.071,0,0,1,6.48,0Z" fill="#e0e0e0"/>
      <path id="Path_38" data-name="Path 38" d="M230.92,227.15h77.23a36.51,36.51,0,0,1,0,13.83h-76.9V240H236a2.22,2.22,0,0,0,2.22-2.22v-7.65A2.22,2.22,0,0,0,236,228h-5Z" fill="#ebebeb"/>
      <path id="Path_39" data-name="Path 39" d="M249.18,234.07h1.28a.33.33,0,0,1,.14,0,.24.24,0,0,1,.14.24.19.19,0,0,1,0,.08,2,2,0,0,1-.09.33,3.61,3.61,0,0,1-.8,1.46,1.53,1.53,0,0,1-1.1.57h-.16a1.22,1.22,0,0,1-.87-.63,2.89,2.89,0,0,1-.39-1.56,3.849,3.849,0,0,1,.16-1.1,3.571,3.571,0,0,1,.76-1.49,1.53,1.53,0,0,1,1.16-.62,1.17,1.17,0,0,1,.49.11,1.59,1.59,0,0,1,.75.94.31.31,0,0,1,0,.13.212.212,0,0,1-.23.28h-.09a.28.28,0,0,1-.18-.17h0a1.429,1.429,0,0,0-.16-.3.72.72,0,0,0-.61-.37.68.68,0,0,0-.43.16,2.19,2.19,0,0,0-.7,1,3.68,3.68,0,0,0-.31,1.45,2.69,2.69,0,0,0,.22,1.14.76.76,0,0,0,.68.51.93.93,0,0,0,.62-.38,3.46,3.46,0,0,0,.66-1.19h-.92a.291.291,0,0,1-.31-.32.16.16,0,0,1,0-.09.29.29,0,0,1,.29-.18Z" fill="#fafafa"/>
      <path id="Path_40" data-name="Path 40" d="M253.56,231.56a.628.628,0,0,0,0,.09c.05.19.35,1.79.9,4.79a.14.14,0,0,1,0,.07.25.25,0,0,1,0,.14.27.27,0,0,1-.23.14h-.05a.26.26,0,0,1-.21-.19l-.31-1.59H252.1l-.76,1.59v.06a.3.3,0,0,1-.24.13.28.28,0,0,1-.15,0,.29.29,0,0,1-.13-.24.31.31,0,0,1,0-.08l.24-.52q1.66-3.65,2-4.3a.3.3,0,0,1,.27-.19.29.29,0,0,1,.23.1Zm-.35,1.07-.85,1.8h1.21Z" fill="#fafafa"/>
      <path id="Path_41" data-name="Path 41" d="M257.87,236.79h-2.33a.28.28,0,0,1-.15,0,.42.42,0,0,1-.13-.3h0c0-.09.21-1.68.64-4.76a.429.429,0,0,1,0-.11.25.25,0,0,1,.25-.17.17.17,0,0,1,.12,0,.25.25,0,0,1,.15.24c0,.21-.07.65-.16,1.31-.26,2-.4,3.11-.41,3.22h2a.33.33,0,0,1,.15,0,.26.26,0,0,1,.18.26v.09a.34.34,0,0,1-.31.22Z" fill="#fafafa"/>
      <path id="Path_42" data-name="Path 42" d="M261.05,231.56a.632.632,0,0,0,0,.09c.05.19.35,1.79.9,4.79a.14.14,0,0,1,0,.07.37.37,0,0,1,0,.14.27.27,0,0,1-.23.14h-.05a.26.26,0,0,1-.21-.19l-.31-1.59h-1.58l-.76,1.59v.06a.3.3,0,0,1-.24.13.28.28,0,0,1-.15,0,.29.29,0,0,1-.13-.24.311.311,0,0,1,0-.08l.24-.52q1.66-3.65,2-4.3a.3.3,0,0,1,.27-.19.29.29,0,0,1,.25.1Zm-.35,1.07-.85,1.8h1.21Z" fill="#fafafa"/>
      <path id="Path_43" data-name="Path 43" d="M264.76,234.31l.42,1.16q.36,1,.36,1.05a.24.24,0,0,1-.05.14.25.25,0,0,1-.46-.06v-.11c-.13-.29-.34-.84-.62-1.64l-1.32,1.79a.31.31,0,0,1-.25.15.23.23,0,0,1-.14,0,.25.25,0,0,1-.13-.23v-.06a.6.6,0,0,1,.14-.22c.44-.57.93-1.25,1.46-2-.05-.16-.11-.3-.16-.44-.49-1.33-.74-2-.74-2.06a.32.32,0,0,1,0-.14.25.25,0,0,1,.23-.14.29.29,0,0,1,.26.15l.78,2.1,1.55-2.11a.32.32,0,0,1,.25-.14.19.19,0,0,1,.12,0,.26.26,0,0,1,.14.24.35.35,0,0,1,0,.13Z" fill="#fafafa"/>
      <path id="Path_44" data-name="Path 44" d="M270.52,231.44a.31.31,0,0,1,.13,0,.29.29,0,0,1,.15.24c-.39,3-.6,4.63-.63,4.88a3.1,3.1,0,0,1-.5,1.27,1.79,1.79,0,0,1-2.29.56,1.69,1.69,0,0,1-.82-.72.23.23,0,0,1,0-.14.37.37,0,0,1,0-.14.27.27,0,0,1,.24-.13.26.26,0,0,1,.21.11,1.5,1.5,0,0,0,1.2.68,1.18,1.18,0,0,0,.92-.47,2.6,2.6,0,0,0,.51-1.46,1.29,1.29,0,0,1-.34.36,1.4,1.4,0,0,1-.84.27h-.15a1.22,1.22,0,0,1-.88-.63,2.85,2.85,0,0,1-.39-1.55c0-.28,0-.58,0-.88a19.43,19.43,0,0,1,.31-2v-.08a.24.24,0,0,1,.24-.19.23.23,0,0,1,.14,0,.24.24,0,0,1,.14.22,9.318,9.318,0,0,1-.13,1.06,14.879,14.879,0,0,0-.18,1.62,3.391,3.391,0,0,0,.2,1.26q.24.57.69.57h.1a1.21,1.21,0,0,0,.69-.56,3.32,3.32,0,0,0,.58-1.28l.35-2.65a.559.559,0,0,1,0-.12.25.25,0,0,1,.35-.1Z" fill="#fafafa"/>
      <path id="Path_45" data-name="Path 45" d="M305.24,241.16c-.07,0-.14-3.17-.14-7.09s.07-7.1.14-7.1.15,3.18.15,7.1S305.32,241.16,305.24,241.16Z" fill="#f5f5f5"/>
      <path id="Path_46" data-name="Path 46" d="M242.05,241.16c-.08,0-.14-3.17-.14-7.09s.06-7.1.14-7.1.14,3.18.14,7.1S242.13,241.16,242.05,241.16Z" fill="#e0e0e0"/>
      <path id="Path_47" data-name="Path 47" d="M306.6,241.16c-.08,0-.14-3.17-.14-7.09s.06-7.1.14-7.1.14,3.18.14,7.1S306.68,241.16,306.6,241.16Z" fill="#f5f5f5"/>
      <path id="Path_48" data-name="Path 48" d="M240.78,241.16c-.08,0-.14-3.17-.14-7.09s.06-7.1.14-7.1.15,3.18.15,7.1S240.86,241.16,240.78,241.16Z" fill="#e0e0e0"/>
      <path id="Path_49" data-name="Path 49" d="M286.52,229.31h0l8.16,6.59.07.06h-.09l-1.08.29-6.9,1.8h0l-6.25-2.65-1.77-.75-.46-.21-.12-.05h.12l.47.19,1.78.74,6.26,2.61h0l6.89-1.82,1.09-.28v.08l-8.14-6.61h0" fill="#e0e0e0"/>
      <path id="Path_50" data-name="Path 50" d="M293.93,234.84l.45.42.59-.13-.26.55.31.53-.61-.08-.4.46-.12-.6-.56-.25.54-.29Z" fill="#e0e0e0"/>
      <path id="Path_51" data-name="Path 51" d="M286.1,237.44l.31.25.38-.11-.15.37.22.33-.4-.03-.24.31-.1-.38-.37-.14.34-.21Z" fill="#e0e0e0"/>
      <path id="Path_52" data-name="Path 52" d="M277.45,233.89l.49.03.3-.38.12.47.45.17-.41.26-.01.48-.38-.31-.46.13.18-.45Z" fill="#e0e0e0"/>
      <path id="Path_53" data-name="Path 53" d="M297.59,229.41l.48.03.31-.38.12.47.45.17-.41.26-.02.48-.37-.31-.47.13.18-.45Z" fill="#e0e0e0"/>
      <path id="Path_54" data-name="Path 54" d="M286.12,229.09l.31.02.19-.24.08.3.29.11-.26.16-.01.31-.24-.2-.3.09.12-.29Z" fill="#e0e0e0"/>
      <path id="Path_55" data-name="Path 55" d="M298.27,229.75s-2.64-.06-5.9-.2-5.89-.27-5.89-.3,2.64.05,5.9.19S298.27,229.72,298.27,229.75Z" fill="#e0e0e0"/>
      <path id="Path_56" data-name="Path 56" d="M301.24,227H222.91c-1-2.33-1.27-4.54,0-6.52h78.33a7.58,7.58,0,0,1,0,6.52Z" fill="#e0e0e0"/>
      <rect id="Rectangle_3" data-name="Rectangle 3" width="42.43" height="2.37" transform="translate(239.13 222.37)" fill="#ebebeb"/>
      <path id="Path_57" data-name="Path 57" d="M225.92,227.06a2.45,2.45,0,0,1-.62-.78,5.731,5.731,0,0,1-.71-2.32,5.53,5.53,0,0,1,.3-2.4,2.239,2.239,0,0,1,.47-.89,7.253,7.253,0,0,1-.28,1,6.689,6.689,0,0,0-.21,2.32,6.62,6.62,0,0,0,.61,2.24A7.147,7.147,0,0,1,225.92,227.06Z" fill="#e0e0e0"/>
      <path id="Path_58" data-name="Path 58" d="M227.61,227.06a2.36,2.36,0,0,1-.61-.78,5.74,5.74,0,0,1-.42-4.72,2.59,2.59,0,0,1,.47-.89,7.248,7.248,0,0,1-.28,1,6.719,6.719,0,0,0-.2,2.32,6.871,6.871,0,0,0,.6,2.24,7.15,7.15,0,0,1,.44.83Z" fill="#e0e0e0"/>
      <path id="Path_59" data-name="Path 59" d="M298.07,226.91a13.791,13.791,0,0,0,.55-3.19,12.93,12.93,0,0,0-.52-3.19,5.61,5.61,0,0,1,.8,3.2,5.7,5.7,0,0,1-.83,3.18Z" fill="#f5f5f5"/>
      <path id="Path_60" data-name="Path 60" d="M296.61,226.9c-.09,0,.24-1.4.24-3.13s-.33-3.1-.25-3.12a9.56,9.56,0,0,1,0,6.25Z" fill="#f5f5f5"/>
      <path id="Path_61" data-name="Path 61" d="M357.02,186.93h53.75v70.13H357.38Z" fill="#e0e0e0"/>
      <rect id="Rectangle_4" data-name="Rectangle 4" width="53.44" height="69.42" transform="translate(406.55 256.7) rotate(180)" fill="#fff"/>
      <path id="Path_62" data-name="Path 62" d="M406.82,187v70h-54V187Zm-.53,69.42V187.54H353.38v68.89Z" fill="#e0e0e0"/>
      <rect id="Rectangle_5" data-name="Rectangle 5" width="40.91" height="54.39" transform="translate(358.69 194.8)" fill="#fff"/>
      <path id="Path_63" data-name="Path 63" d="M358.61,194.79v15.19c0,9.56,0,23.14.06,39.24l-.12-.13h40.91l-.14.14V194.84l.12.12-29.71-.06h-.07l29.78-.06h.11v54.64H358.38v-.12c0-16.13,0-29.74.06-39.32V195.22A2.278,2.278,0,0,1,358.61,194.79Z" fill="#e0e0e0"/>
      <path id="Path_64" data-name="Path 64" d="M353,256.7a7,7,0,0,1,.72-1.18c.48-.7,1.15-1.67,1.92-2.71s1.5-2,2-2.62a6.058,6.058,0,0,1,.94-1,8.1,8.1,0,0,1-.78,1.13l-2,2.67-2,2.66a7.85,7.85,0,0,1-.8,1.05Z" fill="#e0e0e0"/>
      <path id="Path_65" data-name="Path 65" d="M353.11,187.27A42.359,42.359,0,0,1,356,191a41,41,0,0,1,2.64,3.84,35.368,35.368,0,0,1-2.86-3.68,38.185,38.185,0,0,1-2.67-3.89Z" fill="#e0e0e0"/>
      <line id="Line_1" data-name="Line 1" x1="7.03" y2="7.8" transform="translate(399.52 187.27)" fill="#fff"/>
      <path id="Path_66" data-name="Path 66" d="M399.52,195.07a48.806,48.806,0,0,1,3.41-4,50.153,50.153,0,0,1,3.62-3.81,48.805,48.805,0,0,1-3.41,4C401.19,193.42,399.57,195.12,399.52,195.07Z" fill="#e0e0e0"/>
      <path id="Path_67" data-name="Path 67" d="M406.55,256.7a91.321,91.321,0,0,1-6.72-7.45,45.478,45.478,0,0,1,3.46,3.63,44.772,44.772,0,0,1,3.26,3.82Z" fill="#e0e0e0"/>
      <path id="Path_68" data-name="Path 68" d="M360.56,249.18s4.41-13.64,7-15.09A25.1,25.1,0,0,1,379.07,231c6.05,0,8.94.39,12.49,2.84,4.11,2.82,6.88,15.22,6.88,15.22" fill="#e0e0e0"/>
      <path id="Path_69" data-name="Path 69" d="M372.77,208.57c-3.77.16-4.68,5.22-4.43,8.1.12,1.37.54,2.85-.15,4-.49.84-1.45,1.34-1.86,2.22-.49,1.08,0,2.31.34,3.44s.51,2.55-.39,3.31a32.839,32.839,0,0,0,6.5,1.23,11,11,0,0,0,6.36-1.42" fill="#e0e0e0"/>
      <path id="Path_70" data-name="Path 70" d="M370.08,218.65c-2.48-5.68.89-9.16,3.08-10.41a9.22,9.22,0,0,1,4.37-1,15.94,15.94,0,0,1,4.42.39,8,8,0,0,1,3.84,2.15c1.81,1.92,2.23,4.78,2.06,7.41a20.57,20.57,0,0,1-2.59,8.86,2.19,2.19,0,0,1-.77.9.81.81,0,0,1-1.06-.19" fill="#e0e0e0"/>
      <path id="Path_71" data-name="Path 71" d="M378.46,238.17c2.56.17,4.79-2,5.06-6l1.36-20-.1,1.38a1.61,1.61,0,0,0-1.44-1.63l-7.93-.81a4.83,4.83,0,0,0-5.31,4.51,48.748,48.748,0,0,0,.09,9c.73,4.57,4.24,5.14,4.24,5.14l-.28,3.32a4.65,4.65,0,0,0,4.31,5Z" fill="#f5f5f5"/>
      <path id="Path_72" data-name="Path 72" d="M371.63,218.24a.58.58,0,0,0,.56.59.56.56,0,0,0,.6-.53.58.58,0,0,0-.56-.59.55.55,0,0,0-.6.53Z" fill="#e0e0e0"/>
      <path id="Path_73" data-name="Path 73" d="M370.92,217.6c.07.07.51-.26,1.14-.26s1.1.32,1.17.24,0-.17-.25-.32a1.65,1.65,0,0,0-.93-.28,1.51,1.51,0,0,0-.91.3C371,217.42,370.88,217.56,370.92,217.6Z" fill="#e0e0e0"/>
      <path id="Path_74" data-name="Path 74" d="M377.68,218.24a.59.59,0,0,0,.57.59.56.56,0,0,0,.6-.53.59.59,0,0,0-.57-.59.56.56,0,0,0-.6.53Z" fill="#e0e0e0"/>
      <path id="Path_75" data-name="Path 75" d="M377.12,217.7c.07.07.51-.26,1.14-.26s1.1.32,1.16.24,0-.17-.24-.32a1.68,1.68,0,0,0-.93-.28,1.51,1.51,0,0,0-.91.3C377.15,217.52,377.08,217.66,377.12,217.7Z" fill="#e0e0e0"/>
      <path id="Path_76" data-name="Path 76" d="M374.84,222.38a4.07,4.07,0,0,0-1-.18c-.16,0-.32,0-.34-.16a.78.78,0,0,1,.1-.48l.47-1.22a21,21,0,0,0,1.06-3.21,20.679,20.679,0,0,0-1.31,3.11c-.16.43-.31.84-.45,1.24a.94.94,0,0,0-.09.63.41.41,0,0,0,.27.23.68.68,0,0,0,.27,0A4.072,4.072,0,0,0,374.84,222.38Z" fill="#e0e0e0"/>
      <path id="Path_77" data-name="Path 77" d="M374.43,229.84a11.6,11.6,0,0,0,6.11-1.65s-1.63,3.17-6.2,2.75Z" fill="#ebebeb"/>
      <path id="Path_78" data-name="Path 78" d="M375.11,223.9a1.15,1.15,0,0,1,1-.43,1,1,0,0,1,.72.39.67.67,0,0,1,0,.75.78.78,0,0,1-.83.21,2.34,2.34,0,0,1-.8-.48.55.55,0,0,1-.18-.19.18.18,0,0,1,0-.23" fill="#e0e0e0"/>
      <path id="Path_79" data-name="Path 79" d="M376.7,222.81c-.1,0-.1.68-.69,1.17s-1.31.41-1.32.51.17.13.47.14a1.67,1.67,0,0,0,1.1-.39,1.53,1.53,0,0,0,.54-1C376.82,223,376.74,222.81,376.7,222.81Z" fill="#e0e0e0"/>
      <path id="Path_80" data-name="Path 80" d="M376.83,216.59c.06.18.69.09,1.43.18s1.34.29,1.44.13-.06-.23-.31-.4a2.43,2.43,0,0,0-1.06-.37,2.51,2.51,0,0,0-1.12.14C376.94,216.38,376.8,216.51,376.83,216.59Z" fill="#e0e0e0"/>
      <path id="Path_81" data-name="Path 81" d="M371.14,215.77c.12.14.55,0,1.07,0s1,.09,1.07-.06,0-.22-.22-.35a1.39,1.39,0,0,0-.87-.23,1.43,1.43,0,0,0-.85.29C371.16,215.55,371.1,215.7,371.14,215.77Z" fill="#e0e0e0"/>
      <path id="Path_82" data-name="Path 82" d="M373.67,208c4.43-2.48,9.18-.74,12.76,2.85A8.7,8.7,0,0,0,389,213c1.11.48,2.59.4,3.25,1.41.78,1.19-.27,2.86.3,4.15s2.15,1.54,2.76,2.69a4.42,4.42,0,0,1,0,3,3,3,0,0,0,.44,2.89l-9.53,3.61a2.45,2.45,0,0,1-1.34.15c-1.35-.27-1.45-1.52-1.32-2.56a4.4,4.4,0,0,0-.06-2.31c-.39-.83-1.37-1.28-1.72-2.13-.61-1.51,1.09-3.08.88-4.7a3,3,0,0,0-1.93-2.19,29.376,29.376,0,0,0-2.95-.86,8.83,8.83,0,0,1-5.05-5.06,2.47,2.47,0,0,1,1-3.11Z" fill="#e0e0e0"/>
      <path id="Path_83" data-name="Path 83" d="M331.55,48.87V174.29h-162L163.72,49.75Z" fill="#e0e0e0"/>
      <rect id="Rectangle_6" data-name="Rectangle 6" width="124.69" height="161.99" transform="translate(163.72 174.29) rotate(-90)" fill="#fff"/>
      <path id="Path_84" data-name="Path 84" d="M326.33,174.91H163.1V49H326.33Zm-162-1.24H325.09V50.22H164.34Z" fill="#e0e0e0"/>
      <rect id="Rectangle_7" data-name="Rectangle 7" width="126.9" height="95.46" transform="translate(181.26 62.41)" fill="#fff"/>
      <path id="Path_85" data-name="Path 85" d="M308.16,62.41h-9.31l-26,.08-91.56.14.29-.29V157.8h0l-.32-.33,126.9.06-.26.27c.1-28.8.1-52.6.1-69.24,0-8.33,0-14.85.07-19.3v-.14c0,4.44,0,10.94.07,19.24,0,16.68.08,40.57.14,69.49v.26h-.27l-126.9.06h-.32v-.32h0V62.1h.29l91.75.15,26,.07h8.61Z" fill="#e0e0e0"/>
      <path id="Path_86" data-name="Path 86" d="M163.72,49.31A16,16,0,0,1,166.46,51c1.64,1.11,3.89,2.68,6.32,4.48s4.59,3.49,6.11,4.77a14.941,14.941,0,0,1,2.37,2.17,17.15,17.15,0,0,1-2.65-1.82L172.4,56l-6.21-4.62a16.451,16.451,0,0,1-2.47-2.07Z" fill="#e0e0e0"/>
      <path id="Path_87" data-name="Path 87" d="M325.71,49.6c.1.14-3.74,3.13-8.58,6.67s-8.86,6.29-9,6.14,3.74-3.13,8.59-6.66S325.6,49.46,325.71,49.6Z" fill="#e0e0e0"/>
      <line id="Line_2" data-name="Line 2" x1="18.19" y1="16.41" transform="translate(307.52 157.88)" fill="#fff"/>
      <path id="Path_88" data-name="Path 88" d="M307.52,157.88c.12-.14,4.29,3.43,9.31,8s9,8.32,8.88,8.45-4.29-3.44-9.31-8S307.4,158,307.52,157.88Z" fill="#e0e0e0"/>
      <path id="Path_89" data-name="Path 89" d="M163.72,174.29c-.12-.13,3.67-3.75,8.46-8.08s8.78-7.73,8.9-7.59-3.67,3.74-8.46,8.07S163.84,174.42,163.72,174.29Z" fill="#e0e0e0"/>
      <circle id="Ellipse_2" data-name="Ellipse 2" cx="15.32" cy="15.32" r="15.32" transform="translate(242.399 118.25) rotate(-79.14)" fill="#f5f5f5"/>
      <path id="Path_90" data-name="Path 90" d="M255.37,120.64c-.16-.08.49-1.65,1.33-4.23a25.47,25.47,0,0,0,1.4-10.3,14.36,14.36,0,0,0-4.47-9c-2-1.77-3.72-2.14-3.64-2.35s1.86,0,4.17,1.7a14.09,14.09,0,0,1,5.13,9.56,22.55,22.55,0,0,1-1.8,10.71C256.43,119.26,255.5,120.7,255.37,120.64Z" fill="#e0e0e0"/>
      <path id="Path_91" data-name="Path 91" d="M275.14,104.24c-.07.35-4.13-1.12-8.91.3s-7.4,4.82-7.65,4.57c-.12-.09.35-1.06,1.55-2.29a13.56,13.56,0,0,1,12.46-3.66C274.27,103.54,275.19,104.1,275.14,104.24Z" fill="#e0e0e0"/>
      <path id="Path_92" data-name="Path 92" d="M268.22,103.46c-.19,0-.1-1.07-.66-2.58A6.87,6.87,0,0,0,257.62,97c-1.43.73-2.08,1.57-2.23,1.45s.31-1.15,1.79-2.18a7.22,7.22,0,0,1,11.19,4.36C268.77,102.41,268.35,103.5,268.22,103.46Z" fill="#e0e0e0"/>
      <path id="Path_93" data-name="Path 93" d="M263.34,105.07c-.34-.07-.09-2.17-.7-4.61s-1.74-4.22-1.47-4.44,2,1.39,2.62,4.16S263.63,105.18,263.34,105.07Z" fill="#e0e0e0"/>
      <path id="Path_94" data-name="Path 94" d="M263.2,100.28c0,.35-1.33.42-2.6,1.09s-2.33,1.57-2.58,1.31.43-1.47,2-2.37S263.27,100,263.2,100.28Z" fill="#e0e0e0"/>
      <path id="Path_95" data-name="Path 95" d="M238.7,107.46a11.62,11.62,0,1,1-16.38,1.42,11.62,11.62,0,0,1,16.38-1.42Z" fill="#f5f5f5"/>
      <path id="Path_96" data-name="Path 96" d="M239.18,124.87a19.688,19.688,0,0,1-2.36-2.4,19.34,19.34,0,0,0-6.39-4.61,10.91,10.91,0,0,0-7.65-.23,19.2,19.2,0,0,0-2.87,1.6,5.113,5.113,0,0,1,2.63-2.19,10.65,10.65,0,0,1,8.23,0,17.14,17.14,0,0,1,6.53,5A9.47,9.47,0,0,1,239.18,124.87Z" fill="#e0e0e0"/>
      <path id="Path_97" data-name="Path 97" d="M235.26,105.79c.21.17-2.23,2.36-3,6.07s.59,6.67.33,6.75a3.835,3.835,0,0,1-1-1.86,10.3,10.3,0,0,1,2-9.64C234.48,106.12,235.18,105.7,235.26,105.79Z" fill="#e0e0e0"/>
      <path id="Path_98" data-name="Path 98" d="M232.27,110.14c-.08.12-.76-.31-2-.48a5.23,5.23,0,0,0-6.15,5.28c0,1.21.31,2,.18,2s-.65-.62-.82-2A5.48,5.48,0,0,1,230.4,109C231.76,109.4,232.34,110.07,232.27,110.14Z" fill="#e0e0e0"/>
      <path id="Path_99" data-name="Path 99" d="M231.61,114c-.17.21-1.49-.71-3.35-1.17s-3.44-.34-3.49-.6,1.64-.83,3.72-.28S231.78,113.82,231.61,114Z" fill="#e0e0e0"/>
      <path id="Path_100" data-name="Path 100" d="M228.35,112.36c.23.15-.2,1-.2,2.13s.22,2.13-.05,2.2-.83-.81-.85-2.21S228.18,112.22,228.35,112.36Z" fill="#e0e0e0"/>
      <path id="Path_101" data-name="Path 101" d="M239.19,103.46c-4.1-2.68-6.63-7.45-8.26-12.07a22.76,22.76,0,0,1-.19-14.45,18.92,18.92,0,0,1,9.89,10.56c1.71,4.65.7,11.49-1.44,16" fill="#ebebeb"/>
      <path id="Path_102" data-name="Path 102" d="M234.42,84.52a166.2,166.2,0,0,1,4.41,18.26" fill="#fff"/>
      <path id="Path_103" data-name="Path 103" d="M238.83,102.78a11.76,11.76,0,0,1-.74-2.66c-.45-1.9-1-4.06-1.52-6.45s-1.13-4.55-1.6-6.44a12.058,12.058,0,0,1-.55-2.71,11.431,11.431,0,0,1,1,2.58c.52,1.62,1.17,3.89,1.78,6.41s1.07,4.84,1.34,6.52A11.449,11.449,0,0,1,238.83,102.78Z" fill="#e0e0e0"/>
      <path id="Path_104" data-name="Path 104" d="M249.59,124.31c4.8-1,10,.57,14.38,2.69a22.7,22.7,0,0,1,10.35,10.08,18.79,18.79,0,0,1-14.46-.48c-4.5-2.07-8.62-7.62-10.27-12.29" fill="#ebebeb"/>
      <path id="Path_105" data-name="Path 105" d="M266.36,134.32a165.74,165.74,0,0,1-16-9.79" fill="#fff"/>
      <path id="Path_106" data-name="Path 106" d="M250.33,124.53a12,12,0,0,1,2.4,1.36l5.64,3.49,5.68,3.42a12.919,12.919,0,0,1,2.31,1.52,10.78,10.78,0,0,1-2.53-1.12c-1.51-.78-3.57-1.92-5.79-3.27s-4.18-2.67-5.56-3.67a11.191,11.191,0,0,1-2.15-1.73Z" fill="#e0e0e0"/>
      <path id="Path_107" data-name="Path 107" d="M244.94,126.59c.88,2.8.24,6-.76,8.71a13.55,13.55,0,0,1-5.39,6.75,11.25,11.25,0,0,1-.56-8.63c1-2.8,4-5.58,6.71-6.83" fill="#ebebeb"/>
      <path id="Path_108" data-name="Path 108" d="M240,137.15A97.9,97.9,0,0,1,244.85,127" fill="#fff"/>
      <path id="Path_109" data-name="Path 109" d="M244.85,127c.16.09-.95,2.34-2.29,5.13s-2.42,5.05-2.59,5,.65-2.46,2-5.26A22.936,22.936,0,0,1,244.85,127Z" fill="#e0e0e0"/>
    </g>
    <g id="freepik--Floor--inject-329">
      <path id="Path_110" data-name="Path 110" d="M471.23,438.25c0,.14-99.06.26-221.22.26s-221.24-.12-221.24-.26,99-.26,221.24-.26S471.23,438.1,471.23,438.25Z" fill="#263238"/>
    </g>
    <g id="freepik--Characters--inject-329">
      <path id="Path_111" data-name="Path 111" d="M25.05,169.13c-3.29-22.32,7.53-43.73,29.32-48h.22c20.67-3.85,38.88,1.76,42.31,9.68,11.26,25.95,6.67,35.18,6.67,35.18L55.44,202.23s-25-10.91-30.23-32.46C25.16,169.56,25.09,169.34,25.05,169.13Z" fill="#263238"/>
      <path id="Path_112" data-name="Path 112" d="M98.37,146.8c-3.61-10.2-14.11-21-24.15-16.94l-30,17.36a6.32,6.32,0,0,0-3.68,7.72l22.12,70.37A19.48,19.48,0,0,0,87,238.08h0a19.48,19.48,0,0,0,13-23.87l-2.54-9.05s12.63-6,10.46-24.06C106.82,172.11,102.38,158.12,98.37,146.8Z" fill="#ffbe9d"/>
      <path id="Path_113" data-name="Path 113" d="M99,157.52c-.19.37-2.23-.39-4.61.29s-3.8,2.38-4.14,2.16c-.17-.09,0-.69.57-1.47A6.3,6.3,0,0,1,94,156.42a6,6,0,0,1,3.78.13C98.67,156.9,99.07,157.36,99,157.52Z" fill="#263238"/>
      <path id="Path_114" data-name="Path 114" d="M75.82,165.12c-.19.37-2.23-.39-4.62.29s-3.79,2.38-4.13,2.16c-.17-.09,0-.69.57-1.47a6.3,6.3,0,0,1,3.21-2.1,6,6,0,0,1,3.78.13C75.52,164.5,75.92,165,75.82,165.12Z" fill="#263238"/>
      <path id="Path_115" data-name="Path 115" d="M87.76,177.37c-.05-.13,1.36-.81,3.68-1.8.59-.24,1.13-.52,1.12-1a3.31,3.31,0,0,0-.93-1.69l-3.12-4.13c-4.39-5.9-7.75-10.82-7.51-11s4,4.46,8.38,10.36l3.05,4.18a3.67,3.67,0,0,1,1,2.3,1.58,1.58,0,0,1-.75,1.18,4.321,4.321,0,0,1-1,.44C89.3,177.07,87.81,177.51,87.76,177.37Z" fill="#263238"/>
      <path id="Path_116" data-name="Path 116" d="M97.45,205.16a45.78,45.78,0,0,1-24.93.41s9.22,10.22,26.07,3.67Z" fill="#eb996e"/>
      <path id="Path_117" data-name="Path 117" d="M88.39,183.42a4.46,4.46,0,0,0-4.32-.5,4,4,0,0,0-2.29,2.22,2.59,2.59,0,0,0,.62,2.9,3,3,0,0,0,3.35-.1,9.33,9.33,0,0,0,2.54-2.69,2.9,2.9,0,0,0,.48-.9.83.83,0,0,0-.26-.89" fill="#ff725e"/>
      <path id="Path_118" data-name="Path 118" d="M81.2,181c.38-.13,1.13,2.46,3.87,3.67s5.42.14,5.54.49c.08.16-.47.68-1.63,1A6.72,6.72,0,0,1,84.4,186a5.81,5.81,0,0,1-3.08-3.12C80.91,181.78,81,181.06,81.2,181Z" fill="#263238"/>
      <path id="Path_119" data-name="Path 119" d="M73.43,156.46c-.05.71-2.52,1.09-5.23,2.22s-4.75,2.54-5.29,2.07c-.24-.23,0-1,.71-1.85a9.44,9.44,0,0,1,3.63-2.55,9.28,9.28,0,0,1,4.38-.71C72.78,155.76,73.44,156.12,73.43,156.46Z" fill="#263238"/>
      <path id="Path_120" data-name="Path 120" d="M94.55,148.35c-.27.66-2.07.56-4.06,1.1s-3.54,1.4-4.09,1c-.25-.23-.14-.85.45-1.57a6,6,0,0,1,6.56-1.65C94.27,147.53,94.66,148,94.55,148.35Z" fill="#263238"/>
      <path id="Path_121" data-name="Path 121" d="M40.29,177.4c.1.26,8.25,7,12.15,5.18,11.82-5.42,3.47-37.19,3.47-37.19l4.16,11.34,19.3-6.61L73.84,137.3,81,148.67l17.6-4.08s-8.17-21-22.76-20.16S25.35,140.54,40.29,177.4Z" fill="#263238"/>
      <path id="Path_122" data-name="Path 122" d="M49.23,177.51c-.27-.06-9.69-2.11-7.75,7.85S53,191.31,53,191,49.23,177.51,49.23,177.51Z" fill="#ffbe9d"/>
      <path id="Path_123" data-name="Path 123" d="M49.2,187.84c-.05,0-.15.16-.42.35a1.76,1.76,0,0,1-1.29.28c-1.13-.18-2.34-1.68-2.74-3.46a5.75,5.75,0,0,1,0-2.58,2,2,0,0,1,1-1.59.91.91,0,0,1,1.12.28c.19.25.16.46.22.47s.18-.21,0-.61a1.07,1.07,0,0,0-.52-.54,1.31,1.31,0,0,0-1-.07,2.5,2.5,0,0,0-1.52,1.9,6.09,6.09,0,0,0-.06,2.89c.46,2,1.85,3.67,3.37,3.81a1.91,1.91,0,0,0,1.54-.58C49.23,188.09,49.24,187.85,49.2,187.84Z" fill="#eb996e"/>
      <path id="Path_124" data-name="Path 124" d="M68.81,149.67a4.18,4.18,0,0,1-.35-1.07l-.84-2.95a92.927,92.927,0,0,0-3.34-9.51,94.717,94.717,0,0,0-4.37-9.09l-1.5-2.67a4.52,4.52,0,0,1-.51-1,4.64,4.64,0,0,1,.68.9c.41.59,1,1.48,1.65,2.6a71,71,0,0,1,4.53,9.07,72.338,72.338,0,0,1,3.24,9.6c.32,1.26.55,2.29.68,3a5.1,5.1,0,0,1,.13,1.12Z" fill="#455a64"/>
      <path id="Path_125" data-name="Path 125" d="M81.06,139.87c-.09,0-.78-1.51-2.3-3.79a33.439,33.439,0,0,0-2.93-3.77,36.921,36.921,0,0,0-4.28-4,36.71,36.71,0,0,0-4.92-3.18,33.489,33.489,0,0,0-4.37-1.93c-2.57-.91-4.25-1.2-4.23-1.3a5,5,0,0,1,1.18.15,11.77,11.77,0,0,1,1.38.3c.52.14,1.14.27,1.79.5a30.387,30.387,0,0,1,4.48,1.85,35.6,35.6,0,0,1,5,3.19A34.67,34.67,0,0,1,76.18,132a29.1,29.1,0,0,1,2.89,3.89A18.417,18.417,0,0,1,80,137.5a11.06,11.06,0,0,1,.62,1.26A4.92,4.92,0,0,1,81.06,139.87Z" fill="#455a64"/>
      <path id="Path_126" data-name="Path 126" d="M92.24,140.5a22.71,22.71,0,0,0-2.14-5.28,23.49,23.49,0,0,0-10.18-9,47.76,47.76,0,0,0-13.27-3.65l-4.17-.56a10.129,10.129,0,0,1-1.53-.25,7.94,7.94,0,0,1,1.55,0c1,.06,2.43.19,4.2.4a43.88,43.88,0,0,1,13.45,3.54A23,23,0,0,1,90.42,135,15.47,15.47,0,0,1,92,139a11.2,11.2,0,0,1,.21,1.13,1.72,1.72,0,0,1,.03.37Z" fill="#455a64"/>
      <path id="Path_127" data-name="Path 127" d="M35.86,174.1a3.366,3.366,0,0,1-.24-.47l-.57-1.39c-.24-.61-.49-1.37-.8-2.25a29.824,29.824,0,0,1-.86-3,51.75,51.75,0,0,1-1.2-18.2c.82-7.1,2.89-13.44,5.73-17.25a14.69,14.69,0,0,1,4-3.85,10.219,10.219,0,0,1,1.35-.69,2.85,2.85,0,0,1,.49-.19c0,.06-.65.33-1.72,1a15.27,15.27,0,0,0-3.82,3.89c-2.71,3.78-4.7,10.07-5.51,17.1a54,54,0,0,0,1,18.05c.24,1.14.55,2.15.78,3l.71,2.26.48,1.42a2.49,2.49,0,0,1,.18.57Z" fill="#455a64"/>
      <path id="Path_128" data-name="Path 128" d="M39.93,175.52A25.069,25.069,0,0,0,44.39,170a28,28,0,0,0,2.84-7.14,46.39,46.39,0,0,0,1.33-9.34c.14-3.36.07-6.58.06-9.5s0-5.57.16-7.78a43.28,43.28,0,0,1,.63-5.21c.11-.61.23-1.08.31-1.39a1.43,1.43,0,0,1,.14-.48,15.639,15.639,0,0,1-.25,1.9c-.17,1.22-.36,3-.46,5.2s-.1,4.83,0,7.75.12,6.14,0,9.53A45.23,45.23,0,0,1,47.7,163a27.5,27.5,0,0,1-3,7.21,19.12,19.12,0,0,1-3.28,4.1,12.641,12.641,0,0,1-1.09.93,2.379,2.379,0,0,1-.4.28Z" fill="#455a64"/>
      <path id="Path_129" data-name="Path 129" d="M51.21,191.63a1.438,1.438,0,0,1,.21.62,3.38,3.38,0,0,1-.28,1.78,3.5,3.5,0,1,1-5.64-3.89,3.38,3.38,0,0,1,1.56-.89c.42-.1.66-.06.66,0a4.38,4.38,0,0,0-1.95,1.17,3.39,3.39,0,0,0-.87,2.21,3.21,3.21,0,0,0,4.16,2.86,3.44,3.44,0,0,0,1.75-1.59A4.32,4.32,0,0,0,51.21,191.63Z" fill="#fafafa"/>
      <path id="Path_130" data-name="Path 130" d="M74.55,223.26c-9.88-2.22-14.33-6-14.33-6l.64,4.91L70.72,231l-31,27.7c2.11,8.44,24.39,61.2,29.17,78.14s-19.85,32.38,3.61,42.37,111.65,5,113.82-13.22c1.71-14.39-10.46-59.62-15.68-78.11l21.84-2c18.83-31.75-48.95-70-61.79-73.31-11.72-3.07-25.46.42-27.77,1l-.35-1.09-3.76-2.52a10.131,10.131,0,0,1,.37,1.34c-.18,8.31-9.13,11.18-15.07,12.16A24.92,24.92,0,0,1,74.55,223.26Z" fill="#ff725e"/>
      <g id="Group_1" data-name="Group 1" opacity="0.3">
        <path id="Path_131" data-name="Path 131" d="M160.61,317.69a88.31,88.31,0,0,1-97-16.56c7.22,10.55,15.16,23.09,26.64,28.72,7,3.43,14.9,4.59,22.67,5.26,14.76,1.28,30.8.64,42.64-8.26a65,65,0,0,0,10.06,9.77,21.039,21.039,0,0,0,13.07,4.42C175.7,331.52,168,324.37,160.61,317.69Z"/>
      </g>
      <path id="Path_132" data-name="Path 132" d="M147.7,347.17c8.21,6.08,17.05,13.4,25.34,19.37a12.42,12.42,0,0,0,4.86,2.18c3.67.58,5.49-1.74,7.6-4.8a48.18,48.18,0,0,0,6.29-12.79c1.09-3.43,1.64-7.61-.79-10.28-1.8-2-3.8-2.14-6.37-2.88-1-.3-2.56-5.46-2.85-6.42l-3.11,8.65-7.18,3.05-15.31-1.55Z" fill="#ff725e"/>
      <path id="Path_133" data-name="Path 133" d="M182,336.44a5.128,5.128,0,0,1-.6,1.05,32.121,32.121,0,0,1-1.92,2.7,47.08,47.08,0,0,1-16.9,13.55c-1.27.59-2.31,1-3.05,1.28a6.242,6.242,0,0,1-1.16.36c0-.09,1.57-.71,4-2A53.06,53.06,0,0,0,179.17,340C180.93,337.82,181.9,336.39,182,336.44Z" fill="#263238"/>
      <path id="Path_134" data-name="Path 134" d="M103.56,213.45a2.13,2.13,0,0,1-.06.51,14.15,14.15,0,0,1-.34,1.43,16.31,16.31,0,0,1-2.44,4.79,19.5,19.5,0,0,1-5.94,5.31,24.71,24.71,0,0,1-9.28,3,33.48,33.48,0,0,1-17.4-2.47,23.531,23.531,0,0,1-4.64-2.72,14.131,14.131,0,0,1-1.13-.93c-.24-.22-.37-.34-.36-.36s.57.42,1.61,1.13a26.859,26.859,0,0,0,4.66,2.54A34.17,34.17,0,0,0,85.44,228a24.5,24.5,0,0,0,9.1-2.93,19.57,19.57,0,0,0,5.89-5.11,17.44,17.44,0,0,0,2.54-4.64C103.38,214.13,103.51,213.44,103.56,213.45Z" fill="#263238"/>
      <path id="Path_135" data-name="Path 135" d="M115.28,178.19a29.429,29.429,0,0,0-3.65,2.91,16.94,16.94,0,0,0-1.25,2.19,1.19,1.19,0,0,0-.16.85.82.82,0,0,0,1.19.28,2.43,2.43,0,0,0,.79-1.14,2.37,2.37,0,0,0,2.91,1.95,3.21,3.21,0,0,0,2.23-3C117.38,180.89,116.22,179.14,115.28,178.19Z" fill="#263238"/>
      <path id="Path_136" data-name="Path 136" d="M224.83,367.64c-.36-.16.08-1.77.43-4.33.08-.65.18-1.35.21-2.1s.06-1.56.08-2.41a33,33,0,0,0-.57-5.46,31.511,31.511,0,0,0-1.58-5.25c-.34-.78-.64-1.53-1-2.19s-.68-1.3-1-1.86c-1.31-2.24-2.34-3.55-2.07-3.84s1.75.63,3.57,2.77a16.932,16.932,0,0,1,1.37,1.84,22.277,22.277,0,0,1,1.32,2.29,25,25,0,0,1,1.95,5.73,25.44,25.44,0,0,1,.41,6,22.321,22.321,0,0,1-.34,2.61,15.481,15.481,0,0,1-.55,2.23C226.2,366.39,225.12,367.78,224.83,367.64Z" fill="#263238"/>
      <path id="Path_137" data-name="Path 137" d="M229.52,370.41c-.32-.25.67-1.87,1.82-4.58a23.677,23.677,0,0,0,.86-2.25c.31-.8.54-1.7.81-2.63a37.16,37.16,0,0,0,1-6.18,36.439,36.439,0,0,0-.21-6.27c-.15-.95-.25-1.87-.46-2.71s-.37-1.62-.57-2.34c-.8-2.84-1.57-4.56-1.23-4.77s1.64,1.26,3,4.14a18.573,18.573,0,0,1,.93,2.42,25.674,25.674,0,0,1,.74,2.88,26.86,26.86,0,0,1-.85,13.51,23.671,23.671,0,0,1-1.11,2.76,17.825,17.825,0,0,1-1.22,2.28C231.3,369.37,229.76,370.61,229.52,370.41Z" fill="#263238"/>
      <path id="Path_138" data-name="Path 138" d="M206.34,303c-.08,0,.29-1.16.66-3a47.224,47.224,0,0,0,.79-7.42c.11-2.92,0-5.57-.11-7.49a22.634,22.634,0,0,1-.11-3.11,16.269,16.269,0,0,1,.48,3.09,55.847,55.847,0,0,1,.26,7.53,36.772,36.772,0,0,1-1,7.48,17.419,17.419,0,0,1-.66,2.19A2.171,2.171,0,0,1,206.34,303Z" fill="#263238"/>
      <path id="Path_139" data-name="Path 139" d="M239.49,420.75s48.16,17,50.09,17.88c2.88,1.24,1.62,12.05-3,11.56-2.17-.24-37.82-1.33-42.29-1.92s-17.65-6.89-17.65-6.89Z" fill="#455a64"/>
      <path id="Path_140" data-name="Path 140" d="M258.64,440.93c.24.05.76-2.52,2.53-5.12s3.93-4.07,3.79-4.28-2.61,1-4.47,3.82S258.43,440.93,258.64,440.93Z" fill="#263238"/>
      <path id="Path_141" data-name="Path 141" d="M253.68,438.25c.24.06.9-2.23,2.39-4.71s3.15-4.16,3-4.34-2.16,1.3-3.7,3.92S253.47,438.22,253.68,438.25Z" fill="#263238"/>
      <path id="Path_142" data-name="Path 142" d="M249,436.62c.25,0,.23-2.46,1.51-5.11s3.16-4.21,3-4.4-2.4,1.17-3.74,4.05S248.76,436.68,249,436.62Z" fill="#263238"/>
      <path id="Path_143" data-name="Path 143" d="M250.28,430.34a8.63,8.63,0,0,0,.79-3.62,17,17,0,0,0-.22-4,18.328,18.328,0,0,0-.57-2.33,2.77,2.77,0,0,0-.7-1.26,1.32,1.32,0,0,0-1.69,0,2.2,2.2,0,0,0-.76,1.34,10,10,0,0,0-.15,1.29,10.72,10.72,0,0,0,.13,2.43,15,15,0,0,0,1.25,3.86,10.14,10.14,0,0,0,2,3.11c.12-.07-.62-1.27-1.46-3.34a16.22,16.22,0,0,1-1-3.74,11.241,11.241,0,0,1-.08-2.26c.08-.76.14-1.7.6-2a.48.48,0,0,1,.66,0,2.08,2.08,0,0,1,.47.89,18.415,18.415,0,0,1,.6,2.22,20.5,20.5,0,0,1,.38,3.88C250.47,428.94,250.15,430.31,250.28,430.34Z" fill="#263238"/>
      <path id="Path_144" data-name="Path 144" d="M250.26,429.84a6.89,6.89,0,0,0-3.13-.74,14.131,14.131,0,0,0-3.52.19,7.609,7.609,0,0,0-2.06.59,2.09,2.09,0,0,0-1.26,2.17,2.45,2.45,0,0,0,1.64,1.88,4.57,4.57,0,0,0,2.21.15,8.64,8.64,0,0,0,3.3-1.35,8.49,8.49,0,0,0,2.44-2.09,22.449,22.449,0,0,0-2.74,1.59,8.71,8.71,0,0,1-3.11,1.09,3.74,3.74,0,0,1-1.82-.15,1.67,1.67,0,0,1-1.11-1.25,1.28,1.28,0,0,1,.82-1.32,7.57,7.57,0,0,1,1.84-.57,16.311,16.311,0,0,1,3.35-.34C249,429.69,250.23,430,250.26,429.84Z" fill="#263238"/>
      <path id="Path_145" data-name="Path 145" d="M266.15,442c.24,0,.15-2.12,1.28-4.36s2.81-3.47,2.67-3.67-2.2.81-3.41,3.31S265.94,442.06,266.15,442Z" fill="#263238"/>
      <path id="Path_146" data-name="Path 146" d="M231.72,441.84a9.1,9.1,0,0,0,1.84,1A41.406,41.406,0,0,0,238.9,445a78.529,78.529,0,0,0,18.63,3c7.36.44,14,.57,18.84.72l5.72.09a10.663,10.663,0,0,0,2.09-.07,10.109,10.109,0,0,0-2.08-.25l-5.7-.36-18.82-.95a87.842,87.842,0,0,1-18.51-2.83C234.44,443.1,231.79,441.7,231.72,441.84Z" fill="#263238"/>
      <path id="Path_147" data-name="Path 147" d="M230.19,442.86a39.876,39.876,0,0,0,3.79-1.41,17.21,17.21,0,0,1,9.41-.89c3.66.83,6.11,3.5,7.69,5.34a29.377,29.377,0,0,0,2.63,3.09,15.44,15.44,0,0,0-2.17-3.45,19.45,19.45,0,0,0-3-3.27,11.7,11.7,0,0,0-4.93-2.51,16.19,16.19,0,0,0-9.79,1.15,12.879,12.879,0,0,0-3.63,1.95Z" fill="#263238"/>
      <path id="Path_148" data-name="Path 148" d="M186.63,399.94S138,427.1,136.27,428.24c-2.64,1.72-.4,10.93,4,9.67,2.11-.59,41.87-8.7,46.18-10s16.24-9.75,16.24-9.75Z" fill="#455a64"/>
      <path id="Path_149" data-name="Path 149" d="M171.14,423c.21,0-.43-2.77-2.76-5.2s-5-3.22-5-3,2.3,1.29,4.46,3.58S170.91,423.13,171.14,423Z" fill="#263238"/>
      <path id="Path_150" data-name="Path 150" d="M175.58,419.56c.2-.06-.53-2.46-2.51-4.77s-4.21-3.43-4.31-3.24,1.82,1.57,3.68,3.78S175.36,419.66,175.58,419.56Z" fill="#263238"/>
      <path id="Path_151" data-name="Path 151" d="M180,417.17c.22,0,.17-2.66-1.67-5.26s-4.31-3.57-4.37-3.36,2,1.42,3.7,3.84S179.71,417.21,180,417.17Z" fill="#263238"/>
      <path id="Path_152" data-name="Path 152" d="M177.6,411.2c.13-.05-.42-1.35-.8-3.56a19.658,19.658,0,0,1-.28-3.88,18.564,18.564,0,0,1,.21-2.29,2.14,2.14,0,0,1,.32-1,.49.49,0,0,1,.65-.1c.51.25.73,1.17.93,1.9a11.132,11.132,0,0,1,.3,2.25,16.449,16.449,0,0,1-.39,3.86c-.48,2.18-1,3.49-.89,3.54a9.6,9.6,0,0,0,1.45-3.4,14.459,14.459,0,0,0,.59-4,10.749,10.749,0,0,0-.28-2.41,8.821,8.821,0,0,0-.37-1.25,2.16,2.16,0,0,0-1-1.2,1.33,1.33,0,0,0-1.67.32,2.91,2.91,0,0,0-.48,1.36,18.16,18.16,0,0,0-.17,2.39,17.869,17.869,0,0,0,.46,4,8.74,8.74,0,0,0,1.42,3.47Z" fill="#263238"/>
      <path id="Path_153" data-name="Path 153" d="M177.54,410.7c.06.12,1.18-.36,3.09-.68a16.372,16.372,0,0,1,3.36-.22,7.5,7.5,0,0,1,1.9.25,1.27,1.27,0,0,1,1,1.16,1.65,1.65,0,0,1-.89,1.42,3.81,3.81,0,0,1-1.76.46,8.7,8.7,0,0,1-3.25-.56,21.529,21.529,0,0,0-3-1.1,8.81,8.81,0,0,0,2.76,1.65,8.52,8.52,0,0,0,3.48.77,4.45,4.45,0,0,0,2.15-.52,2.45,2.45,0,0,0,1.31-2.12,2.09,2.09,0,0,0-1.62-1.93A7.74,7.74,0,0,0,184,409a14.158,14.158,0,0,0-3.49.41A6.86,6.86,0,0,0,177.54,410.7Z" fill="#263238"/>
      <path id="Path_154" data-name="Path 154" d="M146.36,436.63c0,.08.81-.42,1.26-1.72a6.86,6.86,0,0,0-.52-5.11,18.3,18.3,0,0,0-1.39-2.43,8.849,8.849,0,0,0-1.46-1.8,2.84,2.84,0,0,0-1.44-.73c-.39,0-.59,0-.59.09a3.764,3.764,0,0,1,1.62,1.06,10,10,0,0,1,1.22,1.79,23.775,23.775,0,0,1,1.29,2.37,7.21,7.21,0,0,1,.71,4.6C146.8,435.94,146.25,436.54,146.36,436.63Z" fill="#263238"/>
      <path id="Path_155" data-name="Path 155" d="M163.92,425.33c.21,0,.31-2.32-1.33-4.56s-3.89-2.91-3.92-2.7,1.81,1.13,3.25,3.18S163.67,425.36,163.92,425.33Z" fill="#263238"/>
      <path id="Path_156" data-name="Path 156" d="M197.83,419.43a17.155,17.155,0,0,0-2.14,1.26,60.668,60.668,0,0,1-6,3.11,77.194,77.194,0,0,1-9.39,3.41c-3.61,1.06-7.64,2-11.9,2.94-8.53,1.82-16.26,3.49-21.84,4.75L140,436.43a14,14,0,0,0-2.4.67,15.784,15.784,0,0,0,2.46-.36l6.66-1.27c5.61-1.11,13.34-2.69,21.88-4.52,4.27-.91,8.32-1.9,12-3a67.07,67.07,0,0,0,9.41-3.61,46.238,46.238,0,0,0,5.91-3.36,12.873,12.873,0,0,0,1.91-1.55Z" fill="#263238"/>
      <path id="Path_157" data-name="Path 157" d="M199.51,420.17a13,13,0,0,0-3.86-1.32,16.25,16.25,0,0,0-9.85.51,11.71,11.71,0,0,0-4.44,3.29,20.27,20.27,0,0,0-2.45,3.74,15.23,15.23,0,0,0-1.56,3.77,27.937,27.937,0,0,0,2.07-3.49c1.26-2.08,3.23-5.12,6.7-6.55a17.2,17.2,0,0,1,9.42-.7C198,419.85,199.48,420.3,199.51,420.17Z" fill="#263238"/>
      <path id="Path_158" data-name="Path 158" d="M290.32,335.2s13.59,6,12.55,21.6c-2,29.95-64.93,58.7-64.93,58.7L161,356.39l-4.92-2.4S267.88,320.73,290.32,335.2Z" fill="#263238"/>
      <path id="Path_159" data-name="Path 159" d="M199.79,387.15a15.3,15.3,0,0,0,2.2-1.27c1.39-.87,3.37-2.16,5.81-3.78,4.87-3.25,11.51-7.87,18.67-13.19s13.51-10.36,18-14.09c2.25-1.87,4.06-3.4,5.29-4.48a14.669,14.669,0,0,0,1.85-1.74,16.811,16.811,0,0,0-2.06,1.49l-5.45,4.27c-4.6,3.61-11,8.56-18.14,13.88s-13.73,10-18.51,13.38l-5.66,4A15.421,15.421,0,0,0,199.79,387.15Z" fill="#455a64"/>
      <path id="Path_160" data-name="Path 160" d="M266.55,345.69c0-.19-3.53-.8-7.82.16s-7.29,3-7.17,3.15,3.19-1.45,7.34-2.34S266.54,346,266.55,345.69Z" fill="#455a64"/>
      <path id="Path_161" data-name="Path 161" d="M259.93,340.49c-.06-.2-2.72.75-5,3.26S251.8,349,252,349a44.661,44.661,0,0,1,3.49-4.69C257.7,341.97,260.05,340.71,259.93,340.49Z" fill="#455a64"/>
      <path id="Path_162" data-name="Path 162" d="M287.43,437.7c.05-.09-.94-.35-2.12.49a7.53,7.53,0,0,0-2.66,4.52,9.15,9.15,0,0,0,.37,5.21c.48,1.27,1.07,1.89,1.15,1.83a15.232,15.232,0,0,0-.6-2,10.6,10.6,0,0,1-.12-4.86,8.14,8.14,0,0,1,2.22-4.23C286.59,437.81,287.44,437.84,287.43,437.7Z" fill="#263238"/>
      <path id="Path_163" data-name="Path 163" d="M245.12,420.58s-108.73-82.77-113.28-84.65-15.32-10.07-26.82-7.75S82.7,339.9,76.61,354.33c-3.48,8.24-5.86,22.55-7.26,33.31a50,50,0,0,0,9.19,36.41c3.53,4.73,8,8.95,13.5,11.09,1.16.45,2.37.86,3.61,1.22,21.23,6.19,44-1.93,57.45-19.51L156,413s72.64,32.63,73.83,32.32Z" fill="#263238"/>
      <path id="Path_164" data-name="Path 164" d="M105.56,390.1s.2.12.6.32l1.82.87,7,3.29,26.14,12c11.11,5.06,24.42,11.07,39.35,17.73s31.5,14,49.22,21.38l.32.13.18-.3,10.1-16.38,5.15-8.35.2-.32-.31-.22L162.3,359l-25-18.3-6.78-4.93-1.77-1.26c-.4-.28-.62-.41-.62-.41s.18.17.57.47l1.73,1.33,6.69,5c5.87,4.37,14.32,10.69,24.8,18.51l82.91,61.49-.1-.54-5.15,8.35-10.1,16.39.51-.17c-17.71-7.4-34.28-14.68-49.23-21.28l-39.43-17.57-26.24-11.77L108,391.15l-1.84-.8A5.4,5.4,0,0,0,105.56,390.1Z" fill="#455a64"/>
      <path id="Path_165" data-name="Path 165" d="M243.7,257.24c-3.6-6.24-11.31-10.12-18.31-8.43-3.22.78-6.4,3-7,6.25-.76,4.06,2.56,7.59,4.27,11.34a15.74,15.74,0,0,1-4.23,18.17c-4.43,3.62-6.46,3.68-10.34,1.17-.14-1.25-.32-2.47-.51-3.66-1-5.82-6.85-12.26-10.84-16.61-3.72-4.05-11.58-6-15.82-9.51-9.46-7.81-17.38-22.83-20-34.81H150.07l-22,5.52s-5.45,18.73,0,36.6S139.57,287,139.57,287c2.8,9.24,5.68,18.66,11.3,26.51s14.55,14,24.2,13.68c9.85-.32,18.21-6.89,25.19-13.86A27.58,27.58,0,0,0,208,297.46c7-.58,14.06-1.93,20.42-4.95,6.51-3.09,12.29-8.05,15.46-14.52S247.3,263.48,243.7,257.24Z" fill="#455a64"/>
      <path id="Path_166" data-name="Path 166" d="M186.5,291.47a6.28,6.28,0,0,0,11.33-.18c.74-1.62.84-3.63,2.16-4.83.91-.84,2.2-1.08,3.26-1.72a6.46,6.46,0,0,0,2.63-6.3,15,15,0,0,0-2.9-6.52,45.7,45.7,0,0,0-5.14-6.14c-.9-.9-2-1.82-3.28-1.65-1.55.22-2.36,1.93-2.86,3.42a127.137,127.137,0,0,0-5.32,22.19" fill="#263238"/>
      <path id="Path_167" data-name="Path 167" d="M161.29,223.91c0-1.14-3.72-24.58-6.29-27.72s-13.43-9.72-13.43-9.72-12.86,0-15.72-1.71-10.57-6.57-10.57-6.57-6.57,4.28-8.57,9.43.28,11.14,0,11.71,14.57,10.58,16.57,13.72,3.14,16,4.29,17.15S161.29,223.91,161.29,223.91Z" fill="#455a64"/>
      <path id="Path_168" data-name="Path 168" d="M145.87,195.45s-.65.47-1.76,1.41a19.94,19.94,0,0,0-4,4.61,18.91,18.91,0,0,0-1.85,3.77,15,15,0,0,0-1,4.69,7.6,7.6,0,0,0,1.46,4.92,9.67,9.67,0,0,0,4.64,3.07,32.509,32.509,0,0,0,5.6,1.28c1.81.32,3.66.43,5.1-.42a3.26,3.26,0,0,0,1.51-1.73,5.79,5.79,0,0,0,.25-2.26c-.12-1.5-.32-2.93-.45-4.22-.26-2.53-.48-4.61-.64-6.13-.07-.67-.11-1.23-.15-1.67a2.32,2.32,0,0,1,0-.58,2.21,2.21,0,0,1,.12.57c.07.44.15,1,.25,1.66.2,1.51.47,3.58.81,6.11.15,1.3.37,2.69.51,4.24a6,6,0,0,1-.25,2.43,3.77,3.77,0,0,1-1.7,2,5.67,5.67,0,0,1-2.63.73,13.08,13.08,0,0,1-2.79-.22,32.849,32.849,0,0,1-5.7-1.3,10.14,10.14,0,0,1-4.87-3.25,8.16,8.16,0,0,1-1.53-5.24,14.77,14.77,0,0,1,1-4.83,19.47,19.47,0,0,1,6.2-8.39,14,14,0,0,1,1.38-1,2.2,2.2,0,0,1,.49-.25Z" fill="#263238"/>
      <path id="Path_169" data-name="Path 169" d="M128.77,192.43c-.05,0,.2-.62,1-1.14a3.61,3.61,0,0,1,5.58,3,2,2,0,0,1-.39,1.48,13.9,13.9,0,0,0,0-1.45,3.41,3.41,0,0,0-5-2.73,12.743,12.743,0,0,0-1.19.84Z" fill="#263238"/>
      <path id="Path_170" data-name="Path 170" d="M107.65,187.86c.09,0,.46,1,1.34,2.47a19.2,19.2,0,0,0,10.18,8.33c1.63.56,2.7.73,2.69.82a2.18,2.18,0,0,1-.77,0,12.9,12.9,0,0,1-2-.44,17.4,17.4,0,0,1-10.39-8.5,11.811,11.811,0,0,1-.83-1.91,2.16,2.16,0,0,1-.22-.77Z" fill="#263238"/>
      <path id="Path_171" data-name="Path 171" d="M107.45,188.3a23.54,23.54,0,0,1-2.08-3.28c-.27-.5-.44-1-.76-1.52a2,2,0,0,0-1.44-.93,1.73,1.73,0,0,0-1.54.9,3,3,0,0,0-.29,1.72,7.63,7.63,0,0,0,2.81,5.25,9.23,9.23,0,0,0,6,2,42.439,42.439,0,0,0-2.7-4.14Z" fill="#ff725e"/>
      <path id="Path_172" data-name="Path 172" d="M155.93,213.32a5.94,5.94,0,0,0-4.61-1.9,11.7,11.7,0,0,0-4.92,1.36,9,9,0,0,0-2.85,2,4,4,0,0,0-1,3.24s6.42,1.93,8.57,1.66,3.93-.09,4.81-2.85A9.42,9.42,0,0,0,155.93,213.32Z" fill="#263238"/>
      <path id="Path_173" data-name="Path 173" d="M236.15,250.16c-3.05.61-4.15,3.84-4.42,6.48a13.1,13.1,0,0,0,.58,5.77,8.47,8.47,0,0,0,3.57,4.47,8.82,8.82,0,0,0,5.91.89,5.43,5.43,0,0,0,3.45-1.79c1.24-1.6.83-3.56-.26-5.9-2-4.26-4.66-7.72-8.83-9.92" fill="#263238"/>
      <path id="Path_174" data-name="Path 174" d="M174.89,326.58c1.42,2.15,2.89,4.45,3,7s-1.75,5.42-4.33,5.39c-2.17,0-3.79-1.93-5.1-3.67-3.86-5.13-8.42-11.51-12.28-16.64a94.079,94.079,0,0,0,18-11.62c2.69,7.44.65,12.17,1,20.06" fill="#455a64"/>
      <path id="Path_175" data-name="Path 175" d="M205.49,310a4.35,4.35,0,0,1,2.48-2.66,20.2,20.2,0,0,0,3-1.42,2.77,2.77,0,0,0,1.32-2.83,3,3,0,0,0-2.23-1.83,6.45,6.45,0,0,0-7.92,4.57c-.53,2,.13,4.41,2,5.29" fill="#ffbe9d"/>
      <path id="Path_176" data-name="Path 176" d="M182.83,316l14.95,1.65,3.24-4,2.07,1.82s-4.32,6.9-6,6.84-14.31-2.51-16-2.92S179.13,315.41,182.83,316Z" fill="#ffbe9d"/>
      <path id="Path_177" data-name="Path 177" d="M179.7,320.77,194.17,322l2.84-3.49,1.82,1.6S193.6,327,192.14,327s-12.48-2.87-13.94-3.22S176.45,320.29,179.7,320.77Z" fill="#ffbe9d"/>
      <path id="Path_178" data-name="Path 178" d="M187.52,311.35l13.92.58,3.39-4.86,1.29.65s-2.77,10.78-4.43,10.72-14.22-3.27-15.89-3.67S183.81,310.81,187.52,311.35Z" fill="#ffbe9d"/>
      <path id="Path_179" data-name="Path 179" d="M205.43,310.22a12.87,12.87,0,0,1-1,3.6,35.874,35.874,0,0,1-1.64,3.74,5.923,5.923,0,0,1-.31.52,1.2,1.2,0,0,1-.28.3.82.82,0,0,1-.35.11,4,4,0,0,1-1.3,0l-2.54-.42a80.266,80.266,0,0,1-8.81-2.05c-1.11-.33-2-.63-2.61-.85a3.519,3.519,0,0,1-.93-.41c0-.07,1.4.34,3.63.91s5.34,1.27,8.81,1.89l2.53.43a3.61,3.61,0,0,0,1.13,0c.07,0,.22,0,.21-.06l.11-.14a5.353,5.353,0,0,0,.29-.47,40.211,40.211,0,0,0,1.71-3.65c.46-1.06.8-1.93,1-2.53a5.281,5.281,0,0,1,.35-.92Z" fill="#eb996e"/>
      <path id="Path_180" data-name="Path 180" d="M201.23,318.44a2.6,2.6,0,0,1-.4.76,13.349,13.349,0,0,1-1.44,1.88,6.44,6.44,0,0,1-1.29,1.07,3.75,3.75,0,0,1-1.88.52,7.9,7.9,0,0,1-2.08-.32,17.223,17.223,0,0,0-2.14-.44c-3-.53-5.65-1.16-7.57-1.62a21.151,21.151,0,0,1-3.1-.83,17.739,17.739,0,0,1,3.17.47c1.95.37,4.62.94,7.59,1.46,1.51.16,2.91.81,4.13.8a4.07,4.07,0,0,0,2.91-1.37C200.5,319.44,201.15,318.38,201.23,318.44Z" fill="#eb996e"/>
      <path id="Path_181" data-name="Path 181" d="M60.86,222.15s-24,15.43-21.12,40.39,29,42.41,35.09,47.76,43,23.37,72.57,12.47c30.82-11.35,43-33.71,45.88-42.59s4.55-25.86-.09-30.85-19.25-12.83-22.82-10,0,14.62-19.25,16.76-71.3-22.82-72.37-23.18S60.86,222.15,60.86,222.15Z" fill="#ff725e"/>
      <g id="Group_2" data-name="Group 2" opacity="0.3">
        <path id="Path_182" data-name="Path 182" d="M137.07,256.35l-8.6-4.4-2.81-25.07c-6.51-4.38-14.27-4.18-20.84.11-2.85,1.85-5.1,4.48-7.6,6.78s-5.49,4.36-8.87,4.65c-1.48.13-3-.08-4.45.13A4.15,4.15,0,0,0,80.43,241c-.46,1.41-.09,2.86,2.21,3.72l9.46,4.46s-2.72,4.89.85,13.34,11.73,5.76,11.73,5.76.13,16.53,10.94,16.64c5.51.06,9.07-3.84,13.45-16.25a19.73,19.73,0,0,1,13.43-12.42C144,255.69,136,257,137.07,256.35Z"/>
      </g>
      <path id="Path_183" data-name="Path 183" d="M182.07,241.74l-.24-.09-.69-.28c-.61-.25-1.51-.61-2.7-1a22.751,22.751,0,0,0-4.39-1.07,7.88,7.88,0,0,0-2.77.09,3,3,0,0,0-1.29.68,2.67,2.67,0,0,0-.72,1.32,23,23,0,0,1-2.75,6.81,21.669,21.669,0,0,1-2.51,3.26,10.24,10.24,0,0,1-1.59,1.48,13.616,13.616,0,0,1-1.92,1.13,30.4,30.4,0,0,1-9,2.56,29.9,29.9,0,0,1-4.94.26l-2.5-.12a17.44,17.44,0,0,0-2.5.12,11,11,0,0,0-5.84,2.23h0a18,18,0,0,0-5.33,6.75,24.511,24.511,0,0,0-2.13,7.73A36.47,36.47,0,0,0,129.6,287c1,3.7,2.1,6.6,2.82,8.6.36,1,.64,1.73.84,2.29l.21.6.06.21a.932.932,0,0,1-.11-.19c-.06-.13-.15-.35-.25-.58-.23-.55-.53-1.31-.92-2.27a85.909,85.909,0,0,1-3-8.57,36.41,36.41,0,0,1-1.45-13.53,25,25,0,0,1,2.14-7.89,18.58,18.58,0,0,1,5.46-6.95h0a11.43,11.43,0,0,1,6.14-2.39,18.5,18.5,0,0,1,2.57-.12l2.51.13a31.87,31.87,0,0,0,13.67-2.74,9.85,9.85,0,0,0,3.38-2.49,20.86,20.86,0,0,0,2.48-3.18,22.4,22.4,0,0,0,2.76-6.67,2.94,2.94,0,0,1,.85-1.49,3.36,3.36,0,0,1,1.44-.74,8,8,0,0,1,2.88,0,22,22,0,0,1,4.43,1.16c1.18.42,2.07.82,2.67,1.09l.67.33C182,241.68,182.08,241.73,182.07,241.74Z" fill="#263238"/>
      <path id="Path_184" data-name="Path 184" d="M122.71,306.24a6.18,6.18,0,0,1-.54-1.26,32.378,32.378,0,0,1-1.14-3.53,48.449,48.449,0,0,1-1.16-5.4,49.69,49.69,0,0,1-.22-13.49,47.231,47.231,0,0,1,1-5.43c.37-1.53.73-2.75,1-3.57a7.271,7.271,0,0,1,.5-1.27,6.07,6.07,0,0,1-.3,1.33c-.24.84-.54,2.06-.86,3.59s-.63,3.36-.86,5.4a53.42,53.42,0,0,0,.22,13.37c.3,2,.65,3.86,1,5.37a35.819,35.819,0,0,0,1,3.57,7.71,7.71,0,0,1,.36,1.32Z" fill="#263238"/>
      <path id="Path_185" data-name="Path 185" d="M96.52,250.24a9.5,9.5,0,0,1-2.49-.59,39.429,39.429,0,0,1-5.72-2.33A37.571,37.571,0,0,1,83,244.11a9.4,9.4,0,0,1-2-1.65,16.511,16.511,0,0,1,2.16,1.35,57.1,57.1,0,0,0,5.31,3,55.822,55.822,0,0,0,5.6,2.45,18.221,18.221,0,0,1,2.45.98Z" fill="#263238"/>
      <path id="Path_186" data-name="Path 186" d="M46.58,240.42a4.82,4.82,0,0,1,.8-.87,17.821,17.821,0,0,1,2.54-2,20.14,20.14,0,0,1,20.44-1.06,17.649,17.649,0,0,1,2.74,1.72,4.53,4.53,0,0,1,.9.79c-.06.09-1.35-1-3.78-2.18a20.78,20.78,0,0,0-20.08,1C47.82,239.27,46.65,240.5,46.58,240.42Z" fill="#263238"/>
      <path id="Path_187" data-name="Path 187" d="M189.91,287.62a2.228,2.228,0,0,1-.19.35c-.15.24-.35.56-.6,1-.54.85-1.28,2.16-2.41,3.71a81.613,81.613,0,0,1-10.48,12.46,78.63,78.63,0,0,1-19.58,14.07,71.251,71.251,0,0,1-13.36,5,64.88,64.88,0,0,1-15.19,2c-2.63.13-5.22-.06-7.78-.15-2.55-.27-5.07-.44-7.51-.89a97.486,97.486,0,0,1-13.92-3.19,93.521,93.521,0,0,1-22-10,69.621,69.621,0,0,1-12.71-10.14,20.254,20.254,0,0,1-1.74-1.88l-1.21-1.43-.74-.88a1.9,1.9,0,0,1-.24-.31s.1.09.28.28l.78.85,1.25,1.38a22.25,22.25,0,0,0,1.76,1.85,72.4,72.4,0,0,0,12.77,10A94.659,94.659,0,0,0,99,321.59a99.764,99.764,0,0,0,13.86,3.15c2.42.44,4.93.6,7.46.87,2.55.09,5.13.28,7.74.15a64.379,64.379,0,0,0,15.07-2,71.561,71.561,0,0,0,13.28-5A78.8,78.8,0,0,0,176,304.85a84.191,84.191,0,0,0,10.57-12.3c1.16-1.54,1.92-2.82,2.49-3.66l.64-.95A2,2,0,0,1,189.91,287.62Z" fill="#263238"/>
      <path id="Path_188" data-name="Path 188" d="M84.31,315.93c-7.46-34,6.13-67.89,6.13-67.89l-5-2.62-.33.71a94.69,94.69,0,0,0-14.54,60.94,54.658,54.658,0,0,0,13.74,8.86Z" fill="#fafafa"/>
      <path id="Path_189" data-name="Path 189" d="M117.53,243.39a11.27,11.27,0,0,0-3.86,8.37c-.18,3.22-.22,6.81-2.45,9.14-2.64,2.75-7.52,2.31-10.33-.27s-3.81-6.66-3.62-10.47c.4-7.55,5.7-16.31,12.57-19.48s12-6,24.15-8.53L129.92,242S119.28,242,117.53,243.39Z" fill="#455a64"/>
      <path id="Path_190" data-name="Path 190" d="M127.49,237.25a8.119,8.119,0,0,1-.21-1.52c-.09-1.08-.2-2.46-.34-4.08l.39.06a9.81,9.81,0,0,1-1.81,3l-.58.65.17-.86a35.879,35.879,0,0,0,.63-6.24,36.92,36.92,0,0,0-1.4-10.7c-.74-2.67-1.47-4.24-1.38-4.28a5.44,5.44,0,0,1,.56,1.08,27.527,27.527,0,0,1,1.18,3.1,34,34,0,0,1,1.56,10.81,33.07,33.07,0,0,1-.69,6.33l-.41-.21a9.4,9.4,0,0,0,1.79-2.84l.35-.86v.92c.07,1.63.12,3,.17,4.1A8.339,8.339,0,0,1,127.49,237.25Z" fill="#263238"/>
      <path id="Path_191" data-name="Path 191" d="M126.66,223.94a4.491,4.491,0,0,1-.63.21c-.42.13-1,.31-1.82.57a56.312,56.312,0,0,0-6.48,2.57c-1.34.62-2.78,1.35-4.31,2.16a55,55,0,0,0-4.79,2.76,27.22,27.22,0,0,0-8.69,8.95,19.43,19.43,0,0,0-2.41,12.09,13.17,13.17,0,0,0,1.79,5.1,9.26,9.26,0,0,0,3.51,3.1,9,9,0,0,0,3.71,1.12,7.09,7.09,0,0,0,2.89-.54,4.6,4.6,0,0,0,1.59-1,3.711,3.711,0,0,0,.4-.51,1.11,1.11,0,0,1-.32.58,4.38,4.38,0,0,1-1.59,1.08,7.26,7.26,0,0,1-3,.64,9.19,9.19,0,0,1-3.88-1.08,9.66,9.66,0,0,1-3.7-3.19,13.61,13.61,0,0,1-1.91-5.27,19.75,19.75,0,0,1,2.44-12.42,27.33,27.33,0,0,1,8.88-9.09,53.148,53.148,0,0,1,4.85-2.74c1.54-.8,3-1.51,4.35-2.11a49.858,49.858,0,0,1,6.58-2.44c.8-.22,1.42-.38,1.85-.47a2.91,2.91,0,0,1,.69-.07Z" fill="#263238"/>
      <path id="Path_192" data-name="Path 192" d="M99.8,259.33a2.459,2.459,0,0,1-.53-1.2,8.68,8.68,0,0,1-.13-3.14,7.06,7.06,0,0,1,1.62-4.08,27,27,0,0,0-1.1,4.15,16.17,16.17,0,0,0,.14,4.27Z" fill="#263238"/>
      <path id="Path_193" data-name="Path 193" d="M104.54,262.54a5.86,5.86,0,0,1-1.05-3.61,7.27,7.27,0,0,1,.8-3.67c.17,0-.26,1.67-.28,3.67S104.71,262.48,104.54,262.54Z" fill="#263238"/>
      <path id="Path_194" data-name="Path 194" d="M142.83,225.58c1,2.4,2,5.08,1.06,7.52-1.19,3.22-5,4.43-8.32,5.36-6.63,1.89-13.3,4.48-18.23,9.3s-7.75,12.31-5.43,18.8a9.61,9.61,0,0,0,5.54,6c3,1,6.51-.15,8.85-2.34s3.06-4.83,4-7.89a10.93,10.93,0,0,1,3-4.91c1.53-1.22,3.68-1.11,5.64-1.1A35.76,35.76,0,0,0,156.13,252l-3.58-.53a10.1,10.1,0,0,0,4.3-4l-2.28,1.89A32.44,32.44,0,0,0,156.06,230" fill="#455a64"/>
      <path id="Path_195" data-name="Path 195" d="M155.71,229.92a29.36,29.36,0,0,1,.61,4.83,38,38,0,0,1-1.69,13.35l-.25-.2,2.65-1.41.55-.29-.3.55a14.19,14.19,0,0,1-5.25,5.31l-.08-.38,3.27.3.59.05-.49.34a22.92,22.92,0,0,1-8.55,3.53,35.423,35.423,0,0,1-4.91.61c-1.67.12-3.4,0-5.09.1a7.31,7.31,0,0,0-2.46.52,4.68,4.68,0,0,0-1.95,1.55,17.29,17.29,0,0,0-2.2,4.83,18,18,0,0,1-2.3,5.1,11.19,11.19,0,0,1-4.26,3.84,8.28,8.28,0,0,1-7.45-.18,9.6,9.6,0,0,1-4.52-5.71A19.26,19.26,0,0,1,113.1,253a22.12,22.12,0,0,1,8.42-9.09,40.539,40.539,0,0,1,5.11-2.42c1.65-.74,3.26-1.43,4.83-2,3.13-1.15,6.19-1.43,8.53-2.59a6.48,6.48,0,0,0,2.69-2.31,7.76,7.76,0,0,0,1-2.83,10.7,10.7,0,0,0-.12-4.21c-.22-.94-.45-1.4-.42-1.42a6.11,6.11,0,0,1,.53,1.4,10.59,10.59,0,0,1,.21,4.26,7.93,7.93,0,0,1-1,2.94,6.69,6.69,0,0,1-2.77,2.43c-2.41,1.22-5.45,1.52-8.54,2.68-1.55.54-3.13,1.24-4.78,2a42.445,42.445,0,0,0-5.06,2.43,21.75,21.75,0,0,0-8.21,8.94,19.61,19.61,0,0,0-1.89,6.33,12,12,0,0,0-.13,1.7,14.286,14.286,0,0,0,0,1.73,12.44,12.44,0,0,0,.58,3.41,9.09,9.09,0,0,0,4.28,5.41,7.76,7.76,0,0,0,7,.17,10.75,10.75,0,0,0,4.06-3.66,18.13,18.13,0,0,0,2.25-5,17.3,17.3,0,0,1,2.28-5,5.18,5.18,0,0,1,2.15-1.7,7.831,7.831,0,0,1,2.63-.55c1.76-.08,3.44,0,5.1-.09a34.418,34.418,0,0,0,4.84-.59,22.789,22.789,0,0,0,8.4-3.42l.1.39-3.27-.32-.65-.06.57-.33a13.78,13.78,0,0,0,5.13-5.13l.24.25-2.66,1.38-.37.2.13-.4a38.83,38.83,0,0,0,1.83-13.24,28.725,28.725,0,0,0-.28-3.6l-.12-.92a1.54,1.54,0,0,1-.01-.25Z" fill="#263238"/>
      <path id="Path_196" data-name="Path 196" d="M113.66,270.06a5,5,0,0,1-.11-6.35,14.52,14.52,0,0,0-.55,3.19,15.41,15.41,0,0,0,.66,3.16Z" fill="#263238"/>
      <path id="Path_197" data-name="Path 197" d="M117.89,272.71a2.609,2.609,0,0,1-.74-1,7.45,7.45,0,0,1-.81-2.83,7.19,7.19,0,0,1,.78-4.06c.18,0-.39,1.83-.26,4A17.3,17.3,0,0,0,117.89,272.71Z" fill="#263238"/>
      <path id="Path_198" data-name="Path 198" d="M124.43,271.8a6.87,6.87,0,0,1-2.33-6.31c.15,0,.17,1.54.83,3.28S124.55,271.7,124.43,271.8Z" fill="#263238"/>
    </g>
    <g id="freepik--Box--inject-329">
      <rect id="Rectangle_8" data-name="Rectangle 8" width="105.42" height="95.65" transform="translate(335.42 342.6)" fill="#ff725e"/>
      <g id="Group_3" data-name="Group 3" opacity="0.3">
        <rect id="Rectangle_9" data-name="Rectangle 9" width="105.42" height="95.65" transform="translate(335.42 342.6)"/>
      </g>
      <rect id="Rectangle_10" data-name="Rectangle 10" width="105.42" height="95.65" transform="translate(292.02 342.6)" fill="#ff725e"/>
      <path id="Path_199" data-name="Path 199" d="M292.02,342.6l-21.91,34.84H371.38l26.06-34.84Z" fill="#ff725e"/>
      <g id="Group_4" data-name="Group 4" opacity="0.3">
        <path id="Path_200" data-name="Path 200" d="M292.02,342.6l-21.91,34.84H371.38l26.06-34.84Z"/>
      </g>
      <path id="Path_201" data-name="Path 201" d="M397.44,342.6s0,.06-.1.18l-.35.5-1.4,1.92c-1.25,1.7-3,4.14-5.31,7.21-4.59,6.19-11.08,14.91-18.71,25.18l-.07.09H342.51l-51.2-.08-15.51-.08-4.22-.05h0l4.22-.05,15.51-.08,51.2-.08h28.87l-.19.09,18.86-25.06,5.42-7.13,1.45-1.88.38-.48Z" fill="#263238"/>
      <path id="Path_202" data-name="Path 202" d="M398.42,342.6l27.83,34.84h43.7l-29.1-34.84Z" fill="#ff725e"/>
      <rect id="Rectangle_11" data-name="Rectangle 11" width="78.75" height="28.34" transform="translate(302.363 399.565) rotate(-11.13)" fill="#fafafa"/>
      <path id="Path_203" data-name="Path 203" d="M385.12,412.14l-.11-.49c-.07-.35-.17-.82-.3-1.44l-1.13-5.5c-1-4.78-2.36-11.71-4.1-20.35l.21.14-77.25,15.29h0l.2-.3c1.91,9.69,3.75,19.08,5.46,27.81l-.29-.2,55.31-10.76,16.14-3.11,4.34-.82,1.13-.21.39-.06a1.35,1.35,0,0,1-.35.09l-1.1.23-4.27.87-16.06,3.24-55.43,11-.25.05-.05-.24-5.48-27.81-.05-.26.26-.05h0l77.28-15.12h.17v.18c1.67,8.7,3,15.67,3.94,20.49.45,2.37.79,4.21,1,5.47.11.61.2,1.08.26,1.41A4.534,4.534,0,0,1,385.12,412.14Z" fill="#263238"/>
      <path id="Path_204" data-name="Path 204" d="M321,411.69l-3.58.7-.38,1.8-1.37.27,1.81-7.79,1.31-.26,4.64,6.52-1.39.27Zm-.65-1-2-2.86-.72,3.39Z" transform="translate(-3 1)" fill="#263238"/>
      <path id="Path_205" data-name="Path 205" d="M322.91,405.59,326,405c2.33-.46,4.19.66,4.62,2.81s-.88,3.89-3.21,4.35l-3.12.61Zm4.25,5.43a2.51,2.51,0,1,0-1-4.91l-1.73.35,1,4.9Z" transform="translate(-3 1)" fill="#263238"/>
      <path id="Path_206" data-name="Path 206" d="M331.55,407.61a3.93,3.93,0,1,1,4.58,2.92,3.73,3.73,0,0,1-4.58-2.92Zm6.37-1.25a2.56,2.56,0,1,0-2,3,2.48,2.48,0,0,0,2-3Z" transform="translate(-3 1)" fill="#263238"/>
      <path id="Path_208" data-name="Path 208" d="M348.76,401.67l-2.37.47-.22-1.13,6.07-1.19.22,1.12-2.37.47,1.19,6-1.33.27Z" transform="translate(-3 1)" fill="#263238"/>
      <path id="Path_207" data-name="Path 207" d="M346.46,403.6c.31,1.58-.66,2.78-2.55,3.15l-1.61.32.41,2.06-1.33.26L340,402.24l2.94-.58C344.79,401.29,346.15,402,346.46,403.6Zm-1.34.27c-.18-.9-.88-1.31-2.05-1.08l-1.55.31.56,2.84,1.55-.3C344.8,405.41,345.3,404.76,345.12,403.87Z" transform="translate(-3 1)" fill="#263238"/>
      <rect id="Rectangle_12" data-name="Rectangle 12" width="4.31" height="8.34" transform="translate(304.565 394.649) rotate(-17.13)" fill="#e0e0e0"/>
      <rect id="Rectangle_13" data-name="Rectangle 13" width="4.31" height="8.34" transform="translate(376.38 409.928) rotate(-17.13)" fill="#e0e0e0"/>
      <rect id="Rectangle_14" data-name="Rectangle 14" width="4.31" height="8.34" transform="translate(373.033 380.35) rotate(3.13)" fill="#e0e0e0"/>
      <rect id="Rectangle_15" data-name="Rectangle 15" width="4.31" height="8.34" transform="translate(311.3 421.997) rotate(3.13)" fill="#e0e0e0"/>
      <path id="Path_209" data-name="Path 209" d="M364.05,404.93l-.94-4.74-1.58,4.39-.59.11-3.12-3.4.93,4.68-1.27.25-1.41-7.15,1.09-.22,3.78,4.19,1.86-5.3,1.09-.21,1.42,7.15Z" transform="translate(-1)" fill="#263238"/>
      <path id="Path_210" data-name="Path 210" d="M372.4,402.13l.21,1.12-5.36,1.05-1.41-7.16,5.22-1,.22,1.11-3.89.77.36,1.86,3.46-.68.21,1.09L368,401l.39,2Z" transform="translate(-1)" fill="#263238"/>
    </g>
  </g>
</svg>
